<svg xmlns="http://www.w3.org/2000/svg" width="684" height="360" viewBox="0,0 237.5,125" fill="#fff">
	<rect width="237.5" height="125" fill="#003893"/>
	<path d="M45.64,84.39l-1.6-26.61-5.58,14.66,2.49-15.48-9.19,12.71,6.42-14.31-12.16,9.9,9.9-12.16-14.31,6.41,12.71-9.18-15.49,2.49,14.66-5.58-26.6-1.6,26.6-1.6-14.66-5.58,15.49,2.49-12.71-9.19,14.31,6.42-9.9-12.16,12.16,9.9-6.42-14.31,9.19,12.71-2.49-15.48,5.58,14.65,1.6-26.6,1.6,26.6,5.58-14.65-2.49,15.48,9.18-12.71-6.42,14.31,12.17-9.9-9.9,12.16,14.31-6.42-12.71,9.19,15.48-2.49-14.66,5.58,26.61,1.6-26.61,1.6,14.66,5.58-15.48-2.49,12.71,9.18-14.31-6.41,9.9,12.16-12.17-9.9,6.42,14.31-9.18-12.71,2.49,15.48-5.58-14.66-1.6,26.61z"/>
	<path d="M 0,123 l 237.5,-72 v -49 l -237.5,117 v 4 z"/>
	<path d="M 0,121 l 237.5,-94.5 v -24.5 l -237.5,117 v 2 z" fill="#dd7500"/>
</svg>