<?xml version="1.0" encoding="UTF-8" standalone="no"?>
<!-- Created with Inkscape (http://www.inkscape.org/) -->
<svg
   xmlns:svg="http://www.w3.org/2000/svg"
   xmlns="http://www.w3.org/2000/svg"
   version="1.0"
   width="1440"
   height="720"
   id="svg2"
   xml:space="preserve"
   style="fill-rule:evenodd"><defs
     id="defs4">
  <style
   type="text/css"
   id="style6" />
 
  
  
  
  
  
 
   
   
   
   
   
   
   
   
   
   
   
   
   
   
   
   
   
   
   
   
   
   
   
   
   
   
   
   
   
   
   
   
   
   
   
   
   
   
   
   
   
   
   
   
   
   
   
   
  
    
    
    
    
    
    
    
    
    
   
    
    
    
    
    
    
    
    
    
   
    
    
    
    
    
    
    
    
    
    
    
    
    
    
    
    
    
    
    
   </defs><rect
     width="1440"
     height="720"
     x="0"
     y="0"
     id="rect2533"
     style="fill:#f7e017;fill-rule:nonzero" /><polygon
     points="0,125.001 3600,875 3600,1300 0,550 0,125.001 "
     transform="scale(0.4,0.4)"
     id="path2535"
     style="fill:#ffffff" /><polygon
     points="0,550 3600,1300 3600,1675 0,925 0,550 "
     transform="scale(0.4,0.4)"
     id="path3422"
     style="fill:#000000" /><rect
     width="12.95759"
     height="34.604187"
     x="712.87207"
     y="299.78506"
     id="rect694"
     style="fill:#cf1126;stroke:#000000;stroke-width:2.00051713" /><path
     d="M 738.80275,391.12311 C 738.65343,367.36785 739.49977,344.52346 741.13392,338.04339 C 742.7685,331.56267 745.19228,330.21585 748.20062,326.99769 C 741.07438,326.25908 733.20951,333.11692 729.59393,342.14805 C 727.29918,331.95866 723.00831,325.05307 719.23249,321.58493 C 715.4572,325.05307 711.00517,332.06448 708.97692,342.23783 C 705.25688,334.65699 698.72939,326.25198 691.00864,327.19615 C 693.75375,330.46581 696.25835,331.67746 697.92791,338.01358 C 699.59698,344.35018 700.43107,367.04077 699.8314,390.80843 M 738.80271,391.12315 L 738.80271,391.12315 L 738.80271,391.12315 z"
     id="path611"
     style="fill:#cf1126;stroke:#000000;stroke-width:2.00051713" /><path
     d="M 739.95905,450.56928 C 739.79649,422.06051 740.88337,397.72202 742.44097,389.98682 C 743.99946,382.25286 746.4861,380.80869 750.03978,377.46246 C 742.26941,376.5764 734.86529,378.9534 730.53141,392.20311 C 728.10667,379.88717 723.35036,373.8374 719.23289,369.67557 C 715.11639,373.83744 710.26077,380.10078 708.04968,392.30994 C 703.28905,379.16702 696.64013,376.22294 688.2214,377.35615 C 691.72166,381.02182 694.47293,382.39037 696.18597,389.97313 C 697.89946,397.55682 698.11591,421.66701 697.46186,450.1923 M 739.95885,450.5694 L 739.95885,450.5694 L 739.95885,450.5694 z"
     id="path610"
     style="fill:#cf1126;stroke:#000000;stroke-width:2.00051713" /><path
     d="M 747.83309,466.36136 C 747.56846,459.72609 748.47813,450.81546 749.98512,447.37237 C 751.49307,443.92784 753.59646,441.41287 755.71873,438.49384 C 746.61669,437.18058 737.36106,437.85067 732.44687,451.20721 C 729.26321,438.99761 724.48845,432.62696 719.31007,428.46509 C 714.13221,432.62696 709.63577,438.99757 706.45259,451.20721 C 701.5384,437.85067 692.23743,437.04118 682.85657,438.49384 C 684.9784,441.41287 687.16396,443.92784 688.75225,447.37237 C 690.34006,450.81546 691.33152,459.72613 691.06593,466.36136 M 747.83301,466.36136 L 747.83301,466.36136 L 747.83301,466.36136 z"
     id="path609"
     style="fill:#cf1126;stroke:#000000;stroke-width:2.00051713" /><polygon
     points="1786.28,581.594 1786.28,649.972 1810.4,649.972 1810.4,581.594 1786.28,581.594 "
     transform="matrix(0.4001034,0,0,0.4001034,-0.1842999,-0.1512451)"
     id="path689"
     style="fill:#cf1126;stroke:#000000;stroke-width:5" /><path
     d="M 781.5258,569.97615 C 783.91414,571.57292 793.44052,573.24628 810.70798,570.23938 C 840.85466,564.95613 840.60279,535.20308 887.55825,549.00569 C 885.43598,544.75875 878.00822,531.75479 859.70301,531.22833 C 861.56017,525.1214 862.88667,516.10066 859.43838,510.52062 C 855.90079,518.39446 850.42473,522.05492 846.4533,524.62851 C 845.23031,523.96646 838.13431,518.16528 837.36543,509.42474 C 836.29884,492.09822 827.84849,489.04027 826.95062,489.49911 C 821.52654,489.34599 788.86061,541.01282 718.91189,541.35251 C 649.99047,541.68376 615.49675,489.95802 611.60575,489.49911 C 610.70836,489.04023 602.25797,492.09818 601.19142,509.42474 C 600.4221,518.16528 593.24336,523.71127 592.03693,524.48439 C 588.08251,522.02091 582.65514,518.39446 579.11847,510.52062 C 575.6697,516.10066 576.99572,525.1214 578.85336,531.22833 C 560.54863,531.75475 553.12043,544.75875 550.99812,549.00569 C 597.95386,535.20308 598.04788,564.95609 628.19448,570.23938 C 645.46242,573.24628 654.4137,571.83615 656.80203,570.24786 M 781.52628,569.97615 L 781.52628,569.97615 L 781.52628,569.97615 z"
     id="path660"
     style="fill:#cf1126;fill-opacity:1;stroke:#000000;stroke-width:2.00051713" /><path
     d="M 635.84413,555.13231 C 619.48967,554.47782 587.58566,529.59123 592.11363,524.46959 C 593.55068,523.01789 600.57958,524.51212 612.74856,533.03148 C 630.80947,545.34742 646.3048,584.1803 718.75717,583.88263 C 792.59466,583.58539 807.74498,545.34746 825.80565,533.03148 C 837.97463,524.51212 845.56727,523.15349 846.42358,524.81832 C 850.77022,529.72731 818.83488,554.55436 802.48102,555.20837 M 635.84433,555.13227 L 635.84433,555.13227 L 635.84433,555.13227 z"
     id="path661"
     style="fill:#cf1126;fill-opacity:1;stroke:#000000;stroke-width:2.00051713" /><path
     d="M 613.45034,303.89176 C 548.84124,371.99817 583.59663,528.42821 717.87934,530.68719 C 852.88545,532.20035 892.27203,374.17993 825.18949,303.59008 M 626.53253,306.22556 C 592.16064,364.13333 627.894,465.60397 719.81064,465.60397 C 812.4834,465.60397 846.45018,363.40115 812.41258,305.88508 M 626.53213,306.22532 L 626.53213,306.22532 L 626.53213,306.22532 z"
     id="path590"
     style="fill:#cf1126;stroke:#000000;stroke-width:2.00051713" /><path
     d="M 743.33993,550.65916 C 748.03722,551.70307 752.32337,556.5558 750.59708,561.54369 C 748.68083,567.48995 741.60516,568.93504 738.93139,568.50077 C 736.0544,566.77404 737.77929,564.28124 746.60061,563.32099 C 752.35218,561.21101 747.11382,557.31944 742.76578,555.45564 C 740.40249,554.44198 741.134,550.16859 743.33993,550.65912 L 743.33993,550.65916 z"
     id="path596"
     style="fill:#f7e017;stroke:#f7e017;stroke-width:0.28007242" /><path
     d="M 728.76816,549.12276 C 730.95236,546.6366 732.72682,554.25669 733.21263,559.54041 C 733.84871,564.69843 733.91533,571.06151 731.83651,571.37671 C 730.5691,571.58889 731.63286,565.45314 730.32336,559.82349 C 728.61364,553.30588 727.87597,550.21628 728.76816,549.12276 L 728.76816,549.12276 z"
     id="path597"
     style="fill:#f7e017;stroke:#f7e017;stroke-width:0.28007242" /><path
     d="M 723.75486,558.52519 C 729.23896,563.84201 719.94884,579.24471 699.62486,572.53005 C 698.47417,570.42055 707.69623,572.50737 714.19635,571.37935 C 726.56615,569.42533 721.25882,556.16614 723.7549,558.52515 L 723.75486,558.52519 z"
     id="path598"
     style="fill:#f7e017;stroke:#f7e017;stroke-width:0.28007242" /><path
     d="M 713.81229,547.97046 C 715.9979,545.48478 714.72433,553.35437 715.17989,558.64094 C 715.62504,563.60851 715.06978,569.65451 712.71357,568.87239 C 711.43768,568.25615 713.52922,562.67706 712.21928,557.43211 C 710.81624,550.8408 712.15454,549.63953 713.81229,547.97046 L 713.81229,547.97046 z"
     id="path599"
     style="fill:#f7e017;stroke:#f7e017;stroke-width:0.28007242" /><path
     d="M 699.85668,545.86192 C 703.73405,545.83687 702.6949,546.92611 702.41891,557.28991 C 702.11603,568.90503 692.31125,570.20505 689.98105,567.01811 C 688.02278,564.51778 688.74105,563.76595 679.97878,564.60332 C 678.0186,563.61519 678.09374,561.51416 671.6924,562.05194 C 670.03701,562.35722 670.09187,559.21657 667.1057,557.33952 C 661.89947,554.22724 660.16658,559.63384 650.23898,553.91204 C 649.61898,553.56515 645.59037,551.01141 646.32664,545.96306 C 647.09408,539.58393 641.27874,546.74231 634.88873,543.95891 C 633.65249,543.406 629.90744,541.84748 626.60327,538.94641 C 621.93858,534.93389 626.823,534.12248 633.12511,538.21298 C 637.0162,540.68214 642.73136,535.00191 642.88592,529.31744 C 643.23421,523.30124 640.24239,521.71912 644.87967,521.86843 C 647.46554,521.94501 646.8507,532.38011 642.45684,536.99851 C 636.57672,543.35731 640.54435,542.13055 642.64489,541.81107 C 644.83478,541.26293 654.79683,528.91342 656.45698,529.97385 C 659.04473,531.73226 648.6909,539.62739 651.0093,547.10096 C 652.1165,550.43254 658.28818,553.6242 663.36917,554.14026 C 669.34332,555.13547 669.3608,547.01966 671.78175,548.55693 C 675.13221,550.75674 665.37853,554.89825 675.6199,557.91887 C 677.8816,558.59749 679.18822,552.83456 680.52701,553.08502 C 683.73996,553.6096 678.42646,559.8148 684.17191,560.80102 C 688.17734,561.46783 687.08006,555.00644 689.56386,555.4001 C 692.43705,555.2163 689.73963,565.73506 697.70565,564.66186 C 701.06368,564.22238 695.81068,545.88456 699.85676,545.86188 L 699.85668,545.86192 z"
     id="path600"
     style="fill:#f7e017;stroke:#f7e017;stroke-width:0.28007242" /><path
     d="M 627.65802,532.20239 C 629.96505,531.7095 633.91808,529.56594 634.083,526.10445 C 634.41236,522.31403 629.14092,520.99509 622.8809,521.98418 C 619.58665,522.47847 613.98728,520.33588 610.69159,517.53359 C 607.39734,513.41333 607.39734,508.80014 603.44388,510.77689 C 600.47947,512.09439 607.56226,519.67619 611.02096,521.4899 C 614.48153,523.30361 620.08234,523.13868 620.4103,525.77464 C 620.74015,528.41201 619.09232,532.53183 627.65802,532.20247 L 627.65802,532.20239 z"
     id="path601"
     style="fill:#f7e017;stroke:#f7e017;stroke-width:0.28007242" /><path
     d="M 767.84226,549.89896 C 766.57013,550.5152 765.5385,562.03202 772.7262,562.28012 C 781.75594,562.60289 786.29631,558.02186 788.55802,556.39388 C 792.31491,553.53722 799.08482,547.82819 795.95125,542.90599 C 794.3828,541.11877 793.51754,546.19456 791.70903,549.16461 C 789.24887,553.51974 780.82638,558.68819 774.37543,557.98453 C 766.47323,557.49825 769.45084,549.48689 767.84226,549.89896 L 767.84226,549.89896 z"
     id="path604"
     style="fill:#f7e017;stroke:#f7e017;stroke-width:0.28007242" /><path
     d="M 786.39906,544.56558 C 784.56222,543.17578 790.48435,540.90131 791.09727,538.75068 C 791.71115,536.60052 788.48068,534.57416 790.27738,532.21843 C 792.16103,529.11651 792.26309,538.06546 794.65711,538.32253 C 801.28623,539.01391 796.55352,543.29721 794.05272,542.4702 C 791.22299,541.62574 787.50818,545.61085 786.3991,544.56554 L 786.39906,544.56558 z"
     id="path605"
     style="fill:#f7e017;stroke:#f7e017;stroke-width:0.28007242" /><path
     d="M 781.26973,531.00608 C 780.8435,533.99361 782.65625,534.7398 783.19071,533.03384 C 783.83007,529.83221 782.01544,528.33847 781.26973,531.00608 z"
     id="path606"
     style="fill:#f7e017;stroke:#f7e017;stroke-width:0.28007242" /><path
     d="M 786.07097,527.91328 C 785.00442,527.99694 784.85506,531.70322 786.24442,531.80576 C 787.74337,531.92439 787.05107,534.45357 788.30999,534.42048 C 789.80754,534.38123 789.92189,530.17734 788.22777,530.13857 C 786.65224,530.09932 787.02366,527.93028 786.07097,527.91328 L 786.07097,527.91328 z"
     id="path607"
     style="fill:#f7e017;stroke:#f7e017;stroke-width:0.28007242" /><path
     d="M 798.06207,527.20109 C 796.79419,528.80591 794.38788,521.01665 802.48526,519.90141 C 806.33429,520.24117 809.6167,526.58345 809.27741,532.69887 C 809.14886,534.96102 809.05199,540.06094 807.80727,542.55274 C 806.78653,544.93164 803.0514,552.74734 801.24102,552.0678 C 799.42967,551.38683 801.7145,548.11386 804.75028,543.57205 C 807.20476,539.85296 808.14704,529.52793 806.90092,527.71567 C 805.65476,525.90388 804.40151,532.2466 801.80716,533.60615 C 799.648,534.73792 797.39294,531.46259 797.05365,529.87811 C 796.78426,527.99778 798.49543,526.84092 799.65509,529.07522 C 800.57992,530.75377 803.4233,527.42219 803.35716,525.04237 C 803.4323,521.19286 800.88044,524.24517 798.06207,527.20105 L 798.06207,527.20109 z"
     id="path608"
     style="fill:#f7e017;stroke:#f7e017;stroke-width:0.28007242" /><path
     d="M 815.50258,509.8206 C 814.4842,511.29454 810.97589,514.57883 810.29684,515.93842 C 809.6173,517.29753 809.50295,519.67499 810.63472,521.94045 C 811.76794,524.20544 814.14443,527.82954 813.69219,531.11478 C 813.23808,534.39863 810.97449,541.19363 812.22065,540.62844 C 813.4649,540.06138 816.52193,533.37933 815.84235,528.28177 C 815.16281,523.18565 812.78584,520.35452 813.23808,518.6552 C 813.69031,516.95728 816.52049,513.78638 817.08663,511.63435 C 817.6537,509.48135 816.7473,503.7057 815.95482,503.25298 C 815.16281,502.80026 812.33312,503.82005 813.23808,505.74435 C 814.14443,507.67048 816.06825,506.53731 815.50258,509.82068 L 815.50258,509.8206 z"
     id="path614"
     style="fill:#f7e017;stroke:#f7e017;stroke-width:0.28007242" /><path
     d="M 820.16779,512.46128 C 818.89566,513.62002 819.5289,519.92921 821.27643,517.67603 C 822.86473,515.48098 821.18521,511.43018 820.16779,512.46128 z"
     id="path615"
     style="fill:#f7e017;stroke:#f7e017;stroke-width:0.28007242" /><path
     d="M 786.89119,559.30939 C 786.29575,562.07151 789.01441,562.94529 789.76201,561.36741 C 790.65516,558.40868 787.9351,556.84404 786.89119,559.30939 z"
     id="path616"
     style="fill:#f7e017;stroke:#f7e017;stroke-width:0.28007242" /><path
     d="M 791.05626,556.96879 C 790.17303,559.23521 794.11281,559.43323 795.22002,558.13837 C 796.54412,555.71034 792.60298,554.94575 791.05626,556.96879 z"
     id="path620"
     style="fill:#f7e017;stroke:#f7e017;stroke-width:0.28007242" /><path
     d="M 627.16589,524.29234 C 625.05827,523.35006 625.18962,527.58799 626.17824,528.74201 C 627.16589,529.89603 632.91322,526.9373 627.16589,524.29234 z"
     id="path603"
     style="fill:#cf1126;stroke:#f7e017;stroke-width:0.28007242" /><path
     d="M 720.19794,291.58378 C 699.02239,295.82455 684.48255,308.24401 691.29883,312.46778 C 695.47347,315.25212 715.07962,307.60276 719.21597,301.10924 C 726.73823,312.59537 747.14491,316.92781 752.07374,314.35282 M 720.19794,291.58378 L 720.19794,291.58378 L 720.19794,291.58378 z"
     id="path676"
     style="fill:#cf1126;stroke:#000000;stroke-width:2.00051713" /><path
     d="M 610.36955,284.78922 C 613.88402,290.22323 632.0928,303.32785 645.19035,304.28718 C 658.28934,305.24554 687.99862,311.31892 693.7485,308.76142 C 699.49911,306.20486 715.7912,295.01691 719.94408,296.93504 C 724.09791,298.85223 748.37631,312.27777 757.32098,311.95737 C 766.26613,311.63791 824.08784,295.33731 826.00514,292.14092 C 827.92187,288.94404 814.50388,280.63355 805.87913,280.63355 C 797.25342,280.63355 610.36939,285.10918 610.36939,284.78926 L 610.36955,284.78922 z"
     id="path696"
     style="fill:#cf1126" /><path
     d="M 661.2427,311.16164 C 661.34761,314.42799 663.85786,316.79033 669.87833,316.85223 C 679.98883,317.063 697.09137,312.27877 707.30769,300.7936 M 661.24258,311.16164 L 661.24258,311.16164 L 661.24258,311.16164 z"
     id="path675"
     style="fill:#cf1126;stroke:#000000;stroke-width:2.00051713" /><path
     d="M 630.91086,306.31439 C 630.3844,309.0543 634.91301,312.63682 643.76034,312.74173 C 652.60671,312.84759 683.46509,309.05431 693.36477,298.72738 M 630.91102,306.31439 L 630.91102,306.31439 L 630.91102,306.31439 z"
     id="path674"
     style="fill:#cf1126;stroke:#000000;stroke-width:2.00051713" /><path
     d="M 610.01746,298.01344 C 605.27763,304.12462 620.37794,306.31495 629.43412,306.20864 C 638.49222,306.10373 661.86754,305.98275 672.33721,298.18592 M 610.0175,298.01344 L 610.0175,298.01344 L 610.0175,298.01344 z"
     id="path673"
     style="fill:#cf1126;stroke:#000000;stroke-width:2.00051713" /><path
     d="M 593.47318,287.76159 C 588.94413,293.76834 604.16162,299.04403 622.69698,298.62252 C 639.75839,298.20099 657.13644,292.30008 657.13644,292.30008 M 593.47318,287.76159 L 593.47318,287.76159 L 593.47318,287.76159 z"
     id="path672"
     style="fill:#cf1126;stroke:#000000;stroke-width:2.00051713" /><path
     d="M 776.92861,311.16164 C 776.8237,314.42799 774.31345,316.79033 768.29298,316.85223 C 758.18248,317.063 741.0795,312.27877 730.86362,300.7936 M 776.92873,311.16164 L 776.92873,311.16164 L 776.92873,311.16164 z"
     id="path680"
     style="fill:#cf1126;stroke:#000000;stroke-width:2.00051713" /><path
     d="M 807.26045,306.31439 C 807.78687,309.0543 803.2583,312.63682 794.41193,312.74173 C 785.56556,312.84759 754.70718,309.05431 744.8067,298.72738 M 807.26045,306.31439 L 807.26045,306.31439 L 807.26045,306.31439 z"
     id="path679"
     style="fill:#cf1126;stroke:#000000;stroke-width:2.00051713" /><path
     d="M 828.01782,298.14587 C 832.75764,304.25849 817.79061,306.31507 808.73347,306.20876 C 799.67585,306.10385 776.30005,305.98287 765.83078,298.18604 M 828.01766,298.14587 L 828.01766,298.14587 L 828.01766,298.14587 z"
     id="path678"
     style="fill:#cf1126;stroke:#000000;stroke-width:2.00051713" /><path
     d="M 844.75014,287.65916 C 849.27919,293.66544 834.01069,299.04415 815.47486,298.62264 C 798.41344,298.20111 781.03587,292.3002 781.03587,292.3002 M 844.74994,287.65916 L 844.74994,287.65916 L 844.74994,287.65916 z"
     id="path677"
     style="fill:#cf1126;stroke:#000000;stroke-width:2.00051713" /><path
     d="M 629.84658,287.20745 C 606.30206,290.60849 595.45769,288.8756 590.759,286.62809 C 584.8888,284.04317 574.836,276.1731 589.68488,275.88671 C 599.52366,275.69485 604.48179,276.44622 615.66736,276.3881 C 644.2796,276.02942 685.58263,253.42436 698.10467,253.33174 C 709.73536,253.24668 712.82124,258.62635 719.45175,258.7355 C 726.24155,258.81441 728.43895,253.24668 740.07016,253.33174 C 752.5912,253.42436 793.89448,276.02941 822.50703,276.3881 C 833.69212,276.44622 838.65025,275.69485 848.48903,275.88671 C 863.33839,276.17308 853.28603,284.04314 847.41587,286.62809 C 842.71718,288.8756 831.87233,290.60849 808.32781,287.20745 M 629.84686,287.20745 L 629.84686,287.20745 L 629.84686,287.20745 z"
     id="path681"
     style="fill:#cf1126;stroke:#000000;stroke-width:2.00051713" /><path
     d="M 719.01364,202.60157 C 707.93769,203.15778 692.69187,201.26469 687.79613,213.62318 C 680.34004,227.76276 682.44294,243.79162 685.79245,244.12951 C 691.79024,244.7911 692.36059,228.12145 694.91765,228.0964 C 697.59094,228.06616 697.5881,242.57103 702.81845,242.45948 C 706.71334,242.34843 709.16121,227.87431 710.38561,227.98534 C 711.60956,228.09638 714.16894,241.90233 719.09542,241.90233 C 724.35598,241.90233 726.58083,228.0964 727.80523,227.98534 C 729.02871,227.87429 731.47754,242.34841 735.37239,242.45948 C 740.60226,242.57101 740.59942,228.06616 743.27319,228.0964 C 745.82977,228.12145 746.95634,244.68005 752.95413,244.018 C 756.30368,243.67964 757.96143,227.76276 750.50578,213.62322 C 745.61003,201.26475 730.03056,203.15784 719.01372,202.60161 L 719.01364,202.60157 z"
     id="path618"
     style="fill:#cf1126;stroke:#000000;stroke-width:2.00051713" /><path
     d="M 692.42276,207.66608 C 695.39753,212.66626 718.59849,212.54766 719.90751,212.54766 C 721.21649,212.54766 741.44316,212.78584 746.20235,207.90522 M 692.42284,207.6661 L 692.42284,207.6661 L 692.42284,207.6661 z"
     id="path619"
     style="fill:#cf1126;stroke:#000000;stroke-width:2.00051713" /><path
     d="M 714.82855,155.5262 L 714.82855,204.81695 C 714.82855,204.81695 715.09506,207.56868 719.17848,207.658 C 723.26141,207.74684 723.8819,205.34905 723.8819,204.99321 L 723.70469,155.4368 M 714.82855,155.52611 L 714.82855,155.52611 L 714.82855,155.52611 z"
     id="path628"
     style="fill:#cf1126;stroke:#000000;stroke-width:2.00051713" /><path
     d="M 719.60979,161.23848 C 738.16971,160.28626 743.7039,171.23838 748.93893,173.61964 C 754.17445,176.00042 756.55382,176.95262 763.69331,176.47628 C 770.83183,176.00042 751.31831,188.38156 751.31831,188.85744 L 758.45779,201.71352 C 751.79467,202.66574 739.17673,196.51154 734.186,193.14263 C 728.54122,189.80729 722.2878,191.71408 719.90799,191.23774 L 719.60979,161.2385 L 719.60979,161.23848 z"
     id="path625"
     style="fill:#cf1126;stroke:#000000;stroke-width:2.00051713" /><path
     d="M 729.90045,146.2386 C 729.90045,151.89046 725.10297,156.47621 719.19312,156.47621 C 713.28183,156.47621 708.48435,151.89046 708.48435,146.2386 C 708.48435,140.5877 713.28183,136.00196 719.19312,136.00196 C 725.10301,136.00196 729.90045,140.5877 729.90045,146.2386 z"
     id="path690"
     style="fill:#cf1126;stroke:#000000;stroke-width:2.00051713" /><path
     d="M 604.46796,391.05346 C 603.0536,393.03255 601.8334,387.82632 596.97455,391.47687 C 594.23464,393.82031 593.13639,397.41133 593.15624,404.91564 C 593.17276,411.27824 596.83279,415.5261 598.95458,415.10127 C 602.20534,414.67688 600.50882,406.89615 604.04313,405.48178 C 609.13357,403.07688 616.34395,406.75487 617.61656,411.42236 C 618.88869,416.09033 615.21214,421.18316 611.25396,420.6175 C 608.99133,419.76876 612.52656,416.51612 612.80916,415.10127 C 613.09175,413.68686 613.51518,409.0175 610.12262,407.74537 C 606.72915,406.47276 607.29529,411.14025 607.15354,412.41382 C 607.01318,413.6869 604.60828,417.64745 601.92274,417.50569 C 599.23669,417.36485 594.96755,417.37902 590.75326,412.83821 C 588.51848,410.50892 585.80458,404.20922 588.20848,396.28716 C 590.61194,388.36559 594.71188,387.65865 596.97451,387.51637 C 599.23573,387.37554 605.03311,388.78993 604.46792,391.0535 L 604.46796,391.05346 z"
     id="path621"
     style="fill:#f7e017;stroke:#f7e017;stroke-width:0.28007236" /><path
     d="M 598.67046,424.01437 C 596.31141,422.75309 599.55745,418.15742 593.43967,419.77076 C 590.97764,420.45737 597.11526,427.55153 599.80132,427.83504 C 602.77044,427.55149 601.94299,425.62299 598.67046,424.01437 L 598.67046,424.01437 z"
     id="path622"
     style="fill:#f7e017;stroke:#f7e017;stroke-width:0.28007236" /><path
     d="M 605.17615,427.83136 C 606.44827,433.63066 607.65239,433.13917 607.86172,436.03552 C 607.96759,439.73524 601.64043,438.15687 600.79217,439.85431 C 599.94439,441.55175 598.81354,445.93712 602.91256,446.21971 C 607.01298,446.50279 612.89782,444.9263 614.08205,447.77631 C 617.27515,455.79667 624.08383,454.63369 627.25853,453.38612 C 630.84954,451.94767 639.3004,444.3285 641.22702,443.67353 C 644.09644,442.6221 638.54145,440.56125 635.28973,443.3905 C 634.44195,444.24016 627.3724,451.45478 623.69633,451.59562 C 621.01172,451.89474 616.85172,445.08418 617.05113,442.68404 C 617.33421,440.98612 623.52005,442.38676 624.40375,438.86429 C 625.06204,436.34788 625.10978,433.63018 623.13163,433.48934 C 621.15159,433.34711 611.82082,434.62019 611.53775,433.20627 C 609.84075,429.10349 613.23519,427.40649 611.9621,426.27424 C 610.54773,425.70861 605.3169,424.85987 605.17611,427.83136 L 605.17615,427.83136 z"
     id="path623"
     style="fill:#f7e017;stroke:#f7e017;stroke-width:0.28007236" /><path
     d="M 636.60827,450.32517 C 633.61694,453.46062 625.7417,458.47924 625.7417,462.02444 C 625.7417,464.0338 627.93911,467.18389 629.75706,467.93336 C 632.47004,469.00276 636.63143,468.73529 639.79665,466.27894 C 643.37678,463.36886 644.98679,460.41914 643.45948,459.89745 C 638.04484,458.34933 637.90828,465.8163 635.30869,466.04267 C 632.82585,466.24869 629.04863,462.26074 634.00964,457.29693 C 638.97012,452.33409 645.82137,447.37029 645.58459,445.95164 C 645.34877,444.53396 638.7551,448.16037 636.60827,450.32521 L 636.60827,450.32517 z"
     id="path638"
     style="fill:#f7e017;stroke:#f7e017;stroke-width:0.28007236" /><path
     d="M 623.73294,471.12655 C 623.51132,473.12358 628.81157,473.13543 629.7567,471.36285 C 630.4646,470.06375 623.96876,469.11863 623.73294,471.12655 z"
     id="path639"
     style="fill:#f7e017;stroke:#f7e017;stroke-width:0.28007236" /><path
     d="M 641.58555,472.43489 C 638.59422,475.56942 641.93949,479.13346 644.22484,482.05485 C 645.49036,483.61526 648.39712,485.13501 650.21458,485.88404 C 652.92801,486.95392 658.33556,486.58246 661.50126,484.12611 C 665.08043,481.21652 665.3635,476.10576 663.18926,476.08167 C 657.57049,476.01929 661.48186,483.55952 658.88327,483.78634 C 656.39946,483.99283 649.43766,482.42251 646.05175,475.24761 C 644.11705,471.01912 649.61863,470.21055 648.79542,468.37324 C 647.95664,466.39933 643.73287,470.26961 641.58551,472.43493 L 641.58555,472.43489 z"
     id="path640"
     style="fill:#f7e017;stroke:#f7e017;stroke-width:0.28007236" /><path
     d="M 656.17332,472.15481 C 657.33679,473.79224 661.29969,470.26977 660.82429,468.31762 C 660.48784,466.87629 655.01222,470.49895 656.17332,472.15481 z"
     id="path641"
     style="fill:#f7e017;stroke:#f7e017;stroke-width:0.28007236" /><path
     d="M 664.09137,487.07867 C 663.92977,489.37863 664.61071,492.48383 661.90953,492.5883 C 659.20839,492.6918 655.77994,489.05354 653.07872,489.15749 C 650.37711,489.26144 649.23397,491.34073 649.54537,492.48479 C 649.85681,493.62792 654.53282,494.97947 662.53281,494.45918 C 670.53284,493.93936 668.76638,498.82519 674.37667,498.40884 C 679.9874,497.99345 680.81817,496.12261 680.40327,494.87597 C 679.98744,493.62792 675.20836,494.45918 673.44195,494.14774 C 671.67553,493.83538 668.55945,491.02929 668.14358,488.63811 C 667.72823,486.24698 667.72823,482.12619 669.80561,482.08886 C 673.64992,482.02224 671.87402,485.58441 672.02146,486.83433 C 672.15093,487.94109 673.40842,489.08895 675.10398,487.07867 C 677.3562,484.41102 676.14313,480.21754 673.96132,478.76252 C 671.77996,477.30751 664.49824,481.4807 664.09137,487.07867 L 664.09137,487.07867 z"
     id="path642"
     style="fill:#f7e017;stroke:#f7e017;stroke-width:0.28007236" /><path
     d="M 683.9365,487.49478 C 683.52771,491.61648 680.57939,491.91608 680.92392,493.41979 C 681.35015,495.147 682.41719,495.68902 683.10572,499.96856 C 683.49511,502.07807 686.1183,502.97218 689.44372,502.77513 C 692.1605,502.70047 694.01815,499.01776 695.78032,499.13639 C 698.27216,499.2701 696.19667,504.913 702.01485,504.85487 C 706.6899,504.80997 707.83304,500.79982 709.49506,500.69631 C 711.15753,500.59188 710.9496,505.37376 714.79439,505.37376 C 718.63823,505.37376 720.30022,501.00775 722.06667,500.90424 C 723.93708,501.00771 723.93708,505.58169 729.65083,505.26977 C 735.36603,504.95741 739.62569,504.12664 740.97628,502.98302 C 742.32687,501.83945 742.94971,498.0972 744.81963,497.88878 C 746.69004,497.68181 749.59963,501.4231 752.19682,501.4231 C 754.79449,501.4231 760.19589,494.87573 761.85792,494.77082 C 763.52135,494.66779 764.87194,498.82495 768.61226,498.82495 C 774.43045,498.72096 775.11046,491.1524 777.82016,490.79515 C 782.70458,490.31975 782.89739,488.32599 783.1573,487.80618 C 783.67668,486.3502 783.11997,479.52592 782.01041,476.40939 C 781.47167,474.76537 775.26174,460.8819 772.45706,460.5705 C 769.65097,460.25862 770.48223,464.31275 772.1447,466.70389 C 773.80765,469.09458 782.32609,480.2173 781.18339,483.43969 C 780.04074,486.66304 774.01462,482.08818 769.2351,482.08818 C 762.58615,482.08818 758.54618,495.53874 753.85837,496.01794 C 751.7994,496.2386 749.59963,494.251 750.3269,492.79551 C 751.67749,490.71717 753.23505,485.72692 748.04111,486.45511 C 742.8462,487.18146 737.54735,489.57264 738.37861,492.38012 C 739.20986,495.18621 742.32687,497.99321 738.89794,499.13635 C 735.46906,500.27996 729.54733,500.59232 726.63826,499.65664 C 723.7287,498.72096 725.49516,492.17219 723.7287,492.17219 C 721.75527,492.17219 721.65133,499.86458 718.8462,500.07299 C 716.04156,500.27996 713.54735,499.13639 712.92451,496.95406 C 712.30071,494.77082 713.96322,492.06824 712.09326,491.7568 C 710.22285,491.44444 708.35197,500.38439 705.54732,500.17646 C 702.74268,499.96856 702.63825,499.34524 700.97622,497.57738 C 699.31327,495.81093 702.43032,489.78105 699.62519,489.26124 C 696.81959,488.74142 694.01398,498.20119 692.14498,498.09768 C 690.27362,497.99325 687.46897,497.88975 686.63772,496.01886 C 686.22185,495.08226 686.33856,489.22955 686.43166,486.85681 C 686.37969,485.73352 683.73001,486.22737 683.93654,487.49478 L 683.9365,487.49478 z"
     id="path643"
     style="fill:#f7e017;stroke:#f7e017;stroke-width:0.28007236" /><path
     d="M 778.37691,462.0242 C 783.49667,469.77992 788.10794,480.26751 790.94852,480.8393 C 792.83972,481.11669 785.02586,466.80699 782.42915,463.58364 C 780.24687,460.25726 773.97313,455.26417 778.37691,462.0242 L 778.37691,462.0242 z"
     id="path644"
     style="fill:#f7e017;stroke:#f7e017;stroke-width:0.28007236" /><path
     d="M 683.46038,480.90908 C 682.69578,482.7908 682.96937,484.60595 684.27887,484.33704 C 685.58881,484.06817 687.28104,480.90908 686.84489,480.3042 C 686.40822,479.69932 684.49764,479.16251 683.46038,480.90908 L 683.46038,480.90908 z"
     id="path645"
     style="fill:#f7e017;stroke:#f7e017;stroke-width:0.28007236" /><path
     d="M 793.41679,465.46509 C 793.39883,469.66993 796.37504,474.42628 801.91347,474.12668 C 807.45238,473.82757 813.52575,467.69886 813.97471,461.40812 C 814.42362,455.11781 806.66414,450.50042 804.71859,451.84817 C 802.77165,453.19591 805.44822,457.88705 810.41911,458.17672 C 812.54846,458.30572 811.85332,462.47091 807.77418,465.76656 C 803.49984,469.1468 797.17268,469.08254 795.62504,466.74998 C 794.42757,463.45477 793.33781,463.43164 793.41675,465.46505 L 793.41679,465.46509 z"
     id="path646"
     style="fill:#f7e017;stroke:#f7e017;stroke-width:0.28007236" /><path
     d="M 796.75366,452.71779 C 795.94417,454.3831 797.63216,458.22221 799.4638,458.05209 C 801.32004,457.87108 797.34813,451.61531 796.75366,452.71779 z"
     id="path647"
     style="fill:#f7e017;stroke:#f7e017;stroke-width:0.28007236" /><path
     d="M 813.01386,449.74502 C 814.09178,452.23923 815.37383,456.04193 817.64593,456.04193 C 819.91944,456.04193 821.75488,456.65437 821.75488,458.57819 C 821.75488,460.50152 815.82943,466.9071 815.63614,469.07334 C 815.30581,472.76689 817.99611,472.57172 819.30748,470.55956 C 820.61838,468.5488 824.16402,459.08764 824.90169,456.4786 C 825.22253,454.41631 827.77107,450.53991 827.87362,446.50515 C 827.71062,441.95957 831.8937,445.63372 833.90542,445.80905 C 835.74701,445.88939 837.75161,442.48503 838.01388,440.03623 C 838.27615,437.58692 836.0901,437.15029 836.0901,434.9642 C 836.0901,433.73933 838.42835,429.80335 838.53749,427.17967 C 838.79836,424.85891 833.9924,418.17118 831.98256,418.25909 C 830.32101,418.34651 831.72029,420.79534 832.68194,421.84489 C 833.64315,422.89444 836.09006,425.08053 835.2168,427.00435 C 833.64315,430.76596 825.95032,431.72809 825.60107,435.75149 C 825.25182,438.63743 825.95028,447.73334 823.59031,447.73334 C 821.2303,447.73334 819.298,442.05123 815.63614,442.04795 C 811.52863,441.93833 812.16232,447.84441 813.01386,449.74506 L 813.01386,449.74502 z"
     id="path648"
     style="fill:#f7e017;stroke:#f7e017;stroke-width:0.28007236" /><path
     d="M 819.04342,415.19609 C 819.15588,416.81555 822.53992,423.85441 824.5502,423.85441 C 827.4347,423.85441 823.23838,420.53183 823.50065,419.30696 C 823.7634,418.08208 827.8955,416.23764 826.21079,415.80857 C 823.19725,414.88517 818.8941,413.05494 819.04342,415.19613 L 819.04342,415.19609 z"
     id="path651"
     style="fill:#f7e017;stroke:#f7e017;stroke-width:0.28007236" /><path
     d="M 818.78335,406.10174 C 819.39531,408.37525 828.74828,411.78621 832.7698,412.92367 C 836.79036,414.06064 841.68567,418.87136 843.52154,417.29628 C 845.35698,415.72215 831.19616,410.12466 829.09893,409.33786 C 827.00123,408.55058 818.34624,403.82776 818.78335,406.10174 L 818.78335,406.10174 z"
     id="path652"
     style="fill:#f7e017;stroke:#f7e017;stroke-width:0.28007236" /><path
     d="M 847.01865,420.79354 C 850.51515,420.88 848.59181,413.97066 847.71759,412.30915 C 846.8438,410.64716 845.53242,415.45784 845.70727,416.85756 C 845.88167,418.25681 845.96957,420.70564 847.01865,420.79354 L 847.01865,420.79354 z"
     id="path718"
     style="fill:#f7e017;stroke:#f7e017;stroke-width:0.28007236" /><path
     d="M 826.64938,386.42346 C 826.61961,387.98859 836.30904,386.87806 840.81068,388.08499 C 842.7529,388.62938 849.37681,392.19485 850.59981,391.32063 C 851.99905,389.48331 841.597,385.54874 835.65263,385.54874 C 833.72789,385.57757 826.68291,384.5781 826.64934,386.42345 L 826.64938,386.42346 z"
     id="path655"
     style="fill:#f7e017;stroke:#f7e017;stroke-width:0.28007236" /><path
     d="M 824.11273,390.88341 C 822.37844,392.74106 829.95644,394.81844 836.70038,395.08074 C 843.41739,395.34301 847.77064,399.38105 847.19033,402.34025 C 846.2282,407.32626 837.83687,404.08922 838.88598,406.80124 C 839.49746,408.90039 843.18726,408.12915 843.60596,410.38753 C 843.89564,412.66196 846.26365,413.06222 846.1375,410.25806 C 846.12377,408.02708 851.34184,404.35197 851.21093,403.30286 C 850.9491,401.2042 847.80233,393.85677 839.75977,393.06996 C 831.71817,392.28314 826.32622,388.40576 824.11273,390.88342 L 824.11273,390.88341 z"
     id="path720"
     style="fill:#f7e017;stroke:#f7e017;stroke-width:0.28007236" /><path
     d="M 609.17324,439.93053 C 608.09484,439.30721 604.25149,442.76354 605.63044,443.5343 C 608.24656,445.01625 610.81258,440.84729 609.17324,439.93053 z"
     id="path629"
     style="fill:#cf1126;stroke:#f7e017;stroke-width:0.08002069" /><path
     d="M 617.43137,435.82547 C 615.56521,435.59297 614.66358,439.55683 616.22446,439.79217 C 620.19113,440.3408 620.97277,436.25362 617.43137,435.82547 z"
     id="path634"
     style="fill:#cf1126;stroke:#f7e017;stroke-width:0.08002069" /><path
     d="M 818.60738,446.94434 C 817.72416,446.9401 814.93604,448.16922 815.89816,450.09396 C 816.85985,452.0173 819.61913,452.06363 820.88041,450.96918 C 822.00514,449.90307 821.75136,446.96327 818.60738,446.94434 L 818.60738,446.94434 z"
     id="path649"
     style="fill:#cf1126;stroke:#f7e017;stroke-width:0.08002069" /><path
     d="M 829.53421,438.55017 C 829.81632,440.66584 831.36256,440.32275 832.59264,439.86155 C 833.9914,439.24955 834.39923,437.39856 833.03071,436.71334 C 831.60214,435.99927 829.24502,437.03986 829.53421,438.55017 L 829.53421,438.55017 z"
     id="path650"
     style="fill:#cf1126;stroke:#f7e017;stroke-width:0.08002069" /><path
     d="M 766.36188,488.01896 C 764.47919,492.17988 766.10053,496.25101 769.10415,495.46705 C 772.10776,494.68353 775.11278,488.93244 772.89269,487.10317 C 770.67259,485.27385 767.61228,485.25401 766.36188,488.019 L 766.36188,488.01896 z"
     id="path657"
     style="fill:#cf1126;stroke:#f7e017;stroke-width:0.08002069" /><path
     d="M 512.9123,315.34869 C 505.90325,314.7112 489.97645,311.52377 489.33897,314.7112 C 488.70196,317.89817 497.93963,355.18966 502.71867,359.9701 C 507.49626,364.75101 529.7951,374.94989 532.02468,373.67488 C 534.25422,372.40038 527.56509,349.13374 525.01611,344.99031 C 522.46805,340.8464 514.82292,325.86708 515.4604,325.22912 C 516.09692,324.5921 512.5929,315.34877 512.91234,315.34877 L 512.9123,315.34869 z"
     id="path697"
     style="fill:#cf1126" /><path
     d="M 498.88868,314.07796 C 500.59652,305.10588 511.02269,315.84487 509.99059,327.53276 C 509.48209,331.49804 511.69891,335.86639 513.83394,338.00239 M 498.88868,314.07792 L 498.88868,314.07792 L 498.88868,314.07792 z"
     id="path632"
     style="fill:#cf1126;stroke:#000000;stroke-width:2.00051689" /><path
     d="M 507.85499,314.50527 L 507.46369,315.02651 C 512.6926,306.17302 517.74855,318.77772 518.52923,333.30335 M 507.85499,314.50526 L 507.85499,314.50526 L 507.85499,314.50526 z"
     id="path633"
     style="fill:#cf1126;stroke:#000000;stroke-width:2.00051689" /><path
     d="M 489.86635,313.12492 C 489.56439,305.87484 501.33403,303.79274 500.6058,330.00156 C 505.73737,333.32462 511.77721,346.01246 512.07869,350.54435 C 515.93056,351.45072 522.34466,356.18913 523.90646,360.11706 M 489.86635,313.12492 L 489.86635,313.12492 L 489.86635,313.12492 z"
     id="path631"
     style="fill:#cf1126;stroke:#000000;stroke-width:2.00051689" /><path
     d="M 518.73781,458.35125 C 519.28835,438.39537 519.60259,395.66305 517.51433,391.02705 C 513.84158,382.44579 495.36625,372.49598 489.73659,359.00429 C 484.10034,344.73192 479.29577,312.17579 481.583,308.25158 C 484.57906,302.59595 494.5676,315.20013 491.8499,329.09728 C 503.92814,343.29543 501.38904,351.75338 503.62522,353.56709 C 511.07331,359.30589 522.44645,363.23431 524.45769,368.36967 C 528.59779,377.55725 523.55321,355.37892 520.23107,350.84702 C 516.91037,346.31561 511.17345,336.34692 515.09903,333.93069 C 519.0232,331.51306 525.96844,337.85816 526.87387,339.67046 C 527.77978,341.48321 537.13984,351.75438 539.85706,354.17056 C 544.68807,357.79607 556.88967,365.89959 556.64676,372.84671 C 556.634,384.07669 557.63066,457.96271 557.63066,457.96271 M 518.73777,458.35117 L 518.73777,458.35117 L 518.73777,458.35117 z"
     id="path630"
     style="fill:#cf1126;stroke:#000000;stroke-width:2.00051689" /><path
     d="M 516.48522,484.66205 C 516.48522,484.66205 516.40868,492.69468 516.40961,492.84588 C 519.89335,497.08902 534.4355,497.56158 537.68958,497.54362 C 540.87513,497.45051 554.5577,497.69485 557.73853,492.46686 C 557.81415,492.31562 557.93558,485.64398 557.93558,483.80999 M 516.48526,484.66201 L 516.48526,484.66201 L 516.48526,484.66201 z"
     id="path581"
     style="fill:#cf1126;stroke:#000000;stroke-width:2.00051689" /><path
     d="M 515.83306,472.79498 C 511.80542,473.69097 510.75254,478.61508 513.59452,482.19993 C 515.89923,485.10808 525.45634,488.46895 536.42214,488.69389 C 547.38797,488.91647 561.93489,485.11044 562.6059,479.06448 C 562.82992,473.019 557.15538,473.38757 557.82639,473.61203 M 515.83314,472.79498 L 515.83314,472.79498 L 515.83314,472.79498 z"
     id="path637"
     style="fill:#cf1126;stroke:#000000;stroke-width:2.00051689" /><path
     d="M 515.83306,461.67211 C 511.80542,462.5681 511.05166,467.64293 513.89412,471.22781 C 516.19883,474.13645 525.90338,478.16881 536.86965,478.39331 C 547.83453,478.61684 561.71135,474.13881 562.38193,468.09332 C 562.60594,462.04736 558.43275,462.56814 558.12979,462.71886 M 515.83286,461.67215 L 515.83286,461.67215 L 515.83286,461.67215 z"
     id="path636"
     style="fill:#cf1126;stroke:#000000;stroke-width:2.00051689" /><path
     d="M 538.65896,467.86971 C 553.20491,468.09417 562.60466,460.92871 562.60466,457.12317 C 562.60466,453.31619 557.90501,453.09173 554.99498,454.21126 C 552.08587,455.33075 547.61023,458.17368 538.21144,458.24126 C 528.58959,458.53469 520.08391,451.52424 517.1748,451.74826 C 514.26569,451.97272 511.98606,455.12849 512.92266,458.46528 C 514.07476,461.77557 524.33601,468.31722 538.65892,467.86975 L 538.65896,467.86971 z"
     id="path635"
     style="fill:#cf1126;stroke:#000000;stroke-width:2.00051689" /><path
     d="M 927.09134,315.34869 C 934.09991,314.7112 950.02719,311.52377 950.66467,314.7112 C 951.3012,317.89817 942.06309,355.18966 937.28497,359.9701 C 932.50738,364.75101 910.20806,374.94989 907.97804,373.67488 C 905.74894,372.40038 912.43855,349.13374 914.98661,344.99031 C 917.53515,340.8464 925.18029,325.86708 924.5428,325.22912 C 923.90628,324.5921 927.4103,315.34877 927.09134,315.34877 L 927.09134,315.34869 z"
     id="path869"
     style="fill:#cf1126" /><path
     d="M 941.11496,314.07796 C 939.40664,305.10588 928.98051,315.84487 930.01257,327.53276 C 930.52107,331.49804 928.30473,335.86639 926.1697,338.00239 M 941.11496,314.07792 L 941.11496,314.07792 L 941.11496,314.07792 z"
     id="path870"
     style="fill:#cf1126;stroke:#000000;stroke-width:2.00051689" /><path
     d="M 932.14865,314.50527 L 932.53995,315.02651 C 927.31056,306.17302 922.25461,318.77772 921.47345,333.30335 M 932.14865,314.50526 L 932.14865,314.50526 L 932.14865,314.50526 z"
     id="path871"
     style="fill:#cf1126;stroke:#000000;stroke-width:2.00051689" /><path
     d="M 950.13329,313.12492 C 950.43573,305.87484 938.66513,303.79274 939.39384,330.00156 C 934.26227,333.32462 928.22243,346.01246 927.92143,350.54435 C 924.06956,351.45072 917.65502,356.18913 916.09318,360.11706 M 950.13329,313.12492 L 950.13329,313.12492 L 950.13329,313.12492 z"
     id="path872"
     style="fill:#cf1126;stroke:#000000;stroke-width:2.00051689" /><path
     d="M 921.26183,458.35125 C 920.71225,438.39537 920.39797,395.66305 922.48623,391.02705 C 926.15806,382.44579 944.63383,372.49598 950.26397,359.00429 C 955.90022,344.73192 960.70431,312.17579 958.41663,308.25158 C 955.42106,302.59595 945.43296,315.20013 948.15022,329.09728 C 936.07198,343.29543 938.61108,351.75338 936.3749,353.56709 C 928.92637,359.30589 917.55411,363.23431 915.54195,368.36967 C 911.40184,377.55725 916.44691,355.37892 919.76857,350.84702 C 923.08974,346.31561 928.82619,336.34692 924.90109,333.93069 C 920.97696,331.51306 914.03212,337.85816 913.12625,339.67046 C 912.22038,341.48321 902.86028,351.75438 900.14305,354.17056 C 895.31205,357.79607 883.11045,365.89959 883.35336,372.84671 C 883.36612,384.07669 882.3695,457.96271 882.3695,457.96271 M 921.26191,458.35117 L 921.26191,458.35117 L 921.26191,458.35117 z"
     id="path873"
     style="fill:#cf1126;stroke:#000000;stroke-width:2.00051689" /><path
     d="M 923.51842,484.66205 C 923.51842,484.66205 923.59496,492.69468 923.59404,492.84588 C 920.10981,497.08902 905.56858,497.56158 902.31358,497.54362 C 899.12847,497.45051 885.44638,497.69485 882.26555,492.46686 C 882.18993,492.31562 882.0685,485.64398 882.0685,483.80999 M 923.51842,484.66201 L 923.51842,484.66201 L 923.51842,484.66201 z"
     id="path874"
     style="fill:#cf1126;stroke:#000000;stroke-width:2.00051689" /><path
     d="M 924.17058,472.79498 C 928.19822,473.69097 929.25066,478.61508 926.40912,482.19993 C 924.10397,485.10808 914.5473,488.46895 903.58102,488.69389 C 892.61567,488.91647 878.06783,485.11044 877.39726,479.06448 C 877.17372,473.019 882.84827,473.38757 882.17677,473.61203 M 924.17042,472.79498 L 924.17042,472.79498 L 924.17042,472.79498 z"
     id="path876"
     style="fill:#cf1126;stroke:#000000;stroke-width:2.00051689" /><path
     d="M 924.17058,461.67211 C 928.19822,462.5681 928.9515,467.64293 926.10905,471.22781 C 923.80481,474.13645 914.09978,478.16881 903.13351,478.39331 C 892.16815,478.61684 878.29229,474.13881 877.62171,468.09332 C 877.39726,462.04736 881.57045,462.56814 881.87385,462.71886 M 924.17078,461.67215 L 924.17078,461.67215 L 924.17078,461.67215 z"
     id="path877"
     style="fill:#cf1126;stroke:#000000;stroke-width:2.00051689" /><path
     d="M 901.34469,467.86971 C 886.79873,468.09417 877.3985,460.92871 877.3985,457.12317 C 877.3985,453.31619 882.09815,453.09173 885.00818,454.21126 C 887.9173,455.33075 892.39293,458.17368 901.79172,458.24126 C 911.41309,458.53469 919.91925,451.52424 922.8288,451.74826 C 925.73791,451.97272 928.01706,455.12849 927.08094,458.46528 C 925.92884,461.77557 915.66711,468.31722 901.34469,467.86975 L 901.34469,467.86971 z"
     id="path878"
     style="fill:#cf1126;stroke:#000000;stroke-width:2.00051689" /></svg>