<svg xmlns="http://www.w3.org/2000/svg" width="315" height="385" viewBox="0 0 630 770"><title>Flag of Nepal</title>
<path d="m0,0,0,770,613,0-376.75-376.25,393.75,0z" fill="#003893"/>
<path d="m26.25,43.75,0,700,525,0l-371.25-371.25h371.25z" fill="#dc143c"/>
<path d="m144.31,231.62-5.4375,21.312-18.906-11.25,3.125,21.781,0.0937-0.0625c-0.0312,0.031-0.0626,0.0626-0.0937,0.0937v-0.0312l-21.781-3.125,11.219,18.938,0.0625-0.125c-0.0383,0.0916-0.056,0.18939-0.0937,0.28125l0.0312-0.15625-21.312,5.4375,17.625,13.156-8.625,6.4688c-19.695-11.773-36.459-30.093-47-54.969,0,57.806,46.85,104.66,104.66,104.66,57.806,0,104.66-46.85,104.66-104.66-10.732,25.047-27.654,43.408-47.469,55.156l-8.9062-6.6562-0.0312,0.1875c0.00023-0.0621,0-0.12535,0-0.1875,0-0.0629,0.00024-0.12463,0-0.1875l0.0312,0.1875,17.625-13.156-21.312-5.4375,0.0312,0.15625c-0.0377-0.0919-0.0555-0.18968-0.0937-0.28125l0.0625,0.125,11.219-18.938-21.781,3.125v0.0312l-0.0937-0.0937,0.0937,0.0625,3.125-21.781-18.906,11.25-5.4375-21.312-13.188,17.594,0.1875,0.0312c-0.0629-0.00024-0.12458,0-0.1875,0-0.0629,0-0.12463-0.00024-0.1875,0l0.21-0.02-13.19-17.6z" fill="#fff"/>
<path d="m213.78,655.43-37.747-28.362-18.431,43.469-18.509-43.436-37.696,28.429,5.6882-46.871-46.861,5.7722,28.362-37.747-43.469-18.431,43.436-18.509-28.429-37.696,46.871,5.6882-5.7722-46.861,37.747,28.362,18.431-43.469,18.509,43.436,37.696-28.429-5.6881,46.871,46.861-5.7722-28.362,37.747,43.469,18.431-43.436,18.509,28.429,37.696-46.871-5.6882z" fill="#fff"/>
</svg>