<svg xmlns="http://www.w3.org/2000/svg" xmlns:xlink="http://www.w3.org/1999/xlink" width="945" height="630" viewBox="-5 -5 945 630" id="svg5238"><path id="rect5188" fill="#fff" stroke-width="35" d="M-5-5h945v630H-5z"/><g id="g5198" transform="matrix(35 0 0 35 170 170)" fill="#0038a8"><path id="rect5190" d="M5-3h17v2H5z"/><path id="rect5192" d="M5 1h17v2H5z"/><path id="rect5194" d="M-5 5h27v2H-5z"/><path id="rect5196" d="M-5 9h27v2H-5z"/></g><g transform="matrix(3.85 0 0 3.85 170 170)" stroke-miterlimit="20" id="g5223" fill="#fcd116" stroke="#7b3f00" stroke-width=".6"><g id="u"><g id="t"><g id="s"><g transform="rotate(22.5)" id="g5206"><path d="M1.5 9L6 12c-8 13 1 15-6 21 3-7-3-5-3-17" id="path5200" stroke-linecap="square"/><path d="M1.501 9L.197 11.03l.1.015c-.99 6.447.12 10.63.933 13.883.406 1.627.745 3.026.687 4.367a5.658 5.658 0 0 1-.71 2.538C5.856 26.68-1.456 24.12 6.002 12z" id="path5202" fill="#7b3f00" stroke-width=".27273" stroke-linecap="square"/><path d="M0 11c-2 13 4.5 17 0 22" id="path5204" fill="none"/></g><path d="M0 0h-6l6 33L6 0H0v33" id="path5208"/><path d="M0 0h6-6v33L6 0" id="path5210" fill="#7b3f00" stroke="none"/></g><use transform="rotate(45)" xlink:href="#s" id="use5213" width="100%" height="100%"/></g><use transform="rotate(90)" xlink:href="#t" id="use5216" width="100%" height="100%"/></g><use transform="scale(-1)" xlink:href="#u" id="use5219" width="100%" height="100%"/><circle r="11" id="circle5221"/></g><g transform="matrix(.385 0 0 .385 170 170)" id="g5236" fill="#7b3f00"><g id="right"><path d="M81-44c-7 8-11-6-36-6S16-35 12-38s21-21 29-22 31 7 40 16m-29 9c7 6 1 19-6 19S26-28 32-36" id="path5225"/><path d="M19-26c1-12 11-14 27-14s23 12 29 15c-7 0-13-10-29-10s-16 0-27 10m3 2c4-6 9 6 20 6s17-3 24-8-10 12-21 12-26-6-23-10" id="path5227"/><path d="M56-17c13-7 5-17 0-19 2 2 10 12 0 19M0 43c6 0 8-2 16-2s27 11 38 7c-23 9-14 3-54 3h-5m63 6c-4-7-3-5-11-16 8 6 10 9 11 16M0 67c25 0 21-5 54-19-24 3-29 11-54 11h-5m5-29c7 0 9-5 17-5s19 3 24 7c1 1-3-8-11-9S25 9 16 7c0 4 3 3 4 9 0 5-9 5-11 0 2 8-4 8-9 8" id="path5229"/></g><use transform="scale(-1 1)" xlink:href="#right" id="use5232" width="100%" height="100%"/><path d="M0 76c-5 0-18 3 0 3s5-3 0-3" id="path5234"/></g></svg>