<svg xmlns="http://www.w3.org/2000/svg" width="600" height="400" viewBox="0 0 1500 1000">
<title>Flag of Turkmenistan</title>
<rect height="1000" width="1500" y="0" x="0" fill="#006a4e"/>
<circle transform="translate(1.898,0.417)" cy="223.83" cx="694.5" r="124.67" fill="#FFF"/>
<circle transform="translate(1.898,0.417)" cy="204.5" cx="662.5" r="123.33" fill="#006a4e"/>
<polygon points="693.82,154.23,688.54,170.83,682.37,154.23,664.94,153.87,678.54,143.25,673.04,126.43,687.62,136.46,701.65,126.42,697.05,143.25,711.23,153.87,711.23,153.87" fill="#feffff" transform="translate(1.898,0.417)"/>
<polygon points="630.69,122.48,625.42,139.08,619.25,122.48,601.82,122.12,615.42,111.5,609.92,94.676,624.49,104.72,638.52,94.674,633.93,111.5,648.1,122.12,648.1,122.12" fill="#feffff" transform="translate(1.898,0.417)"/>
<polygon points="630.69,185.98,625.42,202.58,619.25,185.98,601.82,185.62,615.42,175,609.92,158.18,624.49,168.22,638.52,158.17,633.93,175,648.1,185.62,648.1,185.62" fill="#feffff" transform="translate(1.898,0.417)"/>
<polygon points="630.69,249.6,625.42,266.21,619.25,249.6,601.82,249.25,615.42,238.63,609.92,221.8,624.49,231.84,638.52,221.8,633.93,238.62,648.1,249.24,648.1,249.24" fill="#feffff" transform="translate(1.898,0.417)"/>
<polygon points="567.82,217.1,562.54,233.71,556.37,217.1,538.94,216.75,552.54,206.13,547.04,189.3,561.62,199.34,575.65,189.3,571.05,206.12,585.23,216.74,585.23,216.74" fill="#feffff" transform="translate(1.898,0.417)"/>
<rect fill-rule="evenodd" height="1000" width="270" y="-0.000045895" x="180" stroke-width="1pt" fill="#b31b34"/>
<path d="m450,66,0-6.9468-17.232-17.369,3.4744-3.4734-10.421-10.421,3.4734-3.4734,6.9477,6.9467,3.4734-3.4734-24.316-24.316-3.4734,3.4734,3.4734,3.4744-7.1605,7.0183l-17.15-17.44-7.08-0.00098035,24.45,24.317,10.421-10.421,6.9477,6.9477-6.9477,6.9468,10.421,10.421-3.4734,3.4734,24.178,24.316z" fill-rule="evenodd" stroke-width="1pt" fill="#ff9a00"/>
<path d="m450,0.00079618-20.842,0,6.9468,3.4734,10.421,0,0,10.421l3.47,6.948v-20.842z" fill-rule="evenodd" stroke-width="1pt" fill="#ff9a00"/>
<g fill="#ff9a00" transform="matrix(-0.980346,0,0,0.9803558,712.26185,-286.16059)" font-size="12px" fill-rule="evenodd">
<path d="m265.89,605.9,0-7.086,17.577-17.717-3.544-3.543,10.63-10.63-3.543-3.543-7.087,7.086-3.543-3.543,24.803-24.803,3.543,3.543-3.543,3.544,7.304,7.159,17.499-17.789-17.793-17.24-7.01,6.61,3.543,3.543-3.543,3.543-24.803-24.803,3.543-3.543,7.087,7.087,3.543-3.544-10.63-10.63,3.544-3.543-17.577-17.716,0-7.087,24.663,24.803-3.543,3.543,10.63,10.63-7.087,7.087,7.087,7.086,10.63-10.629,24.943,25.225-24.943,24.381-10.63-10.63-7.087,7.087,7.087,7.086,0,0-10.63,10.63,3.543,3.543-24.663,24.803z" transform="translate(1.631851,-54.92076)"/>
<path d="m269.29,517.32,3.544,7.086,0,10.63,10.63,0,7.086,3.544-7.086,3.543-10.63,0,0,10.63-3.544,7.087,0-42.52z" transform="translate(-1.771317,-54.92091)"/>
</g>
<g fill="#ff9a00" transform="matrix(0.980346,0,0,0.9803558,-82.261851,-286.16059)" font-size="12px" fill-rule="evenodd">
<path d="m265.89,605.9,0-7.086,17.577-17.717-3.544-3.543,10.63-10.63-3.543-3.543-7.087,7.086-3.543-3.543,24.803-24.803,3.543,3.543-3.543,3.544,7.304,7.159,17.499-17.789-17.793-17.24-7.01,6.61,3.543,3.543-3.543,3.543-24.803-24.803,3.543-3.543,7.087,7.087,3.543-3.544-10.63-10.63,3.544-3.543-17.577-17.716,0-7.087,24.663,24.803-3.543,3.543,10.63,10.63-7.087,7.087,7.087,7.086,10.63-10.629,24.943,25.225-24.943,24.381-10.63-10.63-7.087,7.087,7.087,7.086,0,0-10.63,10.63,3.543,3.543-24.663,24.803z" transform="translate(1.631851,-54.92076)"/>
<path d="m269.29,517.32,3.544,7.086,0,10.63,10.63,0,7.086,3.544-7.086,3.543-10.63,0,0,10.63-3.544,7.087,0-42.52z" transform="translate(-1.771317,-54.92091)"/>
</g>
<path d="m180,66,0-6.9468,17.232-17.369-3.4744-3.4734,10.421-10.421-3.4734-3.4734-6.9477,6.9467-3.4734-3.4734,24.316-24.316,3.4734,3.4734-3.4734,3.4744,7.1605,7.0183l17.15-17.44,7.08-0.00098035-24.45,24.317-10.421-10.421-6.9477,6.9477,6.9477,6.9468-10.421,10.421,3.4734,3.4734-24.178,24.316z" fill-rule="evenodd" stroke-width="1pt" fill="#ff9a00"/>
<path d="m180,0.00079618,20.842,0-6.9468,3.4734-10.421,0,0,10.421-3.4744,6.9477,0-20.842z" fill-rule="evenodd" stroke-width="1pt" fill="#ff9a00"/>
<g fill="#ff9a00" transform="matrix(-0.980346,0,0,0.9803558,712.26185,-98.16059)" font-size="12px" fill-rule="evenodd">
<path d="m265.89,605.9,0-7.086,17.577-17.717-3.544-3.543,10.63-10.63-3.543-3.543-7.087,7.086-3.543-3.543,24.803-24.803,3.543,3.543-3.543,3.544,7.304,7.159,17.499-17.789-17.793-17.24-7.01,6.61,3.543,3.543-3.543,3.543-24.803-24.803,3.543-3.543,7.087,7.087,3.543-3.544-10.63-10.63,3.544-3.543-17.577-17.716,0-7.087,24.663,24.803-3.543,3.543,10.63,10.63-7.087,7.087,7.087,7.086,10.63-10.629,24.943,25.225-24.943,24.381-10.63-10.63-7.087,7.087,7.087,7.086,0,0-10.63,10.63,3.543,3.543-24.663,24.803z" transform="translate(1.631851,-54.92076)"/>
<path d="m269.29,517.32,3.544,7.086,0,10.63,10.63,0,7.086,3.544-7.086,3.543-10.63,0,0,10.63-3.544,7.087,0-42.52z" transform="translate(-1.771317,-54.92091)"/>
</g>
<g fill="#ff9a00" transform="matrix(0.980346,0,0,0.9803558,-82.26185,-98.16059)" font-size="12px" fill-rule="evenodd">
<path d="m265.89,605.9,0-7.086,17.577-17.717-3.544-3.543,10.63-10.63-3.543-3.543-7.087,7.086-3.543-3.543,24.803-24.803,3.543,3.543-3.543,3.544,7.304,7.159,17.499-17.789-17.793-17.24-7.01,6.61,3.543,3.543-3.543,3.543-24.803-24.803,3.543-3.543,7.087,7.087,3.543-3.544-10.63-10.63,3.544-3.543-17.577-17.716,0-7.087,24.663,24.803-3.543,3.543,10.63,10.63-7.087,7.087,7.087,7.086,10.63-10.629,24.943,25.225-24.943,24.381-10.63-10.63-7.087,7.087,7.087,7.086,0,0-10.63,10.63,3.543,3.543-24.663,24.803z" transform="translate(1.631851,-54.92076)"/>
<path d="m269.29,517.32,3.544,7.086,0,10.63,10.63,0,7.086,3.544-7.086,3.543-10.63,0,0,10.63-3.544,7.087,0-42.52z" transform="translate(-1.771317,-54.92091)"/>
</g>
<g fill="#ff9a00" transform="matrix(-0.980346,0,0,0.9803558,712.26185,89.83941)" font-size="12px" fill-rule="evenodd">
<path d="m265.89,605.9,0-7.086,17.577-17.717-3.544-3.543,10.63-10.63-3.543-3.543-7.087,7.086-3.543-3.543,24.803-24.803,3.543,3.543-3.543,3.544,7.304,7.159,17.499-17.789-17.793-17.24-7.01,6.61,3.543,3.543-3.543,3.543-24.803-24.803,3.543-3.543,7.087,7.087,3.543-3.544-10.63-10.63,3.544-3.543-17.577-17.716,0-7.087,24.663,24.803-3.543,3.543,10.63,10.63-7.087,7.087,7.087,7.086,10.63-10.629,24.943,25.225-24.943,24.381-10.63-10.63-7.087,7.087,7.087,7.086,0,0-10.63,10.63,3.543,3.543-24.663,24.803z" transform="translate(1.631851,-54.92076)"/>
<path d="m269.29,517.32,3.544,7.086,0,10.63,10.63,0,7.086,3.544-7.086,3.543-10.63,0,0,10.63-3.544,7.087,0-42.52z" transform="translate(-1.771317,-54.92091)"/>
</g>
<g fill="#ff9a00" transform="matrix(0.980346,0,0,0.9803558,-82.261851,89.83941)" font-size="12px" fill-rule="evenodd">
<path d="m265.89,605.9,0-7.086,17.577-17.717-3.544-3.543,10.63-10.63-3.543-3.543-7.087,7.086-3.543-3.543,24.803-24.803,3.543,3.543-3.543,3.544,7.304,7.159,17.499-17.789-17.793-17.24-7.01,6.61,3.543,3.543-3.543,3.543-24.803-24.803,3.543-3.543,7.087,7.087,3.543-3.544-10.63-10.63,3.544-3.543-17.577-17.716,0-7.087,24.663,24.803-3.543,3.543,10.63,10.63-7.087,7.087,7.087,7.086,10.63-10.629,24.943,25.225-24.943,24.381-10.63-10.63-7.087,7.087,7.087,7.086,0,0-10.63,10.63,3.543,3.543-24.663,24.803z" transform="translate(1.631851,-54.92076)"/>
<path d="m269.29,517.32,3.544,7.086,0,10.63,10.63,0,7.086,3.544-7.086,3.543-10.63,0,0,10.63-3.544,7.087,0-42.52z" transform="translate(-1.771317,-54.92091)"/>
</g>
<g fill="#ff9a00" transform="matrix(-0.980346,0,0,0.9803558,712.26185,277.83941)" font-size="12px" fill-rule="evenodd">
<path d="m265.89,605.9,0-7.086,17.577-17.717-3.544-3.543,10.63-10.63-3.543-3.543-7.087,7.086-3.543-3.543,24.803-24.803,3.543,3.543-3.543,3.544,7.304,7.159,17.499-17.789-17.793-17.24-7.01,6.61,3.543,3.543-3.543,3.543-24.803-24.803,3.543-3.543,7.087,7.087,3.543-3.544-10.63-10.63,3.544-3.543-17.577-17.716,0-7.087,24.663,24.803-3.543,3.543,10.63,10.63-7.087,7.087,7.087,7.086,10.63-10.629,24.943,25.225-24.943,24.381-10.63-10.63-7.087,7.087,7.087,7.086,0,0-10.63,10.63,3.543,3.543-24.663,24.803z" transform="translate(1.631851,-54.92076)"/>
<path d="m269.29,517.32,3.544,7.086,0,10.63,10.63,0,7.086,3.544-7.086,3.543-10.63,0,0,10.63-3.544,7.087,0-42.52z" transform="translate(-1.771317,-54.92091)"/>
</g>
<g fill="#ff9a00" transform="matrix(0.980346,0,0,0.9803558,-82.261851,277.83941)" font-size="12px" fill-rule="evenodd">
<path d="m265.89,605.9,0-7.086,17.577-17.717-3.544-3.543,10.63-10.63-3.543-3.543-7.087,7.086-3.543-3.543,24.803-24.803,3.543,3.543-3.543,3.544,7.304,7.159,17.499-17.789-17.793-17.24-7.01,6.61,3.543,3.543-3.543,3.543-24.803-24.803,3.543-3.543,7.087,7.087,3.543-3.544-10.63-10.63,3.544-3.543-17.577-17.716,0-7.087,24.663,24.803-3.543,3.543,10.63,10.63-7.087,7.087,7.087,7.086,10.63-10.629,24.943,25.225-24.943,24.381-10.63-10.63-7.087,7.087,7.087,7.086,0,0-10.63,10.63,3.543,3.543-24.663,24.803z" transform="translate(1.631851,-54.92076)"/>
<path d="m269.29,517.32,3.544,7.086,0,10.63,10.63,0,7.086,3.544-7.086,3.543-10.63,0,0,10.63-3.544,7.087,0-42.52z" transform="translate(-1.771317,-54.92091)"/>
</g>
<path d="m429.69,76.662-13.763-17.338,0-13.003-13.763-13.003-27.524,0-22.938-13.003-73.4,0.000489-22.938,13.003-27.524,0-13.763,13.003,0,13.003-13.763,17.338,0,34.675,13.763,17.338,0,13.003,13.763,13.003,27.524,0,22.938,13.003,73.4,0,22.938-13.003,27.524,0,13.763-13.002,0-13.003,13.763-17.338-0.00026-34.676z" fill-rule="evenodd" stroke="#000" stroke-width="0.62923485" fill="#b31b34"/>
<path d="m204.9,94,0,13.003,13.762,17.336,0,13.003,13.762,13.003,27.524,0,22.939,13.003,32.112,0-0.003-69.35-110.1,0z" fill-rule="evenodd" stroke-width="1pt" fill="#ff9a00"/>
<path d="m276.29,124.34-16.757,11.146-10.009,0,3.337,3.714-6.672,7.4308,3.335,3.7154,10.009-3.7154,3.337,3.7154,1.5411-9.9273,18.477-11.751-6.5984-4.3283z" fill-rule="evenodd" stroke-width="1pt" fill="#b31b34"/>
<path d="m257.94,115.67-16.757,11.146-10.009,0,3.337,3.714-6.672,7.4308,3.335,3.7154,10.009-3.7154,3.337,3.7154,1.5411-9.9273,18.477-11.751-6.5984-4.3283z" fill-rule="evenodd" stroke-width="1pt" fill="#b31b34"/>
<path d="m248.76,98.335-16.757,11.146-10.009,0,3.337,3.714-6.672,7.4308,3.335,3.7154,10.009-3.7154,3.337,3.7154,1.5411-9.9273,18.477-11.751-6.5984-4.3283z" fill-rule="evenodd" stroke-width="1pt" fill="#b31b34"/>
<path d="m425.1,94,0-13.003-13.762-17.336,0-13.003-13.762-13.003-27.524,0-22.939-13.003-32.112,0,0.003,69.35,110.1,0z" fill-rule="evenodd" stroke-width="1pt" fill="#ff9a00"/>
<path d="m315,163.35-8.4955,0-9.8544-8.6683-15.632-0.00049-8.4953-4.3343,4.2476-4.3345,8.4955,4.3345,8.4953,0,8.4953-13.003,12.743,4.3345,0,8.6688-12.743,0,12.743,13.003z" fill-rule="evenodd" stroke-width="1pt" fill="#b31b34"/>
<path d="m204.9,94,0-13.003,13.762-17.336,0-13.003,13.762-13.003,27.524,0,22.939-13.003,32.112,0-0.003,69.35-110.1,0z" fill-rule="evenodd" stroke-width="1pt" fill="#FFF"/>
<path d="m315,24.65-8.4955,0-9.8544,8.6683-15.632,0.00049-8.4953,4.3343,4.2476,4.3345,8.4955-4.3345,8.4953,0,8.4953,13.003,12.743-4.3345,0-8.6688-12.743,0,12.743-13.003z" fill-rule="evenodd" stroke-width="1pt" fill="#b31b34"/>
<path d="m315,24.65,8.4955,0,9.8544,8.6683,15.632,0.00049,8.4953,4.3343-4.2476,4.3345-8.4955-4.3345-8.4953,0-8.4953,13.003-12.743-4.3345,0-8.6688,12.743,0-12.743-13.003z" fill-rule="evenodd" stroke-width="1pt" fill="#b31b34"/>
<path d="m425.1,94,0,13.003-13.762,17.336,0,13.003-13.762,13.003-27.524,0-22.939,13.003-32.112,0,0.003-69.35,110.1,0z" fill-rule="evenodd" stroke-width="1pt" fill="#FFF"/>
<path d="m315,163.35,8.4955,0,9.8544-8.6683,15.632-0.00049,8.4953-4.3343-4.2476-4.3345-8.4955,4.3345-8.4953,0-8.4953-13.003-12.743,4.3345,0,8.6688,12.743,0l-12.73,13z" fill-rule="evenodd" stroke-width="1pt" fill="#b31b34"/>
<path d="m257.94,72.329-16.757-11.146-10.009,0,3.337-3.714-6.672-7.4308,3.335-3.7154,10.009,3.7154,3.337-3.7154,1.5411,9.9273,18.477,11.751-6.5984,4.3283z" fill-rule="evenodd" stroke-width="1pt" fill="#b31b34"/>
<path d="m353.71,63.66,16.757-11.146,10.009,0-3.337-3.714,6.672-7.4308-3.335-3.7154-10.009,3.7154-3.337-3.7154-1.5411,9.9273-18.477,11.751,6.5984,4.3283z" fill-rule="evenodd" stroke-width="1pt" fill="#b31b34"/>
<path d="m276.29,63.66-16.757-11.146-10.009,0,3.337-3.714-6.672-7.4308,3.335-3.7154,10.009,3.7154,3.337-3.7154,1.5411,9.9273,18.477,11.751-6.5984,4.3283z" fill-rule="evenodd" stroke-width="1pt" fill="#b31b34"/>
<path d="m248.76,89.666-16.757-11.146-10.009,0,3.337-3.714-6.672-7.4308,3.335-3.7154,10.009,3.7154,3.337-3.7154,1.5411,9.9273,18.477,11.751-6.5984,4.3283z" fill-rule="evenodd" stroke-width="1pt" fill="#b31b34"/>
<path d="m213.05,94.001,4.2501,0,4.2474,4.3335,4.2474-4.3335,89.201-0.0027,0,60.682-4.2474,0,4.2474,4.3361,0,4.3335-12.742-13.003,0-4.3335,4.2474,0,0,4.3335,4.2474,0,0-4.3335-34.49-19.144-29.054,0,0-18.784-12.914-9.751-8.4948,0-4.2474,4.3335,4.2474,4.3361-4.2474,0-8.4975-13.003z" fill-rule="evenodd" stroke-width="0" fill="#FFF"/>
<path d="m213.05,93.997,4.2501,0,4.2474-4.3335,4.2474,4.3335,89.201,0.0027,0-60.682-4.2474,0,4.2474-4.3361,0-4.3335-12.742,13.003,0,4.3335,4.2474,0,0-4.3335,4.2474,0,0,4.3335-34.49,19.144-29.054,0,0,18.784-12.914,9.751-8.4948,0-4.2474-4.3335,4.2474-4.3361-4.2474,0-8.4975,13.003z" fill-rule="evenodd" stroke-width="0" fill="#ff9a00"/>
<path d="m232.43,94,82.574,0,0,52.014-36.699-21.672-27.525,0,0-17.339-18.351-13.004z" fill-rule="evenodd" stroke-width="0" fill="#006a4e"/>
<path d="m372.06,72.329,16.757-11.146,10.009,0-3.337-3.714,6.672-7.4308-3.335-3.7154-10.009,3.7154-3.337-3.7154-1.5411,9.9273-18.477,11.751,6.5984,4.3283z" fill-rule="evenodd" stroke-width="1pt" fill="#b31b34"/>
<path d="m381.24,89.666,16.757-11.146,10.009,0-3.337-3.714,6.672-7.4308-3.335-3.7154-10.009,3.7154-3.337-3.7154-1.5411,9.9273-18.477,11.751,6.5984,4.3283z" fill-rule="evenodd" stroke-width="1pt" fill="#b31b34"/>
<path d="m416.95,93.999-4.2501,0-4.2474-4.3335-4.2474,4.3335-89.201,0.0026,0-60.682,4.2474,0-4.2474-4.3361,0-4.3335,12.742,13.003,0,4.3335-4.2474,0,0-4.3335-4.2474,0,0,4.3335,34.49,19.144,29.054,0,0,18.784,12.914,9.751,8.4948,0,4.2474-4.3335-4.2474-4.3361,4.2474,0,8.4975,13.003z" fill-rule="evenodd" stroke-width="0" fill="#FFF"/>
<path d="m397.57,94.002-82.574,0,0-52.014,36.699,21.672,27.525,0,0,17.339,18.351,13.004z" fill-rule="evenodd" stroke-width="0" fill="#006a4e"/>
<path d="m353.71,124.34,16.757,11.146,10.009,0-3.337,3.714,6.672,7.4308-3.335,3.7154-10.009-3.7154-3.337,3.7154-1.5411-9.9273-18.477-11.751,6.5984-4.3283z" fill-rule="evenodd" stroke-width="1pt" fill="#b31b34"/>
<path d="m372.06,115.67,16.757,11.146,10.009,0-3.337,3.714,6.672,7.4308-3.335,3.7154-10.009-3.7154-3.337,3.7154-1.5411-9.9273-18.477-11.751,6.5984-4.3283z" fill-rule="evenodd" stroke-width="1pt" fill="#b31b34"/>
<path d="m381.24,98.335,16.757,11.146,10.009,0-3.337,3.714,6.672,7.4308-3.335,3.7154-10.009-3.7154-3.337,3.7154-1.5411-9.9273-18.477-11.751,6.5984-4.3283z" fill-rule="evenodd" stroke-width="1pt" fill="#b31b34"/>
<path d="m416.95,94.003-4.2501,0-4.2474,4.3335-4.2474-4.3335-89.201-0.0027,0,60.682,4.2474,0-4.2474,4.3361,0,4.3335,12.742-13.003,0-4.3335-4.2474,0,0,4.3335-4.2474,0,0-4.3335,34.49-19.144,29.054,0,0-18.784,12.914-9.751,8.4948,0,4.2474,4.3335-4.2474,4.3361,4.2474,0,8.4975-13.003z" fill-rule="evenodd" stroke-width="0" fill="#ff9a00"/>
<path d="m397.57,94.001-82.574,0,0,52.014,36.699-21.672,27.525,0,0-17.339,18.351-13.004z" fill-rule="evenodd" stroke-width="0" fill="#b31b34"/>
<path d="m232.43,94.002,82.574,0,0-52.014-36.699,21.672-27.525,0,0,17.339-18.351,13.004z" fill-rule="evenodd" stroke-width="0" fill="#b31b34"/>
<path d="m324.07,94.001,23.041-13.004,13.762,0-4.5884-4.3331,9.1741-8.6695-4.5857-4.3348-13.762,4.3348-4.5884-4.3348-2.119,11.582-25.406,13.71,9.0728,5.0499z" fill-rule="evenodd" stroke-width="1pt" fill="#b31b34"/>
<path d="m305.93,94.001-23.041,13.004-13.762,0,4.5884,4.3331-9.1741,8.6695,4.5857,4.3348,13.762-4.3348,4.5884,4.3348,2.119-11.582,25.406-13.71-9.0728-5.0499z" fill-rule="evenodd" stroke-width="1pt" fill="#b31b34"/>
<path d="m305.93,94.001-23.041-13.004-13.762,0,4.5884-4.3331-9.1741-8.6695,4.5857-4.3348,13.762,4.3348,4.5884-4.3348,2.119,11.582,25.406,13.71-9.0728,5.0499z" fill-rule="evenodd" stroke-width="1pt" fill="#006a4e"/>
<path d="m324.07,94.001,23.041,13.004,13.762,0-4.5884,4.3331,9.1741,8.6695-4.5857,4.3348-13.762-4.3348-4.5884,4.3348-2.119-11.582-25.406-13.71,9.0728-5.0499z" fill-rule="evenodd" stroke-width="1pt" fill="#006a4e"/>
<path fill-rule="evenodd" fill="#FFF" d="M276.29,94,315,72.328,353.71,94,315,115.67,276.29,94z"/>
<path d="m225.8,102.67,4.2476,4.3342-4.2476,4.3345-4.2476,0-12.743-17.338,4.2479,0,8.4953,13.003,4.2476,0-4.2476-4.3342,4.2476-4.3345,8.4953,0,0,4.3345-8.4953,0z" fill-rule="evenodd" stroke-width="1pt" fill="#b31b34"/>
<path d="m225.8,85.331,4.2476-4.3343-4.2476-4.3345-4.2476,0-12.743,17.338,4.2479,0,8.4953-13.003,4.2476,0-4.2476,4.3343,4.2476,4.3345,8.4953,0,0-4.3345-8.4953,0z" fill-rule="evenodd" stroke-width="1pt" fill="#b31b34"/>
<path d="m404.2,102.67-4.2476,4.3342,4.2476,4.3345,4.2476,0,12.743-17.338-4.2479,0-8.4953,13.003-4.2476,0,4.2476-4.3342-4.2476-4.3345-8.4953,0,0,4.3345,8.4953,0z" fill-rule="evenodd" stroke-width="1pt" fill="#b31b34"/>
<path d="m404.2,85.331-4.2476-4.3343,4.2476-4.3345,4.2476,0,12.743,17.338-4.2479,0-8.4953-13.003-4.2476,0,4.2476,4.3343-4.2476,4.3345-8.4953,0,0-4.3345,8.4953,0z" fill-rule="evenodd" stroke-width="1pt" fill="#b31b34"/>
<rect fill-rule="evenodd" height="33.547" width="17.339" y="77.226" x="306.33" stroke-width="1pt" fill="#b31b34"/>
<rect fill-rule="evenodd" height="17.338" width="45.467" y="85.331" x="292.27" fill="#b31b34"/>
<g fill-rule="evenodd" transform="matrix(1.058217,0,0,1.0871474,-18.84115,-88.480577)" fill="#ff9a00">
<path d="m292.52,992.01s9.6866-14.79,34.097-19.272c24.41-4.4826,28.673,9.8607,42.621,9.8607,13.949,0,36.035-9.8607,36.035-9.8607s-22.086,18.824-39.134,18.376c-17.049-0.44724-22.861-9.8597-40.297-8.5149-17.436,1.3438-33.322,9.8596-33.322,9.4114z" stroke-width="1pt"/>
<path d="m339.64,992.01s-9.6866-14.79-34.097-19.272c-24.41-4.4826-28.673,9.8607-42.621,9.8607-13.949,0-36.035-9.8607-36.035-9.8607s22.086,18.824,39.134,18.376c17.049-0.44724,22.861-9.8597,40.297-8.5149,17.436,1.3438,33.322,9.8596,33.322,9.4114z" stroke-width="1pt"/>
<g transform="matrix(1.2699997,0,0,2.15829,180,4.7967274e-4)" font-size="12px">
<path d="m62.845,448.29c-1.6925-1.8128-5.9231-9.7237-3.6671-10.713,3.385-0.65896,12.41,7.4167,11.565,14.669-5.9231,1.648-25.948-0.65933-25.667-2.8022,1.4104-2.9666,12.692-1.9776,17.769-1.1538z"/>
<path d="m50.748,441.38c-1.1076-2.0121-2.8536-10.348-0.34695-10.998,3.5115-0.16802,9.8991,9.0049,6.8776,15.982-6.2941,0.77825-25.19-4.2998-24.266-6.3568,2.2776-2.7041,13.017-0.1474,17.736,1.3737z"/>
<path d="m40.914,433.64c-0.7498-2.0876-1.0336-10.506,1.5684-10.949,3.5159,0.11747,8.263,9.7428,4.0495,16.425-6.385,0.26315-24.264-6.3089-22.989-8.2766,2.7318-2.5006,12.951,0.90758,17.371,2.7999z"/>
<path d="m33.161,425.4c-0.2665-2.1416,1.3656-10.489,4.0367-10.651,3.4467,0.48786,5.9499,10.499,0.26916,16.655-6.3676-0.41526-22.538-8.7986-20.831-10.608,3.2669-2.1815,12.588,2.2662,16.526,4.6031z"/>
<path d="m27.764,416.77c0.18713-2.1456,3.5596-10.246,6.237-10.145,3.3083,0.82058,3.678,10.973-3.2399,16.509-6.2142-1.035-20.452-10.916-18.382-12.539,3.6922-1.8387,11.981,3.4764,15.385,6.1749z"/>
<path d="m29.272,406.95c-0.4584,8.5923-3.5102,8.6929-9.0812,2.3417-2.4658-2.3993-2.7701-12.364-0.54826-12.736,3.2115-0.0341,9.5416,7.0722,9.6294,10.394z"/>
</g>
<g transform="matrix(-1.2699997,0,0,2.15829,450.95021,2.8619869)" font-size="12px">
<path d="m62.845,447.87c-1.6925-1.8128-5.9231-9.7237-3.6671-10.713,3.385-0.65896,12.41,7.4167,11.565,14.669-5.9231,1.648-25.948-0.65933-25.667-2.8022,1.4104-2.9666,12.692-1.9776,17.769-1.1538z"/>
<path d="m50.748,440.96c-1.1076-2.0121-2.8536-10.348-0.34695-10.998,3.5115-0.16802,9.8991,9.0049,6.8776,15.982-6.2941,0.77824-25.19-4.2998-24.266-6.3568,2.2776-2.7041,13.017-0.1474,17.736,1.3737z"/>
<path d="m40.914,433.22c-0.7498-2.0876-1.0336-10.506,1.5684-10.949,3.5159,0.11747,8.263,9.7427,4.0495,16.425-6.385,0.26314-24.264-6.3089-22.989-8.2766,2.7318-2.5006,12.951,0.90758,17.371,2.7999z"/>
<path d="m33.161,424.98c-0.2665-2.1416,1.3656-10.489,4.0367-10.651,3.4467,0.48786,5.9499,10.499,0.26916,16.655-6.3676-0.41525-22.538-8.7986-20.831-10.608,3.2669-2.1815,12.588,2.2662,16.526,4.6031z"/>
<path d="m27.764,416.35c0.18713-2.1456,3.5596-10.246,6.237-10.145,3.3083,0.82058,3.678,10.973-3.2399,16.509-6.2142-1.035-20.452-10.916-18.382-12.539,3.6922-1.8387,11.981,3.4764,15.385,6.1749z"/>
<path d="m29.272,406.53c-0.4584,8.5923-3.5102,8.6929-9.0812,2.3417-2.4658-2.3993-2.7701-12.364-0.54826-12.736,3.2115-0.0341,9.5416,7.0723,9.6294,10.394z"/>
</g>
</g>
<g transform="matrix(2.0250088,0,0,2.6148651,433.39129,-155.02752)" font-size="12px" fill-rule="evenodd">
<path d="m-3.5433,290.55-5.3149,0,0,3.543-5.315,0,0,3.543-21.26,0-3.5433,3.544,1.7717,1.771,8.8582,0,1.7717-1.771-8.8583,0,1.7717-1.772,12.402,0-5.315,5.315-12.402,0-3.5433-1.772-3.5434,1.771-12.402,0.001-5.3151-5.317,12.402,0.002,1.7717,1.772-8.8583-0.002,1.7717,1.773,8.8583,0,1.7716-1.771-3.5433-3.544-19.488,0,0-3.543-5.315,0,0-3.543-5.315,0,0-15.945,5.315,0,0-3.543,5.315,0,0-3.543,19.488,0,3.5433-3.544-1.7716-1.771-8.8583,0-1.7717,1.773,8.8583-0.002-1.7717,1.772-12.402,0.002,5.3151-5.317,12.402,0.001,3.5434,1.771,3.5433-1.772,12.402,0,5.315,5.315-12.402,0-1.7717-1.772,8.8583,0-1.7717-1.771-8.8582,0-1.7717,1.771,3.5433,3.544,21.26,0,0,3.543,5.315,0,0,3.543,5.3149,0,0,15.945z" transform="matrix(1.488372,0,0,1.240008,3.502076,-39.4744)" stroke="#000" stroke-width="0.125" fill="#b31b34"/>
<path d="m375.59,499.67,0,24.803,10.629,0,0,7.019,10.63,0,0,7.087,35.433,0,14.174,10.63,14.173-10.63,38.976,0,0-7.019,10.63-0.068,0-7.087,10.63,0,0-24.803-10.63,0,0-7.086-10.63,0.068,0-7.155-38.976,0-14.173-10.63-14.174,10.63-35.433,0,0,7.155-10.63,0,0,7.086-10.629,0z" transform="matrix(0.744189,0,0,0.620003,-392.0314,-6.521002)" stroke="#ff9a00" stroke-width="1pt" fill="#006a4e"/>
<path d="m425.2,492.52-21.26,17.716,0-17.716,21.26,0z" transform="matrix(0.744189,0,0,0.620003,-392.0314,-8.718029)" stroke-width="1pt" fill="#b31b34"/>
<path d="m425.2,492.52-21.26,17.717,0-17.717,21.26,0z" transform="matrix(-0.744189,0,0,0.620003,272.4649,-8.718359)" stroke-width="1pt" fill="#b31b34"/>
<path d="m425.2,492.52-21.26,17.716,0-17.716,21.26,0z" transform="matrix(0.744189,0,0,-0.620003,-392.0314,630.5686)" stroke-width="1pt" fill="#b31b34"/>
<path d="m425.2,492.52-21.26,17.717,0-17.717,21.26,0z" transform="matrix(-0.744184,0,0,-0.620003,272.4628,630.5693)" stroke-width="1pt" fill="#b31b34"/>
<path d="m474.8,506.69-7.086,7.087,14.173,0-7.087-7.087z" transform="matrix(0.744189,0,0,0.620003,-392.0314,-10.91466)" stroke-width="1pt" fill="#b31b34"/>
<path d="m418.11,506.69-7.086,7.087,14.173,0-7.087-7.087z" transform="matrix(0.744189,0,0,0.620003,-392.0315,-10.91476)" stroke-width="1pt" fill="#b31b34"/>
<path d="m418.11,506.69-7.086,7.087,14.173,0-7.087-7.087z" transform="matrix(0.744189,0,0,-0.620003,-392.0317,632.7654)" stroke-width="1pt" fill="#b31b34"/>
<path d="m418.11,506.69-7.086,7.087,14.173,0-7.087-7.087z" transform="matrix(0.744189,0,0,-0.620003,-349.8415,632.7654)" stroke-width="1pt" fill="#b31b34"/>
<path d="m418.11,506.69-7.086,7.087,14.173,0-7.087-7.087z" transform="matrix(0.744189,0,0,-0.620003,-370.9364,643.7498)" stroke-width="1pt" fill="#ff9a00"/>
<path d="m418.11,506.69-7.086,7.087,14.173,0-7.087-7.087z" transform="matrix(0.744189,0,0,-0.620003,-370.9366,621.7813)" stroke-width="1pt" fill="#ff9a00"/>
<path d="m418.11,506.69-7.086,7.087,14.173,0-7.087-7.087z" transform="matrix(0.744189,0,0,0.620003,-370.9366,-21.89934)" stroke-width="1pt" fill="#ff9a00"/>
<path d="m418.11,506.69-7.086,7.087,14.173,0-7.087-7.087z" transform="matrix(0.744189,0,0,0.620003,-370.9364,0.06925201)" stroke-width="1pt" fill="#ff9a00"/>
<rect transform="matrix(0.744189,0,0,0.620003,-392.0314,-6.521002)" height="3.5433" width="14.173" stroke="#000" y="506.69" x="467.72" stroke-width="0.125" fill="#ff9a00"/>
<rect transform="matrix(0.744189,0,0,0.620003,-392.0314,-6.521002)" height="3.5433" width="7.0866" stroke="#000" y="510.24" x="414.57" stroke-width="0.125" fill="#C00"/>
<rect transform="matrix(0.744189,0,0,0.620003,-392.0314,-6.521002)" height="3.5433" width="7.0866" stroke="#000" y="510.24" x="471.26" stroke-width="0.125" fill="#C00"/>
<rect transform="matrix(0.744189,0,0,0.620003,-392.0314,-6.521002)" height="3.5432" width="14.173" stroke="#000" y="488.98" x="439.37" stroke-width="0.125" fill="#900"/>
<rect transform="matrix(0.744189,0,0,0.620003,-392.0314,-6.521002)" height="3.5432" width="14.173" stroke="#000" y="496.06" x="439.37" stroke-width="0.125" fill="#900"/>
<rect transform="matrix(0.744189,0,0,0.620003,-392.0314,-6.521002)" height="3.5432" width="21.26" stroke="#000" y="492.52" x="435.83" stroke-width="0.125" fill="#900"/>
<rect transform="matrix(0.744189,0,0,0.620003,-392.0314,-6.521002)" height="3.5432" width="14.173" stroke="#000" y="524.41" x="439.37" stroke-width="0.125" fill="#900"/>
<rect transform="matrix(0.744189,0,0,0.620003,-392.0314,-6.521002)" height="3.5432" width="14.173" stroke="#000" y="531.5" x="439.37" stroke-width="0.125" fill="#900"/>
<rect transform="matrix(0.744189,0,0,0.620003,-392.0314,-6.521002)" height="3.5432" width="21.26" stroke="#000" y="527.95" x="435.83" stroke-width="0.125" fill="#900"/>
<rect transform="matrix(0.744189,0,0,0.620003,-392.0314,-6.521002)" height="3.5433" width="14.173" stroke="#000" y="513.78" x="467.72" stroke-width="0.125" fill="#ff9a00"/>
<rect transform="matrix(0.744189,0,0,0.620003,-392.0314,-6.521002)" height="3.5433" width="14.173" stroke="#000" y="506.69" x="411.02" stroke-width="0.125" fill="#ff9a00"/>
<rect transform="matrix(0.744189,0,0,0.620003,-392.0314,-6.521002)" height="3.5433" width="14.173" stroke="#000" y="513.78" x="411.02" stroke-width="0.125" fill="#ff9a00"/>
<rect transform="matrix(0.744189,0,0,0.620003,-392.0314,-6.521002)" height="3.5433" width="7.0866" stroke="#000" y="510.24" x="407.48" stroke-width="0.125" fill="#ff9a00"/>
<rect transform="matrix(0.744189,0,0,0.620003,-392.0314,-6.521002)" height="3.5433" width="7.0866" stroke="#000" y="510.24" x="421.65" stroke-width="0.125" fill="#ff9a00"/>
<rect transform="matrix(0.744189,0,0,0.620003,-392.0314,-6.521002)" height="3.5433" width="7.0866" stroke="#000" y="510.24" x="464.17" stroke-width="0.125" fill="#ff9a00"/>
<rect transform="matrix(0.744189,0,0,0.620003,-392.0314,-6.521002)" height="3.5433" width="7.0866" stroke="#000" y="510.24" x="478.35" stroke-width="0.125" fill="#ff9a00"/>
<path d="m414.57,581.99c0,0.48923-0.3966,0.88584-0.88583,0.88584-0.48924,0-0.88584-0.39661-0.88584-0.88584s0.3966-0.88584,0.88584-0.88584c0.48923,0,0.88583,0.39661,0.88583,0.88584z" transform="matrix(0.744189,0,0,0.620003,-374.1408,-38.9122)" stroke-width="1pt" fill="#FFF"/>
<path d="m414.57,581.99c0,0.48923-0.3966,0.88584-0.88583,0.88584-0.48924,0-0.88584-0.39661-0.88584-0.88584s0.3966-0.88584,0.88584-0.88584c0.48923,0,0.88583,0.39661,0.88583,0.88584z" transform="matrix(0.744189,0,0,0.620003,-367.5691,-38.9122)" stroke-width="1pt" fill="#FFF"/>
<path d="m414.57,581.99c0,0.48923-0.3966,0.88584-0.88583,0.88584-0.48924,0-0.88584-0.39661-0.88584-0.88584s0.3966-0.88584,0.88584-0.88584c0.48923,0,0.88583,0.39661,0.88583,0.88584z" transform="matrix(0.744189,0,0,0.620003,-360.9974,-38.95784)" stroke-width="1pt" fill="#FFF"/>
<path d="m414.57,581.99c0,0.48923-0.3966,0.88584-0.88583,0.88584-0.48924,0-0.88584-0.39661-0.88584-0.88584s0.3966-0.88584,0.88584-0.88584c0.48923,0,0.88583,0.39661,0.88583,0.88584z" transform="matrix(0.744189,0,0,0.620003,-371.5121,-41.10225)" stroke-width="1pt" fill="#FFF"/>
<path d="m414.57,581.99c0,0.48923-0.3966,0.88584-0.88583,0.88584-0.48924,0-0.88584-0.39661-0.88584-0.88584s0.3966-0.88584,0.88584-0.88584c0.48923,0,0.88583,0.39661,0.88583,0.88584z" transform="matrix(0.744189,0,0,0.620003,-363.6808,-41.14785)" stroke-width="1pt" fill="#FFF"/>
<path d="m414.57,581.99c0,0.48923-0.3966,0.88584-0.88583,0.88584-0.48924,0-0.88584-0.39661-0.88584-0.88584s0.3966-0.88584,0.88584-0.88584c0.48923,0,0.88583,0.39661,0.88583,0.88584z" transform="matrix(0.744189,0,0,0.620003,-371.5669,-36.76774)" stroke-width="1pt" fill="#FFF"/>
<path d="m414.57,581.99c0,0.48923-0.3966,0.88584-0.88583,0.88584-0.48924,0-0.88584-0.39661-0.88584-0.88584s0.3966-0.88584,0.88584-0.88584c0.48923,0,0.88583,0.39661,0.88583,0.88584z" transform="matrix(0.744189,0,0,0.620003,-363.6808,-36.67654)" stroke-width="1pt" fill="#FFF"/>
<path d="m414.57,581.99c0,0.48923-0.3966,0.88584-0.88583,0.88584-0.48924,0-0.88584-0.39661-0.88584-0.88584s0.3966-0.88584,0.88584-0.88584c0.48923,0,0.88583,0.39661,0.88583,0.88584z" transform="matrix(0.744189,0,0,0.620003,-353.1661,-49.99918)" stroke-width="1pt" fill="#FFF"/>
<path d="m414.57,581.99c0,0.48923-0.3966,0.88584-0.88583,0.88584-0.48924,0-0.88584-0.39661-0.88584-0.88584s0.3966-0.88584,0.88584-0.88584c0.48923,0,0.88583,0.39661,0.88583,0.88584z" transform="matrix(0.744189,0,0,0.620003,-346.5944,-49.99918)" stroke-width="1pt" fill="#FFF"/>
<path d="m414.57,581.99c0,0.48923-0.3966,0.88584-0.88583,0.88584-0.48924,0-0.88584-0.39661-0.88584-0.88584s0.3966-0.88584,0.88584-0.88584c0.48923,0,0.88583,0.39661,0.88583,0.88584z" transform="matrix(0.744189,0,0,0.620003,-340.0227,-50.04488)" stroke-width="1pt" fill="#FFF"/>
<path d="m414.57,581.99c0,0.48923-0.3966,0.88584-0.88583,0.88584-0.48924,0-0.88584-0.39661-0.88584-0.88584s0.3966-0.88584,0.88584-0.88584c0.48923,0,0.88583,0.39661,0.88583,0.88584z" transform="matrix(0.744189,0,0,0.620003,-350.5374,-52.18929)" stroke-width="1pt" fill="#FFF"/>
<path d="m414.57,581.99c0,0.48923-0.3966,0.88584-0.88583,0.88584-0.48924,0-0.88584-0.39661-0.88584-0.88584s0.3966-0.88584,0.88584-0.88584c0.48923,0,0.88583,0.39661,0.88583,0.88584z" transform="matrix(0.744189,0,0,0.620003,-342.7061,-52.23489)" stroke-width="1pt" fill="#FFF"/>
<path d="m414.57,581.99c0,0.48923-0.3966,0.88584-0.88583,0.88584-0.48924,0-0.88584-0.39661-0.88584-0.88584s0.3966-0.88584,0.88584-0.88584c0.48923,0,0.88583,0.39661,0.88583,0.88584z" transform="matrix(0.744189,0,0,0.620003,-350.5922,-47.85478)" stroke-width="1pt" fill="#FFF"/>
<path d="m414.57,581.99c0,0.48923-0.3966,0.88584-0.88583,0.88584-0.48924,0-0.88584-0.39661-0.88584-0.88584s0.3966-0.88584,0.88584-0.88584c0.48923,0,0.88583,0.39661,0.88583,0.88584z" transform="matrix(0.744189,0,0,0.620003,-342.7061,-47.76358)" stroke-width="1pt" fill="#FFF"/>
<path d="m414.57,581.99c0,0.48923-0.3966,0.88584-0.88583,0.88584-0.48924,0-0.88584-0.39661-0.88584-0.88584s0.3966-0.88584,0.88584-0.88584c0.48923,0,0.88583,0.39661,0.88583,0.88584z" transform="matrix(0.744189,0,0,0.620003,-374.1956,-60.90373)" stroke-width="1pt" fill="#FFF"/>
<path d="m414.57,581.99c0,0.48923-0.3966,0.88584-0.88583,0.88584-0.48924,0-0.88584-0.39661-0.88584-0.88584s0.3966-0.88584,0.88584-0.88584c0.48923,0,0.88583,0.39661,0.88583,0.88584z" transform="matrix(0.744189,0,0,0.620003,-367.6239,-60.90373)" stroke-width="1pt" fill="#FFF"/>
<path d="m414.57,581.99c0,0.48923-0.3966,0.88584-0.88583,0.88584-0.48924,0-0.88584-0.39661-0.88584-0.88584s0.3966-0.88584,0.88584-0.88584c0.48923,0,0.88583,0.39661,0.88583,0.88584z" transform="matrix(0.744189,0,0,0.620003,-361.0521,-60.94933)" stroke-width="1pt" fill="#FFF"/>
<path d="m414.57,581.99c0,0.48923-0.3966,0.88584-0.88583,0.88584-0.48924,0-0.88584-0.39661-0.88584-0.88584s0.3966-0.88584,0.88584-0.88584c0.48923,0,0.88583,0.39661,0.88583,0.88584z" transform="matrix(0.744189,0,0,0.620003,-371.5669,-63.09374)" stroke-width="1pt" fill="#FFF"/>
<path d="m414.57,581.99c0,0.48923-0.3966,0.88584-0.88583,0.88584-0.48924,0-0.88584-0.39661-0.88584-0.88584s0.3966-0.88584,0.88584-0.88584c0.48923,0,0.88583,0.39661,0.88583,0.88584z" transform="matrix(0.744189,0,0,0.620003,-363.7356,-63.13934)" stroke-width="1pt" fill="#FFF"/>
<path d="m414.57,581.99c0,0.48923-0.3966,0.88584-0.88583,0.88584-0.48924,0-0.88584-0.39661-0.88584-0.88584s0.3966-0.88584,0.88584-0.88584c0.48923,0,0.88583,0.39661,0.88583,0.88584z" transform="matrix(0.744189,0,0,0.620003,-371.6217,-58.75922)" stroke-width="1pt" fill="#FFF"/>
<path d="m414.57,581.99c0,0.48923-0.3966,0.88584-0.88583,0.88584-0.48924,0-0.88584-0.39661-0.88584-0.88584s0.3966-0.88584,0.88584-0.88584c0.48923,0,0.88583,0.39661,0.88583,0.88584z" transform="matrix(0.744189,0,0,0.620003,-363.7356,-58.66803)" stroke-width="1pt" fill="#FFF"/>
<path d="m414.57,581.99c0,0.48923-0.3966,0.88584-0.88583,0.88584-0.48924,0-0.88584-0.39661-0.88584-0.88584s0.3966-0.88584,0.88584-0.88584c0.48923,0,0.88583,0.39661,0.88583,0.88584z" transform="matrix(0.744189,0,0,0.620003,-395.2799,-49.81669)" stroke-width="1pt" fill="#FFF"/>
<path d="m414.57,581.99c0,0.48923-0.3966,0.88584-0.88583,0.88584-0.48924,0-0.88584-0.39661-0.88584-0.88584s0.3966-0.88584,0.88584-0.88584c0.48923,0,0.88583,0.39661,0.88583,0.88584z" transform="matrix(0.744189,0,0,0.620003,-388.7082,-49.81669)" stroke-width="1pt" fill="#FFF"/>
<path d="m414.57,581.99c0,0.48923-0.3966,0.88584-0.88583,0.88584-0.48924,0-0.88584-0.39661-0.88584-0.88584s0.3966-0.88584,0.88584-0.88584c0.48923,0,0.88583,0.39661,0.88583,0.88584z" transform="matrix(0.744189,0,0,0.620003,-382.1364,-49.86234)" stroke-width="1pt" fill="#FFF"/>
<path d="m414.57,581.99c0,0.48923-0.3966,0.88584-0.88583,0.88584-0.48924,0-0.88584-0.39661-0.88584-0.88584s0.3966-0.88584,0.88584-0.88584c0.48923,0,0.88583,0.39661,0.88583,0.88584z" transform="matrix(0.744189,0,0,0.620003,-392.6512,-52.00675)" stroke-width="1pt" fill="#FFF"/>
<path d="m414.57,581.99c0,0.48923-0.3966,0.88584-0.88583,0.88584-0.48924,0-0.88584-0.39661-0.88584-0.88584s0.3966-0.88584,0.88584-0.88584c0.48923,0,0.88583,0.39661,0.88583,0.88584z" transform="matrix(0.744189,0,0,0.620003,-384.8199,-52.05235)" stroke-width="1pt" fill="#FFF"/>
<path d="m414.57,581.99c0,0.48923-0.3966,0.88584-0.88583,0.88584-0.48924,0-0.88584-0.39661-0.88584-0.88584s0.3966-0.88584,0.88584-0.88584c0.48923,0,0.88583,0.39661,0.88583,0.88584z" transform="matrix(0.744189,0,0,0.620003,-392.7059,-47.67223)" stroke-width="1pt" fill="#FFF"/>
<path d="m414.57,581.99c0,0.48923-0.3966,0.88584-0.88583,0.88584-0.48924,0-0.88584-0.39661-0.88584-0.88584s0.3966-0.88584,0.88584-0.88584c0.48923,0,0.88583,0.39661,0.88583,0.88584z" transform="matrix(0.744189,0,0,0.620003,-384.8199,-47.58104)" stroke-width="1pt" fill="#FFF"/>
</g>
<g transform="matrix(2.0939073,0,0,2.8153401,455.96771,-154.63787)" font-size="12px" fill-rule="evenodd">
<path d="m-79.724,145.28,3.5433,3.543,3.5433-3.543-7.0866,0z" transform="matrix(1.24,0,0,-0.499962,40.32284,315.349)" stroke-width="1pt" fill="#FFF"/>
<path d="m-79.724,145.28,3.5433,3.543,3.5433-3.543-7.0866,0z" transform="matrix(1.24,0,0,-0.499962,27.14174,315.3487)" stroke-width="1pt" fill="#FFF"/>
<path d="m-79.724,145.28,3.5433,3.543,3.5433-3.543-7.0866,0z" transform="matrix(1.24,0,0,-0.499962,13.96062,315.3486)" stroke-width="1pt" fill="#FFF"/>
<path d="m-79.724,145.28,3.5433,3.543,3.5433-3.543-7.0866,0z" transform="matrix(1.24,0,0,0.499962,40.32283,129.3362)" stroke-width="1pt" fill="#FFF"/>
<path d="m-79.724,145.28,3.5433,3.543,3.5433-3.543-7.0866,0z" transform="matrix(1.24,0,0,0.499962,27.14173,129.3362)" stroke-width="1pt" fill="#FFF"/>
<path d="m-79.724,145.28,3.5433,3.543,3.5433-3.543-7.0866,0z" transform="matrix(1.24,0,0,0.499962,13.96062,129.3362)" stroke-width="1pt" fill="#FFF"/>
<path d="m-62.197,241.91-5.1259,2.7651-5.1262-2.7651-5.126,2.7651-5.1256-2.7651,0,1.3818,3.4171,1.3834-1.709,1.3818,0,1.3826,1.709,0,1.7085-1.3826,1.7084,1.3826,1.709,0,0-1.3826-1.709-1.3818,3.4176-1.3826,3.4177,1.3826-1.7089,1.3818,0,1.3826,1.7089,0,1.7085-1.3826,1.7084,1.3826,1.7089,0,0-1.3826-1.7089-1.3818,3.4175-1.3826,3.4179,1.3818-1.709,1.3826,0,1.3826,1.709,0,1.7084-1.3826,1.7084,1.3826,1.7089,0,0-1.3826-1.7089-1.3826,3.4174-1.3826,0-1.3818-5.1258,2.7644-5.1263-2.7644z" stroke-width="0" fill="#006a4e"/>
<path d="m-62.197,201.82-5.1259-2.7651-5.1262,2.7651-5.126-2.7651-5.1256,2.7651,0-1.3818,3.4171-1.3834-1.709-1.3818,0-1.3826,1.709,0,1.7086,1.3826,1.7085-1.3826,1.709,0,0,1.3826-1.709,1.3818,3.4176,1.3826,3.4177-1.3826-1.7089-1.3818,0-1.3826,1.7089,0,1.7086,1.3826,1.7085-1.3826,1.7089,0,0,1.3826-1.7089,1.3818,3.4175,1.3826,3.4179-1.3818-1.709-1.3826,0-1.3826,1.709,0,1.7085,1.3826,1.7085-1.3826,1.7089,0,0,1.3826-1.7089,1.3826,3.4174,1.3826,0,1.3818-5.1258-2.7644-5.1263,2.7644z" stroke-width="0" fill="#006a4e"/>
<path d="m-23.386,224.86,5.4929-2.9951-5.4929-2.9953,5.4929-2.9952-5.4929-2.995,2.7449,0,2.748,1.9966,2.7449-0.99861,2.7465,0,0,0.99861-2.7465,0.99833,2.7465,0.99827,0,0.9986-2.7465,0-2.7449-0.9986-2.7465,1.9969,2.7465,1.997,2.7449-0.99855,2.7465,0,0,0.99855-2.7465,0.99833,2.7465,0.99826,0,0.99856-2.7465,0-2.7449-0.99856-2.7465,1.9969,2.7449,1.9971,2.7465-0.99861,2.7465,0,0,0.99861-2.7465,0.99827,2.7465,0.99827,0,0.99855-2.7465,0-2.7465-0.99855-2.7465,1.9968-2.7449,0,5.4914-2.9951-5.4914-2.9954z" stroke-width="0" fill="#006a4e"/>
<path d="m-111.26,224.86-5.4929-2.9951,5.4929-2.9953-5.4929-2.9952,5.4929-2.995-2.7449,0-2.748,1.9966-2.7449-0.99861-2.7465,0,0,0.99861,2.7465,0.99833-2.7465,0.99827,0,0.9986,2.7465,0,2.7449-0.9986,2.7464,1.9969-2.7464,1.997-2.7449-0.99855-2.7465,0,0,0.99855,2.7465,0.99833-2.7465,0.99826,0,0.99856,2.7465,0,2.7449-0.99856,2.7464,1.9969-2.7449,1.9971-2.7464-0.99861-2.7465,0,0,0.99861,2.7465,0.99827-2.7465,0.99827,0,0.99855,2.7465,0,2.7464-0.99855,2.7464,1.9968,2.7449,0-5.4914-2.9951,5.4914-2.9954z" stroke-width="0" fill="#006a4e"/>
<rect height="1.3824" width="2.1968" stroke="#000" y="235" x="-21.189" stroke-width="0.24591" fill="#006a4e"/>
<rect height="1.3824" width="2.1969" stroke="#000" y="236.38" x="-23.386" stroke-width="0.24591" fill="#006a4e"/>
<rect height="1.3824" width="2.1968" stroke="#000" y="243.3" x="-34.37" stroke-width="0.24591" fill="#006a4e"/>
<rect height="1.3824" width="2.1968" stroke="#000" y="241.91" x="-32.173" stroke-width="0.24591" fill="#006a4e"/>
<rect height="1.3824" width="2.1968" stroke="#000" y="241.91" x="-104.67" stroke-width="0.24591" fill="#006a4e"/>
<rect height="1.3824" width="2.1968" stroke="#000" y="235" x="-115.65" stroke-width="0.24591" fill="#006a4e"/>
<rect height="1.3824" width="2.1968" stroke="#000" y="236.38" x="-113.46" stroke-width="0.24591" fill="#006a4e"/>
<rect height="1.3824" width="2.1968" stroke="#000" y="205.97" x="-113.46" stroke-width="0.24591" fill="#006a4e"/>
<rect height="1.3824" width="2.1968" stroke="#000" y="207.35" x="-115.65" stroke-width="0.24591" fill="#006a4e"/>
<rect height="1.3824" width="2.1969" stroke="#000" y="199.06" x="-102.47" stroke-width="0.24591" fill="#006a4e"/>
<rect height="1.3824" width="2.1968" stroke="#000" y="200.44" x="-104.67" stroke-width="0.24591" fill="#006a4e"/>
<rect height="1.3824" width="2.1968" stroke="#000" y="199.06" x="-34.37" stroke-width="0.24591" fill="#006a4e"/>
<rect height="1.3824" width="2.1968" stroke="#000" y="200.44" x="-32.173" stroke-width="0.24591" fill="#006a4e"/>
<rect height="1.3824" width="2.1969" stroke="#000" y="205.97" x="-23.386" stroke-width="0.24591" fill="#006a4e"/>
<rect height="1.3824" width="2.1968" stroke="#000" y="207.35" x="-21.189" stroke-width="0.24591" fill="#006a4e"/>
<rect height="1.3824" width="2.1969" stroke="#000" y="243.3" x="-102.47" stroke-width="0.24591" fill="#006a4e"/>
<path d="m-74.027,221.87-6.4753-0.00062-0.0012-2.7168,4.3177,0.002,0-2.5476,4.3177,0,0-2.3395,4.3177,0,0,2.9243c-3.5752,0-6.4766,1.9809-6.4766,4.6788z" stroke-width="1.25" fill="#FFF"/>
<path d="m-61.074,221.87,6.4753-0.00061,0.0012-2.7168-4.3177,0.002,0-2.5476-4.3177,0,0-2.3395-4.3177,0,0,2.9243c3.5752,0,6.4766,1.9809,6.4766,4.6787z" stroke-width="1.25" fill="#ff9a00"/>
<path d="m-61.074,221.87,6.4753,0.00062,0.0012,2.7168-4.3177-0.002,0,2.5476-4.3177,0,0,2.3395-4.3177,0,0-2.9243c3.5752,0,6.4766-1.9809,6.4766-4.6788z" stroke-width="1.25" fill="#FFF"/>
<path d="m-74.027,221.87-6.4753,0.00061-0.0012,2.7168,4.3177-0.002,0,2.5476,4.3177,0,0,2.3395,4.3177,0,0-2.9243c-3.5752,0-6.4766-1.9809-6.4766-4.6788z" stroke-width="1.25" fill="#ff9a00"/>
<path d="m-61.074,221.87h-6.4762v-4.6788c3.5748,0,6.4762,2.0963,6.4762,4.6788z" stroke-width="1pt" fill="#006a4e"/>
<path d="m-61.075,221.87h-6.4762v4.6788c3.5748,0,6.4762-2.0963,6.4762-4.6788z" stroke-width="1pt" fill="#b31b34"/>
<path d="m-74.027,221.87h6.4762v4.6788c-3.5748,0-6.4762-2.0963-6.4762-4.6788z" stroke-width="1pt" fill="#006a4e"/>
<path d="m-74.027,221.87h6.4762v-4.6788c-3.5748,0-6.4762,2.0963-6.4762,4.6788z" stroke-width="1pt" fill="#b31b34"/>
<path d="m-60.732,239.15-6.5904-2.7653-6.5907,2.7653-6.5905-2.7653-6.59,2.7653,0-1.3819,4.3933-1.3834-2.1973-1.3819,0-1.3827,2.1973,0,2.1967,1.3827,2.1965-1.3827,2.1973,0,0,1.3827-2.1973,1.3819,4.3939,1.3827,4.3941-1.3827-2.1972-1.3819,0-1.3827,2.1972,0,2.1967,1.3827,2.1965-1.3827,2.1972,0,0,1.3827-2.1972,1.3819,4.3938,1.3827,4.3943-1.3819-2.1973-1.3826,0-1.3827,2.1973,0,2.1965,1.3827,2.1965-1.3827,2.1972,0,0,1.3827-2.1972,1.3826,4.3937,1.3827,0,1.3819-6.5902-2.7645-6.5908,2.7645z" stroke-width="0" fill="#006a4e"/>
<path d="m-60.732,204.59-6.5904,2.7653-6.5907-2.7653-6.5905,2.7653-6.59-2.7653,0,1.3819,4.3933,1.3834-2.1973,1.3819,0,1.3827,2.1973,0,2.1967-1.3827,2.1965,1.3827,2.1973,0,0-1.3827-2.1973-1.3819,4.3939-1.3826,4.3941,1.3826-2.1972,1.3819,0,1.3827,2.1972,0,2.1967-1.3827,2.1965,1.3827,2.1972,0,0-1.3827-2.1972-1.3819,4.3938-1.3826,4.3943,1.3819-2.1973,1.3827,0,1.3827,2.1973,0,2.1965-1.3827,2.1965,1.3827,2.1972,0,0-1.3827-2.1972-1.3827,4.3937-1.3826,0-1.3819-6.5902,2.7645-6.5908-2.7645z" stroke-width="0" fill="#006a4e"/>
<path d="m-36.566,225.33-3.296-3.4559,3.296-3.4561-3.296-3.456,3.296-3.4557-1.6471,0-1.6489,2.3038-1.6471-1.1522-1.648,0,0,1.1522,1.648,1.1519-1.648,1.1518,0,1.1522,1.648,0,1.6471-1.1522,1.648,2.3042-1.648,2.3042-1.6471-1.1522-1.648,0,0,1.1522,1.648,1.1519-1.648,1.1519,0,1.1522,1.648,0,1.6471-1.1522,1.648,2.3041-1.6471,2.3043-1.648-1.1522-1.648,0,0,1.1522,1.648,1.1518-1.648,1.1518,0,1.1522,1.648,0,1.648-1.1522,1.648,2.304,1.6471,0-3.2951-3.4559,3.2951-3.4562z" stroke-width="0" fill="#006a4e"/>
<path d="m-87.094,205.97-8.7879,5.5291,0,20.736,8.7879,5.5298,39.543,0,8.7875-5.5298,0-20.736-8.7875-5.5291-39.543,0zm-2.1973-4.148-21.969,13.823,0,12.442,21.969,13.824,43.937,0,21.968-13.824,0-12.442-21.968-13.823-43.937,0z" stroke="#000" stroke-width="0.39345598" fill="#006a4e"/>
<path d="m-77.868,239.15,3.515,2.7648,3.515-2.7648-7.0299,0z" stroke="#000" stroke-width="0.17958669" fill="#ff9a00"/>
<path d="m-77.868,204.59,3.515-2.7648,3.515,2.7648-7.0299,0z" stroke="#000" stroke-width="0.17958669" fill="#ff9a00"/>
<path d="m-63.808,204.59,3.515-2.7648,3.515,2.7648-7.0299,0z" stroke="#000" stroke-width="0.17958669" fill="#ff9a00"/>
<path d="m-63.808,239.15,3.515,2.7648,3.515-2.7648-7.0299,0z" stroke="#000" stroke-width="0.17958669" fill="#ff9a00"/>
<path d="m-84.898,204.59,3.515-2.7648,3.515,2.7648-7.0299,0z" stroke="#000" stroke-width="0.17958669" fill="#b31b34"/>
<path d="m-70.838,204.59,3.515-2.7648,3.515,2.7648-7.0299,0z" stroke="#000" stroke-width="0.17958669" fill="#b31b34"/>
<path d="m-56.778,204.59,3.515-2.7648,3.515,2.7648-7.0299,0z" stroke="#000" stroke-width="0.17958669" fill="#b31b34"/>
<path d="m-93.685,235,6.5914,4.1477-6.5914,0,0-4.1477z" stroke="#000" stroke-width="0.3688648" fill="#b31b34"/>
<path d="m-98.078,225.33,3.296-3.4559-3.296-3.4561,3.296-3.456-3.296-3.4557,1.6471,0,1.6489,2.3038,1.6471-1.1522,1.648,0,0,1.1522-1.648,1.1519,1.648,1.1518,0,1.1522-1.648,0-1.6471-1.1522-1.648,2.3042,1.648,2.3042,1.6471-1.1522,1.648,0,0,1.1522-1.648,1.1519,1.648,1.1519,0,1.1522-1.648,0-1.6471-1.1522-1.648,2.3041,1.6471,2.3043,1.648-1.1522,1.648,0,0,1.1522-1.648,1.1518,1.648,1.1518,0,1.1522-1.648,0-1.648-1.1522-1.648,2.304-1.6471,0,3.2951-3.4559-3.2951-3.4562z" stroke-width="0" fill="#006a4e"/>
<path d="m-34.37,218.14,8.7874,0,2.1969,1.2444-2.1969,1.2437-8.7874,0,0-2.4881z" stroke="#000" stroke-width="0.23329306" fill="#b31b34"/>
<path d="m-93.685,208.74-4.3933,2.7653,0,20.736,4.3933,2.7645-6.5918,0,0.001-26.266,6.5906,0z" stroke="#000" stroke-width="0.36886501" fill="#b31b34"/>
<path d="m-84.898,239.15,3.515,2.7648,3.515-2.7648-7.0299,0z" stroke="#000" stroke-width="0.17958669" fill="#b31b34"/>
<path d="m-70.838,239.15,3.515,2.7648,3.515-2.7648-7.0299,0z" stroke="#000" stroke-width="0.17958669" fill="#b31b34"/>
<path d="m-56.778,239.15,3.515,2.7648,3.515-2.7648-7.0299,0z" stroke="#000" stroke-width="0.17958669" fill="#b31b34"/>
<path d="m-40.961,208.74,4.3942,2.7653,0,20.736-4.3942,2.7645,6.5902,0,0-26.266-6.5902,0z" stroke="#000" stroke-width="0.36886501" fill="#b31b34"/>
<path d="m-40.96,235-6.5914,4.1477,6.5914,0,0-4.1477z" stroke="#000" stroke-width="0.3688648" fill="#b31b34"/>
<path d="m-40.96,208.74-6.5914-4.1477,6.5914,0,0,4.1477z" stroke="#000" stroke-width="0.3688648" fill="#b31b34"/>
<path d="m-93.686,208.74,6.5914-4.1477-6.5914,0,0,4.1477z" stroke="#000" stroke-width="0.3688648" fill="#b31b34"/>
<path d="m-87.094,205.97-8.7879,5.5291,0,20.736,8.7879,5.5298,39.543,0,8.7875-5.5298,0-20.736-8.7875-5.5291-39.543,0zm-0.0012-1.3834-10.984,6.9117,0,20.736,10.985,6.9117,39.542,0,10.984-6.9117,0-20.736-10.985-6.9117-39.543,0z" stroke="#000" stroke-width="0.39345598" fill="#006a4e"/>
<path d="m-34.37,220.63,8.7874,0,2.1969,1.2445-2.1969,1.2438-8.7874,0,0-2.4883z" stroke="#000" stroke-width="0.23330173" fill="#ff9a00"/>
<path d="m-34.37,223.11,8.7874,0,2.1969,1.2444-2.1969,1.2437-8.7874,0,0-2.4881z" stroke="#000" stroke-width="0.23329306" fill="#b31b34"/>
<path d="m-34.37,225.6,8.7874,0,2.1969,1.2445-2.1969,1.2438-8.7874,0,0-2.4883z" stroke="#000" stroke-width="0.23330173" fill="#ff9a00"/>
<path d="m-34.37,215.65,8.7874,0,2.1969,1.2445-2.1969,1.2438-8.7874,0,0-2.4883z" stroke="#000" stroke-width="0.23330173" fill="#ff9a00"/>
<path d="m-100.28,218.14-8.7874,0-2.1969,1.2444,2.1969,1.2437,8.7874,0,0-2.4881z" stroke="#000" stroke-width="0.23329279" fill="#b31b34"/>
<path d="m-100.28,220.63-8.7874,0-2.1969,1.2445,2.1969,1.2438,8.7874,0,0-2.4883z" stroke="#000" stroke-width="0.23330146" fill="#ff9a00"/>
<path d="m-100.28,223.11-8.7874,0-2.1969,1.2444,2.1969,1.2437,8.7874,0,0-2.4881z" stroke="#000" stroke-width="0.23329279" fill="#b31b34"/>
<path d="m-100.28,225.6-8.7874,0-2.1969,1.2445,2.1969,1.2438,8.7874,0,0-2.4883z" stroke="#000" stroke-width="0.23330146" fill="#ff9a00"/>
<path d="m-100.28,215.65-8.7874,0-2.1969,1.2445,2.1969,1.2438,8.7874,0,0-2.4883z" stroke="#000" stroke-width="0.23330146" fill="#ff9a00"/>
<path d="m-113.46,207.35,0,29.03,10.984,0,0,6.9117,70.299,0,0-6.9117,10.984,0,0-29.03-10.984,0,0-6.9117-70.299,0,0,6.9117-10.984,0zm2.1965,1.3827,0,26.265,10.984,0,0,6.9117,65.906,0,0-6.9117,10.984,0,0-26.265-10.984,0,0-6.9125-65.906,0,0,6.9125-10.984,0z" stroke="#000" stroke-width="0.24591" fill="#970000"/>
</g>
<g transform="matrix(2.0915599,0,0,2.177428,466.92579,-0.7241431)" fill-rule="evenodd">
<path d="m372.05,391.54,3.544-3.543,21.259,0,15.945-15.946,21.26,0,15.945,15.945,21.26,0,3.543,3.543-3.543,3.544-21.26,0-15.945,15.945-21.26,0-15.945-15.945-21.259,0-3.544-3.543z" transform="matrix(0.967743,0,0,1.052628,-482.4045,-277.8495)" stroke-width="1pt" fill="#b31b34"/>
<path d="m-120.47,129.84,1.7718-1.5747,21.259,0,15.945-15.746,17.717,0,15.945,15.746,21.26,0,1.7718,1.5747-1.7718,1.5739-21.26,0-14.173,14.172-21.259,0-14.174-14.172-21.259,0-1.7718-1.5739z" stroke="#000" stroke-dasharray="none" stroke-width="0.23568682" fill="#b31b34"/>
<path d="m-64.067,131.19,6.8584,6.6293-3.4287,3.3146-1.7148-1.6578-1.7139,0,0,1.6578,1.7139,1.6578,3.4297,0,3.4287-3.3156,0-3.3146-6.8574-6.6293,6.8574-6.6302,0-3.3146-3.4287-3.3146-3.4287,0-1.7148,1.6568,0,1.6578,1.7148,0,1.7139-1.6578,3.4287,3.3156-6.8574,6.6293-6.8584-6.6293,6.8584-6.6302,0-1.6568-1.7148,0-6.8574,6.6293-6.8584-6.6302-1.7148,0,0,1.6568,6.8584,6.6302-6.8584,6.6302-6.8584-6.6293,3.4287-3.3156,1.7148,1.6578,1.7148,0,0-1.6578-1.7148-1.6568-3.4287,0-3.4297,3.3146,0,3.3146,6.8584,6.6302-6.8584,6.6302,0,3.3146,3.4297,3.3146,3.4287,0,1.7148-1.6568,0-1.6578-1.7148,0-1.7148,1.6578-3.4287-3.3156,6.8584-6.6293,6.8574,6.6293-6.8574,6.6302-0.000968,1.6578,1.7148,0,6.8584-6.6302,6.8584,6.6302,1.7139,0,0-1.6578-6.8574-6.6302,6.8574-6.6293zm-8.5723-8.288-6.8584,6.6302,6.8584,6.6302,6.8584-6.6302-6.8584-6.6302z" stroke-width="0" fill="#ff9a00"/>
<path d="m-82.925,147.76,0,13.259,1.7148-1.6578,1.7148,1.6578,1.7139-1.6578,1.7148,1.6578,1.7148-1.6578,1.7139,1.6578,1.7148-1.6578,1.7148,1.6578,1.7139-1.6578,1.7148,1.6578,1.7139-1.6578,1.7148,1.6578,0-13.259-20.574,0z" stroke-width="1pt" fill="#ff9a00"/>
<path d="m-62.351,111.3,0-13.259-1.7148,1.6578-1.7148-1.6578-1.7139,1.6578-1.7148-1.6578-1.7148,1.6578-1.7139-1.6578-1.7148,1.6578-1.7148-1.6578-1.7139,1.6578-1.7148-1.6578-1.7139,1.6578-1.7148-1.6578,0,13.259,20.574,0z" stroke-width="1pt" fill="#ff9a00"/>
<path d="m-33.204,126.21,0-13.259-1.7148,1.6578-1.7139-1.6578-1.7148,1.6578-1.7148-1.6578-1.7139,1.6578-1.7148-1.6578-1.7139,1.6578-1.7148-1.6578,0,13.259,13.716,0z" stroke-width="1pt" fill="#ff9a00"/>
<path d="m-98.356,126.21,0-13.259-1.7148,1.6578-1.7139-1.6578-1.7148,1.6578-1.7148-1.6578-1.7139,1.6578-1.7148-1.6578-1.7139,1.6578-1.7148-1.6578,0,13.259,13.716,0z" stroke-width="1pt" fill="#ff9a00"/>
<path d="m-33.204,132.84,0,13.26-1.7148-1.6578-1.7139,1.6578-1.7148-1.6578-1.7148,1.6578-1.7139-1.6578-1.7148,1.6578-1.7139-1.6578-1.7148,1.6578,0-13.26,13.716,0z" stroke-width="1pt" fill="#ff9a00"/>
<path d="m-98.356,132.84,0,13.259-1.7148-1.6578-1.7139,1.6578-1.7148-1.6578-1.7148,1.6578-1.7139-1.6578-1.7148,1.6578-1.7139-1.6578-1.7148,1.6578,0-13.259,13.716,0z" stroke-width="1pt" fill="#ff9a00"/>
<path d="m-62.351,147.76-0.000968,8.2871,1.7148-1.6578,1.7148,1.6578,1.7139-1.6578,1.7148,1.6578,1.7148-1.6578,1.7139,1.6578,1.7148-1.6578,1.7139,1.6578,1.7148-1.6578,0-21.547-15.43,14.917z" stroke-width="1pt" fill="#006a4e"/>
<path d="m-82.925,147.76,0,8.288-1.7148-1.6578-1.7148,1.6578-1.7139-1.6578-1.7148,1.6578-1.7148-1.6578-1.7139,1.6578-1.7148-1.6578-1.7139,1.6578-1.7148-1.6578,0.000968-21.548,15.43,14.917z" stroke-width="1pt" fill="#006a4e"/>
<path d="m-82.926,111.3,0.000968-8.2871-1.7148,1.6578-1.7148-1.6578-1.7139,1.6578-1.7148-1.6578-1.7148,1.6578-1.7139-1.6578-1.7148,1.6578-1.7139-1.6578-1.7148,1.6578,0,21.547,15.43-14.917z" stroke-width="1pt" fill="#006a4e"/>
<path d="m-62.351,111.3-0.000968-8.2871,1.7148,1.6578,1.7148-1.6578,1.7139,1.6578,1.7148-1.6578,1.7148,1.6578,1.7139-1.6578,1.7148,1.6578,1.7139-1.6578,1.7148,1.6578,0,21.547-15.43-14.917z" stroke-width="1pt" fill="#006a4e"/>
<path d="m-112.07,142.79-1.7148-1.6578-1.7129,1.6578-1.7148-1.6578-1.7148,1.6578-1.7148-1.6578-1.7148,1.6578-1.7129-1.6578-1.7148,1.6578-0.00096-26.52,1.7148,1.6578,1.7139-1.6578,1.7148,1.6578,1.7139-1.6578,1.7148,1.6578,1.7148-1.6578,1.7139,1.6578,1.7148-1.6578,0,9.9458-6.8574,0-3.4297,3.3146,3.4297,3.3146,6.8574,0,0,9.9449z" stroke-width="1pt" fill="#006a4e"/>
<path d="m-33.204,142.79,1.7148-1.6578,1.7129,1.6578,1.7148-1.6578,1.7148,1.6578,1.7148-1.6578,1.7148,1.6578,1.7129-1.6578,1.7148,1.6578,0.000968-26.52-1.7148,1.6578-1.7139-1.6578-1.7148,1.6578-1.7139-1.6578-1.7148,1.6578-1.7148-1.6578-1.7139,1.6578-1.7148-1.6578,0,9.9458,6.8574,0,3.4297,3.3146-3.4297,3.3146-6.8574,0,0,9.9449z" stroke-width="1pt" fill="#006a4e"/>
<path d="m-91.354,148.8s-1.4286,1.3102-1.4286,1.9649c-0.02823,0.61072,1.5238,1.9793,2.1431,1.9649,0.80927,0.0144,2.1431-1.3098,2.1431-1.9649,0-0.65472-1.429-1.9649-1.429-1.9649v-2.6196s3.1032,4.5039,3.1032,2.539c0-1.4092-3.1032-3.8492-3.1032-3.8492h-1.4286s-3.1032,2.8566-3.1032,3.8492c0,1.9649,3.1032-2.539,3.1032-2.539v2.6196z" stroke-width="1pt" fill="#FFF"/>
<path d="m-73.495,153.86s-1.7143,1.8342-1.7143,2.7508c-0.03387,0.85502,1.8285,2.771,2.5718,2.7508,0.97112,0.0202,2.5718-1.8337,2.5718-2.7508,0-0.91659-1.7148-2.7508-1.7148-2.7508v-3.6674s3.0367,6.0001,3.0367,3.2492c0-1.7788-3.0367-5.0834-3.0367-5.0834h-1.7143s-3.5051,4.1374-3.0363,5.0829c0,2.7508,3.0363-3.2487,3.0363-3.2487v3.6674z" stroke-width="1pt" fill="#b31b34"/>
<path d="m407.48,391.54c0,0.97846-1.5864,1.7716-3.5433,1.7716s-3.5433-0.79319-3.5433-1.7716c0-0.97846,1.5864-1.7716,3.5433-1.7716s3.5433,0.79319,3.5433,1.7716z" transform="matrix(0.967743,0,0,0.935546,-482.4045,-236.7711)" stroke-width="1pt" fill="#006a4e"/>
<path d="m407.48,391.54c0,0.97846-1.5864,1.7716-3.5433,1.7716s-3.5433-0.79319-3.5433-1.7716c0-0.97846,1.5864-1.7716,3.5433-1.7716s3.5433,0.79319,3.5433,1.7716z" transform="matrix(0.967743,0,0,0.935546,-463.5449,-236.771)" stroke-width="1pt" fill="#006a4e"/>
<path d="m407.48,391.54c0,0.97846-1.5864,1.7716-3.5433,1.7716s-3.5433-0.79319-3.5433-1.7716c0-0.97846,1.5864-1.7716,3.5433-1.7716s3.5433,0.79319,3.5433,1.7716z" transform="matrix(0.967743,0,0,0.935546,-444.6854,-236.771)" stroke-width="1pt" fill="#006a4e"/>
<path d="m-91.716,110.39s-1.4286-1.3102-1.4286-1.9649c-0.02823-0.61072,1.5238-1.9793,2.1431-1.9649,0.80927-0.0144,2.1431,1.3098,2.1431,1.9649,0,0.65471-1.429,1.9649-1.429,1.9649v2.6196s3.1032-4.5039,3.1032-2.539c0,1.4092-3.1032,3.8492-3.1032,3.8492h-1.4286s-3.1032-2.8566-3.1032-3.8492c0-1.9649,3.1032,2.539,3.1032,2.539v-2.6196z" stroke-width="1pt" fill="#FFF"/>
<path d="m-73.857,105.33s-1.7143-1.8342-1.7143-2.7508c-0.03387-0.855,1.8285-2.771,2.5718-2.7508,0.97112-0.02019,2.5718,1.8337,2.5718,2.7508,0,0.91659-1.7148,2.7508-1.7148,2.7508v3.6674s3.0367-6,3.0367-3.2492c0,1.7788-3.0367,5.0834-3.0367,5.0834h-1.7143s-3.5051-4.1374-3.0363-5.0829c0-2.7508,3.0363,3.2487,3.0363,3.2487v-3.6674z" stroke-width="1pt" fill="#b31b34"/>
<path d="m-54.858,148.8s-1.4286,1.3102-1.4286,1.9649c-0.02823,0.61073,1.5238,1.9793,2.1431,1.9649,0.80927,0.0144,2.1431-1.3098,2.1431-1.9649,0-0.65471-1.429-1.9649-1.429-1.9649v-2.6196s3.1032,4.5039,3.1032,2.539c0-1.4092-3.1032-3.8492-3.1032-3.8492h-1.4286s-3.1032,2.8566-3.1032,3.8492c0,1.9649,3.1032-2.539,3.1032-2.539v2.6196z" stroke-width="1pt" fill="#FFF"/>
<path d="m-55.22,110.39s-1.4286-1.3102-1.4286-1.9649c-0.02823-0.61072,1.5238-1.9793,2.1431-1.9649,0.80927-0.0144,2.1431,1.3098,2.1431,1.9649,0,0.65471-1.429,1.9649-1.429,1.9649v2.6196s3.1032-4.5039,3.1032-2.539c0,1.4092-3.1032,3.8492-3.1032,3.8492h-1.4286s-3.1032-2.8566-3.1032-3.8492c0-1.9649,3.1032,2.539,3.1032,2.539v-2.6196z" stroke-width="1pt" fill="#FFF"/>
<path d="m-106.27,139.57s-1.8993,1.2291-1.8993,1.8434c-0.0375,0.57294,2.0258,1.8569,2.8492,1.8434,1.0759,0.0135,2.8492-1.2288,2.8492-1.8434,0-0.61423-1.8999-1.8434-1.8999-1.8434v-2.4576s3.3644,4.0207,3.3644,2.1774c0-1.192-3.3644-3.4065-3.3644-3.4065h-1.8993s-3.8833,2.7725-3.3639,3.4062c0,1.8434,3.3639-2.177,3.3639-2.177v2.4576z" stroke-width="1pt" fill="#b31b34"/>
<path d="m-106.67,120.8s-1.8993-1.2291-1.8993-1.8433c-0.0375-0.57296,2.0258-1.8569,2.8492-1.8434,1.0759-0.0135,2.8492,1.2288,2.8492,1.8434,0,0.61421-1.8999,1.8433-1.8999,1.8433v2.4576s3.3644-4.0207,3.3644-2.1774c0,1.192-3.3644,3.4065-3.3644,3.4065h-1.8993s-3.8833-2.7725-3.3639-3.4061c0-1.8434,3.3639,2.177,3.3639,2.177v-2.4576z" stroke-width="1pt" fill="#b31b34"/>
<path d="m-40.42,139.18s-1.8993,1.2291-1.8993,1.8434c-0.03753,0.57296,2.0258,1.8569,2.8492,1.8434,1.0759,0.0135,2.8492-1.2288,2.8492-1.8434,0-0.61422-1.8999-1.8434-1.8999-1.8434v-2.4576s3.3644,4.0207,3.3644,2.1773c0-1.192-3.3644-3.4065-3.3644-3.4065h-1.8993s-3.8833,2.7725-3.3639,3.4062c0,1.8434,3.3639-2.177,3.3639-2.177v2.4576z" stroke-width="1pt" fill="#b31b34"/>
<path d="m-40.82,120.41s-1.8993-1.2291-1.8993-1.8433c-0.03753-0.57295,2.0258-1.8569,2.8492-1.8434,1.0759-0.0135,2.8492,1.2288,2.8492,1.8434,0,0.61421-1.8999,1.8433-1.8999,1.8433v2.4576s3.3644-4.0207,3.3644-2.1774c0,1.192-3.3644,3.4065-3.3644,3.4065h-1.8993s-3.8833-2.7725-3.3639-3.4061c0-1.8434,3.3639,2.177,3.3639,2.177v-2.4576z" stroke-width="1pt" fill="#b31b34"/>
<path d="m-120.28,139.37c-0.61532-1.1349-0.45282-1.654-0.45282-2.3087-0.0286-0.61072,1.7161-1.7996,2.3355-1.7852,0.80927-0.0144,2.1431,1.3098,2.1431,1.9649,0,0.65471,0.0339,1.2203-0.29758,2.3494l-0.89314-1.9142c-1.0843,2.7157-1.1431,2.7789-1.7867-0.0658l-1.0484,1.7597z" stroke-width="1pt" fill="#FFF"/>
<path d="m-120.23,120.32c-0.61532,1.1349-0.45282,1.654-0.45282,2.3087-0.0286,0.61071,1.7161,1.7996,2.3355,1.7852,0.80927,0.0144,2.1431-1.3098,2.1431-1.9649,0-0.65472,0.0339-1.2203-0.29758-2.3494l-0.89314,1.9142c-1.0843-2.7157-1.1431-2.7789-1.7867,0.0658l-1.0484-1.7597z" stroke-width="1pt" fill="#FFF"/>
<path d="m-27.807,139.13c-0.61532-1.1349-0.45282-1.654-0.45282-2.3087-0.02863-0.61072,1.7161-1.7996,2.3355-1.7852,0.80927-0.0144,2.1431,1.3098,2.1431,1.9649,0,0.65471,0.03387,1.2203-0.29758,2.3494l-0.89314-1.9142c-1.0843,2.7157-1.1431,2.7789-1.7867-0.0658l-1.0484,1.7597z" stroke-width="1pt" fill="#FFF"/>
<path d="m-27.752,120.07c-0.61532,1.1349-0.45282,1.654-0.45282,2.3087-0.02863,0.61072,1.7161,1.7996,2.3355,1.7852,0.80927,0.0144,2.1431-1.3098,2.1431-1.9649,0-0.65471,0.03387-1.2203-0.29758-2.3494l-0.89314,1.9142c-1.0843-2.7157-1.1431-2.7789-1.7867,0.0658l-1.0484-1.7597z" stroke-width="1pt" fill="#FFF"/>
<path d="m-83.268,161.33,0-4.7238-15.944,0,0-9.4476-14.173,0,0-3.1489-12.402,0,0-28.343,12.402,0,0-3.1489,14.173,0,0-9.4476,15.944,0,0-4.7238,21.26,0,0,4.7238,15.945,0,0,9.4476,14.173,0,0,3.1489,12.402,0,0,28.343-12.402,0,0,3.1489-14.173,0,0,9.4476-15.945,0,0,4.7238-21.26,0zm-1.772,1.5749,0-4.7238-15.944,0,0-9.4476-14.173,0,0-3.1489-12.402,0,0-31.492,12.402,0,0-3.1498,14.173,0,0-9.4476,15.945,0,0-4.7238,24.803,0,0,4.7238,15.945,0,0,9.4476,14.173,0,0,3.1498,12.402,0,0,31.492-12.402,0,0,3.1489-14.173,0,0,9.4476-15.945,0,0,4.7238-24.804,0z" stroke="#000" stroke-width="0.11784298" fill="#b31b34"/>
</g>
<g transform="matrix(1.019268,0,0,0.9623438,-8.5161983,25.375717)" fill-rule="evenodd">
<g transform="matrix(1.693333,0,0,2.15829,555.00027,-11.471167)">
<path d="m-160.04,364.88-36.614,16.754,0,27.922,36.614,16.754,36.614,0,36.614-16.754,0-27.922-36.614-16.754-36.614,0z" stroke="#000" stroke-width="0.21705014" fill="#006a4e"/>
<path d="m302.95,233.86,1.771,0,0-5.315,3.544,0,0,5.315,1.771,0,0-12.401-1.771,0,0,5.315-3.544,0,0-5.315-1.771,0,0,12.401z" transform="matrix(1.250074,0,0,0.764012,-561.7838,210.5929)" stroke-width="1pt" fill="#C00"/>
<path d="m302.95,233.86,1.771,0,0-5.315,3.544,0,0,5.315,1.771,0,0-12.401-1.771,0,0,5.315-3.544,0,0-5.315-1.771,0,0,12.401z" transform="matrix(1.250074,0,0,0.764012,-505.6817,242.1744)" stroke-width="1pt" fill="#C00"/>
<path d="m302.95,233.86,1.771,0,0-5.315,3.544,0,0,5.315,1.771,0,0-12.401-1.771,0,0,5.315-3.544,0,0-5.315-1.771,0,0,12.401z" transform="matrix(1.250074,0,0,0.764012,-487.9651,210.5929)" stroke-width="1pt" fill="#C00"/>
<path d="m302.95,233.86,1.771,0,0-5.315,3.544,0,0,5.315,1.771,0,0-12.401-1.771,0,0,5.315-3.544,0,0-5.315-1.771,0,0,12.401z" transform="matrix(1.250074,0,0,0.764012,-487.9651,226.3837)" stroke-width="1pt" fill="#C00"/>
<path d="m-141.73,424.98,0-29.38,53.15,0,0,13.355-35.433,16.025-17.717,0z" stroke-width="1pt" fill="#ff9a00"/>
<path d="m-141.73,366.22,0,29.38-53.15,0,0-13.355,35.433-16.025,17.717,0z" stroke-width="1pt" fill="#ff9a00"/>
<path d="m-141.73,366.22,0,29.38,53.15,0,0-13.355-35.433-16.025-17.717,0z" stroke-width="1pt" fill="#FFF"/>
<path d="m-141.73,424.98-0.001-29.379-53.149-0.00075,0,13.355,35.433,16.025,17.717,0z" stroke-width="1pt" fill="#FFF"/>
<path d="m-113.39,383.58,21.259,0-21.259-8.0126,0,8.0126zm24.803-1.3357-0.001,13.355-33.661,0,0-10.683-7.086,0-8.858-4.0063,0-9.3483,5.314-4.0063-7.086,0,0,13.355-1.772,0,0-14.69,17.717,0,35.433,16.025z" stroke="#000" stroke-width="0.10852509" fill="#ff9a00"/>
<path d="m-159.45,386.25,0,18.694,5.3132,0,12.403,5.3429,12.403-5.3429,5.3133,0,0-18.694-5.3133,0-12.403-5.3429-12.403,5.3429-5.3132,0z" stroke-width="0.62500203" fill="#b31b34"/>
<path d="m-170.08,407.62-21.259,0,21.259,8.0126,0-8.0126zm-24.803,1.3357,0.001-13.355,33.661,0,0,10.683,7.086,0,8.858,4.0063,0,9.3483-5.314,4.0063,7.086,0,0-13.355,1.772,0,0,14.69-17.717,0-35.433-16.025z" stroke="#000" stroke-width="0.10852509" fill="#ff9a00"/>
<path d="m-170.08,383.58-21.259,0,21.259-8.0126,0,8.0126zm-24.803-1.3357,0.001,13.355,33.661,0,0-10.683,7.086,0,8.858-4.0063,0-9.3483-5.314-4.0063,7.086,0,0,13.355,1.772,0,0-14.69-17.717,0-35.433,16.025z" stroke="#000" stroke-width="0.10852509" fill="#FFF"/>
<path d="m-113.39,407.62,21.259,0-21.259,8.0126,0-8.0126zm24.803,1.3357-0.001-13.355-33.661,0,0,10.683-7.086,0-8.858,4.0063,0,9.3483,5.314,4.0063-7.086,0,0-13.355-1.772,0,0,14.69,17.717,0,35.433-16.025z" stroke="#000" stroke-width="0.10852509" fill="#FFF"/>
<path d="m-184.25,406.28,2.2139,0,0-4.0065,4.4303,0,0,4.0065,2.2139,0,0-9.348-2.2139,0,0,4.0065-4.4303,0,0-4.0065-2.2139,0,0,9.348z" stroke-width="1pt" fill="#b31b34"/>
<path d="m-162.99,419.64,2.2139,0,0-4.0065,4.4303,0,0,4.0065,2.2139,0,0-9.348-2.2139,0,0,4.0065-4.4303,0,0-4.0065-2.2139,0,0,9.348z" stroke-width="1pt" fill="#b31b34"/>
<path d="m-184.25,384.91,2.2139,0,0,4.0065,4.4303,0,0-4.0065,2.2139,0,0,9.348-2.2139,0,0-4.0065-4.4303,0,0,4.0065-2.2139,0,0-9.348z" stroke-width="1pt" fill="#b31b34"/>
<path d="m-162.99,371.56,2.2139,0,0,4.0065,4.4303,0,0-4.0065,2.2139,0,0,9.348-2.2139,0,0-4.0065-4.4303,0,0,4.0065-2.2139,0,0-9.348z" stroke-width="1pt" fill="#b31b34"/>
<path d="m-108.07,394.26,2.2139,0,0-4.0065,4.4303,0,0,4.0065,2.2139,0,0-9.348-2.2139,0,0,4.0065-4.4303,0,0-4.0065-2.2139,0,0,9.348z" stroke-width="1pt" fill="#b31b34"/>
<path d="m-129.33,419.64,2.2139,0,0-4.0065,4.4303,0,0,4.0065,2.2139,0,0-9.348-2.2139,0,0,4.0065-4.4303,0,0-4.0065-2.2139,0,0,9.348z" stroke-width="1pt" fill="#b31b34"/>
<path d="m-108.07,406.28,2.2139,0,0-4.0065,4.4303,0,0,4.0065,2.2139,0,0-9.348-2.2139,0,0,4.0065-4.4303,0,0-4.0065-2.2139,0,0,9.348z" stroke-width="1pt" fill="#b31b34"/>
<path d="m-129.33,380.91,2.2139,0,0-4.0065,4.4303,0,0,4.0065,2.2139,0,0-9.348-2.2139,0,0,4.0065-4.4303,0,0-4.0065-2.2139,0,0,9.348z" stroke-width="1pt" fill="#b31b34"/>
<path d="m-139.96,395.6,7.087-4.8703,3.543,0,0,2.4344-3.543,0,0,1.2176,5.314,0,0-4.8689-5.314-0.00069,0-3.6513-7.087,0,0,3.6513,1.772,0,0-2.4351,3.543,0,0,2.4351-7.086,4.8696-7.087-4.8689,0-2.4344,3.543,0,0,2.4344,1.772,0,0-3.652-7.087,0.00069,0,3.6513-5.315,0,0,4.8703,5.315,0,0-1.2176-3.544,0,0-2.4351,3.544,0,7.087,4.8689-7.087,4.8689-3.543,0,0-2.4344,3.543,0,0-1.2176-5.314,0,0,4.8696,5.314,0,0,3.6513,7.087,0.001,0-3.6527-1.771,0,0,2.4351-3.543,0,0-2.4351,7.085-4.8689,7.088,4.8703,0,2.4344-3.543,0,0-2.4344-1.772,0,0,3.6513,7.086,0,0-3.6513,5.315-0.001,0-4.8689-5.315,0,0,1.2176,3.544,0,0,2.4351-3.544,0-7.087-4.8696z" stroke-width="1.24690998" fill="#006a4e"/>
</g>
<path d="m336,894.22,3.7488,0,0-8.6472,7.5019,0,0,8.6472,3.7488,0,0-20.176-3.7488,0,0,8.6472-7.5019,0,0-8.6472-3.7488,0,0,20.176z" stroke-width="1pt" fill="#b31b34"/>
</g>
</svg>
