<?xml version="1.0" encoding="UTF-8" standalone="no"?>
<!-- Creator: CorelDRAW -->

<svg
   xmlns:dc="http://purl.org/dc/elements/1.1/"
   xmlns:cc="http://creativecommons.org/ns#"
   xmlns:rdf="http://www.w3.org/1999/02/22-rdf-syntax-ns#"
   xmlns:svg="http://www.w3.org/2000/svg"
   xmlns="http://www.w3.org/2000/svg"
   xmlns:sodipodi="http://sodipodi.sourceforge.net/DTD/sodipodi-0.dtd"
   xmlns:inkscape="http://www.inkscape.org/namespaces/inkscape"
   xml:space="preserve"
   width="700"
   height="500"
   style="fill-rule:evenodd"
   viewBox="0 0 7.7777778 5.5555556"
   id="svg2"
   version="1.1"
   inkscape:version="0.48.0 r9654"
   sodipodi:docname="Flag_Of_Albania.svg"><metadata
   id="metadata19"><rdf:RDF><cc:Work
       rdf:about=""><dc:format>image/svg+xml</dc:format><dc:type
         rdf:resource="http://purl.org/dc/dcmitype/StillImage" /></cc:Work></rdf:RDF></metadata><sodipodi:namedview
   pagecolor="#ffffff"
   bordercolor="#666666"
   borderopacity="1"
   objecttolerance="10"
   gridtolerance="10"
   guidetolerance="10"
   inkscape:pageopacity="0"
   inkscape:pageshadow="2"
   inkscape:window-width="1024"
   inkscape:window-height="712"
   id="namedview17"
   showgrid="false"
   fit-margin-top="0"
   fit-margin-left="0"
   fit-margin-right="0"
   fit-margin-bottom="0"
   inkscape:zoom="0.33899631"
   inkscape:cx="1022.873"
   inkscape:cy="485.80914"
   inkscape:window-x="-4"
   inkscape:window-y="-4"
   inkscape:window-maximized="1"
   inkscape:current-layer="svg2" />
 <defs
   id="defs4"><style
     type="text/css"
     id="style6">
   
    .fil0 {fill:#ED323D;fill-rule:nonzero}
    .fil1 {fill:black;fill-rule:nonzero}
   
  </style></defs>
 <polygon
   id="_148171424"
   class="fil0"
   points="-0.00206693,0.00505118 -0.00206693,2.00449 2.79654,2.00449 2.79654,0.00505118 "
   style="fill:#ce1126;fill-opacity:1;fill-rule:nonzero"
   transform="matrix(2.7791605,0,0,2.7785574,0.00574433,-0.01403499)" /><g
   id="g12"
   transform="matrix(2.6398763,0,0,2.6358507,0.2337429,0.10212981)">
    <path
   id="_148172456"
   class="fil1"
   d="M 1.38458,0.567091 C 1.365324,0.563874 1.364804,0.558052 1.374525,0.5446697 1.378655,0.5389927 1.3752967,0.5356377 1.361883,0.5395157 1.351943,0.5423817 1.340714,0.5286771 1.335725,0.5223425 c -0.00461,-0.005839 -0.00413,-0.006886 0.00137,-0.006886 0.00552,0 0.015842,-0.004803 0.018587,-0.008248 0.00276,-0.003445 0.00207,-0.007575 -0.0055,-0.006201 C 1.342612,0.5023935 1.320147,0.4910195 1.311631,0.479665 1.307511,0.474165 1.306821,0.471405 1.313701,0.46935 1.320581,0.467275 1.327473,0.463145 1.332284,0.459704 1.337094,0.456263 1.334354,0.452149 1.325394,0.450763 1.316454,0.449393 1.296941,0.4389323 1.288233,0.4280504 c -0.00276,-0.003445 -0.00552,-0.007575 0.00274,-0.00965 0.00827,-0.002055 0.028224,-0.015811 0.033732,-0.023378 0.0055,-0.007575 0.00619,-0.0158465 -0.00964,-0.008965 C 1.299238,0.3929474 1.267577,0.3950224 1.24899,0.3908724 1.209758,0.3722858 1.152624,0.3481992 1.130604,0.3833174 1.093427,0.3812504 1.048698,0.3791754 1.05695,0.4252898 c 0.0074,-6.8504e-4 0.011472,-0.004921 0.013768,-0.00963 0.00328,-0.006724 0.014319,-0.007878 0.02478,-0.004126 0.00912,0.003264 0.016531,0.008094 0.0098,0.0161732 C 1.101858,0.431829 1.088432,0.433888 1.08018,0.431829 1.07192,0.429774 1.056582,0.427345 1.047656,0.426337 1.041636,0.42564802 1.029766,0.418057 1.024258,0.4074039 1.018758,0.3967307 1.004644,0.3840023 0.9956911,0.3915771 c -0.008949,0.007571 0.00172,0.0202953 0.0106654,0.0282126 0.00896,0.007917 0.027197,0.0179016 0.036823,0.0179016 0.012748,0 0.025134,0.003083 0.031665,0.004472 0.00309,0.0242992 0.035102,0.035315 0.061957,0.0346299 0.026835,-6.8504e-4 0.062283,0.0123465 0.094972,0.0393543 0.042339,0.0349803 0.072276,0.150614 6.889e-4,0.150614 -0.044728,0 -0.03785,-0.0447441 -0.036476,-0.0702126 C 1.1973564,0.5710843 1.1835964,0.543545 1.1533134,0.532541 1.1230304,0.5215292 1.0610814,0.5001945 1.0438764,0.4905449 1.0369964,0.4857379 1.0297154,0.5027693 1.0287384,0.5125803 1.0280376,0.5194663 1.0202984,0.5200643 0.998451,0.51326534 0.9364982,0.49398974 0.880057,0.46096224 0.853219,0.41001734 0.8263725,0.35908824 0.7757584,0.40915513 0.800904,0.45200554 c 0.0302953,0.0516142 0.131465,0.0936142 0.195472,0.10187 0.029748,0.003835 0.0294803,0.0393976 0.001386,0.0433622 -0.0585079,0.008268 -0.115752,0.007138 -0.151421,-0.0392323 -0.0275354,-0.0357953 -0.054622,-0.003626 -0.0426772,0.0247795 0.0254646,0.0605709 0.111882,0.0861142 0.196157,0.0454291 0.0199646,-0.009642 0.0413701,-0.008028 0.0240945,0.0158228 -0.0433622,0.0598858 -0.10109103,0.0691417 -0.17344903,0.0247835 -0.0213386,-0.0130709 -0.0378622,-0.0110157 -0.0426732,-0.002748 -0.008472,0.0145079 -0.0122874,0.027622 0.0123898,0.0454252 0.054374,0.0392283 0.117358,0.0364843 0.167933,0.0103228 0.0199685,-0.0103228 0.0564449,-0.0185866 0.0241024,0.0240906 -0.0323543,0.0426811 -0.11495354,0.0647008 -0.14867354,0.0406102 -0.0337323,-0.0240945 -0.0757205,-0.002071 -0.048874,0.0351024 0.0268425,0.0371654 0.0825945,0.0275394 0.108059,0.0137717 0.0254724,-0.0137717 0.0647008,-0.0323504 0.0812243,-0.0399213 0.016516,-0.007579 0.024228,0.00535 0.00551,0.0268346 -0.041992,0.048189 -0.0852597,0.0886535 -0.14385786,0.0695157 -0.0337244,-0.0110079 -0.0647008,-0.0123819 -0.0557441,0.0289173 0.008945,0.0412913 0.0784528,0.0440512 0.11287,0.0233937 0.0344252,-0.0206457 0.0653858,-0.0440433 0.0860433,-0.0640079 0.020646,-0.0199606 0.04152,-0.0192008 0.018579,0.0144567 C 0.97573669,0.97029274 0.93165789,1.025722 0.8580399,1.011592 0.7898982,0.9985093 0.806843,1.039419 0.8215635,1.052198 c 0.0419843,0.036476 0.115626,0.026839 0.2037319,-0.0812087 0.00687,-0.008445 0.018445,-0.005996 0.01239,0.00963 -0.0392203,0.1011795 -0.10460987,0.1665655 -0.16793687,0.1507345 -0.032937,-0.00824 -0.065063,0.010091 -0.0316654,0.039236 0.0378622,0.033039 0.106693,0.02065 0.156248,-0.034413 0.0495591,-0.055067 0.0798425,-0.094299 0.0908543,-0.114953 0.011008,-0.020642 0.027535,-0.0213385 0.025465,0.00551 -0.00206,0.026839 -0.022024,0.079153 -0.057134,0.096366 -0.018165,0.00891 -0.034405,0.028906 0,0.044047 0.034425,0.015142 0.075032,-0.046118 0.108067,-0.135594 0.00389,-0.010512 0.026646,-0.013122 0.026165,0.00688 -6.889e-4,0.028224 -0.014457,0.051618 -0.029598,0.065386 -0.015146,0.013768 -0.0033,0.036819 0.017205,0.027535 0.028906,-0.013079 0.047169,-0.032287 0.0585,-0.061256 0.0062,-0.015827 0.020173,-0.021276 0.01239,0.00344 -0.023398,0.074331 -0.075713,0.11013 -0.144535,0.144535 0.010323,0.010323 0.01961,0.021685 0.028906,0.03098 -0.042331,0.021681 -0.086724,0.036134 -0.121827,0.050591 -0.0278819,-0.018587 -0.0526614,-0.028909 -0.0650433,-0.046469 -0.004126,-0.02374 -0.0330315,-0.034059 -0.0516299,-0.02374 -0.0319961,-0.01239 -0.0547165,-0.00929 -0.0567756,0.020646 0.0185827,-0.0031 0.0340709,-0.0062 0.0474921,0.0062 0.006181,0.014457 0.025811,0.021685 0.0443898,0.015484 0.0206535,0.012386 0.0382008,0.024779 0.0505866,0.033031 -0.0392283,-0.00102 -0.0681378,-0.00309 -0.0887953,-0.00515 -0.0196024,-0.019614 -0.038189,-0.019614 -0.0526457,-0.0062 -0.023748,-0.00516 -0.0423307,0.00585 -0.0485276,0.0265 0.0178976,-0.00206 0.0344134,-0.00826 0.046122,-0.00206 0.009634,0.017894 0.0364764,0.018575 0.053689,0.00551 0.0261535,-7.008e-4 0.0770866,-0.00139 0.0887835,-0.00139 -0.0172008,0.010323 -0.0378543,0.022717 -0.0481732,0.028909 -0.0406102,-0.00826 -0.0626417,0.00757 -0.0598858,0.037177 -0.009634,0.015142 -0.008949,0.036476 0.00276,0.046102 0.002736,-0.012386 0.009626,-0.028216 0.0192638,-0.037161 0.0247795,0.00481 0.0426772,-0.00344 0.050248,-0.030976 0.0158228,-0.010323 0.0364764,-0.023402 0.0447323,-0.028909 0.008268,-0.0055 0.0148504,-0.011831 0.0337323,-0.00344 0.018587,0.00827 0.035791,0.015154 0.046799,0.021343 0.0062,0.024087 0.029598,0.02548 0.04474,0.014457 0.00964,0.0055 0.017898,0.015142 0.023409,0.025465 0.00894,-0.015835 0.00413,-0.037173 -0.013087,-0.042673 -0.00619,-0.018591 -0.02822,-0.02478 -0.044043,-0.015835 -0.013079,-0.0055 -0.031665,-0.014453 -0.039921,-0.01789 0.026842,-0.00963 0.094976,-0.03511 0.119071,-0.045433 0.022713,0.017213 0.048181,0.033728 0.066768,0.028913 0.00275,-0.01652 0.011252,-0.030118 0.022709,-0.053685 0.01824,-0.037516 0.040961,-0.072614 0.059535,-0.094303 0.018591,-0.021685 0.037421,-0.00926 0.036134,0.020654 -0.00309,0.072268 -0.056429,0.180331 -0.134902,0.184453 -0.026827,0.00143 -0.037488,0.00691 -0.022713,0.026854 0.013764,0.018583 0.056441,0.020992 0.080185,0.00344 0.023744,-0.017559 0.032004,-0.016532 0.027185,0.00688 -0.00482,0.023402 -0.031697,0.032307 -0.051618,0.033724 -0.028909,0.00207 -0.061949,0.012398 -0.035102,0.037177 0.02685,0.024768 0.070894,0.011 0.103248,-0.026161 0.011221,-0.012902 0.020067,-0.016551 0.019264,0.00413 -0.00137,0.035787 -0.022709,0.058512 -0.044732,0.063327 -0.022028,0.00481 -0.044035,0.010622 -0.037862,0.023398 0.010331,0.021335 0.044744,0.024779 0.064008,0.014461 0.019287,-0.010327 0.039929,-0.029602 0.044067,-0.041299 0.00413,-0.011701 0.012563,-0.00504 0.010307,0.011012 -0.00481,0.034417 -0.028909,0.033716 -0.028909,0.061941 0,0.02822 0.023413,0.055756 0.050929,0.086736 0.027551,-0.03098 0.050949,-0.058516 0.050949,-0.086736 0,-0.028224 -0.024083,-0.027524 -0.028898,-0.061941 -0.00225,-0.016047 0.00619,-0.022713 0.010315,-0.011012 0.00412,0.011697 0.024768,0.030972 0.044059,0.041299 0.019252,0.010319 0.053681,0.00687 0.064016,-0.014461 0.00616,-0.012776 -0.015847,-0.018587 -0.037862,-0.023398 -0.022031,-0.00482 -0.043374,-0.027539 -0.044744,-0.063327 -8.071e-4,-0.020677 0.00804,-0.017028 0.019276,-0.00413 0.032339,0.037161 0.076398,0.050929 0.10324,0.026161 0.026846,-0.024779 -0.0062,-0.035102 -0.035095,-0.037177 -0.019925,-0.00142 -0.046807,-0.010323 -0.051634,-0.033724 -0.00482,-0.023409 0.00344,-0.024437 0.027185,-0.00688 0.023744,0.017547 0.066433,0.015138 0.080185,-0.00344 0.014783,-0.019949 0.00411,-0.025429 -0.022717,-0.026854 -0.078472,-0.00412 -0.131819,-0.112185 -0.134898,-0.184453 -0.00128,-0.029917 0.017543,-0.042339 0.036146,-0.020654 0.018567,0.021689 0.041284,0.056787 0.059528,0.094303 0.011449,0.023567 0.019957,0.037165 0.022717,0.053685 0.018583,0.00482 0.044039,-0.011701 0.066752,-0.028913 0.024106,0.010323 0.092232,0.035803 0.119075,0.045433 -0.00825,0.00344 -0.026842,0.01239 -0.039909,0.01789 -0.015831,-0.00894 -0.037858,-0.00276 -0.044063,0.015835 -0.017201,0.0055 -0.022008,0.026839 -0.013071,0.042673 0.00552,-0.010323 0.013756,-0.019961 0.023402,-0.025465 0.015146,0.011024 0.038547,0.00963 0.044744,-0.014457 0.010996,-0.00619 0.028213,-0.013075 0.046799,-0.021343 0.018878,-0.00839 0.025461,-0.00206 0.033732,0.00344 0.00826,0.00551 0.028902,0.018587 0.044748,0.028909 0.00755,0.027535 0.025453,0.035787 0.050221,0.030976 0.00965,0.00894 0.016531,0.024776 0.019272,0.037161 0.011721,-0.00963 0.012409,-0.030961 0.00276,-0.046102 0.00276,-0.029602 -0.019272,-0.045437 -0.05987,-0.037177 -0.010331,-0.00619 -0.030969,-0.018587 -0.048185,-0.028909 0.011697,0 0.062646,6.851e-4 0.088784,0.00139 0.017216,0.013067 0.044063,0.012386 0.053689,-0.00551 0.011697,-0.0062 0.028228,0 0.046114,0.00206 -0.00618,-0.02065 -0.024768,-0.031661 -0.048512,-0.0265 -0.014461,-0.013417 -0.033047,-0.013417 -0.052661,0.0062 -0.020638,0.00206 -0.049559,0.00413 -0.088783,0.00515 0.012382,-0.00825 0.029925,-0.020646 0.050587,-0.033031 0.018587,0.0062 0.038197,-0.00103 0.044382,-0.015484 0.013429,-0.012398 0.028913,-0.0093 0.047504,-0.0062 -0.00206,-0.029937 -0.024787,-0.033035 -0.056787,-0.020646 -0.018587,-0.010319 -0.047484,0 -0.05163,0.02374 -0.012374,0.017559 -0.037158,0.027882 -0.065028,0.046469 -0.035118,-0.014457 -0.079508,-0.028909 -0.121835,-0.050591 0.00928,-0.0093 0.018587,-0.020657 0.028898,-0.03098 -0.068807,-0.034405 -0.121126,-0.070205 -0.144528,-0.144535 -0.00779,-0.024721 0.00619,-0.019272 0.012386,-0.00344 0.011342,0.028968 0.029598,0.048177 0.0585,0.061256 0.020516,0.00928 0.032362,-0.013768 0.017216,-0.027535 -0.015142,-0.013768 -0.028913,-0.037161 -0.029598,-0.065386 -4.921e-4,-0.02 0.02228,-0.01739 0.026153,-0.00688 0.033047,0.089476 0.073642,0.150736 0.108059,0.135594 0.034413,-0.015142 0.018173,-0.035142 0,-0.044047 -0.035102,-0.017213 -0.055055,-0.069528 -0.05713,-0.096366 -0.00206,-0.0268504 0.014461,-0.026153 0.025472,-0.00551 0.01102,0.020654 0.041287,0.059886 0.090847,0.114953 0.049555,0.055063 0.11839,0.067453 0.156244,0.034413 0.033405,-0.029146 0.00128,-0.047476 -0.031658,-0.039236 -0.063331,0.015831 -0.128717,-0.049555 -0.167949,-0.15073195 -0.00606,-0.015626 0.00552,-0.0180748 0.01239,-0.00963 0.088098,0.10804695 0.161764,0.11768495 0.203728,0.0812087 0.014728,-0.012779 0.031681,-0.053689 -0.036465,-0.040606 -0.07363,0.01413 -0.117705,-0.0412993 -0.169319,-0.11700882 -0.022949,-0.0336575 -0.00207,-0.0344173 0.018587,-0.0144567 0.020638,0.0199646 0.051614,0.0433622 0.086024,0.0640079 0.034417,0.0206575 0.103933,0.0178976 0.112894,-0.0233937 0.00894,-0.0412992 -0.022031,-0.0399252 -0.05576,-0.0289173 -0.058591,0.0191378 -0.101858,-0.0213268 -0.143843,-0.0695157 -0.018736,-0.0214843 -0.01102,-0.0344134 0.0055,-0.0268346 0.016512,0.007571 0.05576,0.0261496 0.081213,0.0399213 0.025476,0.0137677 0.081221,0.0233937 0.108063,-0.0137717 0.026843,-0.0371732 -0.015142,-0.0591969 -0.048854,-0.0351024 -0.033732,0.0240906 -0.116335,0.002071 -0.148677,-0.0406102 -0.032358,-0.0426772 0.00413,-0.0344134 0.024083,-0.0240906 0.050587,0.0261614 0.113579,0.0289055 0.167949,-0.0103228 0.024677,-0.0178031 0.020862,-0.0309173 0.01239,-0.0454252 -0.00482,-0.008268 -0.021346,-0.0103228 -0.042677,0.002748 -0.072362,0.0443583 -0.130087,0.0351024 -0.173441,-0.0247835 -0.017295,-0.0238504 0.00412,-0.0254646 0.024083,-0.0158228 0.08428,0.040685 0.170689,0.0151417 0.196157,-0.0454291 0.011953,-0.0284055 -0.015142,-0.0605748 -0.042669,-0.0247795 -0.035677,0.0463701 -0.092937,0.0475 -0.151433,0.0392323 -0.028087,-0.003965 -0.028358,-0.0395276 0.00139,-0.0433622 0.064,-0.008256 0.165189,-0.0502559 0.195476,-0.10187 0.02515,-0.0428504 -0.025453,-0.0929173 -0.052315,-0.0419882 -0.026842,0.0509449 -0.083272,0.0839724 -0.145232,0.103248 -0.02185,0.006799 -0.029583,0.006201 -0.030268,-6.8504e-4 -9.921e-4,-0.009811 -0.00828,-0.0268425 -0.015161,-0.0220354 -0.017201,0.00965 -0.079142,0.0309843 -0.109433,0.0419961 -0.030287,0.0110039 -0.044039,0.0385433 -0.042669,0.0640079 0.00137,0.0254685 0.00826,0.0702126 -0.036488,0.0702126 -0.071575,0 -0.041646,-0.115634 7.008e-4,-0.150614 0.032685,-0.0270079 0.06813,-0.0400394 0.094976,-0.0393543 0.026839,6.8504e-4 0.058858,-0.0103307 0.061961,-0.0346299 0.00652,-0.00139 0.018906,-0.004472 0.031654,-0.004472 0.00963,0 0.02787,-0.009984 0.036835,-0.0179016 0.00894,-0.007917 0.019591,-0.0206417 0.01065,-0.0282126 -0.00896,-0.007575 -0.023059,0.005154 -0.028559,0.0158268 -0.00551,0.0106535 -0.017374,0.0182441 -0.023398,0.0189331 -0.00892,0.001008 -0.024264,0.003437 -0.032524,0.005492 -0.00827,0.002059 -0.021685,0 -0.025126,-0.004122 -0.00672,-0.008079 6.85e-4,-0.0129094 0.00981,-0.0161732 0.010457,-0.003752 0.021504,-0.002598 0.024784,0.004126 0.00229,0.004709 0.00637,0.008945 0.01376,0.00963 0.00826,-0.0461142 -0.036472,-0.0440394 -0.073646,-0.0419724 -0.022031,-0.0351181 -0.079157,-0.0110315 -0.11839,0.007555 -0.018587,0.00415 -0.050244,0.002075 -0.066071,-0.004815 -0.015827,-0.006882 -0.015142,0.00139 -0.00964,0.008965 0.00551,0.007567 0.025468,0.0213228 0.033728,0.023378 0.00826,0.002075 0.0055,0.006205 0.00276,0.00965 -0.00871,0.0108819 -0.028236,0.0213425 -0.037177,0.0227126 -0.00894,0.001386 -0.011697,0.0055 -0.00689,0.008941 0.00481,0.003441 0.011697,0.007571 0.018587,0.009646 0.00689,0.002055 0.0062,0.004815 0.00207,0.010315 -0.00853,0.0113543 -0.030992,0.0227283 -0.038547,0.0213425 -0.00757,-0.001374 -0.00825,0.002756 -0.00551,0.006201 0.00276,0.003445 0.013067,0.008248 0.018587,0.008248 0.0055,0 0.00598,0.001047 0.00137,0.006886 -0.00499,0.006335 -0.016205,0.0200394 -0.026138,0.0171732 -0.013429,-0.003878 -0.016787,-5.2362e-4 -0.012657,0.005154 0.00972,0.0133819 0.00921,0.0192047 -0.010079,0.0224213 z"
   inkscape:connector-curvature="0"
   style="fill:#000000;fill-rule:nonzero" />
    <path
   id="_148171544"
   class="fil0"
   d="M 1.2022,0.412902 C 1.190881,0.407245 1.178106,0.405335 1.168468,0.409465 1.158838,0.413587 1.156771,0.4232367 1.1677751,0.4266815 c 0.011016,0.003437 0.025472,0.003437 0.033043,0.00137 0.00757,-0.002075 0.011004,-0.010315 0.00138,-0.0151496 z"
   inkscape:connector-curvature="0"
   style="fill:#ce1126;fill-opacity:1;fill-rule:nonzero" />
    <path
   id="_148172312"
   class="fil0"
   d="M 1.56699,0.412902 C 1.578317,0.407245 1.591077,0.405335 1.600722,0.409465 1.610352,0.413587 1.612423,0.4232367 1.601407,0.4266815 1.590391,0.4301185 1.575954,0.4301185 1.568379,0.4280515 1.560809,0.4259765 1.557363,0.4177365 1.566989,0.4129019 z"
   inkscape:connector-curvature="0"
   style="fill:#ce1126;fill-opacity:1;fill-rule:nonzero" />
   </g>
</svg>