<svg xmlns="http://www.w3.org/2000/svg" xmlns:xlink="http://www.w3.org/1999/xlink" width="1000" height="600"><path d="M0 0h1000v600H0z" fill="#d21034"/><path d="M0 0h1000v300H0z" fill="#00209f"/><g fill="#f1b517" stroke="#000" stroke-width=".183"><path d="M405.172 222.414h189.656v155.172H405.172z" fill="#fff" stroke="none"/><path d="M538.094 335.685l-38.628 1.121-38.454.437s-19.756 7.307-27.833 8.947c-8.052 1.635-7.005 4.28-13.236 5.673-4.99 1.116-5.567 1.467-8.495 1.66-1.772.116-3.955 1.48-6.09 2.982v20.898h189.284v-19.878c-2.052-1.118-4.007-1.887-6.008-2.567-2.78-.946-4.655-1.98-9.646-3.095-6.23-1.392-5.184-4.038-13.236-5.673-8.076-1.64-27.658-10.505-27.658-10.505z" fill="#016a16" stroke="#016a16" stroke-width=".36551768"/><g transform="matrix(2 0 0 2 0 2.153)"><g id="a"><path d="M244.529 143.512l1.397-.033 2.555 10.75-.545 3.385z"/><path d="M243.064 136.346l.954 8.284 1.022-.066z" fill="#fff"/><path d="M245.722 154.589l-4.293-11.538 1.601-.098 5.009 14.101z"/><path d="M239.419 136.477l1.772 8.02h1.43z" fill="#fff"/><path d="M241.906 150.546l-2.521-5.424 1.09-.23 4.6 9.007z"/><path d="M236.08 138.778l2.794 7.626h1.43z" fill="#fff"/><path d="M242.249 151.364l-11.436-12.484c-3.571 2.828-2.908 8.021-2.908 8.021l12.957 10.166z" fill="#0a328c"/><path d="M248.861 158.235l-8.483-8.594c-3.587.125-.741 5.48-.56 6.152l9.043 7.734z" fill="#d20014"/><path d="M248.139 156.757l-17.54-18.78-.684.483 18.561 20.622zm-18.553-19.985l-.385-.446.038-.891-3.619-2.303 1.617 3.64 1.232.223.385.446z"/><path d="M227.738 138.11c.616-.743 1.348-1.486 2.657-2.192l1 1.45-2.155 1.82z"/><path d="M225.811 141.278l.588 1.026c.364-.135 4.031-3.457 4.031-3.457l2.632-.08.756-.838c-1.932-2.08-3.752.297-3.752.297z" fill="#0a328c" stroke="#0a328c"/><path d="M227.911 143.007c.14-.918 1.876-3.214 2.128-3.295 1.303.391 2.515 1.141 3.835-1.837-1.148 1.459-3.471-.027-3.471-.027l-1.008.838.028.405-3.052 2.836z" fill="#d20014" stroke="#d20014"/><g><path d="M237.252 154.672l-14.367-11.411c-2.46 2.503-.415 10.231-.415 10.231l14.043 7.608z" fill="#0a328c"/><path d="M249.166 163.917l-11.818-9.467c-4.036.566-.864 6.506-.623 7.16l12.481 6.77z" fill="#d20014"/><path d="M248.697 162.005l-25.554-19.182-.587.591 26.837 20.955zm-26.769-20.198l-.46-.374-.122-.885-3.979-1.662 2.248 3.314 1.254.014.459.374z"/><path d="M220.349 143.433c.473-.835 1.06-1.689 2.222-2.603l1.246 1.259-1.795 2.153z"/><path d="M218.925 146.641l.16 1.06c.337-.188 3.56-3.726 3.56-3.726l2.586-.477.527-.833c-1.797-2.114-3.713.698-3.713.698z" fill="#0a328c" stroke="#0a328c"/><path d="M220.971 148.545c-.123-.982 1.22-3.863 1.455-3.98 1.547.46 2.894 1.152 3.462-2.07-.897 1.614-3.46.363-3.46.363l-.86.979.121.53-2.61 3.37z" fill="#d20014" stroke="#d20014"/></g><g><path d="M236.224 161.651c-.19-.046-18.517-10.442-18.517-10.442-1.334 2.252-.128 5.52.457 6.029.034 1.5-.602 2.306.707 5.439.386 2.036 1.328 3.913 2.7 5.027 1.671 6.417 8.222 6.848 10.746 1.624z" fill="#0a328c"/><path d="M248.352 168.512l-12.548-7.355c-4.036.567.085 8.056.326 8.71l12.116 4.304z" fill="#d20014"/><path d="M246.243 165.846l-28.35-15.089-.484.672 29.905 16.647zm-29.715-15.909l-.514-.3-.265-.856-4.2-1.04 2.758 2.934 1.24-.177.515.301z"/><path d="M215.232 151.782c.332-.896.773-1.828 1.772-2.907l1.436 1.056-1.425 2.398z"/><path d="M214.1 155.181l.593 1.167c.307-.232 3.004-4.578 3.004-4.578l2.492-.82.469-1.014c-2.002-1.85-3.498 1.342-3.498 1.342z" fill="#0a328c" stroke="#0a328c"/><path d="M216.772 156.836c-.2-.999.484-4.197.7-4.345 1.56.465 2.863.597 3.223-2.622-.907 1.529-3.328.953-3.328.953l-.71 1.085.15.38-2.059 3.95z" fill="#d20014" stroke="#d20014"/></g></g><use xlink:href="#a" transform="matrix(-1 0 0 1 499.859 0)" width="100%" height="100%"/></g><g transform="matrix(2 0 0 2 0 2.153)"><path d="M248.957 125.603l-.465 9.07h2.9l-.425-8.992 3.023-.424-.335-3.582-7.51.29.041 3.253z" fill="#016a16" stroke="#016a16"/><g id="b" fill="#016a16"><path d="M249.817 121.898c-7.764-7.771-13.878-3.98-15.334-2.902.963.187 1.826-.412 2.273-.48-.28.353-.865 1.229-.865 1.229s2.4-1.134 2.668-1.03c-.346.276-.727.936-.727.936.178.069 1.528-1.057 1.795-1.077-.411.466-.539 1.528-.539 1.528l1.17-.545c.304.216-.085.63.18.609 1.944-.16 4.677 1.777 5.053 2.372"/><path d="M247.895 123.321c-.81-1.854-15.588-5.005-18.56.244 1.164.293 2.276-.976 2.276-.976l-.101 1.171 1.972-1.512-.708 1.56 1.568-1.268-.05 1.269 1.921-2.098-.253 1.22 1.72-.732-.203 1.024"/><path d="M247.238 123.614c-3.793-2.537-9.66-.83-9.66-.83-3.741 2.099-5.736 1.72-6.22 5.611.355-.146 1.366-1.366 1.366-1.366l.759 1.513.252-2.147.607 1.659.91-2.732.203 1.854 1.416-1.854.657.536.607-1.415.556.927s.961-.585 1.518-.244l1.062-1.22.252.879.91-1.073.355.78.91-.83-.05.586 3.135.05"/><path d="M246.38 124.053c-2.643-.05-10.226 2.812-12.188 5.806a13.29 13.29 0 0 1 1.263-.635l.387 1.203.473-1.203.1.927c.29-.724.618-.806 1.164-.049l.202-1.122.304 1.073.505-1.17s.318 1.269.506 1.22c0 0 .838-2.195 1.214-2.294l.1 1.366.506-1.366.456 1.025.1-1.464.506 1.122s.266-1.103.658-1.317l.758.683 3.378-2.427"/><path d="M246.888 124.678c-3.521 1.35-6.67 6.179-6.43 8.226 1.565-1.941 1.229-1.674 1.928.56 0 0 .264-1.955.53-2.187l.459 1.446.17-1.892.47.022-.12-1.187.7.535c-.164-.678-.339-.907.385-1.489 0 0-.917.117-.193-1.535l.675.651s-.12-.721.12-1l2.485-.861"/><path d="M247.229 125.04l-1.33 2.534.682.197-1.535 1.152 1.296-.132s-1.978.724-2.217 2.665l2.013-.888s-1.706 1.744-1.945 2.797l1.16-1.02s-1.125 1.217-.955 3.06l.853-.954c-.205 2.237-.137 2.435.887 4.146 0 0-.273-2.633.034-2.962l2.25 2.337-1.261-3.324s1.398 2.106 2.25 1.909l-1.773-2.698 1.74 1.414-1.978-2.961 1.841.56s-1.33-1.679-1.228-2.732l1.262 1.382s-.477-1.58-.34-2.04l.647.132-1.262-1.448.853-.165-.102-.954.614-.197-.034-1.053m-1.092 0c-2.183 2.961-1.251 7.406-2.353 9.871"/></g><use xlink:href="#b" transform="matrix(-1 0 0 1 499.859 0)" width="100%" height="100%"/><path d="M251.145 166.535s1.19-9.945 1.186-14.225c-.002-3.37-.814-10.835-.814-10.835H248.1s-.52 7.429-.442 10.789c.1 4.281 1.186 14.27 1.186 14.27h2.301z"/><path d="M247.874 141.953h3.96l-.465-2.666h-2.87z"/><path d="M248.127 139.816h3.539l-.667-2.666h-2.18z"/><path d="M248.355 137.655h2.95l-.5-2.666h-1.875z"/><path d="M250.91 134.673h-2.063l-.21.964h2.441z"/><path d="M251.332 164.367h-2.72" stroke-width=".186"/><path d="M251.547 162.42h-3.17" stroke-width=".19"/><path d="M251.864 160.444h-3.669" stroke-width=".181"/><path d="M252.056 158.291h-3.972m3.999-2.152h-4.173" stroke-width=".184"/><path d="M252.243 154.171h-4.449m4.459-1.791h-4.65m4.622-2.161h-4.65"/><path d="M252.07 148.084h-4.394" stroke-width=".181"/><path d="M251.864 145.914H247.8"/><path d="M251.725 143.955h-3.73" stroke-width=".184"/><path d="M249.909 119.044c-.688-.324-2.245-1.313-1.783-1.903l.713-1.214c1.01-2.277-.018-1.395-.126-2.106-.103-.682 3.865-.149 3.924 1.397.016.426-.295.176-.252 2.611l-.755 1.458c-.565.053-1.234-.014-1.721-.243z" fill="#0a328c" stroke="#0a328c"/><path d="M250.392 124.934l-.986-.83.273-7.105.965.283z"/><path d="M251.672 119.246c.62-.362 1.024-1.443.65-2.085-1.016-1.287-1.673-.756-3.378-1.336-.34.362-1.055 1.059-.902 1.579 2.242 1.056 1.372.156 2.114.288.4.07.658.545 1.516 1.554z" fill="#d20014" stroke="#d20014"/></g><g transform="matrix(2 0 0 2 0 2.153)"><use xlink:href="#c" transform="matrix(1 0 0 -1 -.002 320.37)" width="100%" height="100%"/><path d="M238.358 161.75c0 1.299-.815 2.353-1.818 2.353-1.004 0-1.819-1.054-1.819-2.353v-1.276h3.637z" fill="#016a16" stroke="#fff" stroke-width=".181" stroke-linecap="round"/><ellipse cx="236.539" cy="160.063" rx="1.806" ry=".898" fill="#fff" stroke="none"/><path d="M236.126 161.075l-.31-3.297h1.382l-.226 3.297z" fill="#016a16" stroke="#f1b517"/><path id="c" d="M238.538 160.118c-.265.493-1.06.852-1.999.852-.938 0-1.728-.359-1.993-.852a.756.756 0 0 0-.099.359c0 .669.937 1.21 2.092 1.21s2.092-.541 2.092-1.21a.748.748 0 0 0-.093-.359z" fill="#016a16" stroke="#fff" stroke-width=".237" stroke-linecap="round"/><g id="d"><path d="M246.035 172.786l-7.06-2.19-3.076-5.254-10.893-.535.378 3.94 9.28 1.777.882 1.581 10.666 2.968z"/><path d="M238.662 174.254l-11.149-16.398-.547.411 11.06 16.467z" fill="#503200"/><path d="M228.551 158.5l-1.19-1.992c-.223-.368-.561-.49-1.059-.228-.484.255-.437.76-.24 1.123l1.101 1.852z" fill="#fff"/><path d="M239.986 164.127l-22.496-2.286-.547 3.27 22.387 2.252z"/><path d="M217.089 160.997l-.583 4.538h.948l.656-4.151zm3.755.738l-.255 4.08.583.07.474-3.622zm15.241 1.759l-.547 3.834 1.094-.035.437-3.799zm3.351.105l-.779 4.434 1.238.18.354-2.332c.1.468.531.824 1.046.824.589 0 1.07-.464 1.07-1.032 0-.568-.481-1.026-1.07-1.026-.409 0-.78.24-.94.687l.231-1.662zm-8.119.72l-3.094 3.482.361.423 3.97-2.711zM224.124 173l3.094-3.482-.361-.423-3.97 2.711zm8.096-.871l-3.764-2.91-.387.273 2.965 3.756zm-9.282-6.716l3.816 2.81.464-.348-2.99-3.755zm4.152-2.319l.365 4.573.513-.022 1.207-4.452zm1.251 11.095l-.365-4.573-.565-.053-.691 4.626zm5.06-6.163l-4.795.51-.073.457 4.85.634zm-11.408 1.583l4.68-.74.1-.364-4.842-.54z"/><ellipse cx="227.693" cy="168.548" rx="1.27" ry="1.225"/><path d="M234.438 168.548c0 3.592-3.022 6.507-6.745 6.507-3.723 0-6.745-2.915-6.745-6.507 0-3.592 3.022-6.507 6.745-6.507 3.723 0 6.745 2.915 6.745 6.507zm-1.347 0c0 2.874-2.419 5.207-5.398 5.207-2.98 0-5.398-2.333-5.398-5.207 0-2.874 2.419-5.207 5.398-5.207 2.98 0 5.398 2.333 5.398 5.207z" fill-rule="evenodd" stroke-linecap="round"/><path d="M223.48 165.264l-1.057-.796m8.611.025l.902-.92m1.031 9.128l-1.109-.87m-8.378 1.865l.954-1.02M246.196 162.122l1.155 5.886-.942.497-1.014-6.299z"/><path d="M245.592 161.364c-.535-.224-1.232.155-2.374-1.292-1.878 1.723-.107 1.98.179 3.686.53.218.858-1.323 2.302-1.481.179-.018 2.298-.203 2.298-.203l-.532-.726s-1.474.04-1.873.016z" fill="#fff"/><path d="M246.359 162.518l-.214-1.756c-.232-.62-1-.087-1 .275l.197 1.619z" fill="#fff"/><path d="M240.765 167.372l.019 1.637c-.536.183-.454.585-.437 1.168l.019 4.772c-.19.316-.778.331-1.054.58-.277.247-.242.729 1.02 1.046l.975.035c1.486-.325 1.793-.818 1.048-1.095-.397-.148-.919-.324-1.117-.557l.033-1.137.964.035c.26 0 .753-.652.77-1.185l.005-2.47c-.035-1.401-1.085-1.559-1.38-1.542l.021-1.29zm1.63 2.73c.018-.4-.555-.757-.786-.767-.23-.01-.734.467-.751.867v1c.034.367.327 1.61.915 1.701.28.043.64-.4.64-.767l-.017-2.034z" fill-rule="evenodd"/><path d="M234.275 172.328c-.636-.257-.63 1.172-.63 1.172l1.002.01c.44.2.792.843.512 1.159-.231.261-2.177-.441-2.308-.037.344 1.941 2.917 2.688 3.848 1.839.91-.83 1.141-3.048-1.817-3.629zm.595.528l-.292.639" fill="#fff"/><path d="M214.943 173.055l-.963-4.05m2.132 3.817l-1.48-3.153m4.026 2.324l-3.337-1.792m4.782 1.427l-6.192-2.688"/><path d="M210.215 166.013s-2.254-.036-2.656.122c-.162.064.567.825.416 1.115-.563 1.083-4.394.934-4.697.698-.519-.405 3.568-.753 3.595-1.029.03-.316-.605-1.146-.506-1.655.128-.661 1.788-.907 1.788-.907z" fill="#d20014" stroke="#d20014"/><path d="M213.233 168.05l-5.102-4.222s-.225-.238-.413-.033c-.184.2.069.431.069.431l5.263 4.348z" fill="#503200"/><path d="M218.146 172.217c-.09-.087-4.155-3.608-4.155-3.608l-.271-1.028s-.628.425-.858.645c-.23.22-.587.819-.587.819l1.138.052 3.595 3.294z"/><g><ellipse cx="232.534" cy="177.056" rx=".74" ry=".715"/><ellipse cx="230.641" cy="175.716" rx=".74" ry=".715"/><ellipse cx="228.091" cy="176.593" rx=".74" ry=".715"/><ellipse cx="224.153" cy="177.445" rx=".74" ry=".715"/><ellipse cx="222.487" cy="177.64" rx=".74" ry=".715"/><ellipse cx="220.846" cy="177.64" rx=".74" ry=".715"/><ellipse cx="219.18" cy="177.591" rx=".74" ry=".715"/><ellipse cx="219.988" cy="176.325" rx=".74" ry=".715"/><ellipse cx="221.604" cy="176.398" rx=".74" ry=".715"/><ellipse cx="223.144" cy="176.203" rx=".74" ry=".715"/><ellipse cx="222.361" cy="174.961" rx=".74" ry=".715"/><ellipse cx="220.846" cy="174.937" rx=".74" ry=".715"/></g><path d="M236.47 177.991c0-.316-.769-.18-.769-.55 0-.412 1.173-.11 1.335.252.66-.596.944-.16 1.348.02.575-.855 1.287-.823 1.981-.197.401-.443 1.41-.297 1.757.197.664-.66 1.255-.497 1.715-.02.186-.346.458-.27.654-.02.354-.628 1.242-.44 1.616-.024.332-.366.673-.08 1.114.19.297-.28.778-.227.778.05 0 .29-.628.188-.628.474 0 .256.458.127.458.45 0 .255-.68.35-.785-.056-.23.44-1.062.271-1.144-.138-.276.335-.897.436-1.246-.059-.286.234-.63.267-.787.031-.517.556-1.388.442-1.688-.17l-.294.012c-.508.69-1.302.37-1.52-.01-.853.615-1.362.42-1.838.02-.548.666-1.381.62-1.573 0-.368.267-1.137.33-1.137.017 0-.301.653-.192.653-.469zm1.655.15c0 .143-.195.26-.436.26-.24 0-.435-.117-.435-.26 0-.143.195-.26.435-.26s.436.117.436.26zm1.82-.218c0 .172-.235.312-.524.312-.289 0-.524-.14-.524-.312 0-.173.235-.312.524-.312.29 0 .524.14.524.312zm3.575.197c0 .175-.212.316-.474.316s-.474-.141-.474-.316c0-.174.212-.316.474-.316s.474.142.474.316zm-1.904-.083c0 .22-.207.4-.463.4s-.464-.18-.464-.4c0-.22.208-.4.464-.4s.463.18.463.4zm4.06.01c0 .198-.186.358-.414.358-.229 0-.415-.16-.415-.358 0-.197.186-.357.415-.357.228 0 .414.16.414.357zm-1.244.083c0 .128-.12.231-.267.231-.148 0-.268-.103-.268-.23 0-.128.12-.231.268-.231.147 0 .267.103.267.23zm2.422.094c0 .183-.135.331-.302.331-.166 0-.301-.148-.301-.331 0-.183.135-.332.301-.332.167 0 .302.149.302.332z" fill-rule="evenodd"/></g><use xlink:href="#d" transform="matrix(-1 0 0 1 499.859 0)" width="100%" height="100%"/><g stroke-width=".231"><path d="M249.837 165.718c-2.512 0-4.55.944-4.55 2.102 0 .199.057.39.169.572.543.629 2.307 1.087 4.398 1.087 1.957 0 3.625-.402 4.277-.97.164-.216.256-.446.256-.689 0-1.158-2.038-2.102-4.55-2.102z" fill="#0a328c" stroke="#0a328c"/><path d="M254.427 167.981v7.058c0 .828-2.048 1.5-4.572 1.5s-4.573-.672-4.573-1.5v-7.058c0 .828 2.049 1.5 4.573 1.5 2.524 0 4.572-.672 4.572-1.5z" stroke-width=".187"/><path d="M245.282 167.982v1.082l2.22 6.845 1.772-5.264 1.946 5.465 1.425-5.159 1.783 3.469v-1.92l-1.656-3.363a8.25 8.25 0 0 1-.593.134l-1.028 3.812-1.447-3.604a14.522 14.522 0 0 1-.715-.023l-1.453 3.627-1.661-4.367c-.376-.217-.593-.466-.593-.734z" fill="#d20014" stroke="#d20014" stroke-width=".183"/><path d="M254.427 173.721v1.318c0 .827-2.048 1.499-4.572 1.499s-4.573-.672-4.573-1.5v-1.317c0 .828 2.049 1.5 4.573 1.5 2.524 0 4.572-.672 4.572-1.5z" fill="#0a328c" stroke="#0a328c" stroke-width=".187"/><path d="M251.737 175.085c-.372.055-.769.097-1.185.118l.011 1.317a12.24 12.24 0 0 0 1.186-.118zm-4.869-.23l-.012 1.312c.353.1.75.185 1.186.246v-1.317a8.907 8.907 0 0 1-1.174-.241zm-1.586-1.132v1.317c0 .246.185.474.506.679l.023-1.3c-.336-.21-.529-.444-.529-.696zm9.146.14l-.023.006c-.08.267-.379.516-.831.723l.006 1.312c.53-.245.848-.54.848-.863z" stroke-width=".187"/><path d="M254.427 168.027v7.012c0 .828-2.048 1.5-4.572 1.5s-4.573-.672-4.573-1.5v-7.012" fill="none" stroke-width=".187"/><path d="M253.392 167.52c0 .501-1.584.907-3.537.907-1.954 0-3.538-.406-3.538-.907s1.584-.907 3.538-.907c1.953 0 3.537.406 3.537.907z" fill="#fff" stroke="#fff" stroke-width=".192"/><path d="M248.698 168.19l.157 1.25c.307.022.626.038.953.04l.232-1.29zm4.103-.303l-.912.247.058 1.177a8.91 8.91 0 0 0 .866-.19zm-5.404-1.908c-.259.076-.5.165-.72.263l.127.945.581-.185zm2.44-.373c-.122 0-.241.007-.36.011l.197 1.183.605-.012.238-1.154a9.727 9.727 0 0 0-.68-.028zm2.673.418l-.122 1.034.691.244.076-1.015a5.259 5.259 0 0 0-.645-.263z"/><path d="M245.993 168.8l.184-1.288-.935-.506.028 1.465zm8.403-.278l.042-1.288-.876.262z" stroke-width=".183"/></g><path d="M263.686 160.029c.83-.115 2.062 1.024 2.136 2.433.06 1.118-1.69 1.06-1.69 1.06-.09.458-1.055.881-1.84.916-.763.033.207-1.432.207-1.432-.475-1.26.148-2.748.148-2.748z"/><path d="M262.499 162.948l.801-.029s.061.414.208.43c.157.017.326-.401.326-.401l1.217-.029"/><path d="M264.131 160.859c.68-.491.084-1.48-.386-1.489l-1.098.029c-.517.01-1.392.573-1.276 1.06.102.423.387.617.831.543.202-.033.626-.563.831-.572.275-.013.878.588 1.098.429z" fill="#d20014" stroke="#f1b517"/><path d="M214.242 174.855c-.617.078-.731.788-.5 1.44-2.686.756-5.086 1.74-7.455 2.406-.095-.474 1.174-1.845 1.174-1.845.336.162.587.93.587.93.084-1.578 1.639-2.628 1.639-2.628-.924-.122-3.732.967-4.068 1.412 0 0 1.087-.121 1.255 0 0 0-2.14 2.312-2.237 3 .333.75 4.027 1.311 4.027 1.311-.058.195-1.087.93-1.087.93 1.47.323 3.685-.717 4.347-1.35 0 0-1.728-.143-3.074-1.234 0 0 .277.68.11 1.004 0 0-2.1-.605-2.318-.953.006-.03 4.966-1.315 7.368-2.001.088.429.565 1.24 1.138 1.048.374-.125.256-.866.117-1.39a.77.77 0 0 0 .505.185c.422 0 .767-.327.767-.735 0-.407-.345-.74-.767-.74a.757.757 0 0 0-.72.505c-.096-.453-.345-1.354-.808-1.295zm1.889 1.528c0 .19-.16.345-.358.345a.352.352 0 0 1-.358-.345c0-.19.16-.345.358-.345.197 0 .358.154.358.345z" fill-rule="evenodd"/><g><path d="M293.068 177.884c.183-.367-.162-2.212-.162-2.212-.373.042-.882.681-.882.681.48-1.511-.865-4.037-.865-4.037.91.19 3.945 3.128 4.103 3.657 0 0-1.33-.474-1.53-.415.217 1.506 1.258 2.205 1.65 2.988 0 0-1.726.38-1.553 1.822l-1.127.021c-.39-.481.152-1.276.152-1.276l-7.739-3.241c-.499-.21-1.62-.718-1.452-1.318.17-.604 2.016.251 2.47.398z"/><path d="M285.635 176.541l.91-1.673c.326-.44-.346-.92-.823-.356l-1.02 1.527c-.454.837.5 1.067.933.502z"/></g></g><g fill="#fff" stroke-width=".366"><path d="M462.734 360.732l-.126-3.65-4.414.244-.252 3.974z"/><path d="M430.474 365.848l-5.902-3.31c24.338 2.23 29.308-6.259 35.189-6.713 3.615-.282 4.18 4.004-2.826 1.965l1.812 4.483s-17.277 9.719-34.259 5.704zm106.024-5.116l.126-3.65 5.398.125.253 3.974z"/><path d="M569.878 364.954l5.553-3.03c-27.877.83-21.53-4.579-35.478-6.097-3.604-.39-6.314 4.242 2.825 1.965l-1.811 4.483 4.384.004c9.496 6.253 22.312 6.811 30.803 4.804l-6.276-2.13z"/><path d="M456.836 357.816v6.308s15.456 5.735 43.038 5.735c27.7 0 43.037-5.735 43.037-5.735v-6.308s-11.698 5.39-43.037 5.39c-31.221 0-43.038-5.39-43.038-5.39z"/></g><path d="M459.146 364.16l1.364-4.619.633.175-1.203 4.073 2.358.648-.16.545zm4.473-2.031l.076-.907.203-.778.675.164-.203.778-.386.832-.365-.09zm6.65-.312l.646.127-.574 2.72c-.1.472-.234.837-.404 1.093s-.418.443-.744.56c-.326.119-.724.131-1.195.039-.457-.09-.814-.24-1.073-.448a1.32 1.32 0 0 1-.483-.782c-.063-.313-.042-.718.063-1.217l.573-2.718.646.126-.573 2.716c-.086.41-.11.718-.073.927a.874.874 0 0 0 .312.527c.17.143.393.241.67.296.475.093.835.056 1.08-.112.246-.168.432-.547.556-1.138zm.727 5.02l.803-4.739.667.105 1.95 4.129.63-3.722.624.099-.804 4.74-.667-.106-1.948-4.131-.632 3.724zm5.082.768l.684-4.757.652.087-.683 4.757zm1.875-2.098c.094-.792.388-1.388.881-1.787.494-.4 1.09-.561 1.787-.484.457.05.856.2 1.197.451.342.251.587.576.734.973.148.398.194.835.137 1.313a2.77 2.77 0 0 1-.457 1.265c-.248.36-.569.617-.963.772-.395.156-.806.21-1.236.163a2.403 2.403 0 0 1-1.21-.463 2.112 2.112 0 0 1-.728-.98 2.622 2.622 0 0 1-.142-1.223zm.673.084c-.068.575.039 1.045.32 1.412.282.366.664.576 1.148.629.492.054.917-.068 1.275-.367.358-.3.573-.756.646-1.37a2.38 2.38 0 0 0-.084-1.04 1.522 1.522 0 0 0-.517-.74 1.662 1.662 0 0 0-.854-.335 1.73 1.73 0 0 0-1.25.328c-.37.27-.598.765-.683 1.483zm4.617 2.832l.406-4.786.673.053 2.288 3.963.318-3.758.63.05-.406 4.787-.673-.054-2.287-3.966-.32 3.76zm6.979.486l.217-4.798 3.355.141-.025.566-2.697-.114-.068 1.486 2.334.099-.025.566-2.334-.099-.099 2.18-.658-.028zm3.667.156l2.008-4.766.71.014 1.94 4.84-.75-.014-.552-1.465-2.081-.039-.576 1.444-.7-.014zm1.475-1.945l1.688.032-.493-1.34a12.78 12.78 0 0 1-.333-1.002 5.96 5.96 0 0 1-.287.912zm3.828 2.022l.01-4.803.66.001-.011 4.803-.66-.001zm3.084-.014l-.063-4.236-1.64.023-.009-.567 3.946-.054.01.567-1.648.022.063 4.236-.66.01zm4.884-.116l-.232-4.797.658-.03.205 4.231 2.449-.11.027.566zm3.35-.146l1.553-4.92.708-.05 2.386 4.65-.749.052-.686-1.41-2.076.142-.438 1.488zm1.287-2.065l1.684-.116-.617-1.29a12.89 12.89 0 0 1-.425-.97c-.04.311-.107.622-.2.933zm5.844 1.516l-.546-4.774 3.338-.355.064.563-2.683.286.169 1.478 2.322-.247.064.563-2.322.248.248 2.168zm3.65-2.74c-.117-.79.012-1.438.385-1.945.373-.507.907-.808 1.601-.904.455-.062.88-.014 1.277.146.396.16.718.413.965.762.247.35.406.76.476 1.236.072.482.035.928-.11 1.336a2.017 2.017 0 0 1-.73.982c-.34.247-.725.4-1.153.46a2.442 2.442 0 0 1-1.292-.154 2.17 2.17 0 0 1-.961-.772 2.655 2.655 0 0 1-.458-1.148zm.674-.083c.084.572.31 1.002.679 1.288.368.285.793.395 1.275.33.49-.069.87-.29 1.138-.668.268-.376.356-.87.266-1.482a2.403 2.403 0 0 0-.354-.986 1.562 1.562 0 0 0-.694-.59 1.684 1.684 0 0 0-.914-.117 1.699 1.699 0 0 0-1.124.623c-.287.352-.378.886-.272 1.602zm5.227 1.612l-.889-4.726 2.172-.38c.436-.076.776-.092 1.02-.047.242.045.452.163.628.354.177.192.29.417.338.677.063.335.003.637-.178.907-.182.27-.501.476-.96.62.187.05.332.106.436.167.22.135.44.313.656.535l1.094 1.137-.816.142-.833-.87a9.11 9.11 0 0 0-.59-.568 1.498 1.498 0 0 0-.388-.259 1.022 1.022 0 0 0-.32-.074 2.13 2.13 0 0 0-.365.041l-.752.132.395 2.098zm.152-2.754l1.393-.244c.296-.05.522-.122.678-.21a.735.735 0 0 0 .378-.797.716.716 0 0 0-.356-.507c-.195-.115-.474-.14-.837-.076l-1.55.271zm7.862-.523l.68.018c-.016.538-.169.98-.456 1.323-.288.343-.685.57-1.19.68-.524.113-.973.103-1.35-.03a2.036 2.036 0 0 1-.956-.732 3.211 3.211 0 0 1-.55-1.2c-.114-.488-.117-.935-.009-1.34.108-.405.32-.74.632-1.007a2.505 2.505 0 0 1 1.111-.538c.486-.106.922-.075 1.31.091.386.167.695.453.927.857l-.6.28c-.192-.315-.413-.528-.664-.637-.25-.11-.538-.128-.862-.058-.374.081-.665.235-.876.462-.21.227-.332.497-.366.81a2.78 2.78 0 0 0 .058.933c.093.398.234.733.424 1.004.19.271.428.452.717.544.288.092.58.106.876.042.36-.078.641-.245.844-.5.203-.254.303-.588.3-1zm1.83 1.306l-1.339-4.626 3.467-.934.158.546-2.832.763.41 1.417 2.652-.715.157.543-2.653.715.456 1.574 2.944-.793.158.546z" fill="#000" stroke="none"/></g></svg>