<?xml version="1.0" encoding="UTF-8" standalone="no"?>
<!-- Created with Inkscape (http://www.inkscape.org/) -->
<svg
   xmlns:dc="http://purl.org/dc/elements/1.1/"
   xmlns:cc="http://web.resource.org/cc/"
   xmlns:rdf="http://www.w3.org/1999/02/22-rdf-syntax-ns#"
   xmlns:svg="http://www.w3.org/2000/svg"
   xmlns="http://www.w3.org/2000/svg"
   xmlns:sodipodi="http://sodipodi.sourceforge.net/DTD/sodipodi-0.dtd"
   xmlns:inkscape="http://www.inkscape.org/namespaces/inkscape"
   width="1000"
   height="600"
   id="svg2"
   sodipodi:version="0.32"
   inkscape:version="0.45.1"
   sodipodi:docbase="C:\Documents and Settings\Jeff\Desktop"
   sodipodi:docname="KG flag v2.svg"
   inkscape:output_extension="org.inkscape.output.svg.inkscape"
   version="1.0">
  <defs
     id="defs4">
    <clipPath
       id="clip">
      <circle
         id="circle8"
         r="46"
         cy="-39"
         cx="0"
         sodipodi:cx="0"
         sodipodi:cy="-39"
         sodipodi:rx="46"
         sodipodi:ry="46" />
    </clipPath>
    <clipPath
       id="clipPath2448">
      <circle
         id="circle2398"
         r="46"
         cy="-39"
         cx="0"
         sodipodi:cx="0"
         sodipodi:cy="-39"
         sodipodi:rx="46"
         sodipodi:ry="46" />
    </clipPath>
  </defs>
  <sodipodi:namedview
     id="base"
     pagecolor="#ffffff"
     bordercolor="#666666"
     borderopacity="1.0"
     gridtolerance="10000"
     guidetolerance="10"
     objecttolerance="10"
     inkscape:pageopacity="0.0"
     inkscape:pageshadow="2"
     inkscape:zoom="0.49497475"
     inkscape:cx="556.21815"
     inkscape:cy="452.02072"
     inkscape:document-units="px"
     inkscape:current-layer="layer1"
     showborder="true"
     inkscape:window-width="1024"
     inkscape:window-height="712"
     inkscape:window-x="-4"
     inkscape:window-y="-4"
     showguides="true"
     inkscape:guide-bbox="true" />
  <metadata
     id="metadata7">
    <rdf:RDF>
      <cc:Work
         rdf:about="">
        <dc:format>image/svg+xml</dc:format>
        <dc:type
           rdf:resource="http://purl.org/dc/dcmitype/StillImage" />
      </cc:Work>
    </rdf:RDF>
  </metadata>
  <g
     inkscape:label="Layer 1"
     inkscape:groupmode="layer"
     id="layer1"
     transform="translate(697.89051,382.42592)">
    <g
       id="g7179"
       transform="matrix(2,0,0,2,697.8905,-217.57407)">
      <rect
         id="rect2400"
         height="300"
         width="500"
         x="-697.8905"
         y="-82.425926"
         style="fill:#e8112d" />
      <g
         transform="translate(-447.55054,67.87669)"
         id="g2479"
         style="fill:#ffef00;fill-opacity:1">
        <path
           style="fill:#ffef00;fill-opacity:1"
           d="M 4.2,-54 C 0,-65 9,-82 0,-90 C 3,-78 -7,-65 -4.2,-54 C -1.4,-43 8.4,-43 4.2,-54 z "
           id="path2482" />
        <path
           style="fill:#ffef00;fill-opacity:1"
           d="M 12.595754,-52.678143 C 10.168243,-64.199739 21.716824,-79.58253 14.079105,-88.891947 C 15.164956,-76.570384 3.2544244,-65.294781 4.2991721,-53.992193 C 5.3439199,-42.689605 15.023265,-41.156547 12.595754,-52.678143 z "
           id="path2484" />
        <path
           style="fill:#ffef00;fill-opacity:1"
           d="M 20.681355,-50.05918 C 20.086105,-61.818672 33.898902,-75.20548 27.81153,-85.595085 C 26.956495,-73.255356 13.42871,-63.981792 12.692481,-52.654922 C 11.956252,-41.328053 21.276606,-38.299687 20.681355,-50.05918 z "
           id="path2486" />
        <path
           style="fill:#ffef00;fill-opacity:1"
           d="M 28.257714,-46.207591 C 29.509383,-57.915423 45.24628,-68.976619 40.859145,-80.190585 C 38.084279,-68.136536 23.272337,-61.093356 20.77326,-50.021111 C 18.274182,-38.948866 27.006046,-34.499759 28.257714,-46.207591 z "
           id="path2488" />
        <path
           style="fill:#ffef00;fill-opacity:1"
           d="M 35.138278,-41.21822 C 38.206044,-52.586105 55.479548,-61.049326 52.900677,-72.81153 C 48.274304,-61.33997 32.542925,-56.700602 28.342535,-46.155616 C 24.142144,-35.61063 32.070511,-29.850334 35.138278,-41.21822 z "
           id="path2490" />
        <path
           style="fill:#ffef00;fill-opacity:1"
           d="M 41.153616,-35.213919 C 45.961942,-45.961942 64.346719,-51.618796 63.639612,-63.639612 C 57.275651,-53.03301 41.012194,-50.91169 35.213919,-41.153616 C 29.415643,-31.395542 36.34529,-24.465895 41.153616,-35.213919 z "
           id="path2492" />
        <path
           style="fill:#ffef00;fill-opacity:1"
           d="M 46.155616,-28.342535 C 52.586105,-38.206044 71.629462,-40.917242 72.81153,-52.900677 C 64.866682,-43.420202 48.471608,-43.869163 41.21822,-35.138278 C 33.964832,-26.407392 39.725128,-18.479025 46.155616,-28.342535 z "
           id="path2494" />
        <path
           style="fill:#ffef00;fill-opacity:1"
           d="M 50.021111,-20.77326 C 57.915423,-29.509383 77.148448,-29.208163 80.190585,-40.859145 C 70.860478,-32.738239 54.737489,-35.746428 46.207591,-28.257714 C 37.677693,-20.769001 42.1268,-12.037137 50.021111,-20.77326 z "
           id="path2497" />
        <path
           style="fill:#ffef00;fill-opacity:1"
           d="M 52.654922,-12.692481 C 61.818672,-20.086105 80.767786,-16.779885 85.595085,-27.81153 C 75.109458,-21.250156 59.655553,-26.743501 50.05918,-20.681355 C 40.462806,-14.61921 43.491172,-5.2988564 52.654922,-12.692481 z "
           id="path2499" />
        <path
           style="fill:#ffef00;fill-opacity:1"
           d="M 53.992193,-4.2991721 C 64.199739,-10.168243 82.398351,-3.9384343 88.891947,-14.079105 C 77.508991,-9.2388261 63.104698,-17.082061 52.678143,-12.595754 C 42.251589,-8.1094471 43.784647,1.5698982 53.992193,-4.2991721 z "
           id="path2501" />
      </g>
      <g
         style="fill:#ffef00;fill-opacity:1"
         id="g2503"
         transform="matrix(0,1,-1,0,-447.55054,67.87669)">
        <path
           style="fill:#ffef00;fill-opacity:1"
           d="M 4.2,-54 C 0,-65 9,-82 0,-90 C 3,-78 -7,-65 -4.2,-54 C -1.4,-43 8.4,-43 4.2,-54 z "
           id="path2505" />
        <path
           style="fill:#ffef00;fill-opacity:1"
           d="M 12.595754,-52.678143 C 10.168243,-64.199739 21.716824,-79.58253 14.079105,-88.891947 C 15.164956,-76.570384 3.2544244,-65.294781 4.2991721,-53.992193 C 5.3439199,-42.689605 15.023265,-41.156547 12.595754,-52.678143 z "
           id="path2507" />
        <path
           style="fill:#ffef00;fill-opacity:1"
           d="M 20.681355,-50.05918 C 20.086105,-61.818672 33.898902,-75.20548 27.81153,-85.595085 C 26.956495,-73.255356 13.42871,-63.981792 12.692481,-52.654922 C 11.956252,-41.328053 21.276606,-38.299687 20.681355,-50.05918 z "
           id="path2509" />
        <path
           style="fill:#ffef00;fill-opacity:1"
           d="M 28.257714,-46.207591 C 29.509383,-57.915423 45.24628,-68.976619 40.859145,-80.190585 C 38.084279,-68.136536 23.272337,-61.093356 20.77326,-50.021111 C 18.274182,-38.948866 27.006046,-34.499759 28.257714,-46.207591 z "
           id="path2511" />
        <path
           style="fill:#ffef00;fill-opacity:1"
           d="M 35.138278,-41.21822 C 38.206044,-52.586105 55.479548,-61.049326 52.900677,-72.81153 C 48.274304,-61.33997 32.542925,-56.700602 28.342535,-46.155616 C 24.142144,-35.61063 32.070511,-29.850334 35.138278,-41.21822 z "
           id="path2513" />
        <path
           style="fill:#ffef00;fill-opacity:1"
           d="M 41.153616,-35.213919 C 45.961942,-45.961942 64.346719,-51.618796 63.639612,-63.639612 C 57.275651,-53.03301 41.012194,-50.91169 35.213919,-41.153616 C 29.415643,-31.395542 36.34529,-24.465895 41.153616,-35.213919 z "
           id="path2515" />
        <path
           style="fill:#ffef00;fill-opacity:1"
           d="M 46.155616,-28.342535 C 52.586105,-38.206044 71.629462,-40.917242 72.81153,-52.900677 C 64.866682,-43.420202 48.471608,-43.869163 41.21822,-35.138278 C 33.964832,-26.407392 39.725128,-18.479025 46.155616,-28.342535 z "
           id="path2517" />
        <path
           style="fill:#ffef00;fill-opacity:1"
           d="M 50.021111,-20.77326 C 57.915423,-29.509383 77.148448,-29.208163 80.190585,-40.859145 C 70.860478,-32.738239 54.737489,-35.746428 46.207591,-28.257714 C 37.677693,-20.769001 42.1268,-12.037137 50.021111,-20.77326 z "
           id="path2519" />
        <path
           style="fill:#ffef00;fill-opacity:1"
           d="M 52.654922,-12.692481 C 61.818672,-20.086105 80.767786,-16.779885 85.595085,-27.81153 C 75.109458,-21.250156 59.655553,-26.743501 50.05918,-20.681355 C 40.462806,-14.61921 43.491172,-5.2988564 52.654922,-12.692481 z "
           id="path2521" />
        <path
           style="fill:#ffef00;fill-opacity:1"
           d="M 53.992193,-4.2991721 C 64.199739,-10.168243 82.398351,-3.9384343 88.891947,-14.079105 C 77.508991,-9.2388261 63.104698,-17.082061 52.678143,-12.595754 C 42.251589,-8.1094471 43.784647,1.5698982 53.992193,-4.2991721 z "
           id="path2523" />
      </g>
      <g
         style="fill:#ffef00;fill-opacity:1"
         id="g2525"
         transform="matrix(-1,0,0,-1,-447.55054,67.87669)">
        <path
           style="fill:#ffef00;fill-opacity:1"
           d="M 4.2,-54 C 0,-65 9,-82 0,-90 C 3,-78 -7,-65 -4.2,-54 C -1.4,-43 8.4,-43 4.2,-54 z "
           id="path2527" />
        <path
           style="fill:#ffef00;fill-opacity:1"
           d="M 12.595754,-52.678143 C 10.168243,-64.199739 21.716824,-79.58253 14.079105,-88.891947 C 15.164956,-76.570384 3.2544244,-65.294781 4.2991721,-53.992193 C 5.3439199,-42.689605 15.023265,-41.156547 12.595754,-52.678143 z "
           id="path2529" />
        <path
           style="fill:#ffef00;fill-opacity:1"
           d="M 20.681355,-50.05918 C 20.086105,-61.818672 33.898902,-75.20548 27.81153,-85.595085 C 26.956495,-73.255356 13.42871,-63.981792 12.692481,-52.654922 C 11.956252,-41.328053 21.276606,-38.299687 20.681355,-50.05918 z "
           id="path2531" />
        <path
           style="fill:#ffef00;fill-opacity:1"
           d="M 28.257714,-46.207591 C 29.509383,-57.915423 45.24628,-68.976619 40.859145,-80.190585 C 38.084279,-68.136536 23.272337,-61.093356 20.77326,-50.021111 C 18.274182,-38.948866 27.006046,-34.499759 28.257714,-46.207591 z "
           id="path2533" />
        <path
           style="fill:#ffef00;fill-opacity:1"
           d="M 35.138278,-41.21822 C 38.206044,-52.586105 55.479548,-61.049326 52.900677,-72.81153 C 48.274304,-61.33997 32.542925,-56.700602 28.342535,-46.155616 C 24.142144,-35.61063 32.070511,-29.850334 35.138278,-41.21822 z "
           id="path2535" />
        <path
           style="fill:#ffef00;fill-opacity:1"
           d="M 41.153616,-35.213919 C 45.961942,-45.961942 64.346719,-51.618796 63.639612,-63.639612 C 57.275651,-53.03301 41.012194,-50.91169 35.213919,-41.153616 C 29.415643,-31.395542 36.34529,-24.465895 41.153616,-35.213919 z "
           id="path2537" />
        <path
           style="fill:#ffef00;fill-opacity:1"
           d="M 46.155616,-28.342535 C 52.586105,-38.206044 71.629462,-40.917242 72.81153,-52.900677 C 64.866682,-43.420202 48.471608,-43.869163 41.21822,-35.138278 C 33.964832,-26.407392 39.725128,-18.479025 46.155616,-28.342535 z "
           id="path2539" />
        <path
           style="fill:#ffef00;fill-opacity:1"
           d="M 50.021111,-20.77326 C 57.915423,-29.509383 77.148448,-29.208163 80.190585,-40.859145 C 70.860478,-32.738239 54.737489,-35.746428 46.207591,-28.257714 C 37.677693,-20.769001 42.1268,-12.037137 50.021111,-20.77326 z "
           id="path2541" />
        <path
           style="fill:#ffef00;fill-opacity:1"
           d="M 52.654922,-12.692481 C 61.818672,-20.086105 80.767786,-16.779885 85.595085,-27.81153 C 75.109458,-21.250156 59.655553,-26.743501 50.05918,-20.681355 C 40.462806,-14.61921 43.491172,-5.2988564 52.654922,-12.692481 z "
           id="path2543" />
        <path
           style="fill:#ffef00;fill-opacity:1"
           d="M 53.992193,-4.2991721 C 64.199739,-10.168243 82.398351,-3.9384343 88.891947,-14.079105 C 77.508991,-9.2388261 63.104698,-17.082061 52.678143,-12.595754 C 42.251589,-8.1094471 43.784647,1.5698982 53.992193,-4.2991721 z "
           id="path2545" />
      </g>
      <g
         style="fill:#ffef00;fill-opacity:1"
         id="g2547"
         transform="matrix(0,-1,1,0,-447.55054,67.87669)">
        <path
           style="fill:#ffef00;fill-opacity:1"
           d="M 4.2,-54 C 0,-65 9,-82 0,-90 C 3,-78 -7,-65 -4.2,-54 C -1.4,-43 8.4,-43 4.2,-54 z "
           id="path2549" />
        <path
           style="fill:#ffef00;fill-opacity:1"
           d="M 12.595754,-52.678143 C 10.168243,-64.199739 21.716824,-79.58253 14.079105,-88.891947 C 15.164956,-76.570384 3.2544244,-65.294781 4.2991721,-53.992193 C 5.3439199,-42.689605 15.023265,-41.156547 12.595754,-52.678143 z "
           id="path2551" />
        <path
           style="fill:#ffef00;fill-opacity:1"
           d="M 20.681355,-50.05918 C 20.086105,-61.818672 33.898902,-75.20548 27.81153,-85.595085 C 26.956495,-73.255356 13.42871,-63.981792 12.692481,-52.654922 C 11.956252,-41.328053 21.276606,-38.299687 20.681355,-50.05918 z "
           id="path2553" />
        <path
           style="fill:#ffef00;fill-opacity:1"
           d="M 28.257714,-46.207591 C 29.509383,-57.915423 45.24628,-68.976619 40.859145,-80.190585 C 38.084279,-68.136536 23.272337,-61.093356 20.77326,-50.021111 C 18.274182,-38.948866 27.006046,-34.499759 28.257714,-46.207591 z "
           id="path2555" />
        <path
           style="fill:#ffef00;fill-opacity:1"
           d="M 35.138278,-41.21822 C 38.206044,-52.586105 55.479548,-61.049326 52.900677,-72.81153 C 48.274304,-61.33997 32.542925,-56.700602 28.342535,-46.155616 C 24.142144,-35.61063 32.070511,-29.850334 35.138278,-41.21822 z "
           id="path2557" />
        <path
           style="fill:#ffef00;fill-opacity:1"
           d="M 41.153616,-35.213919 C 45.961942,-45.961942 64.346719,-51.618796 63.639612,-63.639612 C 57.275651,-53.03301 41.012194,-50.91169 35.213919,-41.153616 C 29.415643,-31.395542 36.34529,-24.465895 41.153616,-35.213919 z "
           id="path2559" />
        <path
           style="fill:#ffef00;fill-opacity:1"
           d="M 46.155616,-28.342535 C 52.586105,-38.206044 71.629462,-40.917242 72.81153,-52.900677 C 64.866682,-43.420202 48.471608,-43.869163 41.21822,-35.138278 C 33.964832,-26.407392 39.725128,-18.479025 46.155616,-28.342535 z "
           id="path2561" />
        <path
           style="fill:#ffef00;fill-opacity:1"
           d="M 50.021111,-20.77326 C 57.915423,-29.509383 77.148448,-29.208163 80.190585,-40.859145 C 70.860478,-32.738239 54.737489,-35.746428 46.207591,-28.257714 C 37.677693,-20.769001 42.1268,-12.037137 50.021111,-20.77326 z "
           id="path2563" />
        <path
           style="fill:#ffef00;fill-opacity:1"
           d="M 52.654922,-12.692481 C 61.818672,-20.086105 80.767786,-16.779885 85.595085,-27.81153 C 75.109458,-21.250156 59.655553,-26.743501 50.05918,-20.681355 C 40.462806,-14.61921 43.491172,-5.2988564 52.654922,-12.692481 z "
           id="path2565" />
        <path
           style="fill:#ffef00;fill-opacity:1"
           d="M 53.992193,-4.2991721 C 64.199739,-10.168243 82.398351,-3.9384343 88.891947,-14.079105 C 77.508991,-9.2388261 63.104698,-17.082061 52.678143,-12.595754 C 42.251589,-8.1094471 43.784647,1.5698982 53.992193,-4.2991721 z "
           id="path2567" />
      </g>
      <circle
         transform="translate(-447.55054,67.87669)"
         id="circle2569"
         r="54"
         cx="0"
         cy="0"
         sodipodi:cx="0"
         sodipodi:cy="0"
         sodipodi:rx="54"
         sodipodi:ry="54"
         style="fill:#e8112d" />
      <path
         transform="matrix(1.3676861,0,0,1.3676861,-176.98695,-86.201383)"
         d="M -158.95836 112.0634 A 38.825226 38.825226 0 1 1  -236.60881,112.0634 A 38.825226 38.825226 0 1 1  -158.95836 112.0634 z"
         sodipodi:ry="38.825226"
         sodipodi:rx="38.825226"
         sodipodi:cy="112.0634"
         sodipodi:cx="-197.78358"
         id="path2571"
         style="fill:none;fill-opacity:1;stroke:#ffef00;stroke-width:8;stroke-linecap:round;stroke-linejoin:round;stroke-miterlimit:4;stroke-dasharray:none;stroke-opacity:1"
         sodipodi:type="arc" />
      <circle
         transform="matrix(0.8899531,0,0,0.8997326,-447.55054,67.626029)"
         id="circle2573"
         r="45"
         cy="-3"
         cx="0"
         sodipodi:cx="0"
         sodipodi:cy="-3"
         sodipodi:rx="45"
         sodipodi:ry="45"
         style="fill:#ffef00;fill-opacity:1" />
      <g
         id="g2575"
         clip-path="url(#clip)"
         transform="matrix(0.8899531,0,0,0.8997326,-447.55054,100.01639)">
        <g
           id="g2577"
           style="fill:#e8112d">
          <path
             id="path2579"
             d="M 45,-63.63961 C 9.8528139,-63.63961 -18.63961,-35.147186 -18.63961,-7.7933471e-015 C -18.63961,35.147186 9.8528139,63.63961 45,63.63961 L 41.4,66.10471 C 4.8913768,66.10471 -24.70471,36.508623 -24.70471,8.0952248e-015 C -24.70471,-36.508623 4.8913768,-66.10471 41.4,-66.10471 L 45,-63.63961 z " />
          <path
             id="path2581"
             d="M 39,-67.84916 C 1.5279436,-67.84916 -28.84916,-37.472056 -28.84916,-8.3088512e-015 C -28.84916,37.472056 1.5279436,67.84916 39,67.84916 L 35.4,70.60241 C -3.5926343,70.60241 -35.20241,38.992634 -35.20241,8.646016e-015 C -35.20241,-38.992634 -3.5926343,-70.60241 35.4,-70.60241 L 39,-67.84916 z " />
          <path
             id="path2583"
             d="M 33,-72.5209 C -7.0521871,-72.5209 -39.5209,-40.052187 -39.5209,-8.8809555e-015 C -39.5209,40.052187 -7.0521871,72.5209 33,72.5209 L 29.4,75.51047 C -12.303281,75.51047 -46.11047,41.703281 -46.11047,9.2470601e-015 C -46.11047,-41.703281 -12.303281,-75.51047 29.4,-75.51047 L 33,-72.5209 z " />
        </g>
        <g
           style="fill:#e8112d"
           id="g2585"
           transform="scale(-1,1)">
          <path
             id="path2587"
             d="M 45,-63.63961 C 9.8528139,-63.63961 -18.63961,-35.147186 -18.63961,-7.7933471e-015 C -18.63961,35.147186 9.8528139,63.63961 45,63.63961 L 41.4,66.10471 C 4.8913768,66.10471 -24.70471,36.508623 -24.70471,8.0952248e-015 C -24.70471,-36.508623 4.8913768,-66.10471 41.4,-66.10471 L 45,-63.63961 z " />
          <path
             id="path2589"
             d="M 39,-67.84916 C 1.5279436,-67.84916 -28.84916,-37.472056 -28.84916,-8.3088512e-015 C -28.84916,37.472056 1.5279436,67.84916 39,67.84916 L 35.4,70.60241 C -3.5926343,70.60241 -35.20241,38.992634 -35.20241,8.646016e-015 C -35.20241,-38.992634 -3.5926343,-70.60241 35.4,-70.60241 L 39,-67.84916 z " />
          <path
             id="path2591"
             d="M 33,-72.5209 C -7.0521871,-72.5209 -39.5209,-40.052187 -39.5209,-8.8809555e-015 C -39.5209,40.052187 -7.0521871,72.5209 33,72.5209 L 29.4,75.51047 C -12.303281,75.51047 -46.11047,41.703281 -46.11047,9.2470601e-015 C -46.11047,-41.703281 -12.303281,-75.51047 29.4,-75.51047 L 33,-72.5209 z " />
        </g>
      </g>
    </g>
  </g>
</svg>
