<?xml version="1.0" encoding="UTF-8"?>
<svg xmlns="http://www.w3.org/2000/svg" xmlns:xlink="http://www.w3.org/1999/xlink" width="840" height="600">
<rect width="840" height="600" style="fill:#244aa5"/>
<path fill="#d0a650" d="M 424.54114,190.13476 C 428.05558,194.23636 430.40852,198.33476 430.40852,203.31978 C 427.45772,204.77861 423.38072,205.37433 421.02778,208.01069 C 435.67911,205.95508 438.59783,222.94438 455.00638,216.49732 C 455.60211,218.85026 457.95505,220.90374 460.87269,220.01604 L 462.62991,215.3369 C 469.062,213.57968 467.30478,224.12085 474.36146,222.06631 C 477.87804,225 475.5251,229.97326 477.87804,233.50267 C 477.87804,237.59679 479.63633,241.11123 481.39141,244.6246 C 483.1497,242.58502 484.31013,239.65133 488.41922,240.53048 C 491.33793,243.74652 493.69088,246.68021 494.28446,250.19358 C 493.09408,256.93903 491.33687,262.79037 498.36467,266.30374 L 498.36467,268.35828 C 503.07055,270.41283 513.6128,266.30374 513.6128,274.50802 C 513.01494,277.44171 516.53045,274.80641 517.72189,276.56256 C 520.64061,275.38609 524.7497,275.98288 528.26307,275.98288 C 531.18178,282.13262 524.7497,286.52406 522.99248,292.09304 C 525.91013,295.01176 524.7497,300.29732 524.15398,303.79465 L 522.39569,304.67379 C 527.07055,305.55187 532.93686,304.10909 537.04809,306.74438 L 544.67162,309.66203 C 548.18499,307.62352 552.26521,307.31016 556.97002,307.62352 C 560.48446,310.25989 555.77858,314.65133 558.72831,316.6909 C 562.83847,316.6909 566.35184,317.2877 566.91654,320.80213 L 567.51227,321.96256 C 570.43098,316.6909 578.65023,320.20427 582.16467,316.40962 C 588.03098,316.40962 589.19141,322.84171 592.10906,326.35614 C 593.30157,335.45347 582.16467,339.5647 585.67804,348.63101 C 583.3251,353.02245 578.65023,356.53796 575.13686,360.64705 C 576.29729,361.24278 575.7005,362.68663 575.7005,363.5647 C 572.18713,365.63636 575.13686,371.78502 570.42991,372.35187 C 569.86521,376.17753 562.8374,374.70374 565.15932,378.81283 C 569.86414,384.96256 562.8374,388.75935 562.8374,394.34331 C 559.88767,397.57433 554.02136,391.39358 554.02136,397.57433 C 550.50692,398.4524 546.99355,394.34331 544.67162,397.85775 C 543.48018,401.96791 546.99355,403.41069 546.42884,407.52085 C 552.26521,406.92406 554.02243,412.79144 556.37537,416.30588 L 562.24168,422.17219 C 556.37537,426.84705 548.75077,421.57539 541.72189,424.21069 C 539.96467,423.33261 541.72189,421.01069 539.96467,420.13261 C 538.20745,418.06096 534.69408,418.06096 531.77644,417.49518 C 532.34114,420.13261 527.07055,421.00962 529.4235,424.20962 C 529.4235,425.08769 530.58392,427.72406 528.262,427.72406 C 523.55612,429.19892 524.15291,423.64598 520.04168,425.68449 C 514.77109,427.72406 518.88125,435.63101 511.25772,434.75186 C 512.41815,441.81176 499.55505,446.48662 508.339,452.63636 C 509.49943,453.79785 508.90371,456.14973 508.90371,457.90694 C 503.63205,462.61283 494.28125,460.85668 488.41601,459.09839 C 483.71013,457.90694 486.65879,452.03957 484.90264,448.83957 C 483.14542,445.8909 477.87483,443.85133 477.87483,439.74117 C 474.35826,438.29625 471.41173,437.39037 469.05879,434.46951 C 460.87056,442.37646 450.89622,449.99999 439.19034,450.28235 C 433.91975,452.91764 430.97109,463.49197 422.78179,459.09732 C 419.56574,464.37005 409.8866,459.09732 409.30585,466.69197 C 405.49409,468.16577 407.2513,473.154 404.91441,475.47593 C 404.03526,481.34224 404.91441,486.33047 409.8866,489.84598 C 411.94114,494.23743 405.49409,494.23743 408.12938,498.34866 C 408.72617,499.79251 408.12938,501.86202 407.2513,502.45775 C 405.49409,503.33582 404.91441,504.21603 405.49409,505.97218 C 404.03526,505.97218 403.44061,506.85026 402.27804,508.01069 C 400.80318,510.9294 396.12831,512.4032 392.89729,514.44277 C 389.68125,515.32085 387.32831,512.99892 385.28874,510.9294 C 384.69195,514.16042 382.05772,515.91764 378.84168,515.91764 C 374.15077,515.91764 375.02992,511.80748 371.51548,510.05133 C 372.9743,504.77967 368.28446,502.45775 369.75826,497.75186 C 373.56895,494.83422 380.00211,492.76363 378.24489,486.61497 C 374.15077,481.65668 375.60959,474.3155 371.51548,468.44919 C 368.88018,466.12727 364.48767,462.6139 365.94649,457.02887 C 369.75826,452.63743 365.94649,447.36577 363.89195,442.6909 C 363.01387,438.86416 360.6759,435.3508 360.6759,430.95721 C 354.22885,427.16149 353.93045,417.18395 344.8481,416.30588 C 338.40104,416.30588 337.23954,408.11657 330.79248,408.68128 C 330.19676,407.52085 328.73794,406.64277 327.56147,405.48128 C 322.8866,408.68128 317.02029,404.6032 311.16788,406.04598 C 307.35612,399.6139 314.38393,390.82887 304.1251,387.00106 L 304.1251,382.92299 C 305.30157,383.48663 305.88232,382.32513 306.17965,381.73048 C 306.7604,377.33796 298.85345,376.77326 302.08553,371.78395 C 300.32831,370.31015 298.27377,369.71336 299.45024,366.79572 C 295.04275,357.72834 281.86521,358.60748 278.93152,349.50909 C 281.28446,347.47058 281.28446,345.39893 282.16361,343.64278 C 280.10799,340.12834 279.52831,336.33155 280.10799,332.53582 C 282.16361,331.93903 283.32403,329.30481 284.5005,327.23315 C 281.86521,325.477 278.6481,322.84171 275.71548,323.71978 C 270.44489,322.84171 266.63206,318.76256 261.94222,316.40962 C 260.76575,315.24812 261.36254,313.1786 261.36254,311.73475 C 267.80853,309.6631 260.48446,300.58074 268.39034,301.75828 C 270.44596,299.12299 274.8374,298.24385 278.05452,296.1893 C 281.28553,295.60962 283.92083,296.78502 287.13687,297.66417 C 289.77216,301.16256 294.46307,299.70374 297.0973,302.63636 C 299.73259,302.04064 302.96468,300.58074 306.18072,302.04064 C 306.18072,297.06738 308.51869,294.13369 312.04703,290.61925 C 312.62778,288.57967 315.84382,287.10588 318.47911,285.94438 C 323.46842,287.10588 329.31976,287.10588 332.84917,283.59144 C 335.18713,285.06524 337.24168,282.13262 339.87697,282.13262 C 343.09195,281.53689 345.72831,282.41497 348.08125,283.88984 C 348.36361,278.02246 358.62243,283.01069 360.67804,275.98288 C 363.01601,271.29197 354.23098,269.53582 354.81066,265.42566 C 353.35184,260.73476 356.86628,258.39786 358.62243,255.18181 C 360.67697,254.30267 363.01494,253.12727 365.65024,253.70695 C 372.39569,251.36898 367.12403,237.59679 377.96467,242.58502 C 377.96467,244.04492 377.36895,245.80107 378.24703,246.09946 C 382.05879,246.09946 382.64382,241.70267 385.29088,240.23315 C 386.45131,236.13903 383.81708,231.1508 387.33045,227.93369 C 389.08767,227.63636 390.56147,227.05561 391.72296,225.58075 C 391.72296,222.3647 389.96574,220.60855 387.33045,218.55294 C 386.45237,220.01711 384.11441,218.85133 382.64382,219.43208 C 382.64382,215.91764 380.59997,213.58075 380.00425,210.34866 C 378.24703,209.47058 377.36895,208.01176 377.96467,205.95615 C 380.59997,203.32085 377.96467,196.87379 384.11441,198.33583 C 386.45237,196.29305 390.56147,197.75187 392.89943,194.23743 C 399.04917,190.72406 407.25237,190.72406 411.94328,184.277 C 413.99783,184.57433 416.3358,182.51978 418.39034,184.277 C 418.97216,188.0877 424.54114,186.61283 424.54114,190.13476"/>
<path fill="#fff" id="star" d="M 243.25278,188.08075 L 221.52338,172.79849 L 199.79947,188.088 L 208.16301,163.44516 L 186.3645,148.25459 L 213.26288,148.30681 L 221.51459,123.629 L 229.77514,148.30407 L 256.6735,148.24299 L 234.88042,163.44081 L 243.25278,188.08075 z"/>
<use xlink:href="#star" transform="translate(73.243,-23.437)"/>
<use xlink:href="#star" transform="translate(237.016,-39.556)"/>
<use xlink:href="#star" transform="translate(316.11,-23.437)"/>
<use xlink:href="#star" transform="translate(151.162,-39.556)"/>
<use xlink:href="#star" transform="translate(396.962,0)"/></svg>