<?xml version="1.0" encoding="UTF-8"?>
<svg version="1.0" xmlns="http://www.w3.org/2000/svg" width="3240" height="2160">
	<rect width="3240" height="1080" fill="#00a1de"/>
	<rect y="1080" width="3240" height="540" fill="#fad201"/>
	<rect y="1620" width="3240" height="540" fill="#20603d"/>
	<path d="m 2701.896,667.37693 46.911,233.57771 -75.034,-226.11723 -15.1418,237.76062 -13.9541,-237.83308 -76.1627,225.74047 48.0772,-233.34105 -131.9934,198.33652 106.8321,-212.94718 -178.829,157.41627 158.3065,-178.04136 -213.4775,105.76836 198.9927,-131.00231 -233.5783,46.91254 226.118,-75.03565 -237.7606,-15.14035 237.8329,-13.95538 -225.74,-76.16144 233.3408,48.07584 -198.3357,-131.99227 212.9464,106.83086 -157.4148,-178.82804 178.0404,158.30543 -105.7672,-213.47691 131.0011,198.99181 -46.9113,-233.57771 75.0343,226.1172 15.1418,-237.76059 13.9541,237.83308 76.1627,-225.74047 -48.0772,233.34105 131.9934,-198.33656 -106.8321,212.94722 178.829,-157.41627 -158.3065,178.04133 213.4775,-105.76833 -198.9927,131.00227 233.5783,-46.9125 -226.118,75.03565 237.7606,15.14035 -237.8332,13.95541 225.7403,76.16141 -233.3408,-48.07584 198.3357,131.99223 -212.9468,-106.83078 157.4152,178.828 -178.0404,-158.30543 105.7672,213.4769 -131.0011,-198.9918 z" fill="#e5be01"/>
	<circle cx="2659.5015" cy="562.56754" r="102.9" fill="#e5be01" stroke="#00a1de" stroke-width="10.2"/>
</svg>