<?xml version="1.0" encoding="UTF-8"?>
<svg version="1.0" xmlns="http://www.w3.org/2000/svg" xmlns:xlink="http://www.w3.org/1999/xlink" width="800" height="500">
	<rect width="800" height="500" fill="#74acdf"/>
	<rect y="166.66667" width="800" height="166.66667" fill="#fff"/>
	<g id="rays">
		<path id="ray1" d="M 396.84001,251.30834 l 28.45401,61.992 c 0,0 .4896,1.18503 1.27998,.8586 c .7902,-.3267 .2988,-1.51164 .2988,-1.51164 l -23.71492,-63.95563 M 402.47668,272.80967 c -.3465,9.42784 5.45265,14.61287 4.69431,23.03151 c -.7569,8.41995 3.8673,13.1798 4.93965,16.45406 c 1.07334,3.27438 -1.16001,5.23233 -.198,5.69817 c .96336,.4662 3.06999,-2.12067 2.38329,-6.77556 c -.68675,-4.65491 -4.22042,-6.03678 -3.38975,-16.32024 c .83,-10.28346 -4.206,-12.67847 -2.98,-22.05773" fill="#f6b40e" stroke="#85340a" stroke-width="1.11155045"/>
		<use xlink:href="#ray1" transform="rotate(22.5 400,250)"/>
		<use xlink:href="#ray1" transform="rotate(45 400,250)"/>
		<use xlink:href="#ray1" transform="rotate(67.5 400,250)"/>
		<path id="ray2" d="M 404.31001,274.41201 c .45334,9.0538 5.58667,13.063 4.57867,21.31364 c 2.21333,-6.52494 -3.12333,-11.58267 -2.82,-21.22047 m -7.64867,-23.75657 l 19.487,42.57733 -16.32933,-43.887" fill="#85340a"/>
		<use xlink:href="#ray2" transform="rotate(22.5 400,250)"/>
		<use xlink:href="#ray2" transform="rotate(45 400,250)"/>
		<use xlink:href="#ray2" transform="rotate(67.5 400,250)"/>
	</g>
	<use xlink:href="#rays" transform="rotate(90 400,250)"/>
	<use xlink:href="#rays" transform="rotate(180 400,250)"/>
	<use xlink:href="#rays" transform="rotate(270 400,250)"/>
	<circle cx="400" cy="250" r="27.77777" fill="#f6b40e" stroke="#85340a" stroke-width="1.5"/>
	<path id="loweyecontour" d="m 409.46875,244.0625 c -1.89671,3e-5 -3.7131,0.82183 -4.78125,2.53125 2.13669,1.92267 6.85647,2.13178 10.0625,-0.21875 -1.38834,-1.49535 -3.38454,-2.31253 -5.28125,-2.3125 z m -0.0312,0.4375 c 1.84617,-0.0335 3.57173,0.81446 3.8125,1.65625 -2.13669,2.35035 -5.55081,2.14633 -7.6875,0.4375 0.9348,-1.49566 2.43909,-2.06767 3.875,-2.09375 z" fill="#843511"/>
	<use xlink:href="#uppalpebra" transform="matrix(-1,0,0,1,800.25003,0)"/>
	<use xlink:href="#eyebrow_nose" transform="matrix(-1,0,0,1,800.25003,0)"/>
	<use xlink:href="#pupil" transform="translate(18.862065)"/>
	<use xlink:href="#lowpalpebra" transform="matrix(-1,0,0,1,800.25003,0)"/>
	<path d="m 395.75,253.84375 c -0.91341,0.16668 -1.5625,0.97727 -1.5625,1.90625 0,1.06137 0.87748,1.90625 1.9375,1.90625 0.62667,0 1.2025,-0.2968 1.5625,-0.8125 0.73952,0.55614 1.76459,0.61511 2.3125,0.625 0.0843,0.002 0.19312,0 0.25,0 0.54791,-0.01 1.57298,-0.0689 2.3125,-0.625 0.36,0.5157 0.93583,0.8125 1.5625,0.8125 1.06002,0 1.9375,-0.84488 1.9375,-1.90625 0,-0.92898 -0.64918,-1.73957 -1.5625,-1.90625 0.513,0.1809 0.84375,0.6765 0.84375,1.21875 0,0.7074 -0.57124,1.28125 -1.28125,1.28125 -0.6804,0 -1.24129,-0.54015 -1.28125,-1.21875 -0.20862,0.41637 -1.03409,1.65514 -2.65625,1.71875 -1.62216,-0.0636 -2.44763,-1.30238 -2.65625,-1.71875 -0.04,0.6786 -0.60085,1.21875 -1.28125,1.21875 -0.71001,0 -1.28125,-0.57385 -1.28125,-1.28125 0,-0.54225 0.33075,-1.03785 0.84375,-1.21875 z" fill="#85340a"/>
	<path d="m 397.84375,259.53125 c -2.138,0 -2.98291,1.93675 -4.90625,3.21875 1.06867,-0.42633 1.90958,-1.26933 3.40625,-2.125 1.496,-0.85442 2.77166,0.1875 3.625,0.1875 l 0.0312,0 c 0.8532,0 2.12902,-1.0416 3.625,-0.1875 1.4967,0.8559 2.36884,1.69867 3.4375,2.125 -1.9233,-1.28196 -2.79955,-3.21875 -4.9375,-3.21875 -0.4266,0 -1.27162,0.23055 -2.125,0.65625 l -0.0312,0 c -0.85334,-0.42642 -1.69833,-0.65625 -2.125,-0.65625 z" fill="#85340a"/>
	<path d="m 397.125,262.0625 c -0.8439,0.0374 -1.95962,0.20675 -3.5625,0.6875 3.84734,-0.85434 4.69625,0.4375 6.40625,0.4375 l 0.0312,0 c 1.71,0 2.55884,-1.29205 6.40625,-0.4375 -4.27437,-1.28196 -5.1242,-0.4375 -6.40625,-0.4375 l -0.0312,0 c -0.80125,0 -1.43724,-0.3124 -2.84375,-0.25 z" fill="#85340a"/>
	<path d="m 393.75,262.71875 c -0.24819,0.003 -0.51871,0.005 -0.8125,0.0312 4.488,0.42766 2.33058,3 7.03125,3 l 0.0312,0 c 4.7007,0 2.57447,-2.57241 7.0625,-3 -4.7007,-0.4266 -3.21455,2.34375 -7.0625,2.34375 l -0.0312,0 c -3.6075,0 -2.49593,-2.42147 -6.21875,-2.375 z" fill="#85340a"/>
	<path d="m 403.84668,269.65734 c 0,-2.12337 -1.72332,-3.84651 -3.84633,-3.84651 -2.12328,0 -3.84633,1.72296 -3.84633,3.84651 0.423,-1.78101 2.01663,-3.0393 3.84633,-3.0393 1.8333,0 3.42396,1.25865 3.84633,3.0393 m 0,0 0,0 0,0 z" fill="#85340a"/>
	<path id="eyebrow_nose" d="m 382.73002,244.01701 c 4.91463,-4.27293 11.11033,-4.91472 14.53033,-1.70865 0.837,1.12068 1.37331,2.31903 1.59336,3.56958 0.4302,2.43297 -0.3303,5.06169 -2.23668,7.75593 0.2151,-0.001 0.6435,0.2124 0.8568,0.4266 1.69668,-3.24405 2.29671,-6.57612 1.73997,-9.74541 -0.1458,-0.828 -0.3735,-1.64295 -0.6696,-2.43567 -4.7007,-3.84516 -11.11034,-4.27293 -15.81101,2.13768 z" fill="#85340a"/>
	<path id="uppalpebra" d="m 390.42001,242.73501 c 2.77668,0 3.41865,0.6417 4.7007,1.71 1.28331,1.0683 1.9233,0.8541 2.13669,1.0683 0.2124,0.2142 0,0.8541 -0.4266,0.6399 -0.4266,-0.2142 -1.28331,-0.6399 -2.56329,-1.70865 -1.28331,-1.06965 -2.56329,-1.0683 -3.84633,-1.0683 -3.84633,0 -5.98302,3.20463 -6.40935,2.9907 -0.4266,-0.2142 2.13669,-3.63249 6.40935,-3.63249 z" fill="#85340a"/>
	<use xlink:href="#loweyecontour" transform="translate(-19.18082)"/>
	<circle id="pupil" cx="390.538" cy="246.154" r="1.923" fill="#85340a"/>
	<path id="lowpalpebra" d="m 385.29334,247.43568 c 3.63267,2.7783 7.26498,2.56437 9.40167,1.28196 2.13669,-1.28196 2.13669,-1.70865 1.71,-1.70865 -0.4266,0 -0.8532,0.4266 -2.56329,1.28097 -1.71,0.8559 -4.27302,0.8559 -8.54604,-0.8541 z" fill="#85340a"/>
</svg>