<?xml version="1.0" encoding="UTF-8" standalone="no"?>
<!-- Created with Inkscape (http://www.inkscape.org/) -->

<svg
   xmlns:dc="http://purl.org/dc/elements/1.1/"
   xmlns:cc="http://creativecommons.org/ns#"
   xmlns:rdf="http://www.w3.org/1999/02/22-rdf-syntax-ns#"
   xmlns:svg="http://www.w3.org/2000/svg"
   xmlns="http://www.w3.org/2000/svg"
   version="1.0"
   width="2000"
   height="1000"
   id="svg2">
  <metadata
     id="metadata11">
    <rdf:RDF>
      <cc:Work
         rdf:about="">
        <dc:format>image/svg+xml</dc:format>
        <dc:type
           rdf:resource="http://purl.org/dc/dcmitype/StillImage" />
        <dc:title></dc:title>
      </cc:Work>
    </rdf:RDF>
  </metadata>
  <defs
     id="defs9" />
  <polygon
     points="239.859,196.635 233.975,181.131 228.63,197.17 213.129,189.684 220.077,205.188 205.109,211.068 220.077,216.413 213.663,231.915 228.096,224.431 233.975,240.468 239.859,224.431 254.291,230.848 247.873,216.413 262.841,211.068 248.409,204.652 254.828,189.151 "
     transform="matrix(0.93333581,0,0,0.93333581,777.3998,203.6039)"
     id="path2760"
     style="fill:#f5d402;fill-rule:evenodd" />
  <rect
     width="666.66669"
     height="1000"
     x="1333.3334"
     y="0"
     id="red"
     style="fill:#cc092f" />
  <rect
     width="666.66669"
     height="1000"
     x="0"
     y="0"
     id="blue"
     style="fill:#0046ae" />
  <rect
     width="666.66669"
     height="1000"
     x="666.66669"
     y="0"
     id="yellow"
     style="fill:#ffd200" />
  <polygon
     points="139.09,415.139 149.046,414.404 149.916,422.889 159.07,419.014 161.543,430.707 181.723,410.262 209.786,424.094 156.531,518.979 137.555,533.011 171.765,545.842 206.848,504.946 201.769,531.808 191.344,557.868 234.044,582.458 280.423,555.06 257.634,507.219 265.049,503.811 295.123,547.378 327.866,531.139 285.298,481.359 257.302,421.486 286.831,411.731 306.952,431.042 309.952,418.48 320.58,423.625 319.24,413.135 329.934,415.472 316.905,394.825 349.98,367.095 370.893,432.445 401.698,467.66 408.243,466.858 430.636,494.523 430.433,111.17 389.065,67.6689 348.908,100.413 350.58,135.693 332.537,136.362 305.676,150.126 290.644,155.07 283.563,156.475 274.337,146.451 261.973,121.727 261.17,97.3382 268.787,81.4358 267.384,66.4004 274.209,66.5339 269.859,56.3752 275.881,53.9728 266.859,46.0193 269.999,42.3449 235.917,27.711 209.921,25.9736 202.905,29.0457 199.496,35.3953 206.379,54.8409 199.028,62.1909 206.313,76.4232 206.58,107.628 200.766,133.956 189.072,153.868 182.926,156.207 168.289,152.867 137.621,136.694 118.243,135.627 116.907,98.0728 79.7539,68.2039 41.8665,109.098 36.4535,121.127 38.1921,493.186 62.7154,463.518 67.8591,464.787 93.1831,437.391 114.7,383.132 121.05,360.613 150.048,394.892 "
     transform="matrix(0.93333581,0,0,0.93333581,777.3998,203.6039)"
     id="path2778"
     style="fill:#b07f55;fill-rule:evenodd" />
  <path
     d="m 941.8797,203.605 c -3.58158,0 -6.70899,0.91386 -8.5334,2.33371 2.89922,0.84441 5.00694,3.51765 5.00694,6.76852 l 0,8.2479 -3.18584,0 -5.06095,0 c -3.22993,0 -5.90538,-2.07796 -6.76963,-4.94852 -1.41984,1.82441 -2.3326,4.95182 -2.3326,8.5323 0,3.58159 0.91276,6.7101 2.3326,8.53231 0.84552,-2.90033 3.51765,-5.00695 6.76963,-5.00695 l 5.06095,0 3.18584,0 0,3.18694 0,25.70939 0,10.75026 c 0,3.11638 -1.94898,5.70253 -4.6641,6.65497 3.93434,0.53575 7.3197,5.81608 8.2479,8.70317 0.93039,-2.88158 4.31576,-8.16743 8.249,-8.70317 -2.74489,-0.93591 -4.72363,-3.51765 -4.72363,-6.65497 l 0,-18.54287 0,-17.91781 0,-3.18694 3.18694,0 5.06206,0 c 3.23103,0 5.90537,2.07796 6.76962,4.95073 1.41874,-1.82441 2.3315,-4.95403 2.3315,-8.53341 0,-3.58158 -0.91165,-6.70899 -2.3315,-8.5323 -0.84552,2.89922 -3.51875,5.00473 -6.76962,5.00473 l -5.06206,0 -3.18694,0 0,-8.2468 c 0,-3.23103 2.07685,-5.90537 4.94962,-6.76962 -1.82221,-1.41765 -4.95183,-2.3315 -8.53231,-2.3315 l 0,0 z"
     id="rect2244"
     style="fill:#000000;fill-rule:evenodd" />
  <path
     d="m 941.8797,205.31257 c -1.86409,0 -3.50662,0.34834 -4.89119,0.7959 1.84867,1.60726 3.07229,3.93766 3.07229,6.59876 l 0,8.2479 c 0,0.11795 -0.0342,0.2304 -0.0573,0.34174 l 0,1.3074 -1.30851,0 c -0.11133,0.0231 -0.22487,0.0562 -0.34063,0.0573 l -0.73968,0 -2.44726,0 -5.06095,0 c -2.63025,0 -4.93198,-1.20378 -6.54034,-3.01497 -0.46189,1.39891 -0.85322,2.99624 -0.85322,4.8923 0,1.86409 0.34835,3.50662 0.7959,4.89119 1.60725,-1.84867 3.93655,-3.07009 6.59766,-3.07009 l 5.06095,0 1.08142,0 2.10441,0 1.70757,0 c -0.011,0.17087 -0.0573,0.33623 -0.0573,0.5104 l 0,0.85323 c 0.0231,0.11134 0.0562,0.22378 0.0573,0.34063 l 0,3.18694 0,25.70939 0,10.75025 c 0,2.57402 -1.32725,4.59907 -3.07229,6.19971 1.24788,0.76945 2.32268,1.73843 3.24205,2.84521 0.81906,0.9833 1.14425,1.94567 1.70647,2.95654 0.56331,-1.00866 0.8874,-1.97323 1.70646,-2.95654 0.90505,-1.08694 1.96441,-2.02174 3.18584,-2.78789 -1.76048,-1.59623 -3.07229,-3.67197 -3.07229,-6.25703 l 0,-18.54286 0,-17.91781 0,-0.45527 0,-2.73056 0,-1.65024 1.36584,0 c 0.11134,-0.0221 0.22378,-0.0551 0.34064,-0.0551 l 3.18584,0 5.06205,0 c 2.62915,0 4.93088,1.20378 6.54034,3.01386 0.46078,-1.3978 0.85432,-2.99402 0.85432,-4.89119 0,-1.863 -0.34945,-3.50663 -0.79701,-4.8912 -1.60725,1.84867 -3.93655,3.07009 -6.59766,3.07009 l -5.06205,0 -3.18584,0 c -0.11685,0 -0.2304,-0.0342 -0.34063,-0.0573 l -1.30851,0 0,-1.3074 c -0.0231,-0.11024 -0.0562,-0.22378 -0.0573,-0.34174 l 0,-8.24679 c 0,-2.63025 1.20488,-4.93088 3.01496,-6.54144 -1.3989,-0.45968 -2.99513,-0.85323 -4.89119,-0.85323 l -9.3e-4,-0.001 0,0.001 0,0 z"
     id="path2303"
     style="fill:#f5d402;fill-rule:evenodd" />
  <polygon
     points="117.833,455.079 105.359,454.7 92.5087,460.749 88.3488,474.735 90.2386,481.161 104.225,496.281 115.565,489.854 124.638,480.026 126.905,471.334 159.413,428.996 157.9,418.414 150.718,422.949 148.072,414.256 143.537,415.768 "
     transform="matrix(0.93333581,0,0,0.93333581,777.3998,203.6039)"
     id="path2516"
     style="fill:#d10429;fill-rule:evenodd" />
  <polygon
     points="345.769,483.048 360.887,496.659 365.419,495.524 382.058,476.245 378.276,463.016 362.772,453.567 351.061,454.7 324.973,415.768 320.441,413.876 318.555,421.437 310.99,419.169 307.969,427.485 342.361,473.979 "
     transform="matrix(0.93333581,0,0,0.93333581,777.3998,203.6039)"
     id="path2750"
     style="fill:#d10429;fill-rule:evenodd" />
  <rect
     width="20.50271"
     height="20.50304"
     x="1052.3169"
     y="157.29242"
     transform="matrix(0.87798955,0.47867979,-0.21346087,0.97695162,0,0)"
     id="rect2290"
     style="fill:#000000;fill-rule:evenodd" />
  <path
     d="m 806.55954,465.25993 -6.4841,2.95875 73.2621,160.46282 7.79372,0 -74.57167,-163.4215 0,-9.3e-4 0,9.3e-4 z m 86.40226,189.2441 -5.28915,5.46112 3.29938,7.28112 6.42679,-2.95765 -4.43592,-9.78463 0,0 -9.3e-4,0 z"
     id="rect2273"
     style="fill:#000000;fill-rule:evenodd" />
  <rect
     width="12.717013"
     height="12.717711"
     x="1056.2102"
     y="161.18571"
     transform="matrix(0.87798955,0.47867979,-0.21346087,0.97695162,0,0)"
     id="rect2288"
     style="fill:#f5d402;fill-rule:evenodd" />
  <polygon
     points="233.121,438.07 280.755,411.986 336.694,385.526 347.28,369.273 347.28,278.177 120.478,277.799 120.857,370.408 127.661,381.37 170.752,405.183 225.939,430.511 "
     transform="matrix(0.93333581,0,0,0.93333581,777.3998,203.6039)"
     id="path2754"
     style="fill:#0b45bb;fill-rule:evenodd" />
  <path
     d="m 887.38783,358.83538 c 0,0 2.67213,7.79262 2.67213,7.79262 0,0 -0.62505,99.25839 -0.62505,99.25839 0,0 3.69734,4.09418 3.69734,4.09418 0,0 30.54546,3.64111 30.54546,3.64111 0,0 33.04784,-4.83608 33.04784,-4.83608 0,0 19.18994,2.96316 32.4239,5.00805 0.0132,0.0662 0.39795,1.98977 0.39795,1.98977 0,0 4.8008,-0.73197 6.31325,-0.96788 1.48709,0.23039 6.25705,0.96788 6.25705,0.96788 0,0 0.3847,-1.92362 0.3979,-1.98977 13.2329,-2.04488 32.4239,-5.00805 32.4239,-5.00805 0,0 33.0479,4.83608 33.0479,4.83608 0,0 30.5454,-3.64111 30.5454,-3.64111 0,0 3.6974,-4.09418 3.6974,-4.09418 0,0 -0.6262,-99.25839 -0.6262,-99.25839 0,0 2.6744,-7.79262 2.6744,-7.79262 0,0 -36.5743,0.2822 -36.5743,0.2822 0,0 -41.8006,0.4156 -71.8411,0.74079 -30.03391,-0.32519 -71.8985,-0.74079 -71.8985,-0.74079 0,0 -36.57426,-0.2822 -36.57426,-0.2822 l -9.3e-4,0 -9.3e-4,0 0,0 z"
     id="path2355"
     style="fill:#d10429;fill-rule:evenodd" />
  <path
     d="m 956.72609,468.78607 c 0,0 -22.65253,-5.53828 -31.11312,-16.72286 -14.79263,13.30666 -32.48009,17.91781 -32.48009,17.91781 0,0 18.45252,8.33057 32.48009,18.94196 6.46316,-9.26207 31.11312,-20.13691 31.11312,-20.13691 l 0,0 z"
     id="path3238"
     style="fill:#000000;fill-rule:evenodd" />
  <path
     d="m 1034.9367,468.78607 c 0,0 24.6511,10.87374 31.1154,20.13691 14.0254,-10.61138 32.4768,-18.94196 32.4768,-18.94196 0,0 -17.6852,-4.61229 -32.4768,-17.91781 -8.4607,11.18463 -31.1154,16.72286 -31.1154,16.72286 l 0,0 z"
     id="path3240"
     style="fill:#000000;fill-rule:evenodd" />
  <path
     d="m 995.80383,367.13927 -6.37167,18.08982 -17.34903,-8.249 8.2479,17.35015 -18.08758,6.42679 18.08758,6.4279 -8.2479,17.29172 17.34903,-8.2479 6.37167,18.08759 6.42787,-18.08759 17.3491,8.2479 -8.2468,-17.29172 18.0875,-6.4279 -18.0875,-6.42679 8.2468,-17.35015 -17.3491,8.249 -6.42787,-18.08982 z"
     id="path3236"
     style="fill:#000000;fill-rule:evenodd" />
  <polygon
     points="195.22,319.585 201.902,312.367 209.383,319.852 202.437,326.802 "
     transform="matrix(0.93333581,0,0,0.93333581,777.3998,203.6039)"
     id="path2764"
     style="fill:#f5d402;fill-rule:evenodd" />
  <polygon
     points="273.534,319.585 266.323,311.565 258.834,319.318 265.52,326.535 "
     transform="matrix(0.93333581,0,0,0.93333581,777.3998,203.6039)"
     id="path2766"
     style="fill:#f5d402;fill-rule:evenodd" />
  <polygon
     points="258.299,334.554 254.828,342.305 254.559,363.687 260.173,375.715 267.652,378.921 266.591,350.857 271.67,331.344 "
     transform="matrix(0.93333581,0,0,0.93333581,777.3998,203.6039)"
     id="path2768"
     style="fill:#f5d402;fill-rule:evenodd" />
  <polygon
     points="201.366,355.401 201.366,378.387 208.049,373.576 212.593,363.151 213.394,344.978 209.921,334.018 196.556,331.612 "
     transform="matrix(0.93333581,0,0,0.93333581,777.3998,203.6039)"
     id="path2770"
     style="fill:#f5d402;fill-rule:evenodd" />
  <polygon
     points="293.848,383.733 293.581,369.834 305.344,353.798 319.24,350.59 303.737,343.106 288.77,346.312 281.023,355.401 280.22,370.102 291.181,382.93 "
     transform="matrix(0.93333581,0,0,0.93333581,777.3998,203.6039)"
     id="path2772"
     style="fill:#f5d402;fill-rule:evenodd" />
  <polygon
     points="165.82,384.536 169.83,377.05 176.242,381.327 183.992,379.724 189.072,371.972 185.596,364.756 181.856,361.814 187.2,358.876 189.341,350.055 182.122,341.769 175.174,342.839 171.699,345.511 170.095,339.098 161.809,334.285 154.86,336.958 151.385,344.174 153.256,350.59 146.039,349.788 140.159,355.401 139.358,362.885 143.367,367.695 148.98,369.568 152.189,369.3 149.516,375.981 151.652,382.664 158.335,386.406 "
     transform="matrix(0.93333581,0,0,0.93333581,777.3998,203.6039)"
     id="path2774"
     style="fill:#f5d402;fill-rule:evenodd" />
  <path
     d="m 995.86114,379.31158 4.09529,11.54835 11.03467,-5.29025 -5.233,11.09092 11.4911,4.0964 -11.4911,4.09529 5.233,11.03464 -11.03467,-5.23292 -4.15261,11.48992 -4.09529,-11.48992 -11.03464,5.23292 5.23292,-11.03464 -11.48992,-4.09529 11.48992,-4.0964 -5.23292,-11.09092 11.03464,5.29025 4.15261,-11.54835 z"
     id="path3232"
     style="fill:#ffd200;fill-opacity:1;fill-rule:evenodd" />
  <path
     d="m 959.39935,364.41019 c -1.04284,7.30758 -37.82437,22.5004 -37.82437,53.12632 0,39.21224 36.68785,48.46327 36.68785,48.46327 l -1.5378,2.78679 -8.92916,16.26757 c 0,0 15.16082,0.75843 23.20805,7.62285 9.70305,8.27546 8.75939,25.80963 8.75939,38.56516 0,10.05025 -1.26993,20.655 -6.42679,25.02703 -6.92395,5.87119 -11.60566,6.30553 -11.60566,13.19755 0,5.74884 4.41938,6.90081 11.60566,10.69407 9.20806,4.85923 8.77923,11.37531 22.46623,11.37531 13.69025,0 13.31655,-6.51608 22.52565,-11.37531 7.1864,-3.79324 11.6047,-4.94522 11.6047,-10.69407 0,-6.89198 -4.6818,-7.32632 -11.6047,-13.19755 -5.1568,-4.37308 -6.4268,-14.9778 -6.4268,-25.02703 0,-12.75543 -0.9436,-30.28964 8.7594,-38.56516 8.0473,-6.86332 23.2071,-7.62285 23.2081,-7.62285 l -8.9314,-16.26757 -1.5345,-2.78679 c 0,0 36.6879,-9.25104 36.6879,-48.46327 0,-30.62592 -36.7816,-45.81867 -37.8265,-53.12632 -3.5948,12.64521 12.287,30.1111 12.287,50.79475 0,26.7621 -19.7379,28.0431 -19.7379,28.0431 -4.6189,0 -6.4896,3.29828 -8.3052,3.29828 -3.8858,-0.40567 -5.7146,-5.34757 -9.5564,-5.34757 -3.608,0 -6.3783,5.57465 -11.14823,5.57465 -4.76883,0 -7.48285,-5.57465 -11.09204,-5.57465 -3.83954,0 -5.66947,4.9419 -9.55531,5.34757 -1.8156,0 -3.68741,-3.29828 -8.30632,-3.29828 0,0 -19.73679,-1.28094 -19.73679,-28.0431 0,-20.68365 15.88286,-38.15066 12.28587,-50.79475 l 0,0 z"
     id="path3242"
     style="fill:#000000;fill-rule:evenodd" />
  <path
     d="m 925.27118,457.63899 c 7.47624,8.55876 19.34096,11.83059 19.34096,11.83059 -0.002,0 -18.99927,14.107 -18.99927,14.107 l -0.22929,0.2833 -0.39796,-0.34063 -21.04522,-13.19643 c 0,0 13.43014,-4.62994 21.33073,-12.68488 l 0,9.4e-4 0,0 0,0 z"
     id="path3230"
     style="fill:#ffd200;fill-opacity:1;fill-rule:evenodd" />
  <path
     d="m 954.05395,375.50071 c 1.50804,3.24867 -12.28699,23.27758 -12.28699,39.70391 0,20.14242 10.74148,32.02369 25.08433,32.02369 2.73607,0 5.72789,3.69733 8.30522,3.69733 4.20222,0 6.99782,-4.6641 9.55643,-4.6641 3.25197,0 5.44458,5.11939 11.09092,5.11939 5.64744,0 7.89624,-5.11939 11.14934,-5.11939 2.5575,0 5.3531,4.6641 9.5553,4.6641 2.5784,0 5.5692,-3.69733 8.3052,-3.69733 14.3429,0 25.0855,-11.88127 25.0855,-32.02369 0,-16.42633 -13.795,-36.45525 -12.287,-39.70391 0,0 26.9043,19.29914 26.9043,42.03539 0,36.62605 -37.1431,45.67652 -37.1431,45.67652 l 8.3615,18.82622 c 0,0 -11.5131,1.72631 -18.5429,7.39577 -9.3768,7.56112 -9.5002,27.99018 -9.5002,41.80719 0,16.27533 0.6052,23.17175 6.4853,27.58782 6.1997,4.6586 10.8638,5.66175 10.8638,10.40959 0,4.13718 -4.8273,5.82931 -11.092,8.58853 -7.1257,3.14064 -7.8357,8.58963 -18.14493,8.58963 -10.31046,0 -10.96305,-5.44899 -18.0887,-8.58963 -6.26363,-2.76032 -11.09204,-4.45135 -11.09204,-8.58853 0,-4.74789 4.663,-5.75104 10.86384,-10.40959 5.88002,-4.41607 6.48411,-11.31249 6.48411,-27.58782 0,-13.81701 -0.12236,-34.24605 -9.49912,-41.80719 -7.03088,-5.67056 -18.54286,-7.39577 -18.54286,-7.39577 l 8.36033,-18.82622 c 0,0 -37.142,-9.05042 -37.142,-45.67652 0,-22.73625 26.90434,-42.03539 26.90434,-42.03539 l 0.002,0 z"
     id="path3234"
     style="fill:#ffd200;fill-opacity:1;fill-rule:evenodd" />
  <path
     d="m 1066.3934,457.63899 c 7.9018,8.05387 21.3308,12.68385 21.3308,12.68385 0,0 -14.01,6.97797 -21.0475,13.19643 0.264,1.28333 -0.3467,0.29754 -0.3969,0.34063 -0.3283,0.41826 -0.1259,-0.15709 -0.227,-0.2833 -6.6506,-7.63498 -18.9982,-14.107 -18.9982,-14.107 0,0 11.8625,-3.27182 19.3388,-11.83059 l 0,0 z"
     id="path3228"
     style="fill:#ffd200;fill-opacity:1;fill-rule:evenodd" />
  <path
     d="m 965.99729,492.90471 -8.81672,8.81562 8.81672,8.81672 8.81672,-8.81672 -8.81672,-8.81562 z"
     id="path3226"
     style="fill:#000000;fill-rule:evenodd" />
  <path
     d="m 1025.6661,492.90471 -8.8156,8.81562 8.8156,8.81672 8.8167,-8.81672 -8.8167,-8.81562 z"
     id="path3224"
     style="fill:#000000;fill-rule:evenodd" />
  <path
     d="m 965.99729,497.11354 4.60789,4.60569 -4.60789,4.66521 -4.66411,-4.66521 4.66411,-4.60569 z"
     id="path3222"
     style="fill:#ffd200;fill-opacity:1;fill-rule:evenodd" />
  <path
     d="m 1025.6661,497.11354 4.6652,4.60569 -4.6652,4.66521 -4.6068,-4.66521 4.6068,-4.60569 z"
     id="path3220"
     style="fill:#ffd200;fill-opacity:1;fill-rule:evenodd" />
  <path
     d="m 957.86513,510.53706 c 1.75166,4.33229 5.91419,17.75251 5.91419,33.84481 0,11.13936 -1.08032,17.00724 -1.08032,17.00724 0,0 12.42914,-3.65875 14.90397,-16.26758 1.15969,-5.91088 2.45276,-27.68703 -3.52757,-31.39863 0,0 -16.21027,-3.18583 -16.21027,-3.18583 l 0,0 z"
     id="path3218"
     style="fill:#000000;fill-rule:evenodd" />
  <path
     d="m 1033.8005,510.53706 c 0,0 -16.2125,3.18694 -16.2125,3.18694 -5.9792,3.71056 -4.6862,25.48669 -3.5265,31.39863 2.4748,12.6088 14.9029,16.26757 14.9029,16.26757 0,0 -1.0803,-5.86899 -1.0803,-17.00724 0,-16.0923 4.1636,-29.51367 5.9163,-33.84481 l 0,0 0,0 0,-9.4e-4 z"
     id="path3216"
     style="fill:#000000;fill-rule:evenodd" />
  <path
     d="m 927.66155,514.06463 c -0.69449,0.0298 -1.40663,0.10913 -2.10553,0.2833 -5.59009,1.40221 -8.96774,7.09482 -7.56442,12.68487 0.21495,0.85544 0.56772,1.64584 0.96678,2.38883 -0.81466,-0.27118 -1.66457,-0.45087 -2.5597,-0.5126 -0.35937,-0.0243 -0.72756,-0.0121 -1.08031,0 -5.29025,0.17749 -9.6997,4.33671 -10.0679,9.72723 -0.39354,5.74883 3.97624,10.69845 9.72723,11.09204 0.85764,0.0573 1.69213,0.0264 2.50126,-0.11464 -0.49496,0.67905 -0.92267,1.40331 -1.25008,2.21796 -2.15181,5.34758 0.45417,11.50094 5.80175,13.65283 5.34647,2.14962 11.44251,-0.5126 13.59329,-5.85906 0.3285,-0.81686 0.51259,-1.61386 0.62614,-2.44617 0.49276,0.68348 1.08473,1.30962 1.76268,1.87623 4.42159,3.69734 11.03465,3.11198 14.73206,-1.30739 3.69843,-4.42049 3.11197,-10.97847 -1.30851,-14.67578 -0.66914,-0.56 -1.41103,-0.99984 -2.16064,-1.36472 0.80362,-0.25796 1.5841,-0.61292 2.3315,-1.08032 4.88348,-3.06126 6.36065,-9.5652 3.29938,-14.4487 -2.10441,-3.35669 -5.80174,-5.0819 -9.49912,-4.83497 -1.6811,0.11245 -3.36552,0.63607 -4.89229,1.59292 -0.7452,0.4674 -1.40772,0.98662 -1.98977,1.59181 9.3e-4,-0.84 -0.0706,-1.70425 -0.28442,-2.55859 -1.22693,-4.89229 -5.72347,-8.11672 -10.58048,-7.90727 l 0,0 9.4e-4,9.4e-4 0,9.3e-4 z"
     id="path3214"
     style="fill:#000000;fill-rule:evenodd" />
  <path
     d="m 963.55232,515.42825 c 0,0 8.70317,1.8211 8.70317,1.8211 3.21891,4.44253 2.67213,11.62442 2.67213,21.61625 0,10.07452 -7.56442,13.93498 -7.56442,13.93498 0,-24.21567 -2.49686,-30.03726 -3.81088,-37.37132 l 0,0 0,-9.4e-4 z"
     id="path3212"
     style="fill:#ffd200;fill-opacity:1;fill-rule:evenodd" />
  <path
     d="m 1028.1113,515.42825 c -1.3163,7.33514 -3.8098,13.15677 -3.8098,37.37132 0,0 -7.5656,-3.86048 -7.5656,-13.93498 0,-9.99183 -0.5467,-17.17263 2.6733,-21.61522 0,0 8.702,-1.8211 8.702,-1.8211 l 0,0 0,0 z"
     id="path3210"
     style="fill:#ffd200;fill-opacity:1;fill-rule:evenodd" />
  <path
     d="m 928.28632,518.44432 c 3.77009,-0.16204 7.23593,2.33922 8.19057,6.14238 0.22709,0.90615 0.25134,1.79796 0.16977,2.67433 -0.0662,0.72647 -0.26016,1.38678 -0.5115,2.0471 -1.2589,-0.45969 -2.62142,-0.68346 -4.03907,-0.68346 -3.50993,0 -6.65277,1.5444 -8.81671,3.98284 -0.56773,-0.50269 -1.06158,-1.05827 -1.47828,-1.70647 -0.4663,-0.72094 -0.86094,-1.51024 -1.08142,-2.38882 -1.09134,-4.34773 1.56757,-8.75058 5.9153,-9.84082 0.54236,-0.13779 1.11118,-0.20504 1.65024,-0.22819 l 0,9.4e-4 9.3e-4,0 z"
     id="path3208"
     style="fill:#ffd200;fill-opacity:1;fill-rule:evenodd" />
  <path
     d="m 1058.2589,521.79993 c -13.3529,0 -23.1254,10.29058 -21.7838,22.92254 1.1299,10.65216 9.7867,19.5769 20.4764,22.12668 -1.8255,-2.98521 -3.0392,-6.31324 -3.4129,-9.83969 -1.3394,-12.63307 8.4309,-22.86747 21.786,-22.86747 2.1044,0 4.1438,0.26015 6.1424,0.74079 -4.7082,-7.71877 -13.5723,-13.08285 -23.2081,-13.08285 l 10e-4,9.3e-4 -10e-4,0 0,-9.3e-4 z"
     id="path3206"
     style="fill:#000000;fill-rule:evenodd" />
  <path
     d="m 944.55436,524.70025 c 2.6082,0.0871 5.10837,1.43749 6.59656,3.81087 2.38221,3.79765 1.23906,8.82443 -2.55859,11.20554 -0.7937,0.49717 -1.64252,0.82678 -2.50457,1.02409 -0.71764,0.16536 -1.44741,0.14993 -2.16064,0.11354 0.004,-0.11574 0,-0.22377 0,-0.34173 0,-4.83276 -2.90583,-9.01073 -7.05292,-10.86384 0.29322,-0.70882 0.63827,-1.38457 1.13654,-1.99087 0.53575,-0.64819 1.18063,-1.23354 1.93575,-1.70646 1.42426,-0.89292 3.04033,-1.3041 4.60679,-1.25119 l 0,0 9.3e-4,0 z"
     id="path3204"
     style="fill:#ffd200;fill-opacity:1;fill-rule:evenodd" />
  <path
     d="m 1058.2589,526.52136 c 4.1802,0 8.1961,1.27984 11.6608,3.41292 -13.0321,2.52 -22.411,14.03093 -21.0463,27.47423 -4.1537,-3.44048 -7.1918,-8.07372 -7.7353,-13.19644 -1.0572,-9.97642 6.1898,-17.69072 17.122,-17.69072 l -10e-4,0 0,0 0,0 z"
     id="path3202"
     style="fill:#ffd200;fill-opacity:1;fill-rule:evenodd" />
  <path
     d="m 918.33229,531.41255 c 0.94584,0.0651 1.79355,0.3263 2.61592,0.68126 0.65811,0.28772 1.26552,0.65701 1.82001,1.08142 -1.57969,2.02284 -2.50237,4.57812 -2.50237,7.33734 0,2.16505 0.58094,4.17135 1.59181,5.9164 -0.68677,0.42992 -1.40772,0.76945 -2.21686,0.96788 -0.78599,0.19071 -1.59843,0.28441 -2.44725,0.22709 -4.47119,-0.30646 -7.86979,-4.17355 -7.56443,-8.64586 0.30647,-4.47229 4.23198,-7.87198 8.70317,-7.56553 l 0,0 0,0 0,0 z"
     id="path3200"
     style="fill:#ffd200;fill-opacity:1;fill-rule:evenodd" />
  <path
     d="m 932.0975,532.60641 c 4.34112,0 7.84995,3.56505 7.84995,7.90837 0,4.34111 -3.50883,7.84994 -7.84995,7.84994 -4.34331,0 -7.85104,-3.50883 -7.85104,-7.84994 0,-4.34332 3.50883,-7.90837 7.85104,-7.90837 z"
     id="path3198"
     style="fill:#ffd200;fill-opacity:1;fill-rule:evenodd" />
  <path
     d="m 943.87079,541.65021 c 0.77717,0.0871 1.52788,0.27338 2.27417,0.56882 0.77607,0.30866 1.54441,0.68567 2.21796,1.25118 3.43828,2.87718 3.84285,7.99435 0.96788,11.43374 -2.87717,3.43828 -7.99546,3.90017 -11.43373,1.02409 -0.72536,-0.6074 -1.25229,-1.33607 -1.70647,-2.10552 -0.36047,-0.61181 -0.59417,-1.26331 -0.79591,-1.93355 4.57702,-1.32173 8.00317,-5.35749 8.47609,-10.23766 l 0,-9.4e-4 0,0 0,0 z"
     id="path3196"
     style="fill:#ffd200;fill-opacity:1;fill-rule:evenodd" />
  <path
     d="m 922.25557,547.11242 c 2.12425,3.14616 5.75214,5.23293 9.84193,5.23293 0.85875,0 1.69323,-0.11024 2.50127,-0.28552 0.17086,0.74631 0.27559,1.50032 0.22819,2.27639 -0.0518,0.84221 -0.17969,1.6756 -0.51261,2.50347 -1.67228,4.15812 -6.42127,6.16553 -10.58048,4.49323 -4.15812,-1.67228 -6.22395,-6.42017 -4.55056,-10.58048 0.33843,-0.83889 0.80693,-1.56977 1.36583,-2.21796 0.49167,-0.57102 1.08142,-1.02409 1.70647,-1.42205 l 9.3e-4,0 -9.3e-4,0 0,0 z"
     id="path3194"
     style="fill:#ffd200;fill-opacity:1;fill-rule:evenodd" />
  <path
     d="m 981.75246,566.45123 c -7.29656,0 -11.94408,1.54001 -11.94408,3.75466 0,2.21575 4.64867,3.69733 11.94408,3.69733 1.94457,0 4.15261,-1.13213 4.15261,-3.69733 0,-2.56521 -2.20914,-3.75466 -4.15261,-3.75466 z"
     id="path3192"
     style="fill:#000000;fill-rule:evenodd" />
  <path
     d="m 1009.9102,566.45123 c -1.9446,0 -4.1526,1.18946 -4.1526,3.75466 -10e-4,2.5652 2.208,3.69733 4.1526,3.69733 7.2976,0 11.9441,-1.48158 11.9441,-3.69733 0,-2.21576 -4.6476,-3.75466 -11.9441,-3.75466 z"
     id="path2169"
     style="fill:#000000;fill-rule:evenodd" />
  <path
     d="m 1222.3676,437.38772 -12.6275,9.21578 1.4231,3.01386 c 0,0 -2.3116,0.7937 -3.3578,2.843 -1.0439,2.0526 0.6835,4.94962 0.6835,4.94962 0,0 -12.0048,-1.04725 -13.8788,0.17086 -1.6977,1.10016 0.7187,9.41531 -0.3991,16.43847 -1.5576,9.78901 -5.417,8.96664 -5.5746,10.86384 -0.1532,1.84316 1.4794,4.72143 1.4794,4.72143 0,0 -2.2511,0.70882 -2.7306,1.65024 -0.7717,1.51355 0.538,4.30585 -0.398,6.14238 -5.2219,10.24756 -12.9329,25.37311 -18.0313,35.38155 -0.7122,1.3967 -2.6259,1.93024 -3.5849,3.81087 -0.8841,1.73513 -0.1698,4.26506 -0.1698,4.26506 0,0 -3.3787,0.20173 -4.5506,2.50347 -1.2456,2.44394 -0.5126,5.74442 -0.5126,5.74442 0,0 -2.1364,0.27338 -3.1869,2.3326 -1.1211,2.20142 0.7783,3.3556 0.2877,4.32347 -6.8545,13.44666 -14.9271,29.2976 -19.8525,38.96416 -1.8123,3.55402 -8.1531,4.26615 -11.8328,11.48992 -3.5706,7.00664 1.5356,12.17229 1.5356,12.17229 0,0 -5.3024,0.47953 -6.7112,3.24315 -1.4353,2.81655 -0.2999,7.09372 3.5264,9.0438 3.8263,1.94899 8.0076,0.3715 9.444,-2.44505 1.4077,-2.76362 -1.4232,-7.33734 -1.4232,-7.33734 0,0 7.1808,1.03401 10.7503,-5.97372 3.6808,-7.22379 0.5776,-12.7125 2.3888,-16.26757 4.9265,-9.66665 13.0002,-25.51647 19.8525,-38.96416 0.4939,-0.96788 2.5189,-0.13008 3.64,-2.3315 1.0484,-2.05922 0,-3.92442 0,-3.92442 0,0 3.1352,-1.36693 4.3808,-3.81197 1.173,-2.30064 -0.6261,-5.17561 -0.6261,-5.17561 0,0 2.4704,-0.87969 3.3556,-2.61592 0.958,-1.88063 0.2536,-3.72268 0.9657,-5.12158 5.0995,-10.0062 12.8117,-25.13287 18.0325,-35.37931 0.937,-1.83875 3.9498,-2.4682 4.7214,-3.98284 0.4796,-0.94032 -0.2833,-3.18473 -0.2833,-3.18473 0,0 3.3203,-0.32851 4.7203,-1.5367 1.4419,-1.24237 -1.4859,-3.90679 5.5185,-10.92115 5.0246,-5.03119 13.1302,-7.99105 13.0244,-10.01059 -0.1168,-2.23339 -8.0197,-11.31912 -8.0197,-11.31912 0,0 3.3347,-0.2811 4.3797,-2.3315 1.045,-2.0515 0.3417,-4.43813 0.3417,-4.43813 l 3.2983,-0.56882 0,-15.64252 0,-9.3e-4 0,9.3e-4 9e-4,0 z m -118.7128,225.30726 c -1.6183,0.16315 -2.6291,1.12221 -2.9565,1.76489 -0.4983,0.97448 -0.5887,2.30615 0,3.46804 0,0 -3.9807,-1.24457 -5.3465,-0.56882 -1.2865,0.63717 0,19.39724 0,19.39724 0,0 15.8828,-10.02048 15.6415,-11.43374 -0.2558,-1.50252 -3.5838,-4.03907 -3.5838,-4.03907 1.2865,-0.20613 2.2896,-1.01307 2.7879,-1.98977 0.5225,-1.0274 0.5919,-3.9641 -3.015,-5.80284 -1.3515,-0.68898 -2.5542,-0.89292 -3.5276,-0.79591 l 0,0 z"
     id="path2206"
     style="fill:#000000;fill-rule:evenodd" />
  <path
     d="m 980.78767,225.96093 c -3.97292,0 -9.82317,0.10914 -13.25374,2.38993 -3.13843,2.08347 -2.88378,4.79308 -3.98174,5.74442 -2.58835,2.24001 -7.02317,2.16064 -9.15845,2.16064 -13.82252,0 -14.33408,14.79048 -14.33408,14.79048 0,0 3.53418,-5.34758 9.78351,-5.34758 10.3898,0 18.25847,5.65954 18.25847,7.79262 0,0.86315 -1.0715,1.02299 -1.13654,1.02299 -6.78616,0 -17.02936,-3.90679 -22.4695,-4.09529 l 0,2.16173 c 0.0727,0.0474 0.12236,0.11134 0.22929,0.17087 -0.0783,-0.0143 -0.15212,-0.0419 -0.22929,-0.0573 l 0,0.39795 c 12.14587,4.22537 24.45928,10.20789 24.45928,36.57426 0,16.60385 -1.98757,33.5439 -10.29498,46.87035 -2.94221,4.71922 -7.13119,8.75719 -12.17228,12.3443 -2.24331,-0.67796 -12.79183,-3.95529 -20.19309,-8.07703 -13.02881,-7.25798 -19.78411,-14.47847 -35.26684,-15.18724 0,-3.45481 0,-11.77544 0,-11.77544 0,-6.29119 2.27638,-11.95845 2.27638,-17.97408 -6.5271,-1.74946 -24.6423,-23.9004 -41.35303,-33.73132 -24.58938,15.927 -43.62831,42.07179 -43.62831,54.0953 0,0 0.73858,258.34269 0,348.34146 0,5.18663 -3.12741,12.51407 -3.12741,12.51407 8.97656,-3.79765 25.43153,-26.31129 28.89523,-34.86886 0,1.57969 0,4.09639 0,4.09639 13.55689,-6.18206 23.48366,-22.42647 27.9284,-30.82985 0.0794,1.2148 0.28551,4.26394 0.28551,4.26394 12.11059,-10.61688 27.5294,-73.37559 27.5294,-73.37559 l -0.79592,-13.19644 c 0,0 -10.66317,51.24014 -22.80904,61.7732 0,0 0,-204.92321 0,-220.64245 l 9.61373,8.92916 14.56116,-13.59441 0,-10.35228 -12.91205,12.05767 0,-31.22783 c 1.94568,-2.94331 3.23545,-5.14033 4.20883,-6.88206 2.09009,3.64331 8.84427,14.81027 16.77914,21.67252 1.3052,-5.30899 9.89812,-10.3534 9.89812,-10.3534 0,0 3.07891,8.3427 7.79151,10.40856 1.65796,-2.92016 11.54835,-9.38441 11.54835,-9.38441 0,0 -8.46175,1.28536 -11.88901,4.49434 -2.94332,-0.65921 -3.69734,-12.28699 -3.69734,-12.28699 0,0 -12.45228,6.06522 -14.61734,10.40856 -2.37449,-0.64268 -6.07073,-9.98632 -7.51042,-13.82252 2.17276,-0.23701 5.23954,-0.51149 9.27199,-0.51149 3.55072,0 8.09467,1.6822 12.85465,3.92441 5.22962,2.46268 10.7007,5.58017 15.58634,7.79372 6.25812,2.83308 15.72521,3.40851 18.48555,3.52647 -3.16158,2.22237 -6.63624,4.25072 -10.40744,6.14348 0,0 14.90071,-0.1378 25.36872,-5.34758 3.73481,-2.40205 7.60963,-4.79529 10.92115,-7.62175 -1.43638,3.99276 -3.67308,8.70979 -7.16868,12.74115 15.37363,-1.30079 23.02838,-10.08002 25.19895,-13.02554 1.01968,2.63907 2.83638,6.87435 5.6882,10.52206 2.85292,-3.64773 4.72469,-7.88301 5.74549,-10.52206 2.1728,2.94553 9.8255,11.72475 25.1979,13.02554 -3.4945,-4.03134 -5.7312,-8.74837 -7.1665,-12.74115 3.3104,2.82537 7.1874,5.2197 10.9211,7.62175 10.467,5.20978 25.3699,5.34758 25.3699,5.34758 -3.7745,-1.89276 -7.3065,-3.92663 -10.4659,-6.14348 2.6567,-0.10252 12.2341,-0.67024 18.5429,-3.52647 4.8846,-2.21355 10.3556,-5.33104 15.5841,-7.79372 4.7611,-2.24221 9.3061,-3.92441 12.8569,-3.92441 4.0324,0 7.0981,0.27448 9.2708,0.51149 -1.4385,3.83624 -5.1337,13.17992 -7.5093,13.82252 -2.1661,-4.34332 -14.6184,-10.40856 -14.6184,-10.40856 0,0 -0.754,11.62778 -3.6963,12.28699 -3.4272,-3.20899 -11.889,-4.49434 -11.889,-4.49434 0,0 9.8894,6.46427 11.5462,9.38441 4.7137,-2.06583 7.7364,-10.40856 7.7364,-10.40856 0,0 8.6492,5.04553 9.9544,10.3534 7.936,-6.86332 14.6879,-18.02588 16.7792,-21.67252 1.0097,1.79796 2.359,4.08206 4.2088,6.88206 l 0,31.22783 -12.9109,-12.05767 0,10.35228 14.5611,13.59441 9.6138,-8.92916 c 0,15.71971 0,220.64245 0,220.64245 -12.1481,-10.53306 -22.8091,-61.7732 -22.8091,-61.7732 l -0.7981,13.19644 c 0,0 15.4209,62.75871 27.5315,73.37559 0,0 0.2051,-3.04914 0.2844,-4.26394 4.4448,8.40332 14.3738,24.64781 27.9284,30.82985 0,0 0,-2.5178 0,-4.09639 3.4637,8.55766 19.9186,31.07131 28.8942,34.86886 0,0 -3.1275,-7.32742 -3.1275,-12.51407 -0.7385,-89.99933 0,-348.34146 0,-348.34146 0,-12.02463 -19.0378,-38.1683 -43.6283,-54.0953 -16.7074,9.83092 -34.8259,31.98178 -41.3519,33.73132 0,6.01561 2.2742,11.68284 2.2742,17.97408 0,0 0,8.23246 0,11.71813 -15.4486,0.72426 -22.249,7.99324 -35.2657,15.24464 -7.4487,4.1504 -18.1108,7.43876 -20.2483,8.07703 -5.0389,-3.57938 -9.175,-7.62395 -12.115,-12.3443 -7.0804,-11.35879 -10.0678,-25.30367 -10.0678,-39.4746 0,-5.99025 6.7111,-12.7334 6.7111,-17.57723 0,-7.32191 -0.6823,-11.71598 -0.6823,-11.71598 2.3811,0.3241 6.5414,4.54946 6.5414,4.54946 0,0 -0.1433,-12.15362 -3.9828,-14.27677 0,0 1.5532,-1.59733 7.1675,-1.76378 -1.5774,-3.99608 -9.3844,-8.87293 -9.3844,-8.87293 0.3903,-0.6989 1.1112,-1.303 2.0471,-1.82001 1.9611,-1.08472 4.7171,-1.80016 6.8248,-2.21906 -2.2467,-0.4652 -4.835,-1.17843 -7.678,-2.10552 -6.4907,-2.11433 -14.1323,-5.2186 -21.2734,-8.64474 -13.03547,-6.25372 -22.9656,-6.65609 -28.44102,-6.65609 l 0,10e-4 0,0 9.4e-4,0 z m 0.28441,3.58379 c 1.20819,0.011 2.3293,0.0573 3.29828,0.0573 12.73126,0 21.68564,5.80395 33.73234,11.14823 3.1572,1.40001 6.0553,2.53434 8.6436,3.41182 -1.6215,1.43639 -2.8826,2.88048 -3.242,4.09639 0,0 5.3994,0.99985 7.8488,5.51845 0,0 -5.1337,0.58204 -5.9726,3.58268 2.875,0.21717 5.7323,3.84064 5.7455,7.33845 0,0 -7.2811,-2.27639 -7.2811,-2.27639 0,0 1.7638,8.17514 1.7638,17.06464 0,4.53954 -6.5403,9.88272 -6.5403,17.57612 0,24.14838 6.0828,33.43143 10.4096,40.89663 1.6921,2.92126 3.0678,6.28237 5.9153,8.81671 -12.4645,-6.63624 -21.7288,-14.93262 -21.7288,-22.63815 l 0,-29.17962 -3.242,0 c 0,0 0,29.17962 0,29.17962 0,5.58789 1.3647,8.19057 1.3647,8.19057 1.9567,6.18207 5.912,15.7241 8.3626,19.56702 -11.4679,-6.1975 -17.2929,-13.95925 -17.2929,-16.83645 l 0,-40.1018 -3.24204,0 0,40.66955 0.62504,2.78678 c -1.39008,2.08898 -3.19686,4.56269 -4.43702,5.40379 -1.23686,-0.84 -2.98851,-3.31812 -4.3808,-5.40379 l 0.62614,-2.78678 0,-40.66955 -3.24205,0 0,40.1018 c 0,2.87718 -5.82601,10.63891 -17.29173,16.83645 2.44946,-3.84285 6.40474,-13.38488 8.36034,-19.56702 0,0 1.36583,-2.60268 1.36583,-8.19057 0,0 0,-29.17962 0,-29.17962 l -3.24205,0 0,29.17962 c 0,7.69672 -9.23011,16.00522 -21.67253,22.63815 2.81875,-2.53654 4.17466,-5.91198 5.85797,-8.81671 4.73135,-8.16412 10.58049,-18.53624 10.58049,-48.06419 0,-11.08205 -1.63922,-18.61678 -4.49324,-23.8905 -0.86756,-1.73953 -2.03718,-6.37057 4.60678,-6.37057 3.44159,0 11.32015,6.08616 11.32015,6.08616 0,0 -0.32409,-4.85702 -4.32347,-7.62175 -0.66362,-0.45858 -1.76268,-1.90268 -1.76268,-3.24315 0,-1.00425 1.723,-3.48347 3.07009,-4.09529 0.92599,-0.42 -13.53701,-2.94001 -13.53701,-9.49912 0,-1.36584 0.85874,-2.27529 3.866,-2.27529 3.93875,0 10.34677,4.72143 16.04273,4.72143 4.20994,0 5.8701,-1.02409 10.18149,-1.02409 5.26927,0 16.26097,9.97642 20.02117,9.61261 -4.2033,-2.63906 -10.9938,-12.62757 -21.2723,-12.62757 -3.56726,0 -6.79719,0.79701 -10.12632,0.79701 -4.26726,0 -8.46947,-3.92552 -13.08173,-3.92552 -3.09104,0 -6.54364,0.17197 -7.05404,-0.62615 -0.89402,-1.39448 -0.0893,-2.20362 0.73969,-3.3556 1.56536,-2.17496 5.96269,-2.80552 10.29721,-2.95655 1.29969,-0.0452 2.59829,-0.0683 3.80977,-0.0573 l 0,0.001 0.002,0 9.3e-4,0 z m -129.12047,43.79809 c 0,0 0,0.0551 0,0.0551 0,0 22.84983,20.93612 30.54546,23.60602 0,0 0.28331,7.05294 0.28331,7.05294 l 0,20.76307 c -5.57686,-1.91921 -12.58463,-11.08093 -15.98207,-15.927 0,-1.36032 0,-2.8441 0,-2.8441 0,-2.67544 1.57418,-4.62993 2.72946,-5.6882 l -3.3556,-1.19386 c -1.27985,1.45843 -2.67324,3.62568 -2.67324,6.42679 0,0 0,1.09134 0,1.65024 l -1.08031,1.13875 -0.56882,0.62613 -8.36144,8.98539 -9.8397,-14.90286 c 0,-1.8189 0,-3.64001 0,-3.64001 0,-2.45386 1.88615,-5.18882 3.47025,-7.05292 l -3.30048,-1.19496 c -1.66568,2.15733 -3.41292,5.06537 -3.41292,7.79261 0,0 0,1.54993 0,2.95655 -2.31496,2.39544 -11.31912,11.66194 -11.31912,11.66194 0,0 -4.5175,-9.70744 -5.74442,-12.34318 6.89418,-9.5498 18.0733,-20.24386 28.61075,-27.92951 l 0,0 0,0 -10e-4,10e-4 z m 287.76049,0 c 10.5165,7.66805 21.7012,18.39735 28.613,27.92839 -1.2269,2.63465 -5.7455,12.34318 -5.7455,12.34318 0,0 -9.003,-9.26648 -11.318,-11.66082 0,-1.40882 0,-2.95764 0,-2.95764 0,-2.72616 -1.7473,-5.63419 -3.413,-7.79262 l -3.2993,1.19496 c 1.583,1.86299 3.4702,4.59907 3.4702,7.05293 0,0 0,1.82221 0,3.64001 l -9.8419,14.90285 -8.3604,-8.98538 -0.5688,-0.62615 -1.0814,-1.13764 c 0,-0.5589 0,-1.65134 0,-1.65134 0,-2.80111 -1.3934,-4.96837 -2.6721,-6.4268 l -3.3578,1.19386 c 1.1575,1.05938 2.7316,3.01166 2.7316,5.68931 0,0 0,1.48268 0,2.8441 -3.3997,4.846 -10.4052,14.00666 -15.9832,15.927 l 0,-20.76308 c 0,0 0.2844,-7.05293 0.2844,-7.05293 7.6946,-2.66882 30.5444,-23.60602 30.5444,-23.60602 0,0 0,-0.0562 0,-0.0562 l -9e-4,0 0,0 0,0 z m -320.35351,34.29897 5.23402,9.49912 0,17.12307 -7.96348,7.39356 c 0,-3.47355 0,-25.42603 0,-25.42603 0,-2.43402 1.01969,-5.36742 2.72946,-8.58963 z m 352.94751,0 c 1.713,3.22221 2.7305,6.15561 2.7305,8.58963 0,0 0,21.91286 0,25.42603 l -7.9635,-7.39356 0,-17.12308 5.233,-9.49911 z m -332.06972,2.16174 9.15624,13.93498 0,10.58048 -9.15624,8.58963 0,-33.10402 0,0 0,-9.3e-4 z m 311.19562,0 0,33.10402 -9.1585,-8.58853 0,-10.58048 9.1585,-13.93499 0,9.4e-4 0,-9.4e-4 z m -314.4399,2.50236 0,30.54547 -9.15845,-8.5323 0,-12.39937 9.15845,-9.61261 0,0 0,-9.4e-4 z m 317.6814,0 9.1584,9.61261 0,12.39937 -9.1584,8.5323 0,-30.54546 0,9.3e-4 z m -289.58239,2.21796 c 1.37906,2.29402 7.70442,12.52724 13.7079,15.47172 -2.12647,3.00506 -7.69672,10.35676 -13.7079,13.59544 l 0,-29.06716 z m 261.48239,0 0,29.06716 c -6.0101,-3.23765 -11.5792,-10.59047 -13.7079,-13.59544 6.0057,-2.94331 12.33,-13.17767 13.7079,-15.47172 z m -264.722,1.47938 0,26.84805 -9.15845,-8.5323 0,-9.49912 9.15845,-8.81672 z m 267.9663,0 9.1585,8.81672 0,9.49911 -9.1585,8.53231 0,-26.84806 z m -305.22413,28.61075 0,26.79187 -7.96348,-7.45198 c 0,-2.83198 0,-9.6744 0,-11.88902 l 7.96348,-7.45089 z m 342.48103,0 7.9635,7.45089 c 0,2.2389 0,9.02396 0,11.88902 l -7.9635,7.45198 0,-26.79187 z m -339.23956,0.0584 5.23403,4.89119 3.92553,3.64001 0,9.61261 -3.92553,3.64001 -5.23403,4.8912 0,-26.67726 0,0.002 z m 21.55782,0 0,26.67726 -5.23292,-4.8923 -3.92332,-3.69733 0,-9.49912 3.92332,-3.69734 5.23292,-4.89119 0,0 z m 3.30048,0 9.15845,8.58853 0,9.49912 -3.98284,3.75355 -5.17561,4.83608 0,-26.67726 0,0 z m 21.55781,0 0,26.73344 -5.23292,-4.89119 -3.92662,-3.69844 0,-8.92915 c 3.15937,-1.92804 6.33529,-5.47104 9.15844,-9.21578 l 0,9.3e-4 0,0 9.4e-4,0 z m 243.16665,0 c 2.8243,3.74143 5.9991,7.28774 9.1562,9.21356 l 0,8.93026 -3.9233,3.69734 -5.2329,4.89119 0,-26.73344 0,0 0,9.3e-4 z m 21.5578,0 0,26.67726 -5.1767,-4.83608 -3.9806,-3.75355 0,-9.49912 9.1584,-8.58853 -9e-4,0 z m 3.2994,0 5.2329,4.89119 3.9255,3.69734 0,9.49912 -3.9255,3.69733 -5.2329,4.89119 0,-26.67725 0,9.3e-4 0,0 0,0 z m 21.5578,0 0,26.67726 -5.234,-4.8923 -3.9244,-3.64001 0,-9.61261 3.9244,-3.64001 5.234,-4.89229 0,0 0,0 0,0 z m -322.45911,29.52132 9.6688,9.0438 9.66992,-8.98759 0,220.70126 c 0,0 0.67465,10.95092 1.13765,18.08758 -4.30033,4.34663 -20.47646,20.70465 -20.47646,20.70465 l 0,-259.54949 0,0 z m 308.92111,0 0,259.54855 c 0,0 -16.1761,-16.35913 -20.4776,-20.70353 0.463,-7.13782 1.1365,-18.0887 1.1365,-18.0887 l 0,-220.70032 9.67,8.98758 9.6699,-9.0449 0,9.4e-4 0,0 9e-4,0 z m -314.43899,0.0562 0,251.2456 c 0,7.09482 -12.95498,23.63692 -19.22522,27.41693 0,-6.34742 0,-200.6924 0,-278.60541 l 9.5553,8.92916 9.66992,-8.98648 z m 319.95589,0 9.6699,8.98649 9.5565,-8.92916 c 0,78.81032 0,272.25686 0,278.60541 -6.2692,-3.78001 -19.2264,-20.3232 -19.2264,-27.41693 l 0,-251.2456 z m -240.26675,197.38 c 0,0 -9.28963,18.8615 -12.9098,22.23915 0,0 2.42631,0.30756 5.17561,0.28441 -1.69103,2.43072 -14.60746,21.02759 -18.65645,28.04198 -3.78883,6.56238 -6.46207,3.64112 -12.287,3.64112 -4.82946,0 -15.77813,7.6945 -17.57611,10.80756 -1.88945,3.27182 -3.29827,7.24805 -3.29827,10.52317 0,3.60033 3.81087,8.53231 3.81087,8.53231 0.41008,-1.723 1.13654,-2.33261 1.13654,-2.33261 0,0 10.01497,12.47544 11.48992,14.10588 1.14867,1.26993 6.27246,2.0956 8.07814,0.45637 4.51749,-4.10741 8.89057,-6.98017 12.91204,-12.91204 2.07025,-3.05686 2.22789,-6.56018 4.60679,-9.84194 7.95798,-10.97733 23.79456,-31.99941 27.41693,-36.80133 0.24252,1.33717 0.44976,2.45055 0.68016,3.81087 4.1041,-8.28538 23.83422,-24.11758 23.83422,-24.11758 l -5.46112,-3.58489 c 0,0 -11.8934,13.86554 -15.75611,16.43959 0,0 -1.65024,-6.8953 -2.61701,-9.32932 0,0 -4.55718,3.4471 -7.05073,3.52868 0,0 -0.74519,-4.67954 -1.30851,-7.73751 -3.13843,2.09229 -8.36144,1.65024 -8.36144,1.65024 4.58585,-2.17165 10.01059,-15.47172 10.01059,-15.47172 l -3.8671,-1.93464 -0.002,0.002 0,0 z m 160.57575,0 -3.8682,1.93354 c 0,0 5.427,13.30116 10.0106,15.47172 0,0 -5.223,0.44316 -8.3614,-1.64914 -0.5622,3.05686 -1.3085,7.7364 -1.3085,7.7364 -2.4936,-0.0816 -7.053,-3.52757 -7.053,-3.52757 -0.9657,2.43182 -2.617,9.32932 -2.617,9.32932 -3.8605,-2.57402 -15.755,-16.44071 -15.755,-16.44071 l -5.46,3.58379 c 0,0 19.729,15.83217 23.8321,24.11973 0.2326,-1.36142 0.4398,-2.47481 0.6824,-3.81088 3.6212,4.8019 19.4578,25.824 27.4169,36.80134 2.3789,3.28174 2.5354,6.78506 4.6079,9.84081 4.0192,5.93183 8.3934,8.80459 12.912,12.91205 1.8035,1.64032 6.9273,0.81465 8.077,-0.45527 1.475,-1.6315 11.49,-14.10588 11.49,-14.10588 0,0 0.7264,0.60851 1.1376,2.3315 0,0 3.8109,-4.93198 3.8109,-8.5323 0,-3.27513 -1.411,-7.25026 -3.2994,-10.52206 -1.798,-3.11418 -12.7455,-10.80868 -17.5761,-10.80868 -5.8249,0 -8.4981,2.92237 -12.2859,-3.64001 -4.0501,-7.01435 -16.9676,-25.61129 -18.6575,-28.04198 2.7504,0.0243 5.1756,-0.28441 5.1756,-0.28441 -3.6202,-3.37875 -12.9121,-22.2413 -12.9121,-22.2413 l 0,0 9e-4,0 0,0 z m -161.88428,21.27343 c 0,0 -0.0761,6.39261 1.93575,8.64695 0,0 7.05293,-4.83608 7.05293,-4.83608 0,0 0.46961,2.3337 1.08032,5.51844 -3.02048,4.12836 -20.36725,27.80492 -28.95254,39.36101 -2.13418,2.87166 -3.92663,10.18148 -3.92663,10.18148 0,0 -3.12631,-1.47937 -3.12631,-4.1515 0,-2.62473 0.34174,-5.74553 0.34174,-5.74553 0,0 -2.3348,2.67323 -6.37167,2.67323 0,-3.22553 6.23829,-6.72442 6.48411,-11.318 -4.75671,3.52646 -8.88727,1.71638 -14.39027,3.41292 -5.99245,1.84536 -7.66144,4.36315 -9.49912,4.26615 -1.08252,-0.0584 -2.06252,-1.92583 -1.64914,-3.07229 0.71544,-1.98536 8.12665,-7.48065 13.30779,-8.47498 1.24126,-0.2381 11.00384,2.12426 12.97047,-0.91055 8.10238,-12.50194 21.25579,-32.79761 22.52466,-34.75313 0.83559,-0.19953 1.60394,-0.41228 2.21686,-0.797 l 0,-9.4e-4 9.4e-4,0 0,0 z m 163.19188,0 c 0.6151,0.38583 1.3835,0.59748 2.2191,0.79701 1.2699,1.9556 14.4223,22.25128 22.5246,34.75313 1.9667,3.03592 11.7281,0.67244 12.9683,0.91055 5.1844,0.99544 12.5945,6.49073 13.311,8.47498 0.4134,1.14646 -0.5666,3.01386 -1.6502,3.07229 -1.8366,0.097 -3.5055,-2.41969 -9.4991,-4.26616 -5.503,-1.69654 -9.6325,0.11355 -14.3903,-3.41292 0.2458,4.59246 6.4841,8.09357 6.4841,11.31913 -4.0358,0 -6.3706,-2.67323 -6.3706,-2.67323 0,0 0.3407,3.11969 0.3407,5.74442 0,2.67213 -3.1274,4.1526 -3.1274,4.1526 0,0 -1.7925,-7.31088 -3.9256,-10.18362 -8.5841,-11.55498 -25.932,-35.23156 -28.9514,-39.36101 0.6107,-3.18363 1.0803,-5.51845 1.0803,-5.51845 0,0 7.0519,4.83608 7.0519,4.83608 2.0118,-2.25323 1.9346,-8.64695 1.9346,-8.64695 l 0,9.3e-4 0,9.4e-4 0,0 z m -106.8212,4.6641 c 0,0 -38.54089,88.59485 -72.75063,102.21614 0,0 14.88306,6.32316 33.16133,15.81341 2.66662,1.38457 5.41261,2.87166 8.19057,4.3808 2.30063,-2.77135 4.72363,-5.85025 7.11025,-9.04601 10.92881,-14.62173 21.61625,-31.56841 21.61625,-31.56841 0.7441,4.40064 -5.02679,17.99285 -14.78936,34.7565 -1.92032,3.29386 -3.92222,6.73765 -6.14348,10.23654 2.47702,1.41433 4.93418,2.843 7.39466,4.32458 18.10522,10.89464 35.1092,23.41861 41.4081,34.92402 6.30111,-11.50541 23.30401,-24.02938 41.41141,-34.92402 2.4594,-1.48158 4.9166,-2.91025 7.3936,-4.32458 -2.2213,-3.4989 -4.2232,-6.94159 -6.1424,-10.23654 -9.7636,-16.76365 -15.5334,-30.35582 -14.7893,-34.7565 0,0 10.6874,16.94668 21.6162,31.56841 2.3855,3.19465 4.8085,6.27466 7.1092,9.04601 2.7768,-1.50914 5.525,-2.99513 8.1916,-4.3808 18.2784,-9.49137 33.1592,-15.81341 33.1592,-15.81341 -34.2075,-13.61971 -72.7506,-102.21614 -72.7506,-102.21614 l -5.6871,1.64914 c 0,0 30.7416,76.55481 60.8053,99.71293 -6.8369,2.05812 -14.8389,5.01245 -23.0945,8.5334 -10.0315,-11.75125 -20.4081,-27.6021 -28.8379,-41.69584 -9.1011,-15.21701 -16.552,-41.92078 -16.552,-41.92078 -4.2199,10.2498 4.7732,61.73578 22.9236,94.31079 -15.0098,7.81245 -28.366,16.27859 -34.75534,23.20702 -6.38821,-6.92837 -19.74332,-15.39454 -34.75313,-23.20702 18.14936,-32.5738 27.14243,-84.06089 22.92254,-94.31079 0,0 -7.44979,26.70367 -16.55309,41.92078 -8.42868,14.09374 -18.80522,29.94468 -28.83783,41.69584 -8.25341,-3.52095 -16.25657,-6.47529 -23.09456,-8.5334 30.0648,-23.15849 60.80646,-99.71293 60.80646,-99.71293 l -5.68821,-1.64914 -9.3e-4,0 z M 869.92827,640.1154 c 0.26457,0.0286 0.54236,0.16976 0.73969,0.39795 0.39244,0.45308 0.35826,1.1178 -0.0584,1.47828 l -3.18473,2.78678 c -0.41669,0.36047 -1.08583,0.28331 -1.47827,-0.17087 -0.39355,-0.45307 -0.36047,-1.1178 0.0573,-1.47937 l 3.18473,-2.78678 c 0.20725,-0.18079 0.47512,-0.25906 0.73969,-0.2282 l 0,0.002 z m 251.81213,0 c 0.2646,-0.0319 0.5325,0.0452 0.7408,0.22709 l 3.1847,2.78678 c 0.4156,0.36157 0.4509,1.02631 0.057,1.47937 -0.3946,0.45418 -1.0638,0.53134 -1.4782,0.17087 l -3.187,-2.78788 c -0.4167,-0.36048 -0.4509,-1.0241 -0.057,-1.47828 0.1973,-0.22708 0.4751,-0.36819 0.7397,-0.39795 l -9e-4,0 9e-4,0 0,0 z m -248.45679,2.78678 c 0.79151,-0.0639 1.62268,0.28221 2.21906,0.96678 0.95244,1.09795 0.89072,2.65339 -0.11464,3.52757 l -7.7353,6.76742 c -1.00646,0.87528 -2.63025,0.7 -3.58489,-0.39685 -0.95244,-1.09795 -0.89181,-2.70961 0.11465,-3.58378 l 7.73529,-6.7123 c 0.37702,-0.32851 0.89072,-0.53024 1.36584,-0.56882 l 0,0 0,0 z m 244.47609,0 c 0.1996,-0.033 0.4266,-0.0165 0.6251,0 0.4762,0.0385 0.9866,0.24032 1.3658,0.56772 l 7.7364,6.7123 c 1.0054,0.87308 1.0671,2.48694 0.1135,3.58489 -0.9535,1.09575 -2.5773,1.27212 -3.5837,0.39575 l -7.7364,-6.76742 c -1.0054,-0.87307 -1.0671,-2.42741 -0.1125,-3.52757 0.4465,-0.51371 0.9955,-0.86426 1.5918,-0.96678 l 0,0 0,9.3e-4 z m -240.09501,5.23292 c 0.79039,-0.0639 1.6778,0.28001 2.27417,0.96678 0.95244,1.09796 0.89182,2.65229 -0.11464,3.52647 l -7.79151,6.76852 c -1.00647,0.87419 -2.57292,0.70001 -3.52758,-0.39794 -0.95354,-1.09686 -0.89181,-2.70851 0.11575,-3.58269 l 7.73419,-6.7123 c 0.37701,-0.3274 0.83339,-0.52913 1.30852,-0.56882 l 9.3e-4,0 0,0 0,0 z m 235.71581,0 c 0.204,-0.0342 0.4266,-0.0154 0.6251,0 0.4751,0.0385 0.9304,0.24143 1.3074,0.56883 l 7.7364,6.71229 c 1.0064,0.87308 1.0693,2.48584 0.1124,3.58269 -0.9513,1.09796 -2.52,1.27213 -3.5265,0.39795 l -7.7915,-6.76962 c -1.0064,-0.87307 -1.0682,-2.42741 -0.1146,-3.52537 0.4475,-0.5137 1.0395,-0.86425 1.6513,-0.96788 l 0,9.4e-4 z m -230.7682,5.11939 c 0.79261,-0.0639 1.62378,0.22378 2.21906,0.90945 0.95354,1.09796 0.89182,2.70961 -0.11354,3.58379 l -7.7364,6.7134 c -1.00646,0.87418 -2.57292,0.6989 -3.52647,-0.39906 -0.95354,-1.09796 -0.94914,-2.65339 0.0562,-3.52757 l 7.79372,-6.76742 c 0.3759,-0.3285 0.83228,-0.47402 1.3074,-0.5126 l 0,0 z m 225.8187,0 c 0.1985,-0.0298 0.4278,-0.0154 0.6251,0 0.4762,0.0385 0.9315,0.1841 1.3074,0.51261 l 7.7948,6.76742 c 1.0065,0.87307 1.0087,2.42961 0.056,3.52757 -0.9536,1.09796 -2.5211,1.27323 -3.5265,0.39905 l -7.7364,-6.7134 c -1.0075,-0.87308 -1.0671,-2.48583 -0.1135,-3.58378 0.4475,-0.51371 0.9976,-0.82347 1.5929,-0.90945 z"
     id="rect2205"
     style="fill:#000000;fill-rule:evenodd" />
  <path
     d="m 1220.0278,441.9956 -7.3958,5.23292 3.7536,1.93576 3.7546,1.87623 -0.1124,-9.0449 0,0 0,0 0,0 z m -7.1687,8.70317 c -1.3416,0.0926 -2.5244,0.80803 -3.1274,1.99087 -0.9646,1.89386 -0.028,4.31797 2.1044,5.40379 2.1331,1.08583 4.609,0.41449 5.5758,-1.47827 0.9645,-1.89386 0.026,-4.31687 -2.1056,-5.40379 -0.8003,-0.40788 -1.6403,-0.56772 -2.4461,-0.5126 l 0,0 -9e-4,0 z m -13.935,8.70317 c -1.1134,0.0132 -1.9214,0.0518 -2.1044,0.17086 -0.7904,0.5115 0.2844,7.27231 0.057,13.02443 -0.215,5.42473 -1.9512,6.95261 -2.9014,8.81672 -0.8764,1.72079 -4.038,3.75465 -4.038,3.75465 0,0 2.6159,2.61701 2.6159,2.61701 0,0 1.7021,-2.65118 4.3797,-7.90836 3.1594,-6.19861 3.0569,-17.43061 3.9829,-18.03028 0.8058,-0.52142 7.3946,-2.16174 7.3946,-2.16174 -9e-4,0 -6.0464,-0.3263 -9.3844,-0.2833 l -9e-4,0 0,0 -9e-4,0 z m 11.4888,1.5356 c 0,0 -6.9273,1.32835 -7.9073,2.27638 -0.9469,0.91497 -0.5291,10.29722 -4.2088,17.51881 -3.0491,5.98695 -4.5494,8.19057 -4.5494,8.19057 l 1.8762,0.96678 1.8773,0.91055 c 0,0 0.8742,-2.43071 3.9255,-8.41876 3.6786,-7.22159 11.5319,-12.45891 11.716,-13.76521 0.1907,-1.34709 -2.7294,-7.67797 -2.7294,-7.67797 l 0,-9.4e-4 0,0 0,0 z m 2.2191,0.90945 c 0,0 2.5079,6.32426 2.5597,7.28112 0.058,1.09906 -9.0703,7.62285 -12.2296,13.82149 -2.6777,5.25718 -3.8109,8.19167 -3.8109,8.19167 0,0 3.6411,0.56883 3.6411,0.56883 0,0 -0.2513,-3.74143 0.6251,-5.46112 0.9491,-1.86299 1.1993,-4.146 5.4611,-7.50821 4.5197,-3.56505 10.6301,-6.68254 10.5805,-7.62285 -0.046,-0.86867 -6.8259,-9.27089 -6.8259,-9.27089 l -9e-4,0 0,0 0,0 z m -20.59,29.80683 c -1.1475,0.12346 -1.982,0.85212 -2.4461,1.76267 -0.6912,1.35812 -0.3164,3.17261 -5.8029,13.93723 -2.4042,4.71922 -3.3732,6.6175 -5.9737,11.717 -2.6424,5.18884 -6.4841,12.68488 -6.4841,12.68488 0,0 -1.3052,2.39544 1.1376,3.64001 2.4429,1.24346 3.5265,-1.25229 3.5265,-1.25229 0,0 3.8418,-7.49719 6.4841,-12.68487 2.6005,-5.09844 3.5684,-7.05403 5.9737,-11.77441 5.4843,-10.76463 7.1599,-11.49767 7.85,-12.85464 0.743,-1.45733 0.5655,-3.41954 -1.8762,-4.66522 -0.9161,-0.4652 -1.701,-0.58426 -2.3878,-0.51039 l 0,-9.4e-4 -9e-4,9.4e-4 z m -23.6071,44.87945 c -0.9216,0.0804 -1.6503,0.47071 -1.9898,1.13654 -0.679,1.33496 0.4839,3.29386 2.617,4.3808 2.132,1.08472 4.4404,0.87858 5.1194,-0.45528 0.6791,-1.33386 -0.5401,-3.29387 -2.6732,-4.3808 -1.066,-0.54346 -2.1496,-0.76284 -3.0712,-0.68126 l -9e-4,0 0,0 z m -3.1847,6.54033 c -1.5279,-0.0727 -2.8629,0.45637 -3.413,1.5356 -0.8797,1.7252 0.4917,4.20331 3.0723,5.51954 2.5796,1.31402 5.3774,0.98441 6.2571,-0.74079 0.8796,-1.72631 -0.4928,-4.20221 -3.0723,-5.51844 -0.9679,-0.49165 -1.9259,-0.75181 -2.8441,-0.79591 z m -4.3235,8.13435 c -0.9205,0.0816 -1.6503,0.47071 -1.9909,1.13874 -0.679,1.33276 0.4851,3.29276 2.617,4.3786 2.132,1.08693 4.4393,0.87858 5.1205,-0.45417 0.6791,-1.33386 -0.485,-3.29387 -2.617,-4.3797 -1.0671,-0.54457 -2.2069,-0.76394 -3.1274,-0.68347 l 0,0 z m -1.8762,6.99781 c -1.3471,0.17307 -1.992,1.5356 -1.992,1.5356 0,0 -13.8314,27.22177 -18.7115,36.80134 -1.5599,3.06017 -8.1245,4.96616 -10.6941,10.01171 -2.5884,5.07529 -0.7617,9.82644 2.6159,11.5462 3.3766,1.72079 8.335,0.46961 10.9223,-4.60679 2.5696,-5.04442 0.2612,-11.50317 1.8189,-14.56227 4.8813,-9.58172 18.7149,-36.80246 18.7149,-36.80246 0,0 1.3625,-2.39545 -1.0815,-3.64001 -0.6107,-0.31087 -1.142,-0.34173 -1.5918,-0.28331 l -9e-4,0 0,0 z m -33.3896,62.68265 c -1.5543,0.043 -2.9367,0.77717 -3.5838,2.04709 -1.0362,2.03386 0.1489,4.74348 2.6722,6.02884 2.5244,1.28646 5.449,0.66804 6.4852,-1.36472 1.0362,-2.03386 -0.2062,-4.74458 -2.7295,-6.02994 -0.9469,-0.48283 -1.9126,-0.70772 -2.8441,-0.68236 l 0,9.3e-4 0,0 z m -22.0131,43.62832 c -0.7893,0.0264 -1.4419,0.27669 -1.7053,0.79701 -0.5303,1.03843 0.5644,2.68095 2.4461,3.64001 1.8807,0.95796 3.8484,0.86865 4.3797,-0.17088 0.5303,-1.04063 -0.5666,-2.68205 -2.4461,-3.64001 -0.9415,-0.47953 -1.8829,-0.6537 -2.6744,-0.62613 l 0,0 0,0 z m -6.4841,5.11828 0,13.42463 10.9223,-7.84994 c 0,0 -1.4816,-2.61591 -4.7225,-4.26615 -3.241,-1.65024 -6.1997,-1.30851 -6.1997,-1.30851 z"
     id="path2220"
     style="fill:#f5d402;fill-rule:evenodd" />
  <path
     d="m 829.31791,591.77453 c 0,0 6.17104,12.74666 10.8616,14.49499 -2.4252,-0.66142 -10.3016,2.22898 -10.3016,2.22898 0,0 13.88757,12.40599 25.66636,13.21958 9.98856,0.68788 14.83892,-4.29812 14.83892,-4.29812 l -2.00079,-10.58272 c 0,0 -6.11151,-7.38034 -15.8906,-10.78554 -9.88272,-3.44268 -23.17389,-4.27608 -23.17389,-4.27608 l 0,-9.3e-4 0,0 z"
     id="path2280"
     style="fill:#000000;fill-rule:evenodd" />
  <path
     d="m 875.84246,568.9442 c 0,0 -8.52128,7.29435 -10.85283,15.74286 -2.3337,8.44963 1.52016,18.0523 1.52016,18.0523 l 7.15987,13.35622 c 0,0 9.9235,-5.28143 14.14442,-13.17767 4.22095,-7.89735 2.67323,-18.55285 2.67323,-18.55285 0,0 -7.86096,2.92678 -8.86081,4.22205 1.65906,-8.76049 -5.7841,-19.64308 -5.7841,-19.64308 l -9.4e-4,0 9.4e-4,0 0,0 z"
     id="path2282"
     style="fill:#000000;fill-rule:evenodd" />
  <path
     d="m 848.46044,565.52726 c 0,0 -9.69092,3.27513 -19.10174,2.70851 -8.96443,-0.54126 -16.41859,-8.06931 -16.41859,-8.06931 0,0 7.43104,-5.02899 11.09857,-4.35875 -4.03465,-1.47496 -9.88486,-11.58149 -9.88486,-11.58149 0,0 8.31293,-2.51229 15.68443,0.26678 7.37151,2.78126 13.79937,10.85609 13.79937,10.85609 l 4.82394,10.17812 -10e-4,0 z"
     id="path2284"
     style="fill:#000000;fill-rule:evenodd" />
  <path
     d="m 851.7918,518.19873 c 0,0 4.8471,10.03598 3.69733,13.52385 1.50363,-2.32268 7.19293,-5.93844 7.19293,-5.93844 0,0 3.44048,16.24882 0.14992,26.28479 -3.28835,10.03485 -13.30442,13.85565 -13.30442,13.85565 l -11.04789,-21.48511 c 0,0 -1.64473,-7.96018 1.80016,-14.26352 3.446,-6.30332 11.51092,-11.97722 11.51092,-11.97722 l 10e-4,0 z"
     id="path2286"
     style="fill:#000000;fill-rule:evenodd" />
  <path
     d="m 788.72882,491.63413 c 0,0 10.47464,-1.10016 20.05645,2.86946 8.01089,3.32584 10.46699,9.37013 10.46699,9.37013 l 3.94537,10.57833 c 0,0 -11.4007,4.27608 -20.40916,1.00647 -9.00853,-3.27182 -15.62825,-14.08936 -15.62825,-14.08936 0,0 6.29562,-2.38773 8.69215,-1.4926 -3.49119,-1.54441 -7.12238,-8.24348 -7.12238,-8.24348 l 0,9.3e-4 -0.001,0 0,0 z"
     id="path2293"
     style="fill:#000000;fill-rule:evenodd" />
  <path
     d="m 821.67846,471.99488 c 0,0 4.59687,5.90316 4.73466,12.69374 1.22583,-3.61025 6.96474,-7.59971 6.96474,-7.59971 0,0 5.90206,14.28331 4.60678,24.424 -1.29528,10.14172 -9.78789,16.14083 -9.78789,16.14083 l -10.59047,-20.10275 c 0,0 -3.4515,-8.23907 -2.43402,-14.62947 1.01749,-6.38931 6.50617,-10.92881 6.50617,-10.92881 l 0,0.002 z"
     id="path2295"
     style="fill:#000000;fill-rule:evenodd" />
  <path
     d="m 785.40187,433.55078 c 0,0 -1.89938,10.94868 1.33275,17.25532 2.8871,5.62758 4.72474,6.86222 4.72474,6.86222 -5.50411,-3.63229 -13.827,-3.94537 -13.827,-3.94537 0,0 2.96205,11.91217 10.04148,17.3468 7.07939,5.43465 17.99499,4.16473 17.99499,4.16473 0,0 7.17751,-9.55531 6.67813,-19.85028 -0.49937,-10.29498 -8.67561,-21.32962 -8.67561,-21.32962 0,0 -3.22442,6.68915 -3.50883,11.68173 -2.08678,-5.14805 -14.76071,-12.18442 -14.76071,-12.18442 l 0,0 0,0 0,-9.4e-4 z"
     id="path2297"
     style="fill:#000000;fill-rule:evenodd" />
  <path
     d="m 788.62186,440.21573 c 0,0 -0.28331,8.00096 2.36346,12.53936 2.64789,4.53954 8.55987,6.34963 8.55987,6.34963 0,0 0.2822,-7.99876 -2.36457,-12.53722 -2.64788,-4.53954 -8.55876,-6.35183 -8.55876,-6.35183 z"
     id="path2299"
     style="fill:#097754;fill-rule:evenodd" />
  <path
     d="m 783.0869,458.30751 c 0,0 6.95042,0.40898 10.96409,3.48457 4.0115,3.0756 5.56584,9.48363 5.56584,9.48363 0,0 -4.60678,0.4674 -8.61829,-2.6082 -4.01261,-3.07671 -7.91167,-10.36003 -7.91167,-10.36003 l 0,0 z"
     id="path2301"
     style="fill:#097754;fill-rule:evenodd" />
  <path
     d="m 804.89606,442.1608 c 0,0 -2.31056,5.30017 -2.04488,11.01374 0.26567,5.71465 3.60032,12.15249 3.60032,12.15249 0,0 3.01497,-6.86001 2.7493,-12.57576 -0.26457,-5.71466 -3.4967,-8.97215 -4.30473,-10.59047 z"
     id="path2304"
     style="fill:#097754;fill-rule:evenodd" />
  <path
     d="m 793.19446,493.66414 c 0,0 3.41181,4.76441 8.66569,7.36269 5.25387,2.59718 13.0807,2.69308 13.0807,2.69308 0,0 -3.90678,-5.06868 -9.16065,-7.66696 -5.25387,-2.59717 -12.58566,-2.39103 -12.58566,-2.39103 l 0,0.002 0,0 0,0 z"
     id="path2306"
     style="fill:#097754;fill-rule:evenodd" />
  <path
     d="m 794.88883,504.7391 c 0,0 2.50789,4.91214 7.09372,7.01766 4.58804,2.10662 13.97138,1.93354 13.97138,1.93354 0,0 -3.60032,-4.59025 -8.18616,-6.69687 -4.58695,-2.10772 -12.87892,-2.25433 -12.87892,-2.25433 l 0,0 z"
     id="path2308"
     style="fill:#097754;fill-rule:evenodd" />
  <path
     d="m 821.30261,478.5329 c 0,0 -2.77245,4.58142 -2.50127,9.62913 0.27229,5.04993 3.586,10.56723 3.586,10.56723 0,0 2.3304,-6.32538 2.05812,-11.37419 -0.27118,-5.04994 -3.14284,-8.82223 -3.14284,-8.82223 l 0,0 z"
     id="path2310"
     style="fill:#097754;fill-rule:evenodd" />
  <path
     d="m 831.51274,485.01118 c 0,0 -4.74347,6.36616 -5.42473,12.91205 -0.68126,6.54474 2.69749,13.26914 2.69749,13.26914 0,0 5.73009,-5.75324 6.41135,-12.29801 0.68126,-6.54695 -3.6841,-13.88094 -3.6841,-13.88094 l 0,-0.002 z"
     id="path2312"
     style="fill:#097754;fill-rule:evenodd" />
  <path
     d="m 818.4298,545.45681 c 0,0 0.56993,2.35354 2.55198,4.85261 1.98094,2.50126 5.37292,5.14694 5.37292,5.14694 0,0 3.27623,-1.05386 7.34947,-0.17197 4.07213,0.883 9.48913,4.51088 9.48913,4.51088 0,0 -5.83041,-8.70097 -11.88351,-12.08408 -6.05308,-3.38096 -12.87891,-2.25434 -12.87891,-2.25434 l -10e-4,0 z"
     id="path2320"
     style="fill:#097754;fill-rule:evenodd" />
  <path
     d="m 817.82901,560.41071 c 0,0 7.5479,-3.22441 13.76307,-2.39213 6.21624,0.83229 11.8207,5.74553 11.8207,5.74553 0,0 -8.40113,2.90694 -14.61623,2.07576 -6.21734,-0.83228 -10.96856,-5.42915 -10.96856,-5.42915 l 10e-4,-9.3e-4 0,9.3e-4 z"
     id="path2322"
     style="fill:#097754;fill-rule:evenodd" />
  <path
     d="m 849.73921,525.32662 c 0,0 -6.67482,7.07057 -7.23482,13.20745 -0.5589,6.13577 5.41261,11.85486 5.41261,11.85486 0,0 -0.29323,-3.93545 0.73417,-6.52711 1.02851,-2.59056 3.2145,-5.3575 3.2145,-5.3575 0,0 0.93149,-3.15938 0.57102,-5.69261 -0.50378,-3.53969 -2.69749,-7.48506 -2.69749,-7.48506 z"
     id="path2324"
     style="fill:#097754;fill-rule:evenodd" />
  <path
     d="m 859.31327,533.51291 c 0,0 -6.2912,6.36506 -7.95356,13.18206 -1.66347,6.81703 1.29969,14.08488 1.29969,14.08488 0,0 5.72127,-4.51308 7.38474,-11.32902 1.66346,-6.81703 -0.73197,-15.93801 -0.73197,-15.93801 l 10e-4,0 z"
     id="path2326"
     style="fill:#097754;fill-rule:evenodd" />
  <path
     d="m 875.06499,574.60488 c 0,0 2.84962,5.94947 3.57277,10.92554 0.72425,4.97497 0.0529,6.69687 0.0529,6.69687 0,0 -2.94663,2.89702 -4.26726,4.60017 -1.69765,2.1893 -1.94678,6.1953 -1.94678,6.1953 0,0 -5.9164,-8.79578 -5.00473,-15.22588 0.91165,-6.429 7.59308,-13.19308 7.59308,-13.19308 l 0,0 0,9.4e-4 0,0 z"
     id="path2328"
     style="fill:#097754;fill-rule:evenodd" />
  <path
     d="m 887.53809,588.36599 c 0,0 -7.57546,5.00363 -10.5816,10.13621 -3.00836,5.13041 -1.44851,10.38756 -1.44851,10.38756 0,0 5.39829,-0.47511 8.40664,-5.60663 3.00615,-5.13151 3.62237,-14.91835 3.62237,-14.91835 l 9.3e-4,0 0,9.4e-4 0,0 z"
     id="path2330"
     style="fill:#097754;fill-rule:evenodd" />
  <path
     d="m 837.76087,609.49671 c 0,0 10.91779,-0.29764 17.59151,1.34378 6.67372,1.63922 9.10223,5.2164 9.10223,5.2164 0,0 -7.5038,3.51323 -14.17644,1.87291 -6.67372,-1.63922 -12.51734,-8.43419 -12.51734,-8.43419 l 0,0 0,9.3e-4 z"
     id="path2333"
     style="fill:#097754;fill-rule:evenodd" />
  <path
     d="m 835.91557,596.54481 c 0,0 4.92537,7.63719 11.29374,10.40744 8.77593,3.81639 18.93645,1.96662 18.93645,1.96662 0,0 -5.51955,-6.76522 -13.11599,-9.75261 -7.5975,-2.98521 -17.1142,-2.62142 -17.1142,-2.62142 l 10e-4,0 -10e-4,0 z"
     id="path2335"
     style="fill:#097754;fill-rule:evenodd" />
  <path
     d="m 870.95551,616.97086 0.29433,3.92994 c 6.52821,0.0607 7.50049,-0.58867 9.17388,1.46835 1.11449,1.37134 3.76568,2.56741 6.4301,1.35039 2.66662,-1.21701 3.86158,-4.41938 2.64457,-7.08489 -1.21702,-2.66553 -3.69514,-3.24426 -6.08285,-2.77355 -1.46505,0.28882 -2.42961,1.45843 -3.67308,2.10111 -2.36457,1.22472 -8.78806,1.00866 -8.78806,1.00866 l 0,0 9.4e-4,0 z"
     id="path2350"
     style="fill:#000000;fill-rule:evenodd" />
  <path
     d="m 870.39206,613.96459 3.17702,2.3282 c -3.40741,5.57135 -4.47119,6.05088 -3.61245,8.56096 0.57213,1.67119 0.1841,4.55277 -2.26095,6.16994 -2.44394,1.61717 -5.79293,0.9348 -7.4101,-1.50914 -1.61607,-2.44394 -0.7948,-4.85151 0.86977,-6.62742 1.02189,-1.09134 2.52221,-1.28867 3.726,-2.00299 2.29071,-1.35922 5.50962,-6.91955 5.50962,-6.91955 l 0,0 10e-4,0 z"
     id="path2357"
     style="fill:#000000;fill-rule:evenodd" />
  <path
     d="m 848.27853,567.29687 0.29323,3.92993 c 6.52931,0.0595 7.5005,-0.58867 9.17388,1.46725 1.11339,1.37024 3.76569,2.56741 6.4301,1.35039 2.66772,-1.21701 3.86268,-4.41828 2.64347,-7.08379 -1.21702,-2.66662 -3.69403,-3.24426 -6.08175,-2.77355 -1.46615,0.28992 -2.42961,1.45843 -3.67198,2.10111 -2.36568,1.22362 -8.78805,1.00866 -8.78805,1.00866 l 10e-4,0 z"
     id="path2361"
     style="fill:#000000;fill-rule:evenodd" />
  <path
     d="m 849.60359,568.6922 2.77796,2.79671 c -4.23197,4.97166 -5.3597,5.28143 -4.90111,7.89293 0.30646,1.74063 -0.52583,4.52741 -3.19355,5.74442 -2.66552,1.21701 -5.86569,0.0231 -7.0849,-2.64347 -1.21701,-2.66552 -0.0309,-4.91655 1.88946,-6.41246 1.17843,-0.91717 2.69418,-0.88079 3.99276,-1.3978 2.47481,-0.98552 6.51939,-5.98033 6.51939,-5.98033 l -10e-4,0 10e-4,0 z"
     id="path2365"
     style="fill:#000000;fill-rule:evenodd" />
  <path
     d="m 826.30184,520.80368 0.29433,3.92993 c 6.52931,0.0595 7.50049,-0.58867 9.17498,1.46945 1.11448,1.36804 3.76457,2.56521 6.4312,1.34819 2.66441,-1.21701 3.86048,-4.41718 2.64346,-7.086 -1.21921,-2.66553 -3.69513,-3.24316 -6.08395,-2.77245 -1.46615,0.28992 -2.42961,1.45843 -3.67307,2.10111 -2.36457,1.22472 -8.78696,1.00756 -8.78696,1.00756 l 0,0.002 0,0 z"
     id="path2370"
     style="fill:#000000;fill-rule:evenodd" />
  <path
     d="m 828.11297,519.97674 2.77687,2.7956 c -4.23198,4.97167 -5.3575,5.28253 -4.90112,7.89403 0.30646,1.73954 -0.52583,4.52632 -3.19245,5.74332 -2.66552,1.21592 -5.86679,0.022 -7.08489,-2.64346 -1.21591,-2.66663 -0.0298,-4.91766 1.88945,-6.41246 1.17843,-0.91937 2.69308,-0.88079 3.99387,-1.4 2.4748,-0.98552 6.51828,-5.97813 6.51828,-5.97813 l 0,9.3e-4 z"
     id="path2376"
     style="fill:#000000;fill-rule:evenodd" />
  <path
     d="m 802.892,471.71301 0.29323,3.92883 c 6.52931,0.0607 7.50159,-0.58866 9.17388,1.46725 1.1156,1.37134 3.76678,2.56741 6.4312,1.3526 2.66662,-1.21921 3.86158,-4.41938 2.64457,-7.086 -1.21702,-2.66663 -3.69514,-3.24537 -6.08395,-2.77355 -1.46394,0.28992 -2.42852,1.45953 -3.67198,2.1011 -2.36457,1.22363 -8.78806,1.00867 -8.78806,1.00867 l 0,9.3e-4 10e-4,0 z"
     id="path2380"
     style="fill:#000000;fill-rule:evenodd" />
  <path
     d="m 804.70211,470.88701 2.77576,2.7967 c -4.23087,4.97167 -5.3586,5.28143 -4.90001,7.89404 0.30646,1.73953 -0.52693,4.52631 -3.19245,5.74331 -2.66662,1.21702 -5.86679,0.0231 -7.08379,-2.64346 -1.21812,-2.66553 -0.0309,-4.91876 1.88725,-6.41246 1.17953,-0.91717 2.69418,-0.88079 3.99386,-1.4 2.47371,-0.98441 6.51829,-5.97813 6.51829,-5.97813 l 0,-9.3e-4 0,9.3e-4 10e-4,0 z"
     id="path2384"
     style="fill:#000000;fill-rule:evenodd" />
  <path
     d="m 844.13144,555.65537 c -2.34032,0.97118 -5.81166,-9.21688 -8.36033,-14.79814 -2.61481,-5.72789 -7.9238,-14.55565 -6.41577,-15.24464 1.65464,-0.75512 3.83402,3.88033 6.50946,9.7416 2.67545,5.85908 10.45813,19.38726 8.26554,20.29894 l 0,0.002 10e-4,0 z"
     id="path2340"
     style="fill:#f5d402;fill-rule:evenodd" />
  <path
     d="m 820.10215,501.99696 c -2.33922,0.97449 -4.90001,-5.69703 -7.44758,-11.27936 -2.6148,-5.72679 -5.16127,-9.7725 -3.65323,-10.46149 1.65575,-0.75511 4.09969,4.26285 6.24049,8.95011 2.07354,4.54174 7.05293,11.878 4.86032,12.79071 z"
     id="path2342"
     style="fill:#f5d402;fill-rule:evenodd" />
  <path
     d="m 875.70433,623.65541 c -1.83655,0.49166 -9.85407,-16.29072 -16.33702,-30.49142 -6.4808,-14.19847 -11.30802,-25.68727 -9.80003,-26.37299 1.65576,-0.75623 6.90301,12.65622 13.38824,26.85804 6.48301,14.20071 14.12566,29.63705 12.74993,30.00637 l -9.4e-4,0 0,0 z"
     id="path2337"
     style="fill:#f5d402;fill-rule:evenodd" />
  <path
     d="m 943.03611,245.2094 c 0,0 2.68756,-5.08962 9.4825,-5.08962 2.83969,0 12.21307,-0.19622 12.21307,-0.19622 1.24898,3.24536 6.9438,8.669 6.9438,14.30869 0,0 -5.7797,-10.41846 -21.91389,-10.41846 -4.05449,0 -6.72663,1.3956 -6.72663,1.3956 l 9.3e-4,0 z"
     id="path2192"
     style="fill:#cc092f;fill-rule:evenodd" />
  <path
     d="m 963.82056,246.63469 c 0,0 -3.9641,-1.27102 -3.9641,-2.60268 0,-1.69544 1.92584,-1.69544 3.0767,-0.3748 0.7926,0.91055 0.88631,2.97749 0.88631,2.97749 l 9.3e-4,0 z"
     id="path2194"
     style="fill:#000000;fill-rule:evenodd" />
  <path
     d="m 969.26284,256.2264 c 0,0 -3.43717,3.62017 -4.18347,5.55261 -3.4008,-1.28867 -9.33262,-7.40128 -9.33262,-7.40128 0,0 5.02789,2.9356 13.51498,1.84867 l 0,0 9.4e-4,0 z"
     id="path2196"
     style="fill:#d10429;fill-rule:evenodd" />
  <path
     d="m 253.125,190.86218 a 1.3125,1.3125 0 1 1 -2.625,0 1.3125,1.3125 0 1 1 2.625,0 z"
     transform="matrix(4.3277259,0,0,3.4222325,-108.88733,-406.44468)"
     id="path3141"
     style="fill:#000000;fill-rule:evenodd" />
  <path
     d="m 168.3798,669.64062 a 3.0935922,3.0935922 0 1 1 -6.18718,0 3.0935922,3.0935922 0 1 1 6.18718,0 z"
     transform="matrix(1.2787701,0,0,1.2787701,769.5251,-609.58634)"
     id="path2386"
     style="fill:#f5d402;fill-rule:evenodd" />
  <path
     d="m 253.125,190.86218 a 1.3125,1.3125 0 1 1 -2.625,0 1.3125,1.3125 0 1 1 2.625,0 z"
     transform="matrix(1.2787701,0,0,1.2787701,658.87787,2.6612175)"
     id="path2189"
     style="fill:#000000;fill-rule:evenodd" />
  <path
     d="m 877.88927,356.04844 c 0,0 9.66992,7.25577 9.66992,14.61846 l 0,152.44174 0,23.09568 c 0,4.62441 1.42866,7.63608 3.69733,10.57936 2.26757,3.1704 7.10033,7.5501 12.11498,10.80756 15.48936,10.05912 41.38495,20.66601 60.97735,29.57862 16.32712,7.42664 22.96781,10.42285 31.45491,20.93174 8.48824,-10.5088 15.18514,-13.50397 31.51224,-20.93174 19.5901,-8.91262 45.4868,-19.51959 60.9762,-29.57862 5.0169,-3.25749 9.8486,-7.63719 12.115,-10.80756 2.2687,-2.94331 3.64,-5.95497 3.64,-10.57936 l 0,-23.09568 0,-152.44174 c 0,-7.36269 9.6699,-14.61846 9.6699,-14.61846 l -10.2961,0 -6.0288,0 -101.59082,0 -101.588,0 -6.02994,0 -10.2961,0 9.4e-4,0 9.3e-4,0 z m 12.39834,5.57465 3.92552,0 101.58987,0 101.5899,0 3.9255,0 c 0,0 -2.8441,3.42285 -2.8441,9.0438 l 0,152.44174 c 0,0 0,23.09568 0,23.09568 0,3.83071 -3.9751,12.80508 -26.9043,24.22995 -37.9026,18.88568 -67.0348,27.70468 -75.76563,38.45269 -8.73183,-10.74801 -37.86403,-19.56589 -75.76558,-38.45269 -22.93029,-11.42487 -26.90546,-20.39926 -26.90546,-24.22995 0,0 0,-23.09568 0,-23.09568 l 0,-152.44174 c 0,-5.62095 -2.8441,-9.0438 -2.8441,-9.0438 l 0,0 -9.3e-4,0 z"
     id="rect2189"
     style="fill:#f5d402;fill-rule:evenodd" />
</svg>
