<?xml version="1.0" standalone="yes"?>
<!DOCTYPE svg PUBLIC "-//W3C//DTD SVG 1.1//EN" "http://www.w3.org/Graphics/SVG/1.1/DTD/svg11.dtd">
<svg xmlns="http://www.w3.org/2000/svg" xmlns:xlink="http://www.w3.org/1999/xlink" width="1030" height="618" viewBox="0 0 1000 600">
<rect fill="white" width="1000" height="600" /> 
<path id="Cyprus" fill="#ed8000" d="M427.656,185.589c0,7.68,0.96,8.64,1.44,10.08c0.48,1.44,1.08,27.839-2.88,35.04
	c-3.96,7.201-11.76,11.28-14.88,12c-3.12,0.72-12.96-6.24-22.081-9.12c-9.12-2.88-8.64-2.4-12.479-2.4s-12.48,3.239-14.88,5.28
	c-1.56-0.24-1.92-0.96-2.88,0c-0.959,0.96-4.8,4.8-5.76,7.2c-0.96,2.4-3.359,11.521-6.24,12.48
	c-2.88,0.96-10.68,8.759-15.84,9.121c-5.159,0.36-3.72-0.24-7.2-0.48c-3.479-0.24-3.84-3.84-7.2-5.76
	c-3.359-1.92-4.32-3.36-4.32-3.36s-0.96-3.84-2.4-3.84c-1.439,0-2.879,6.721-2.879,8.641s3.839,9.12,5.76,10.559
	c1.92,1.44,1.92,10.081,0.96,12.48c-0.96,2.4,1.92,4.801,2.399,7.2c0.48,2.4-2.879,4.319-1.439,4.8
	c1.439,0.479,3.36,3.359,3.36,6.24c0,2.88,7.2,3.84,8.64,6.72c1.44,2.88,1.92,7.68,2.4,10.561c0.48,2.88,2.16,1.56,2.399,8.64
	c2.28,1.08,5.76,3.359,8.64,4.8c2.88,1.44,2.401,4.8,6.24,6.24c3.84,1.439,3.84,0,5.76,0.479c1.92,0.48-0.96,0.961,2.4,1.92
	c3.361,0.96,4.8-0.479,7.681,0.96c2.88,1.44,4.32,4.801,6.24,5.761s10.08,3.359,10.56,3.84c0.48,0.479,5.76,2.4,6.72,2.4
	c0.96,0,3.84-1.921,3.84-1.921s3.36,0.96,6.24,0c2.88-0.959,4.8-3.84,6.72-3.84s2.4,0.96,4.32,0.96
	c1.92,0,4.799-0.96,4.799-0.96s4.32-0.96,7.68,0.96c3.36,1.921,11.04,11.041,11.04,14.881c0,3.839-0.479,5.76-0.479,5.76
	s3.839-0.481,5.279,0.479c1.44,0.961,1.32-0.839,12,0.961c-0.72-2.641-11.04-10.08-1.44-20.641
	c9.6-10.561,10.2-6.24,12.48-8.159c2.28-1.921,11.04-7.562,25.92-2.401c14.4-2.399,3.84-4.319,12-4.799
	c1.44-0.601,4.201,0.119,7.201,0.96c0.96-1.801,3-3.48,6.24-2.881c0.6-1.68,4.559-3.96,8.639-4.319
	c0.601-3.241,10.921-7.319,16.801-7.681c2.399-2.16,5.16-11.76,18.24-7.2c0.479-3.119,2.64-8.16,6.24-9.12
	c0.72-6.479-1.682-19.561,4.8-24c6.479-5.88,12.6-4.561,23.52-4.319c7.44,1.56,11.04,7.199,13.439,7.68
	c2.4,0.48,3.36,0.48,6.24-1.439c2.88-1.921-0.479-5.761,1.92-5.761c2.4,0,1.439,0.48,5.28,0c3.84-0.479,3.36-1.8,5.76-2.399
	c3.841,1.921,8.16,0.479,10.08,1.92c1.921,1.439,2.16,1.319,6.24,1.92c1.439,2.399,5.279,2.399,5.279,2.399
	s-2.879-0.96-1.919-2.399c0.96-1.44,0-5.761-1.921-7.681c-1.919-1.92-2.879-2.4-4.319-4.319
	c-1.439-1.92,0.479-1.921-1.921-4.32c-2.399-2.4-7.679-4.8-9.119-7.68c-1.439-2.88-0.96-4.8-3.36-7.2
	c-2.399-2.4-12-10.56-12.479-19.2s0.479-16.919,6.239-19.68c-0.24-5.04,0.961-5.76,6.24-8.64s5.762-0.96,9.12-0.96
	c3.359,0,5.281,0.48,8.64-1.919c3.36-2.4,0.48-7.68,9.12-15.36c8.641-7.68,12-11.52,14.881-12c2.88-0.48,13.319-7.8,17.76-7.2
	c3.12-3.719,6.24-8.16,10.08-11.04c3.84-2.88,8.161-2.88,10.08-5.28c1.92-2.4,1.439-6.721,7.2-10.561
	c5.76-3.839,10.561-6.239,12.96-8.16c2.399-1.92,7.68-0.48,9.6-2.4c1.92-1.92,1.92-9.12,3.839-10.56
	c1.921-1.44-6.239,3.36-10.559,5.28c-4.32,1.92-10.56,5.28-15.84,4.8s-2.401,2.879-5.28,3.84c-2.88,0.96-7.68,0.48-9.601,2.4
	c-1.92,1.92-5.279,6.72-8.159,8.64c-2.881,1.919-4.32,1.44-7.2,2.88c-2.881,1.44-5.28,2.88-7.68,3.84
	c-2.4,0.96-9.601,0.48-9.601,0.48s-6.24,8.16-9.12,11.04c-2.88,2.88-6.24,2.4-9.12,3.84c-2.88,1.439-27.36,17.28-44.159,19.68
	c-16.801,2.399-9.121-1.44-14.4,0c-5.279,1.44-12.961,11.519-19.2,12c-6.24,0.48-8.16,0-9.6,0c-1.44,0-9.12,4.8-13.92,3.84
	c-7.08,2.16-12.359,1.68-14.4,1.439c-2.04-0.239-5.76,2.4-11.04,0c-4.08-1.319-4.08,1.56-11.999-0.959
	c-7.921-2.52-13.441,0.96-17.281-0.96c-3.84-1.92-3.36-3.36-6.24-3.36c-2.88,0-2.88,1.92-6.24,1.92
	c-3.36,0-3.84-1.92-6.72-1.92c-2.88,0-6.24,1.92-10.56,1.44c-4.32-0.48-5.76-2.4-8.64-2.4
	C443.496,192.309,427.656,185.589,427.656,185.589z" />
<g fill="#006651">
<path d="M476.765,478.801c8.334-6,15.666-8,27-10c11.334-2,23.334-5.332,29.666-7 s-21.332,8-28.332,10C498.099,473.801,476.765,478.801,476.765,478.801z" />
<path d="M522.432,461.133c-2.332-14.332,3.332-29.332,16.332-35.332 C541.764,436.133,532.432,453.801,522.432,461.133z" />
<path d="M544.383,453.674c-6.951-11.873,4.814-27.188,13.432-34.697 C561.766,426.133,554.766,447.467,544.383,453.674z"/>
<path d="M564.766,444.467c-7.432-10.182,1.332-28,10.666-35 C579.098,419.467,575.432,437.467,564.766,444.467z"/>
<path d="M585.154,431.734c-6.723-9.602-2.055-24.602,7.611-34.268 C599.766,405.467,593.766,422.801,585.154,431.734z"/>
<path d="M601.432,418.801c-5.666-9,1.334-30.668,10.334-36.668 C615.766,390.133,612.766,412.801,601.432,418.801z"/>
<path d="M614.432,415.467c-1.666-13,21.002-27.334,30.334-27 C643.766,399.133,634.098,410.801,614.432,415.467z"/>
<path d="M601.766,430.133c10.666-11,31.332-11,38.666-8.666 C638.432,427.801,614.1,441.799,601.766,430.133z"/>
<path d="M587.098,441.133c15-4,24.668-7.334,33.668,2 C614.432,451.133,590.098,448.799,587.098,441.133z"/>
<path d="M565.766,450.801c14.332-7.668,31.666,3.666,34.332,10.332 C584.098,467.801,565.434,452.469,565.766,450.801z"/>
<path d="M546.098,461.801c13-5,28,1.668,34,9 C573.098,474.133,554.764,477.801,546.098,461.801z"/>
<path d="M528.1,467.467c15-1.666,29.393,9.686,32.529,16.176 C541.432,485.467,534.1,479.801,528.1,467.467z"/>
<path d="M523.268,478.801c-8.334-6-15.666-8-27-10c-11.334-2-23.334-5.332-29.667-7 s21.333,8,28.333,10C501.934,473.801,523.268,478.801,523.268,478.801z"/>
<path d="M477.6,461.133c2.333-14.332-3.332-29.332-16.333-35.332 C458.267,436.133,467.6,453.801,477.6,461.133z"/>
<path d="M455.649,453.674c6.951-11.873-4.814-27.188-13.432-34.697 C438.266,426.133,445.266,447.467,455.649,453.674z"/>
<path d="M435.266,444.467c7.432-10.182-1.332-28-10.666-35 C420.934,419.467,424.6,437.467,435.266,444.467z"/>
<path d="M414.877,431.734c6.723-9.602,2.055-24.602-7.611-34.268 C400.266,405.467,406.266,422.801,414.877,431.734z"/>
<path d="M398.6,418.801c5.666-9-1.334-30.668-10.334-36.668 C384.266,390.133,387.266,412.801,398.6,418.801z"/>
<path d="M385.6,415.467c1.666-13-21.002-27.334-30.334-27 C356.266,399.133,365.934,410.801,385.6,415.467z"/>
<path d="M398.266,430.133c-10.666-11-31.332-11-38.666-8.666 C361.6,427.801,385.932,441.799,398.266,430.133z"/>
<path d="M412.934,441.133c-15-4-24.668-7.334-33.668,2 C385.6,451.133,409.934,448.799,412.934,441.133z"/>
<path d="M434.266,450.801c-14.332-7.668-31.666,3.666-34.332,10.332 C415.934,467.801,434.598,452.469,434.266,450.801z"/>
<path d="M453.934,461.801c-13-5-28,1.668-34,9 C426.934,474.133,445.268,477.801,453.934,461.801z"/>
<path d="M471.933,467.467c-15-1.666-29.394,9.686-32.53,16.176 C458.6,485.467,465.933,479.801,471.933,467.467z"/>
</g>
</svg>
