<?xml version="1.0" encoding="UTF-8"?>
<svg version="1.0" xmlns="http://www.w3.org/2000/svg" xmlns:xlink="http://www.w3.org/1999/xlink" width="2400" height="1200"><rect width="2400" height="1200" style="fill:#d81f30"/><use transform="translate(0,-420)" id="use3767" xlink:href="#polygon22"/><rect width="800" height="1200" x="800" y="0" style="fill:#0066b3"/><path d="m 509.999,411.90612 c 0,-0.62 -0.0128,-1.26 -0.0239,-1.9 -18.534,41.61001 -60.7962,69.99389 -109.9751,69.99389 -49.1799,0 -91.4421,-28.38388 -109.976,-69.99389 -0.0106,0.62 -0.0239,1.26 -0.0239,1.9 0,59.70001 49.2484,108.09389 110,108.09389 60.75,0 109.99801,-48.39388 109.99801,-108.09389 z" id="crescent" style="fill:#ffd400"/><path d="m 350,230.00223 c 10e-4,27.60778 22.3913,49.99778 50.0008,49.99778 27.6094,0 49.9996,-22.39 49.9996,-49.99778 0,-20.00222 -12.4996,-22.5 -12.4996,-30.00222 0,-7.5 7.5,-17.5 -7.5,-30 7.5,12.5 -4.9996,15 -4.9996,27.5 -10e-4,12.5 4.9996,12.5 4.9996,22.5 0,5.52222 -4.47756,10.00222 -9.9992,10.00222 -5.52284,0 -10.0004,-4.48 -10.0004,-10.00222 0,-10 10.0004,-20 10.0004,-35 0,-15 -2.5004,-20 -10.0004,-32.5 -7.50117,-12.49778 -20.00082,-22.5 -10.0016,-32.5 -15,5 -7.49882,25 -7.49882,37.5 0,12.5 -10.00042,20.00222 -10.00042,35.00222 0,15 7.5,17.49778 7.5,27.49778 0,5.52222 -4.47756,10.00222 -9.9992,10.00222 -5.52283,0 -10.0004,-4.48 -10.0004,-10.00222 0,-10 4.9996,-10 4.9996,-22.5 0,-12.49778 -12.4996,-15 -4.9996,-27.49778 -15,12.49778 -7.5,22.5 -7.5,30 0,7.5 -12.4996,10 -12.4996,30 m -0.001,0 0,0 0,0 z" id="flame" style="fill:#ffd400"/><ellipse cx="400" cy="380" rx="80" ry="80" id="moon" style="fill:#ffd400"/><path d="m 400,680.03446 c -55.2283,0 -100,44.77278 -100,100 0,38.04056 21.16206,71.11889 52.43056,88.02111 -7.2366,-9.79611 -11.45834,-21.95555 -11.45834,-35.06944 0,-16.29222 6.68514,-30.98834 17.36112,-41.66667 10.6772,-10.67555 25.37446,-17.36111 41.66666,-17.36111 12.9756,-0.002 24.65813,-5.21389 33.15973,-13.715 8.50393,-8.50444 13.88888,-20.18 13.88888,-33.16 0,-12.98 -5.38498,-24.82945 -13.88888,-33.33333 -8.20867,-8.20834 -19.32794,-13.365 -31.77084,-13.71556 -0.44878,-0.005 -0.93889,0 -1.38889,0 z m 47.39584,11.97944 c 7.23897,9.79612 11.63194,21.95334 11.63194,35.06945 0,16.29222 -6.68513,30.98833 -17.36111,41.66667 -10.6772,10.67555 -25.37447,17.18777 -41.66667,17.18777 -12.9756,0.001 -24.65692,5.38612 -33.15972,13.88889 -8.50394,8.50167 -13.88889,20.17945 -13.88889,33.15945 0,12.98 5.38499,24.82944 13.88889,33.33333 8.20866,8.20778 19.32903,13.36278 31.77083,13.715 0.45239,0 0.93529,0 1.38889,0 55.22828,0 100,-44.77111 100,-100 0,-38.04333 -21.32856,-71.11833 -52.60416,-88.02056 z M 400,706.94446 c 11.04581,0 19.96528,9.09278 19.96528,20.13889 0,11.04611 -8.91947,19.96556 -19.96528,19.96556 -11.0458,0 -19.96527,-8.91945 -19.96527,-19.96556 0,-11.04611 8.91947,-20.13889 19.96527,-20.13889 z m 0,106.07667 c 11.04581,0 19.96528,8.91889 19.96528,19.965 0,11.04611 -8.91947,19.965 -19.96528,19.965 -11.0458,0 -19.96527,-8.91889 -19.96527,-19.965 0,-11.04611 8.91947,-19.965 19.96527,-19.965 z" id="yinyang" style="fill:#ffd400"/><polygon points="500,940 500,900 300,900 300,940" id="cornered_stuff" style="fill:#ffd400"/><polygon points="500,660 500,620 300,620 300,660" id="cornered_stuff_0" style="fill:#ffd400"/><use transform="translate(340,0)" id="use3765" xlink:href="#cornered_stuff_2"/><polygon points="180,540 280,540 280,1020 180,1020" id="cornered_stuff_2" style="fill:#ffd400"/><polygon points="300,960 350,990 400,1020 450,990 500,960 400,960" id="polygon22" style="fill:#ffd400"/><use transform="translate(0,-280)" id="use3769" xlink:href="#cornered_stuff"/></svg>