<?xml version="1.0" encoding="UTF-8" standalone="no"?>
<svg
   xmlns:dc="http://purl.org/dc/elements/1.1/"
   xmlns:cc="http://creativecommons.org/ns#"
   xmlns:rdf="http://www.w3.org/1999/02/22-rdf-syntax-ns#"
   xmlns:svg="http://www.w3.org/2000/svg"
   xmlns="http://www.w3.org/2000/svg"
   xmlns:sodipodi="http://sodipodi.sourceforge.net/DTD/sodipodi-0.dtd"
   xmlns:inkscape="http://www.inkscape.org/namespaces/inkscape"
   inkscape:version="1.0beta1 (8bedaf4881, 2019-11-29)"
   sodipodi:docname="Flag_of_North_Macedonia.svg"
   id="svg12"
   version="1.1"
   fill="#f8e92e"
   viewBox="-140 -70 280 140"
   height="600"
   width="1200">
  <metadata
     id="metadata18">
    <rdf:RDF>
      <cc:Work
         rdf:about="">
        <dc:format>image/svg+xml</dc:format>
        <dc:type
           rdf:resource="http://purl.org/dc/dcmitype/StillImage" />
        <dc:title>Flag of North Macedonia</dc:title>
      </cc:Work>
    </rdf:RDF>
  </metadata>
  <defs
     id="defs16" />
  <sodipodi:namedview
     inkscape:current-layer="svg12"
     inkscape:window-maximized="1"
     inkscape:window-y="27"
     inkscape:window-x="0"
     inkscape:cy="462.81712"
     inkscape:cx="588.7706"
     inkscape:zoom="0.81248319"
     showgrid="false"
     id="namedview14"
     inkscape:window-height="1016"
     inkscape:window-width="1920"
     inkscape:pageshadow="2"
     inkscape:pageopacity="0"
     guidetolerance="10"
     gridtolerance="10"
     objecttolerance="10"
     borderopacity="1"
     inkscape:document-rotation="0"
     bordercolor="#666666"
     pagecolor="#ffffff" />
  <title
     id="title2">Flag of North Macedonia</title>
  <path
     id="path4"
     d="m-140-70h280V70h-280z"
     fill="#d82126" />
  <g
     style="opacity:1"
     transform="matrix(0.23333333,0,0,0.23333333,-140,-70)"
     id="g882">
    <path
       id="path884"
       d="m 0,0 502.5332,255.50781 c 3.35016,-7.33906 7.5185,-14.27626 12.42578,-20.67969 L 180,0 Z m 540,0 49.22852,193.40039 c 3.5791,-0.3617 7.17415,-0.54292 10.77148,-0.54297 3.59733,5e-5 7.19238,0.18127 10.77148,0.54297 L 660,0 Z m 480,0 -334.95898,234.82812 c 4.90715,6.40282 9.07549,13.33936 12.42578,20.67774 L 1200,0 Z M 0,240 v 120 l 493.38867,-49.33789 c -0.35414,-3.543 -0.53144,-7.10145 -0.53125,-10.66211 -1.9e-4,-3.56066 0.17711,-7.11911 0.53125,-10.66211 z m 1200,0 -493.38867,49.33789 c 0.35414,3.543 0.53144,7.10145 0.53125,10.66211 1.9e-4,3.56066 -0.17711,7.11911 -0.53125,10.66211 L 1200,360 Z M 697.4668,344.49219 c -3.35016,7.33906 -7.5185,14.27626 -12.42578,20.67969 L 1020,600 h 180 z m -194.9336,0.002 L 0,600 H 180 L 514.95898,365.17188 c -4.90715,-6.40282 -9.07549,-13.33936 -12.42578,-20.67774 z M 589.22852,406.59961 540,600 H 660 L 610.77148,406.59961 c -3.5791,0.3617 -7.17415,0.54292 -10.77148,0.54297 -3.59733,-5e-5 -7.19238,-0.18127 -10.77148,-0.54297 z"
       style="color:#000000;font-style:normal;font-variant:normal;font-weight:normal;font-stretch:normal;font-size:medium;line-height:normal;font-family:sans-serif;font-variant-ligatures:normal;font-variant-position:normal;font-variant-caps:normal;font-variant-numeric:normal;font-variant-alternates:normal;font-variant-east-asian:normal;font-feature-settings:normal;font-variation-settings:normal;text-indent:0;text-align:start;text-decoration:none;text-decoration-line:none;text-decoration-style:solid;text-decoration-color:#000000;letter-spacing:normal;word-spacing:normal;text-transform:none;writing-mode:lr-tb;direction:ltr;text-orientation:mixed;dominant-baseline:auto;baseline-shift:baseline;text-anchor:start;white-space:normal;shape-padding:0;shape-margin:0;inline-size:0;clip-rule:nonzero;display:inline;overflow:visible;visibility:visible;isolation:auto;mix-blend-mode:normal;color-interpolation:sRGB;color-interpolation-filters:linearRGB;solid-color:#000000;solid-opacity:1;vector-effect:none;fill:#f8e92e;fill-opacity:1;fill-rule:nonzero;stroke-width:4.28571;stroke-linecap:butt;stroke-linejoin:miter;stroke-miterlimit:4;stroke-dasharray:none;stroke-dashoffset:0;stroke-opacity:1.0;anonymous:0;color-rendering:auto;image-rendering:auto;shape-rendering:auto;text-rendering:auto;enable-background:accumulate;stop-color:#000000;stop-opacity:1;stroke:none;" />
    <path
       id="path886"
       d="M 0 -2.1425781 L -0.97070312 1.9101562 L 503.55469 258.43164 L 504.48242 256.39844 C 507.76558 249.20616 511.85102 242.40623 516.66016 236.13086 L 518.01953 234.35742 L 180.67578 -2.1425781 L 0 -2.1425781 z M 537.24414 -2.1425781 L 537.92383 0.52929688 L 587.60742 195.71875 L 589.44336 195.5332 C 592.95088 195.17874 596.47461 195.00005 600 195 C 603.52539 195.00005 607.04912 195.17874 610.55664 195.5332 L 612.39258 195.71875 L 662.75586 -2.1425781 L 537.24414 -2.1425781 z M 1019.3242 -2.1425781 L 1018.7695 -1.7539062 L 681.98047 234.35742 L 683.33984 236.13086 C 688.14885 242.40563 692.2343 249.20487 695.51758 256.39648 L 696.44531 258.42969 L 1200.9707 1.9101562 L 1200 -2.1425781 L 1019.3242 -2.1425781 z M 8.9414062 2.1425781 L 179.32422 2.1425781 L 512.00195 235.37109 C 508.01564 240.79926 504.54637 246.57452 501.625 252.64258 L 8.9414062 2.1425781 z M 542.75586 2.1425781 L 657.24414 2.1425781 L 609.12695 191.17383 C 606.08989 190.91912 603.04827 190.71488 600 190.71484 C 596.95173 190.71488 593.91011 190.91912 590.87305 191.17383 L 542.75586 2.1425781 z M 1020.6758 2.1425781 L 1191.0586 2.1425781 L 698.375 252.64062 C 695.45357 246.57323 691.98422 240.79866 687.99805 235.37109 L 1020.6758 2.1425781 z M -2.1425781 237.63281 L -2.1425781 240 L -2.1425781 362.36719 L 495.73438 312.58203 L 495.52148 310.44922 C 495.17443 306.97708 494.99981 303.48944 495 300 C 494.99981 296.51056 495.17443 293.02292 495.52148 289.55078 L 495.73438 287.41797 L -2.1425781 237.63281 z M 1202.1426 237.63281 L 1199.7871 237.86719 L 704.26562 287.41797 L 704.47852 289.55078 C 704.82557 293.02292 705.00019 296.51056 705 300 C 705.00019 303.48944 704.82557 306.97708 704.47852 310.44922 L 704.26562 312.58203 L 1202.1426 362.36719 L 1202.1426 237.63281 z M 2.1425781 242.36914 L 491.14844 291.26758 C 490.91548 294.17399 490.71469 297.08369 490.71484 300 C 490.71469 302.91631 490.91548 305.82601 491.14844 308.73242 L 2.1425781 357.63086 L 2.1425781 242.36914 z M 1197.8574 242.36914 L 1197.8574 357.63086 L 708.85156 308.73242 C 709.08452 305.82601 709.28531 302.91631 709.28516 300 C 709.28531 297.08369 709.08452 294.17399 708.85156 291.26758 L 1197.8574 242.36914 z M 696.44531 341.56836 L 695.51758 343.60156 C 692.23442 350.79384 688.14898 357.59377 683.33984 363.86914 L 681.98047 365.64258 L 1019.3242 602.14258 L 1200 602.14258 L 1200.9707 598.08984 L 696.44531 341.56836 z M 503.55469 341.57031 L 501.5625 342.58398 L -0.97070312 598.08984 L 0 602.14258 L 180.67578 602.14258 L 518.01953 365.64258 L 516.66016 363.86914 C 511.85115 357.59437 507.7657 350.79513 504.48242 343.60352 L 503.55469 341.57031 z M 698.375 347.35742 L 1191.0586 597.85742 L 1020.6758 597.85742 L 687.99805 364.62891 C 691.98436 359.20074 695.45363 353.42548 698.375 347.35742 z M 501.625 347.35938 C 504.54643 353.42677 508.01578 359.20134 512.00195 364.62891 L 179.32422 597.85742 L 8.9414062 597.85742 L 501.625 347.35938 z M 587.60742 404.28125 L 587.15234 406.07031 L 537.24414 602.14258 L 662.75586 602.14258 L 612.39258 404.28125 L 610.55664 404.4668 C 607.04912 404.82126 603.52539 404.99995 600 405 C 596.47461 404.99995 592.95088 404.82126 589.44336 404.4668 L 587.60742 404.28125 z M 590.87305 408.82617 C 593.91011 409.08088 596.95173 409.28512 600 409.28516 C 603.04827 409.28512 606.08989 409.08088 609.12695 408.82617 L 657.24414 597.85742 L 542.75586 597.85742 L 590.87305 408.82617 z "
       style="color:#000000;font-style:normal;font-variant:normal;font-weight:normal;font-stretch:normal;font-size:medium;line-height:normal;font-family:sans-serif;font-variant-ligatures:normal;font-variant-position:normal;font-variant-caps:normal;font-variant-numeric:normal;font-variant-alternates:normal;font-variant-east-asian:normal;font-feature-settings:normal;font-variation-settings:normal;text-indent:0;text-align:start;text-decoration:none;text-decoration-line:none;text-decoration-style:solid;text-decoration-color:#000000;letter-spacing:normal;word-spacing:normal;text-transform:none;writing-mode:lr-tb;direction:ltr;text-orientation:mixed;dominant-baseline:auto;baseline-shift:baseline;text-anchor:start;white-space:normal;shape-padding:0;shape-margin:0;inline-size:0;clip-rule:nonzero;display:inline;overflow:visible;visibility:visible;isolation:auto;mix-blend-mode:normal;color-interpolation:sRGB;color-interpolation-filters:linearRGB;solid-color:#000000;solid-opacity:1;vector-effect:none;fill-opacity:1;fill-rule:nonzero;stroke-width:4.28571;stroke-linecap:butt;stroke-linejoin:miter;stroke-miterlimit:4;stroke-dasharray:none;stroke-dashoffset:0;stroke-opacity:1.0;anonymous:0;color-rendering:auto;image-rendering:auto;shape-rendering:auto;text-rendering:auto;enable-background:accumulate;stop-color:#000000;stop-opacity:1;stroke:none;" />
  </g>
  <g
     style="opacity:1"
     id="g48">
    <path
       inkscape:connector-curvature="0"
       id="path50"
       d="M 20,-3.3333329e-8 C 20,11.045695 11.045695,20 0,20 -11.045695,20 -20,11.045695 -20,-3.3333329e-8 -20,-11.045695 -11.045695,-20 0,-20 11.045695,-20 20,-11.045695 20,-3.3333329e-8"
       style="color:#000000;font-style:normal;font-variant:normal;font-weight:normal;font-stretch:normal;font-size:medium;line-height:normal;font-family:sans-serif;font-variant-ligatures:normal;font-variant-position:normal;font-variant-caps:normal;font-variant-numeric:normal;font-variant-alternates:normal;font-variant-east-asian:normal;font-feature-settings:normal;font-variation-settings:normal;text-indent:0;text-align:start;text-decoration:none;text-decoration-line:none;text-decoration-style:solid;text-decoration-color:#000000;letter-spacing:normal;word-spacing:normal;text-transform:none;writing-mode:lr-tb;direction:ltr;text-orientation:mixed;dominant-baseline:auto;baseline-shift:baseline;text-anchor:start;white-space:normal;shape-padding:0;shape-margin:0;inline-size:0;clip-rule:nonzero;display:inline;overflow:visible;visibility:visible;isolation:auto;mix-blend-mode:normal;color-interpolation:sRGB;color-interpolation-filters:linearRGB;solid-color:#000000;solid-opacity:1;vector-effect:none;fill:#f8e92e;fill-opacity:1;fill-rule:nonzero;stroke:none;stroke-width:1;stroke-linecap:butt;stroke-linejoin:miter;stroke-miterlimit:4;stroke-dasharray:none;stroke-dashoffset:0;stroke-opacity:1;color-rendering:auto;image-rendering:auto;shape-rendering:auto;text-rendering:auto;enable-background:accumulate;stop-color:#000000;stop-opacity:1" />
  </g>
</svg>
