<?xml version="1.0" encoding="UTF-8" standalone="no"?>
<!DOCTYPE svg PUBLIC "-//W3C//DTD SVG 1.1//EN" "http://www.w3.org/Graphics/SVG/1.1/DTD/svg11.dtd">
<svg xmlns:svg="http://www.w3.org/2000/svg" xmlns="http://www.w3.org/2000/svg" version="1.1" width="1000" height="600" viewBox="0 0 1000 600" style="stroke:none;">
  <rect x="0" y="0"   width="1000" height="600" style="fill:#0067C6" />
  <rect x="0" y="200" width="1000" height="200" style="fill:#FFFFFF" />
  <g transform="matrix(0.307,0,0,0.309,358.8,111)">
    <path d="M 263.5,725.4 L 460.1,386.8 L 656.6,725.4 L 263.5,725.4 z" style="fill:#FFCE00" />
    <path d="M 282.9,714.2 L 460.0,409.1 L 637.2,714.2 L 282.9,714.2 z" style="fill:#84D6FF" />
  </g>
  <path d="M 500,238.2 L 500,310 M 474.1,282.4 L 526,282.4 M 480.9,271.5 L 538.9,304.9 M 519.7,271.3 L 461.1,305.1 M 488.3,303 L 510.2,265 M 489.2,263.6 L 513.7,306.1" style="stroke:#ffffff;stroke-width:0.5" />
  <circle cx="500" cy="282.4" r="8" style="fill:#84D6FF"/>
  <g transform="matrix(1.629,0,0,1.648,443.8,251)">
    <path d="M 61.83,38.44 L 45.31,38.69 C 45.31,38.69 45.39,41.1 46.47,41.19 C 47.56,41.27 61.22,41.02 61.81,42.1 C 62.39,43.19 48.47,43.77 48.47,43.77 C 48.47,43.77 60.72,43.69 61.39,44.6 C 62.06,45.52 54.64,45.69 55.22,45.85 C 55.81,46.02 63.89,45.69 64.64,46.6 C 65.39,47.52 60.97,48.1 60.97,48.1 C 60.97,48.1 67.64,48.75 67.83,48.73 C 66.22,45.95 61.83,38.44 61.83,38.44 z" style="fill:#317CA6" />
    <path d="M 32.04,15.87 C 31.51,16.22 33.28,16.44 33.12,17.59 C 33,18.42 32.04,19.51 31.62,20.26 C 31.2,21.01 33.54,23.74 35.7,22.26 C 37.88,20.77 37.61,18.08 36.87,17.59 C 35.14,16.47 34.02,14.75 32.04,15.87 z" style="fill:#D21734" />
    <path d="M 32,20.76 C 31.66,19.84 33.12,20.26 33.79,20.68 C 34.45,21.09 35.61,22.18 34.78,22.29" style="fill:none; stroke:#000000; stroke-width:0.30;stroke-linecap:round;" />
    <path d="M 20.31,25.75 C 22.26,25.3 22.81,27.56 23.43,27.94 C 24.06,28.31 25.74,28.5 26.18,28.75 C 26.62,29 28.31,30.13 28.31,30.13 C 28.31,30.13 29.06,28.13 29.93,27.94 C 30.81,27.75 34.56,30.31 34.56,30.31 C 34.56,30.31 34.99,27.94 35.99,28.25 C 36.99,28.56 41.99,32.31 41.99,32.31 C 41.99,32.31 42.24,31 43.31,30.63 C 44.37,30.25 48.06,32.5 48.06,32.5 C 48.06,32.5 48.5,30.69 49.25,30.69 C 51.42,30.69 58.52,38.29 60.09,38.46 C 60.82,38.54 57.5,39.5 57.5,39.5 C 57.5,39.5 58.06,40 57.75,40.44 C 57.43,40.88 47.62,40.5 47.62,40.5 C 47.62,40.5 47.91,41.16 47.74,41.38 C 47.45,41.76 5.046,42.04 5.046,42.04 C 8.993,35.3 16.81,26.56 20.31,25.75 z" style="fill:#57702E" />
    <path d="M 37.05,41.7 C 38.55,41.32 37.49,37.25 29.37,31.06 C 42.24,39.85 34.06,41.06 47.22,41.44 C 44.86,41.6 37.05,41.7 37.05,41.7 z" style="fill:#1D332F" />
    <path d="M 34.99,30.75 C 34.99,30.75 47.16,40.04 47.64,40.5 C 48.26,40.52 50.26,40.59 50.26,40.59 C 50.26,40.59 48.58,40.47 34.99,30.75 z" style="fill:#1D332F" />
    <path d="M 42.24,32.56 C 42.24,32.56 52.45,40.53 50.81,40.56 C 49.12,40.6 56.39,40.78 57.67,40.49 C 51.05,40.1 52.42,39.83 42.24,32.56 z "  style="fill:#1D332F" />
    <path d="M 48.43,32.88 L 57.49,39.5 C 57.49,39.5 58.88,39.11 59.62,38.81 C 56.93,39.2 56.46,38 48.43,32.88 z" style="fill:#1D332F" />
    <path d="M 21.92,26.64 C 22.61,27.11 22.79,28.01 23.23,28.26 C 23.67,28.51 27.86,30.45 30.17,32.82 C 32.48,35.2 35.98,38.2 34.73,38.57 C 33.48,38.95 32.29,37.64 32.29,37.64 C 32.29,37.64 34.04,40.45 31.73,40.64 C 29.42,40.82 23.73,32.32 23.73,32.32 C 23.73,32.32 26.48,40.01 22.98,39.7 C 19.48,39.38 19.86,33.88 19.86,33.88 C 19.86,33.88 18.92,36.51 18.23,36.45 C 17.54,36.38 18.23,33.01 18.23,33.01 C 18.23,33.01 14.23,39.63 12.67,38.88 C 11.1,38.13 18.82,26.07 21.92,26.64 z" style="fill:#8DC32E" />
    <path d="M 30.24,28.89 C 30.14,28.25 30.74,28.46 31.99,29.08 C 33.24,29.69 43.31,37.39 43.06,38.19 C 42.81,38.99 30.81,32.56 30.24,28.89 z" style="fill:#8DC32E" />
    <path d="M 37.68,30.19 C 36.94,30.02 45.68,38.81 47.74,38.25 C 49.81,37.69 38.24,30.31 37.68,30.19 z" style="fill:#8DC32E" />
    <path d="M 43.74,30.94 C 42.79,30.86 52.24,39.31 54.31,38.88 C 56.37,38.44 45.24,31.06 43.74,30.94 z" style="fill:#8DC32E" />
    <path d="M 49.31,31.42 C 48.25,31.6 56.38,37.78 57.38,37.72 C 58.38,37.66 51.72,31.01 49.31,31.42 z" style="fill:#8DC32E" />
    <path d="M 21.3,14.22 C 21.3,14.22 26.3,8.438 34.48,8.438 C 42.67,8.438 47.68,14.21 47.68,14.21 L 45.69,10.75 C 45.69,10.75 41.62,6.698 34.5,6.698 C 27.37,6.698 23.35,10.69 23.35,10.69 L 21.3,14.22 z" style="fill:#c0148c" />
    <path d="M 44.43,8.608 C 44.43,8.608 40.86,5.602 34.49,5.602 C 28.11,5.602 24.55,8.652 24.55,8.652 L 22.91,11.44 C 22.91,11.44 26.74,7.109 34.49,7.109 C 42.24,7.109 46.1,11.45 46.1,11.45 L 44.43,8.608 z" style="fill:#d21734" />
    <path d="M 43.19,6.183 C 43.19,6.183 39.93,3.761 34.49,3.761 C 29.05,3.761 26.12,5.938 26.12,5.938 L 24.37,8.938 C 24.37,8.938 27.63,5.757 34.5,5.757 C 41.38,5.757 44.64,8.938 44.64,8.938 L 43.19,6.183 z" style="fill:#fdce12" />
    <path d="M 41.66,3.898 L 43.22,6.563 C 43.22,6.563 39.99,4.205 34.49,4.205 C 28.99,4.205 25.68,6.688 25.68,6.688 L 27.27,4 C 27.27,4 29.49,2.375 34.49,2.375 C 39.49,2.375 41.66,3.898 41.66,3.898 z" style="fill:#8DC32E" />
    <path d="M 40.57,2.052 L 41.9,4.302 C 41.9,4.302 38.74,2.711 34.49,2.711 C 30.24,2.711 26.86,4.688 26.86,4.688 L 28.13,2.521 C 28.13,2.521 30.36,1.188 34.49,1.188 C 38.61,1.188 40.57,2.052 40.57,2.052 z" style="fill:#4e94c2" />
    <path d="M 39.88,0.8478 L 40.93,2.674 C 40.93,2.674 38.93,1.387 34.49,1.387 C 30.06,1.387 28.04,2.669 28.04,2.669 L 29.13,0.7829 C 29.13,0.7829 31.09,0.08074 34.49,0.08074 C 37.97,0.08074 39.88,0.8478 39.88,0.8478 z" style="fill:#1B4895" />
    <path d="M 26.39,42.6 L 43.06,42.77 C 43.06,42.77 40.14,43.1 40.22,43.44 C 40.31,43.77 46.14,43.94 46.14,43.94 C 46.14,43.94 42.56,44.19 42.47,44.52 C 42.39,44.85 44.14,45.02 44.14,45.02 C 44.14,45.02 40.89,45.35 40.89,45.69 C 40.89,46.02 45.06,46.19 44.72,46.19 C 44.39,46.19 39.22,46.27 39.22,46.69 C 39.22,47.1 42.93,47.98 42.93,47.98 L 21.06,48.35 C 21.06,48.35 24.47,47.85 24.47,47.19 C 24.47,46.52 22.06,46.35 22.06,46.35 C 22.06,46.35 30.97,46.52 31.39,46.1 C 31.81,45.69 29.52,45.39 29.52,45.39 C 29.52,45.39 33.06,45.6 33.31,45.19 C 33.56,44.77 28.56,44.1 28.56,44.1 C 28.56,44.1 31.47,44.19 31.89,43.69 C 32.3,43.19 26.39,42.6 26.39,42.6 z" style="fill:#FFFFFF" />
    <path d="M 23.22,43.02 C 23.22,43.02 6.806,43.52 5.389,44.44 C 3.972,45.35 14.56,46.27 14.56,46.27 C 14.56,46.27 3.639,46.35 2.806,47.35 C 1.973,48.35 9.306,48.19 9.306,48.19 L 1.119,48.76 L 5.038,42.06 L 23.22,43.02 z" style="fill:#317CA6" />
  </g>
  <g transform="matrix(0.896,0,0,0.896,410,210)" style="fill:#FDCE12">
    <path d="M 12.62,128.3 C 12.94,129.4 12.37,130.5 11.32,130.8 C 10.3,131.1 9.19,130.6 8.865,129.5 C 8.534,128.5 9.109,127.4 10.14,127 C 11.18,126.7 12.29,127.3 12.62,128.3 z" />
    <path d="M 15.77,147.4 C 14.57,148.5 13.65,149.1 14.45,150.9 L 13.81,151.2 L 10.56,144.4 L 11.2,144.1 C 11.83,145.3 12.22,145.5 12.8,145.2 C 13.17,145 13.52,144.7 13.82,144.4 L 15.78,142.6 L 13.41,137.7 L 11.99,137.8 C 11.4,137.9 10.71,138 10.17,138.2 C 9.178,138.7 9.216,139.8 9.565,140.7 L 8.924,141 L 6.46,135.8 L 7.101,135.5 C 8.468,137.1 9.624,137 11.5,136.8 L 23.41,135.8 L 25.68,138.2 L 15.77,147.4 z M 21.85,137 L 14.51,137.6 L 16.54,141.9 L 21.85,137 z" />
    <path d="M 26.51,164.2 C 25.29,165.1 25.23,165.8 26.15,167.1 L 25.58,167.5 L 21.02,161.3 L 21.59,160.9 C 22.5,162.1 23.2,162.3 24.42,161.4 L 33.51,154.7 L 33.48,154.7 L 19.36,159 L 18.9,158.4 L 26.92,146.5 L 26.89,146.4 L 19.83,151.6 C 17.06,153.7 16.83,154.1 17.81,155.7 L 17.23,156.2 L 14.01,151.8 L 14.58,151.3 C 16,152.7 16.38,152.8 19.17,150.7 L 25.85,145.8 C 27.15,144.9 27.06,144.1 26.21,143 L 26.78,142.5 L 30.51,147.6 L 24.59,156.2 L 34.64,153.2 L 38.27,158.2 L 37.7,158.6 C 36.7,157.4 36.19,157.1 34.87,158.1 L 26.51,164.2 z " />
    <path  d="M 29.05,169.9 C 30.2,170.9 30.92,170.9 31.92,169.8 L 38.83,162 C 39.83,160.9 39.75,160.2 38.59,159.2 L 39.06,158.6 L 48.75,167.3 L 47.08,171.2 L 46.4,171 C 46.56,168.6 45.96,165.9 44.12,164.3 C 42.7,163 42.27,163.5 41.2,164.7 L 38.41,167.8 L 38.73,168.1 C 40.34,169.5 41.29,169.9 43.28,168.8 L 43.91,169.3 L 39.77,174 L 39.14,173.4 C 40.16,171.4 39.67,170.3 38.09,168.9 L 37.74,168.6 L 34.72,172 C 33.88,172.9 33.42,173.6 34.56,174.6 C 36.56,176.4 39.34,176.9 41.9,176.5 L 42.13,177.1 L 38.26,179 L 28.58,170.4 L 29.05,169.9 z" />
    <path d="M 53.84,185 C 53.74,186.7 53.66,188.2 55.16,189.3 L 54.78,189.9 L 50.27,187.1 C 50.26,186.4 50.38,185.7 50.45,185.1 L 50.8,182.1 C 51.18,179.1 50.59,178.4 49.83,177.9 L 47.27,182 C 46.47,183.3 46.67,184 47.99,184.8 L 47.61,185.4 L 41.08,181.3 L 41.46,180.7 C 42.77,181.6 43.48,181.4 44.27,180.2 L 49.78,171.4 C 50.58,170.1 50.37,169.4 49.06,168.6 L 49.44,168 L 57.28,172.9 C 59.98,174.6 60.73,177.1 59.52,179 C 58.26,181 55.9,180.9 53.94,180.1 C 54.27,180.8 54.16,181.6 54.09,182.4 L 53.84,185 z M 50.71,177.3 C 53.72,179.2 55.25,178.8 56.46,176.8 C 57.61,175 56.96,173.7 55.01,172.5 C 53.81,171.7 53.47,172.1 52.82,173.2 L 50.36,177.1 L 50.71,177.3 z" />
    <path d="M 62.91,179 C 63.53,177.6 63.24,176.9 61.83,176.3 L 62.12,175.7 L 69.14,178.8 L 68.84,179.5 C 67.43,178.8 66.75,179.1 66.12,180.4 L 61.83,189.9 C 61.21,191.2 61.5,191.9 62.91,192.5 L 62.62,193.2 L 55.61,190 L 55.9,189.3 C 57.31,190 58,189.8 58.62,188.4 L 62.91,179 z" />
    <path d="M 80.09,187.2 L 79.08,187.1 C 78.81,184.9 77.79,182.2 75.46,181.5 C 72.34,180.5 70.38,184.2 69.6,186.6 C 68.01,191.5 69.81,194.4 72.1,195.1 C 74.13,195.8 75.88,194.8 77.43,193.6 L 77.84,194.2 C 75.65,196.2 73.19,197.2 70.22,196.3 C 66.15,194.9 64.37,190.6 65.64,186.7 C 67.01,182.4 71.19,179.2 75.43,180.6 C 76.17,180.8 76.71,181.2 77.17,181.5 C 77.63,181.8 78,182.1 78.41,182.3 C 78.95,182.4 79.52,182.3 80.06,182.3 L 80.32,182.2 L 80.09,187.2 z" />
    <path d="M 90.9,196.8 C 91.12,198.4 91.16,199.5 93.06,199.9 L 92.95,200.6 L 85.49,199.4 L 85.6,198.7 C 86.97,198.9 87.33,198.6 87.44,198 C 87.5,197.6 87.44,197.1 87.38,196.7 L 87.01,194.1 L 81.6,193.2 L 80.91,194.5 C 80.63,195 80.3,195.6 80.2,196.2 C 80.03,197.3 80.94,197.9 81.86,198.1 L 81.75,198.8 L 76.1,197.9 L 76.21,197.2 C 78.28,197 78.87,196 79.81,194.3 L 85.72,183.9 L 88.98,183.4 L 90.9,196.8 z M 85.8,185.9 L 82.18,192.3 L 86.83,193 L 85.8,185.9 z" />
    <path d="M 113,188.6 L 112.1,189 C 111,187 109.1,184.8 106.7,185 C 103.4,185.2 102.9,189.4 103.1,191.9 C 103.4,197.1 106.1,199.1 108.5,198.9 C 110.6,198.8 111.9,197.2 112.9,195.6 L 113.5,196 C 112.2,198.6 110.3,200.5 107.1,200.7 C 102.9,200.9 99.65,197.5 99.4,193.4 C 99.13,188.9 101.9,184.4 106.3,184.2 C 107.1,184.1 107.7,184.2 108.3,184.4 C 108.8,184.5 109.3,184.7 109.7,184.6 C 110.3,184.6 110.8,184.3 111.2,184.1 L 111.5,183.9 L 113,188.6 z" />
    <path d="M 116,198.8 C 117.5,198.5 118,197.9 117.6,196.4 L 115.3,186.3 C 114.9,184.9 114.3,184.5 112.8,184.9 L 112.6,184.2 L 125.3,181.2 L 127.5,184.9 L 126.9,185.3 C 125.1,183.8 122.5,182.7 120.2,183.3 C 118.3,183.7 118.4,184.4 118.8,185.9 L 119.7,190 L 120.2,189.9 C 122.3,189.4 123.1,188.8 123.3,186.6 L 124.1,186.4 L 125.5,192.4 L 124.7,192.6 C 123.7,190.6 122.5,190.4 120.4,190.9 L 120,191 L 121,195.4 C 121.3,196.6 121.6,197.4 123.1,197.1 C 125.7,196.5 127.7,194.5 128.9,192.2 L 129.5,192.3 L 128.8,196.6 L 116.2,199.5 L 116,198.8 z" />
    <path d="M 143,185.8 L 140.2,179.2 C 139.4,177.5 138.8,176.7 136.8,177.3 L 136.5,176.7 L 141.7,174.4 L 142,175.1 C 140.3,176.2 140.4,177 141.2,178.8 L 146,189.7 L 144.2,190.5 L 131.4,182.8 L 134.7,190.4 C 135.6,192.5 136,192.8 138.3,192.3 L 138.6,193 L 133,195.4 L 132.7,194.8 C 134.5,193.7 134.6,192.9 133.8,191.1 L 129.8,182 C 129,181.6 127.9,181.5 127,181.7 L 126.7,181 L 131.7,178.8 L 143,185.8 z" />
    <path d="M 153.2,166.5 L 156.6,169.4 L 156.1,170 C 154.3,169.3 151.6,168.7 149.8,169.8 L 156.7,179.9 C 157.6,181.1 158.3,181.2 159.6,180.4 L 160,180.9 L 153.6,185.3 L 153.2,184.7 C 154.5,183.8 154.7,183.1 153.8,181.9 L 146.9,171.8 C 145.3,173.2 144.9,175.6 144.9,177.6 L 144.1,177.9 L 142.6,173.8 L 153.2,166.5 z" />
    <path d="M 171.6,165.6 C 173.2,166.1 174.7,166.6 176.1,165.4 L 176.6,165.9 L 172.8,169.6 C 172.1,169.5 171.5,169.2 170.9,169 L 168.1,167.9 C 165.2,166.8 164.5,167.3 163.8,167.9 L 167.2,171.3 C 168.2,172.4 169,172.4 170.1,171.3 L 170.6,171.8 L 165.1,177.2 L 164.6,176.7 C 165.7,175.6 165.7,174.9 164.7,173.8 L 157.4,166.4 C 156.3,165.3 155.6,165.4 154.5,166.4 L 154,165.9 L 160.6,159.5 C 162.9,157.2 165.5,157.1 167.1,158.7 C 168.8,160.4 168.1,162.7 166.9,164.4 C 167.6,164.3 168.4,164.6 169.2,164.8 L 171.6,165.6 z M 163.4,166.9 C 165.9,164.4 165.9,162.8 164.3,161.2 C 162.8,159.6 161.3,160 159.7,161.6 C 158.7,162.6 159,163 159.9,163.9 L 163.1,167.2 L 163.4,166.9 z" />
    <path d="M 182.6,151.6 C 184.1,152.1 185.2,152.6 186.3,151 L 186.9,151.5 L 182.5,157.6 L 182,157.2 C 182.7,156.1 182.7,155.6 182.2,155.3 C 181.8,155 181.4,154.9 181,154.7 L 178.5,153.9 L 175.3,158.4 L 176.1,159.5 C 176.5,160 176.9,160.6 177.3,160.9 C 178.2,161.6 179.2,161 179.8,160.3 L 180.3,160.7 L 177,165.4 L 176.4,164.9 C 177.2,163 176.5,162 175.5,160.5 L 168.8,150.5 L 169.8,147.4 L 182.6,151.6 z M 170.6,151.3 L 174.7,157.4 L 177.5,153.6 L 170.6,151.3 z" />
    <path d="M 186.7,150.2 C 187.4,148.8 187.2,148.1 185.8,147.4 L 176.5,142.8 C 175.2,142.1 174.5,142.4 173.8,143.8 L 173.2,143.5 L 176.6,136.6 L 177.3,136.9 C 176.6,138.3 176.7,139 178.1,139.6 L 187.4,144.2 C 188.5,144.8 189.1,145 189.8,143.6 C 190.9,141.3 190.4,138.5 189.4,136.2 L 189.8,135.8 L 193.1,138.9 L 187.3,150.5 L 186.7,150.2 z" />
    <path d="M 188.3,128.3 C 188.6,127.3 189.7,126.8 190.7,127.1 C 191.8,127.4 192.3,128.5 192,129.5 C 191.7,130.6 190.6,131.2 189.5,130.8 C 188.5,130.5 187.9,129.4 188.3,128.3 z" />
    <path d="M 12.72,109 C 14.04,108 15.25,107.1 15.09,105.2 L 15.79,105.1 L 16.61,110.4 C 16.11,110.8 15.52,111.2 14.97,111.6 L 12.51,113.2 C 9.965,114.9 9.861,115.8 10,116.7 L 14.76,115.9 C 16.25,115.7 16.64,115.1 16.4,113.6 L 17.1,113.5 L 18.29,121.1 L 17.59,121.2 C 17.35,119.7 16.8,119.2 15.31,119.4 L 5.059,121 C 3.571,121.3 3.186,121.9 3.426,123.4 L 2.724,123.5 L 1.294,114.4 C 0.802,111.2 2.2,109 4.454,108.7 C 6.793,108.3 8.221,110.2 8.923,112.2 C 9.266,111.4 9.958,111 10.6,110.5 L 12.72,109 z M 8.937,116.4 C 8.388,112.9 7.074,112 4.82,112.4 C 2.673,112.7 2.1,114.1 2.456,116.4 C 2.675,117.8 3.217,117.7 4.429,117.6 L 9,116.8 L 8.937,116.4 z" />
    <path d="M 15.19,104.3 C 15.25,102.8 14.79,102.2 13.29,102.2 L 2.923,101.8 C 1.418,101.7 0.924,102.2 0.865,103.8 L 0.156,103.8 L 0.648,90.8 L 4.721,89.6 L 4.975,90.28 C 3.049,91.64 1.373,93.82 1.28,96.27 C 1.207,98.19 1.852,98.21 3.444,98.27 L 7.637,98.43 L 7.654,98 C 7.736,95.85 7.406,94.89 5.262,94.08 L 5.294,93.24 L 11.51,93.47 L 11.48,94.31 C 9.283,94.81 8.747,95.89 8.666,98 L 8.648,98.47 L 13.19,98.64 C 14.43,98.69 15.28,98.59 15.34,97.06 C 15.44,94.4 14.02,91.95 12.13,90.2 L 12.45,89.63 L 16.39,91.4 L 15.9,104.4 L 15.19,104.3 z" />
    <path d="M 10.72,82.05 L 15.15,83.03 C 16.62,83.36 17.2,82.94 17.54,81.43 L 18.23,81.58 L 16.55,89.1 L 15.86,88.95 C 16.2,87.44 15.85,86.81 14.38,86.48 L 4.261,84.22 C 2.791,83.89 2.212,84.31 1.874,85.82 L 1.18,85.67 L 2.869,78.11 C 3.92,73.4 6.294,72.06 8.373,72.52 C 12.24,73.39 11.8,77.23 11.13,80.24 L 10.72,82.05 z M 9.903,81.86 L 10.18,80.62 C 10.74,78.12 10.08,76.74 7.598,76.19 C 5.309,75.67 4.045,76.69 3.604,78.67 C 3.224,80.37 3.854,80.51 5.303,80.83 L 9.903,81.86 z" />
    <path d="M 16.3,68.9 C 19.88,70.44 21.4,69.71 22.28,67.56 C 23.46,64.67 22.06,63.05 19.15,61.86 L 12.15,59.01 C 10.76,58.44 10.12,58.76 9.533,60.19 L 8.875,59.92 L 10.88,55.02 L 11.53,55.29 C 10.95,56.73 11.18,57.4 12.58,57.97 L 19.73,60.89 C 23.2,62.31 24.41,64.57 22.82,68.46 C 21.2,72.42 18.6,73.66 15.52,72.4 L 7.945,69.31 C 6.55,68.74 5.909,69.06 5.322,70.49 L 4.665,70.22 L 7.579,63.09 L 8.236,63.36 C 7.65,64.79 7.885,65.47 9.279,66.04 L 16.3,68.9 z" />
    <path d="M 25.06,61.86 L 24.46,61.48 C 25.29,60.17 25.18,59.46 23.91,58.65 L 15.15,53.09 C 13.88,52.28 13.2,52.48 12.36,53.79 L 11.77,53.41 L 15.95,46.82 C 18.9,42.18 20.98,42.08 22.59,43.11 C 24.47,44.29 24.13,46.76 23.45,48.54 L 23.48,48.57 C 25.16,46.81 27.23,45.21 29.68,46.77 C 31.82,48.13 32.23,50.58 29.98,54.12 L 25.06,61.86 z M 21.19,51.29 C 22.65,49 22.53,47.5 20.64,46.3 C 18.75,45.1 17.43,45.82 16.32,47.56 C 16.06,47.98 15.75,48.58 15.86,49.05 C 15.98,49.46 16.38,49.68 16.7,49.89 L 20.54,52.33 L 21.19,51.29 z M 25.22,55.3 C 26.78,56.3 27.45,56.77 28.64,54.9 C 29.77,53.12 29.74,51.24 27.4,49.75 C 25.78,48.73 24.17,48.49 22.06,51.82 L 21.39,52.87 L 25.22,55.3 z" />
    <path d="M 33.19,48.07 C 34.23,46.92 34.24,46.2 33.12,45.19 L 25.43,38.23 C 24.31,37.22 23.6,37.3 22.56,38.45 L 22.04,37.97 L 27.21,32.26 L 27.73,32.74 C 26.69,33.88 26.68,34.6 27.8,35.61 L 35.49,42.57 C 36.45,43.44 36.87,43.8 37.94,42.62 C 39.72,40.66 39.93,37.83 39.61,35.33 L 40.13,35.08 L 42.41,38.94 L 33.71,48.54 L 33.19,48.07 z" />
    <path d="M 36.87,26.68 C 35.91,25.52 35.19,25.5 34,26.49 L 33.55,25.95 L 39.47,21.02 L 39.92,21.57 C 38.73,22.56 38.62,23.27 39.59,24.43 L 46.21,32.4 C 47.18,33.56 47.89,33.58 49.09,32.59 L 49.54,33.14 L 43.61,38.06 L 43.16,37.52 C 44.35,36.53 44.46,35.82 43.5,34.66 L 36.87,26.68 z" />
    <path d="M 55.38,15.82 L 54.73,16.59 C 52.82,15.36 50.12,14.42 48.04,15.73 C 45.28,17.48 46.88,21.39 48.23,23.51 C 51.02,27.91 54.35,28.34 56.39,27.06 C 58.19,25.91 58.54,23.93 58.63,21.99 L 59.32,22.04 C 59.48,25.02 58.69,27.56 56.06,29.23 C 52.44,31.52 47.98,30.11 45.77,26.62 C 43.38,22.84 43.58,17.57 47.34,15.19 C 47.99,14.77 48.61,14.58 49.16,14.44 C 49.7,14.3 50.18,14.2 50.54,13.97 C 51.02,13.67 51.31,13.18 51.6,12.71 L 51.75,12.49 L 55.38,15.82 z" />
    <path d="M 72.87,16.95 C 73.9,18.2 74.52,19.16 76.33,18.47 L 76.6,19.13 L 69.6,21.97 L 69.33,21.32 C 70.59,20.76 70.78,20.38 70.54,19.78 C 70.39,19.4 70.1,19.03 69.83,18.72 L 68.16,16.66 L 63.08,18.73 L 63.15,20.16 C 63.18,20.75 63.2,21.44 63.43,22 C 63.84,23.01 64.92,23.04 65.82,22.74 L 66.09,23.4 L 60.79,25.56 L 60.52,24.9 C 62.16,23.63 62.16,22.47 62.11,20.58 L 61.78,8.637 L 64.31,6.516 L 72.87,16.95 z M 62.86,10.27 L 63.09,17.63 L 67.46,15.85 L 62.86,10.27 z" />
    <path d="M 82.92,16.87 C 84.46,16.7 84.94,16.17 84.77,14.67 L 83.63,4.36 C 83.46,2.862 82.88,2.451 81.34,2.622 L 81.26,1.916 L 88.7,1.09 C 90.03,0.943 91.24,0.96 92.4,1.264 C 95.28,2.049 97.58,4.371 98,8.157 C 98.38,11.64 96.6,14.48 94.12,15.78 C 93.04,16.35 91.81,16.59 90.44,16.75 L 83,17.57 L 82.92,16.87 z M 88.26,14.05 C 88.43,15.65 88.49,16.12 90.37,15.91 C 93.04,15.62 94.86,13.9 94.21,8.015 C 93.63,2.753 91.49,1.627 88.58,1.949 C 86.93,2.132 87,2.774 87.16,4.121 L 88.26,14.05 z" />
    <path d="M 99.11,15.17 C 100.7,15.27 101.2,14.84 101.3,13.33 L 102,2.983 C 102.1,1.48 101.6,0.972 100.1,0.868 L 100.1,0.16 L 113.1,1.03 L 114.1,5.136 L 113.5,5.37 C 112.1,3.406 110,1.666 107.6,1.502 C 105.7,1.374 105.6,2.018 105.5,3.606 L 105.2,7.793 L 105.7,7.822 C 107.8,7.966 108.8,7.665 109.7,5.545 L 110.5,5.601 L 110.1,11.81 L 109.2,11.75 C 108.8,9.542 107.7,8.975 105.6,8.834 L 105.2,8.802 L 104.9,13.33 C 104.8,14.58 104.8,15.42 106.4,15.53 C 109,15.71 111.5,14.36 113.3,12.52 L 113.9,12.86 L 112,16.75 L 99.06,15.88 L 99.11,15.17 z" />
    <path d="M 133.5,17.55 L 135.8,10.74 C 136.4,9.008 136.5,7.974 134.6,7.11 L 134.8,6.437 L 140.2,8.243 L 139.9,8.916 C 137.9,8.59 137.5,9.303 136.8,11.1 L 133,22.46 L 131.2,21.83 L 126.9,7.468 L 124.2,15.3 C 123.5,17.52 123.6,18.03 125.6,19.2 L 125.4,19.88 L 119.6,17.93 L 119.8,17.26 C 121.9,17.61 122.4,17.13 123.1,15.25 L 126.2,5.866 C 125.9,4.96 125.2,4.162 124.4,3.676 L 124.6,3.003 L 129.8,4.747 L 133.5,17.55 z" />
    <path d="M 142.6,12.67 C 143.3,11.32 143,10.66 141.6,9.961 L 142,9.327 L 148.8,12.79 L 148.5,13.43 C 147.1,12.73 146.4,12.91 145.8,14.26 L 141.1,23.52 C 140.4,24.86 140.7,25.53 142.1,26.23 L 141.8,26.86 L 134.9,23.4 L 135.2,22.76 C 136.6,23.46 137.3,23.28 138,21.93 L 142.6,12.67 z" />
    <path d="M 160,25.32 L 159,25.02 C 159.4,22.78 159.2,19.93 157.1,18.55 C 154.4,16.72 151.5,19.74 150.1,21.83 C 147.2,26.14 148.1,29.37 150.1,30.72 C 151.8,31.92 153.8,31.45 155.6,30.76 L 155.9,31.41 C 153.2,32.74 150.5,33.03 148,31.28 C 144.4,28.88 143.9,24.23 146.2,20.81 C 148.8,17.11 153.7,15.19 157.4,17.69 C 158,18.12 158.4,18.61 158.8,19.06 C 159.1,19.5 159.4,19.9 159.7,20.14 C 160.2,20.46 160.8,20.53 161.3,20.61 L 161.6,20.66 L 160,25.32 z " />
    <path d="M 165.9,41.79 C 165.2,43.23 164.6,44.18 165.9,45.56 L 165.4,46.07 L 160,40.8 L 160.5,40.29 C 161.5,41.22 162,41.25 162.4,40.78 C 162.7,40.49 162.9,40.08 163.1,39.71 L 164.3,37.35 L 160.4,33.52 L 159.1,34.16 C 158.6,34.43 157.9,34.72 157.5,35.15 C 156.8,35.94 157.2,36.94 157.8,37.65 L 157.3,38.16 L 153.2,34.16 L 153.7,33.65 C 155.5,34.65 156.6,34.18 158.3,33.38 L 169.1,28.3 L 172.1,29.77 L 165.9,41.79 z M 168.1,29.94 L 161.4,33.1 L 164.8,36.39 L 168.1,29.94 z" />
    <path d="M 176.1,55.23 C 175.3,56.72 174.6,58.07 175.6,59.67 L 175,60.08 L 172,55.69 C 172.2,55.07 172.6,54.49 172.9,53.9 L 174.4,51.34 C 176,48.7 175.7,47.88 175.2,47.13 L 171.2,49.85 C 170,50.7 169.9,51.41 170.8,52.69 L 170.2,53.09 L 165.9,46.73 L 166.4,46.33 C 167.3,47.61 168,47.79 169.3,46.94 L 177.8,41.08 C 179.1,40.23 179.1,39.52 178.3,38.24 L 178.9,37.84 L 184.1,45.48 C 185.9,48.11 185.6,50.7 183.7,51.98 C 181.7,53.32 179.6,52.23 178.1,50.74 C 178.1,51.55 177.7,52.26 177.3,52.96 L 176.1,55.23 z M 176.3,46.9 C 178.3,49.83 179.9,50.06 181.7,48.77 C 183.5,47.55 183.5,46.08 182.2,44.18 C 181.4,43.01 180.9,43.26 179.9,43.95 L 176.1,46.56 L 176.3,46.9 z" />
    <path d="M 183.9,72.74 C 182.7,73.77 181.7,74.39 182.4,76.2 L 181.8,76.47 L 178.9,69.48 L 179.5,69.21 C 180.1,70.47 180.5,70.66 181.1,70.41 C 181.5,70.26 181.8,69.97 182.1,69.7 L 184.2,68.02 L 182.1,62.94 L 180.7,63.02 C 180.1,63.05 179.4,63.08 178.9,63.31 C 177.8,63.72 177.8,64.8 178.1,65.7 L 177.5,65.97 L 175.3,60.67 L 175.9,60.41 C 177.2,62.05 178.4,62.04 180.3,61.98 L 192.2,61.63 L 194.3,64.15 L 183.9,72.74 z M 190.6,62.71 L 183.2,62.96 L 185,67.32 L 190.6,62.71 z" />
    <path d="M 195.7,87.71 L 195.3,87.06 C 197.5,84.63 198.6,83.05 198.2,81.15 C 197.8,79.12 195.4,77.4 190.1,78.48 C 184.8,79.55 183.1,81.58 183.6,83.92 C 184.1,86.24 185.9,86.25 187.8,85.86 C 189.5,85.51 189.6,85.04 189.4,83.39 L 190.2,83.22 L 191.7,90.37 L 190.8,90.54 C 190.3,88.85 189.8,88.76 188.2,89.08 L 185,89.71 C 184.7,88.24 184.7,88.14 184,86.89 C 183.4,85.87 183,84.97 182.7,83.81 C 181.8,79.3 184.3,75.84 188.8,74.92 C 193.1,74.06 198,76.19 199,80.81 C 199.1,81.44 199.1,82 199,82.52 C 198.9,83.04 198.9,83.49 199,83.87 C 199.1,84.42 199.5,85.11 199.9,85.52 L 195.7,87.71 z" />
    <path d="M 190.2,96.17 C 186.3,96.18 185.2,97.45 185.2,99.78 C 185.3,102.9 187.2,103.8 190.4,103.8 L 197.9,103.6 C 199.4,103.6 199.9,103 199.9,101.5 L 200.6,101.5 L 200.7,106.8 L 200,106.8 C 199.9,105.2 199.4,104.7 197.9,104.7 L 190.2,104.9 C 186.5,105 184.5,103.4 184.4,99.17 C 184.3,94.89 186.2,92.72 189.5,92.66 L 197.7,92.5 C 199.2,92.47 199.7,91.92 199.6,90.37 L 200.3,90.36 L 200.5,98.06 L 199.8,98.08 C 199.8,96.53 199.3,96 197.8,96.03 L 190.2,96.17 z" />
    <path d="M 186.1,120.5 C 184.5,120.7 183.4,120.8 183,122.7 L 182.3,122.6 L 183.5,115.1 L 184.2,115.2 C 184,116.6 184.3,116.9 184.9,117 C 185.3,117.1 185.8,117.1 186.2,117 L 188.8,116.6 L 189.7,111.2 L 188.4,110.5 C 187.9,110.3 187.3,109.9 186.7,109.8 C 185.6,109.6 185,110.6 184.8,111.5 L 184.1,111.4 L 185,105.7 L 185.7,105.8 C 186,107.9 187,108.5 188.6,109.4 L 199,115.4 L 199.5,118.6 L 186.1,120.5 z M 197,115.4 L 190.6,111.8 L 189.9,116.5 L 197,115.4 z" />
  </g>
</svg>
