<?xml version="1.0" encoding="UTF-8"?>
<svg xmlns="http://www.w3.org/2000/svg" width="800" height="600">
<rect fill="#007fff" width="800" height="600"/>
<path fill="#f7d618" d="M 750.00004,0 L 0,449.99998 L 0,599.99997 L 0.033333336,599.99997 L 50.000005,599.99997 L 800.00004,149.99999 L 800.00004,0 L 750.00004,0 z"/>
<path fill="#ce1021" d="M 800.00004,0 L 0,479.99998 L 0,599.99937 L 0.033595542,599.99937 L 0.067191085,599.99997 L 800.00004,119.99999 L 800.00004,0 z"/>
<path fill="#f7d618" d="M 335.12064,25 L 351.96068,76.821663 L 406.44988,76.823727 L 362.3684,108.85334 L 379.20453,160.67628 L 335.12064,128.65 L 291.03674,160.67627 L 307.87287,108.85334 L 263.7914,76.823724 L 318.28059,76.821663 L 335.12064,25 z" transform="matrix(1.5141055,0,0,1.5124235,-363.40801,3.3894082)"/>
</svg>