<svg xmlns="http://www.w3.org/2000/svg" width="1200" height="660"><path d="M0 0h1200v660H0z" fill="#0038a8"/><path d="M0 0h1200v440H0z" fill="#fff"/><path d="M0 0h1200v220H0z" fill="#d52b1e"/><g transform="matrix(2 0 0 2 -.001 0)" fill="none" stroke="#000"><circle cx="300" cy="165" r="42.175" stroke-width="1.15"/><circle cx="300" cy="165" r="34.83" stroke-width=".545"/><circle cx="300" cy="165" r="26.39" stroke-width=".545"/></g><path d="M539.48 322.479c-2.945-.606-5.537-1.177-5.76-1.27-.233-.096-.36-.324-.3-.537.057-.204.218-.987.356-1.74.531-2.88 1.224-5.495 1.635-6.183 1.08-1.801 4.503-1.956 6.033-.272 1.058 1.164 1.237 2.097.917 4.79l-.18 1.524.87.249c.48.136 1.495.374 2.257.528l1.387.276-.362 1.824c-.332 1.67-.408 1.825-.93 1.868-.314.025-2.98-.45-5.924-1.056zm.124-4.893c.264-1.41-.27-2.412-1.286-2.412-.777 0-1.3.68-1.395 1.811-.06.743-.02.787.96 1.055 1.506.41 1.562.395 1.721-.454zm5.215-9.067a652.298 652.298 0 0 1-4.768-4.896l-1.35-1.416.896-1.935c.778-1.68.972-1.937 1.476-1.944 1.236-.02 12.643 1.164 12.809 1.33.096.095-.154.92-.557 1.833l-.733 1.66-1.109-.106-1.108-.107-1.027 2.046-1.027 2.045.7.684c.384.375.698.801.698.945 0 .144-.332.956-.74 1.803l-.74 1.54-3.42-3.48zm1.953-4.76c.321-.631.403-1.014.248-1.169-.22-.22-3.927-.912-4.08-.76-.108.108 2.935 2.866 3.162 2.866.105 0 .406-.421.67-.938zm6.667-5.4l-.936-.84-.49-4.33c-.268-2.38-.564-4.573-.655-4.872-.156-.512-.285-.416-2.076 1.536-1.051 1.146-2.02 2.082-2.154 2.08-.134-.001-.648-.345-1.141-.762l-.899-.76 3.317-3.852c4.388-5.093 3.973-4.776 5.066-3.854l.893.751.532 4.741c.291 2.608.619 4.829.726 4.936.108.108 1.197-.933 2.436-2.323 1.232-1.385 2.299-2.514 2.369-2.51.07.004.53.353 1.023.776l.897.768-1.794 2.242c-1.923 2.403-5.714 6.827-6.003 7.006-.096.06-.596-.27-1.111-.732zm17.52-16.82a66.226 66.226 0 0 1-1.262-2.264c-.288-.567-1.088-1.105-3.846-2.592-4.52-2.436-4.385-2.34-3.88-2.778.22-.19.89-.627 1.49-.972 1.331-.768 1.779-.705 3.954.549.884.51 1.673.926 1.755.926.081 0 .15-.896.151-1.993.002-1.097.06-2.208.132-2.472.082-.306.776-.823 1.932-1.44l1.806-.96v.869c0 .48-.112 2.46-.25 4.406l-.252 3.535 1.263 2.376 1.26 2.376-.612.37c-.336.204-1.092.65-1.677.992l-1.065.622-.9-1.55zm16.7-5.66a6.992 6.992 0 0 1-1.106-.756c-.49-.441-1.286-1.923-1.286-2.39 0-.197.624-.503 1.65-.807.91-.27 1.718-.49 1.798-.49.08 0 .212.256.288.568.176.696 1.072 1.32 1.602 1.116.796-.304.833-1.106.243-5.282-.313-2.216-.569-4.201-.569-4.412 0-.282.331-.454 1.248-.645.689-.141 1.534-.227 1.88-.186.622.072.636.11 1.136 3.034.277 1.628.568 3.936.648 5.125.139 2.124.13 2.184-.537 3.214-.91 1.407-2.223 2.036-4.549 2.176-1.355.082-1.921.02-2.446-.265zm15.84-.46c-2.763-.763-4.101-2.432-4.1-5.111 0-1.53.36-6.135.584-7.488l.126-.76 1.752.157c.964.087 1.828.228 1.922.315.093.085.01 1.986-.185 4.221-.27 3.089-.293 4.216-.097 4.687.488 1.179 2.272 1.509 3.315.612.574-.492.64-.766 1.143-4.728.292-2.31.537-4.228.542-4.26.02-.12 2.66-.042 3.174.096.544.144.545.152.397 2.56a65.498 65.498 0 0 1-.488 4.692c-.394 2.634-1.02 3.774-2.54 4.613-1.24.686-3.824.869-5.545.393zm15.26 3.4c-1.833-.662-3.408-1.831-3.887-2.885-.442-.974-.605-3.002-.258-3.216.103-.064.975.1 1.937.365l1.747.48.006.819c.008 1.159.615 1.848 1.771 2.002 1.088.146 1.642-.174 1.642-.948 0-.356-.624-1.044-2.097-2.308-1.152-.99-2.29-2.136-2.528-2.544-.858-1.473-.353-3.276 1.219-4.348 1.134-.773 3.446-.617 5.48.37 2.394 1.161 3.165 2.073 3.165 3.746 0 .988-.05 1.088-.528 1.088-.292 0-1.013-.164-1.603-.366-.84-.285-1.167-.548-1.505-1.21-.583-1.144-.982-1.428-1.873-1.344-.574.056-.773.192-.826.567-.055.384.3.77 1.595 1.737.915.684 2.018 1.615 2.451 2.07.693.73.797 1 .874 2.25.074 1.204.006 1.542-.444 2.2-.952 1.384-1.62 1.72-3.568 1.785-1.17.04-2.088-.064-2.77-.31zm11.32 5.58c-.985-.591-1.484-1.022-1.382-1.195.088-.148 1.268-1.932 2.624-3.966 1.356-2.034 2.464-3.792 2.464-3.906 0-.115-.498-.528-1.106-.92-.609-.39-1.284-.905-1.5-1.145-.378-.417-.362-.487.363-1.596.465-.708.877-1.113 1.065-1.042.387.149 8.128 5.398 9.025 6.12l.672.54-.753 1.171c-.412.645-.817 1.172-.898 1.17-.08 0-.814-.408-1.628-.907l-1.48-.907-.798.875c-.438.481-1.668 2.167-2.734 3.746-1.064 1.58-2.04 2.875-2.164 2.88-.126.004-.922-.409-1.77-.918zm7.94 6.42l-1.344-1.357 2.755-2.917a231.084 231.084 0 0 1 4.437-4.58l1.685-1.66 1.465 1.36 1.466 1.363-4.56 4.574-4.56 4.574zm9.02 10.88c-1.206-.597-2.782-2.635-3.342-4.32-.868-2.612.322-5.46 2.993-7.17 1.596-1.02 3.599-1.543 4.844-1.262 2.898.65 5.326 3.543 5.363 6.388.018 1.422-.638 3.441-1.118 3.441-.168 0-.842-.492-1.496-1.092-1.06-.975-1.16-1.146-.927-1.58.144-.269.261-.842.261-1.277 0-.617-.175-.942-.805-1.495-1.346-1.182-2.925-.798-5.037 1.225-.999.958-1.048 1.062-.927 1.966.2 1.48.997 2.14 2.593 2.14 1.26 0 1.287.013 1.557.796.15.44.342 1.169.426 1.624.135.73.092.842-.365.965-1.144.307-3.026.144-4.02-.348zm3.28 7.72c-.18-.276-.546-.996-.813-1.598-.73-1.654-.924-1.523 6.828-4.629 3.509-1.404 4.257-1.633 4.51-1.38.433.434 1.433 2.974 1.242 3.156-.137.132-3.105 1.422-9.785 4.253l-1.654.701zm3.76 14.72a16.468 16.468 0 0 1-.382-2.021c-.138-1.144-.129-1.164.684-1.644.948-.56.979-.761.464-3.022-.386-1.704-.696-2.036-1.888-2.036-.453 0-.722-.135-.8-.4-.254-.864-.618-3.3-.51-3.408.12-.121 13.156 1.709 13.315 1.868.153.154.707 2.925.715 3.579.006.498-.262.807-1.416 1.63-1.2.853-6.027 3.935-9.1 5.807l-.84.512zm5.855-6.705c1.966-1.086 1.908-1.206-.684-1.441-1.62-.148-1.766-.126-1.764.257 0 .574.444 2.127.607 2.127.072 0 .9-.425 1.841-.943z"/><g transform="matrix(2 0 0 2 -.001 0)" stroke="#000"><path d="M490.31 95.791a12.013 4.882 0 1 1-24.025 0 12.013 4.882 0 1 1 24.025 0z" transform="matrix(.34653 -.13402 .12878 .36064 122.046 179.917)" fill="#ed1c24" stroke-width=".837"/><rect width=".91" height="42.3" x="300" y="142.9" rx=".198" ry=".31" fill="#784421" stroke-width=".33"/><g fill="none"><path d="M299.3 148.34v4.11" stroke-width=".036"/><path d="M299.64 148.16v4.211" stroke-width=".018"/><path d="M298.96 148.34v4.208" stroke-width=".055"/><path d="M298.62 148.56v4.006" stroke-width=".073"/><path d="M298.28 148.63v3.998" stroke-width=".091"/><path d="M297.94 148.85v3.775" stroke-width=".109"/><path d="M297.6 149.04v3.597" stroke-width=".127"/><path d="M297.26 149.29v3.303" stroke-width=".146"/><path d="M296.92 149.48v3.071" stroke-width=".164"/><path d="M296.58 149.81v2.644" stroke-width=".2"/><path d="M296.24 149.99v2.303" stroke-width=".218"/><path d="M301.13 151.9v-3.463" stroke-width=".032"/><path d="M300.81 152.3v-3.801" stroke-width=".016"/><path d="M301.45 151.79v-3.473" stroke-width=".048"/><path d="M301.77 151.65v-3.391" stroke-width=".064"/><path d="M302.08 151.48v-3.288" stroke-width=".08"/><path d="M302.4 151.32v-3.151" stroke-width=".096"/><path d="M302.72 151.14v-2.914" stroke-width=".112"/><path d="M303.04 150.92v-2.754" stroke-width=".128"/><path d="M303.36 150.75v-2.586" stroke-width=".144"/><path d="M303.68 150.25v-2.028" stroke-width=".177"/><path d="M304 149.85v-1.53" stroke-width=".193"/></g><g fill="#ed1c24" stroke-width=".315"><path d="M295.91 151.4l-.136-2.631s-.318-.303-.39-.502c-.344-.945-.269-2.021-.112-3.014.127-.802.363-1.629.837-2.288.696-.968 1.659-1.862 2.79-2.233.795-.26 1.742-.235 2.504.107a3.19 3.19 0 0 1 1.57 1.623c.247.583.248 1.295.057 1.898-.113.354-.67.893-.67.893s.674.712.949 1.116c.332.488.631 1.008.837 1.562.06.161.111.374.111.374l.043.443s-.98-.373-1.448-.348a8.615 8.615 0 0 0-1.82.315c-.749.206-1.48.49-2.176.837a14.18 14.18 0 0 0-2.065 1.283 13.23 13.23 0 0 1-.881.565z"/><path d="M297.27 148.65c1.75-1.444 3.935-1.873 6.3-1.883m-3.37-2.207c.426.4.602.924 2.204.735" stroke-linecap="round"/></g></g><g fill="#eac102" stroke="#000"><g stroke-width=".32"><path d="M606.479 346.779c-.234 1.704-.628 4.82-.452 5.346.243.73.738.6 1.102 3.031.136.906.354 1.926.59 2.914-.243.607-.964 1.948-.964 1.948s.708.158 1.103.039a30.05 30.05 0 0 1-.749 1.417s.528.12.925.08c-.3.662-.846 1.691-.846 1.691s.732.174 1.122.041c-.308.662-.828 1.594-.828 1.594s.869.2 1.222 0c-.11 1.783-.533 5.028.612 5.236.972 0 6.434.729 6.434.729l2.205-1.084 1.575-.747s-.665-1.689-1.272-2.052c-.608-.366-2.013-1.468-2.743-1.59-.73-.12-1.693-.357-1.693-.964 0-.608-.378-4.507-.256-5.237.121-.73.133-3.291.256-4.507.102-1.016.871-5.087 1.122-6.4" stroke-width=".384"/><path d="M615.479 365.379s1.49.186 1.975.672c.487.486.948.54 1.338.912.44.42 1.095 1.155 1.095 1.459 0 .304-.304 1.033-.669 1.033-.365 0-1.459-.12-1.459-.12l-1.582-.792-1.398-.365" stroke-width=".384"/><path d="M615.579 367.2c.487.485 1.042.38 1.459.729.468.39 1.095 1.155 1.095 1.459 0 .305-.304 1.034-.67 1.034-.364 0-1.458-.122-1.458-.122l-1.58-.79-1.4-.364" stroke-width=".384"/><path d="M612.539 367.44s.547.303 1.033.79c.487.486 1.043.38 1.46.73.467.388 1.095 1.155 1.095 1.459 0 .303-.305 1.033-.67 1.033-.364 0-1.459-.12-1.459-.12l-1.58-.792-1.4-.365M582.62 349s1.89 1.041 2.068.365c.364-1.384 2.375-3.5 4.256-4.013 1.404-.382 3.122.061 4.257.972 1.921 1.545 2.88 4.24 3.162 6.69.174 1.524-.465 3.051-.973 4.5-.512 1.453-1.582 3.527-2.068 4.134-.486.608-2.432 3.77-2.432 3.77s1.338.365 2.188.365c.852 0 1.824.608 2.068 1.094.244.486.73 1.217 0 1.338-.73.122-1.822 1.108-1.822 1.108s-2.678.716-3.164.716c-.486 0-.972.486-2.432 0s-1.216-.486-2.31-.486h-2.798s-2.067.243-2.797.122c-.73-.122-1.946-.244-2.067-1.216-.123-.973-.123-1.582-.123-1.946 0-.365 0-.73.244-1.216l.972-1.946-.851-3.162" stroke-width=".384"/><path d="M593.279 365.799s1.589.16 2.076.648c.486.486.947.537 1.337.912.439.42 1.094 1.154 1.094 1.458 0 .305-.303 1.034-.668 1.034-.365 0-1.46-.122-1.46-.122l-1.581-.79-1.398-.365" stroke-width=".384"/><path d="M593.48 367.599c.485.487 1.041.381 1.459.73.466.39 1.094 1.155 1.094 1.46 0 .303-.304 1.033-.668 1.033-.366 0-1.46-.121-1.46-.121l-2.059-.738-.337-1.267" stroke-width=".384"/><path d="M591.459 368.64c.487.485 1.042.38 1.459.729.468.39 1.095 1.155 1.095 1.459 0 .305-.304 1.034-.67 1.034-.364 0-1.458-.122-1.458-.122l-1.58-.79-2.329-.837m33.323-54.094s-1.202-2.057-4.046.322c-4.053 3.39-6.562 9.978-10.241 12.798-1.661 1.272-7.655 5.059-9.114 5.546-1.46.486-3.087 1.121-4.621 1.703-1.464.554-2.948 1.068-4.38 1.702-1.988.882-4.1 1.608-5.836 2.92-1.054.794-1.764 1.965-2.676 2.918-1.11 1.159-2.388 2.163-3.404 3.405-.928 1.13-1.7 2.385-2.433 3.648-.637 1.098-1.377 2.18-1.704 3.406-.374 1.412-.408 2.925-.242 4.377.231 2.014.248 4.426 1.703 5.838.81.788 2.175.627 3.283.851 1.365.276 2.743.56 4.135.609 2.153.075 4.488.411 6.445-.488 1.668-.765 2.729-2.472 3.892-3.891 1.112-1.356 1.26-3.809 2.92-4.378.969-.332 1.915.759 2.918.972.797.172 1.617.22 2.432.244 2.109.065 4.254.163 6.324-.243 1.863-.366 3.624-1.158 5.351-1.946 1.52-.692 3.182-1.267 4.378-2.432 1.484-1.445 2.503-3.387 3.162-5.351 1.947-5.797 2.092-18.228 2.092-18.228z" stroke-width=".384"/><path d="M602.499 348.68c-.234 1.704-.628 4.819-.453 5.344.244.73.738.6 1.103 3.032.136.907.355 1.926.59 2.913-.243.609-.964 1.949-.964 1.949s.708.158 1.102.04a30.05 30.05 0 0 1-.747 1.416s.527.12.924.079c-.3.663-.846 1.693-.846 1.693s.732.173 1.122.04c-.309.663-.827 1.594-.827 1.594s.868.2 1.22 0c-.109 1.782-.531 5.028.612 5.236.974 0 6.436.728 6.436.728l2.204-1.082 1.575-.749s-.664-1.687-1.272-2.052c-.609-.365-2.014-1.467-2.743-1.589-.73-.122-1.692-.356-1.692-.964 0-.609-.378-4.506-.257-5.236.121-.73.134-3.292.255-4.508.102-1.016.872-5.086 1.122-6.4" stroke-width=".384"/><path d="M611.439 367.28s1.563.184 2.05.672c.486.486.948.537 1.338.912.44.42 1.095 1.154 1.095 1.458 0 .304-.305 1.034-.67 1.034-.365 0-1.459-.122-1.459-.122l-1.58-.79-1.4-.365" stroke-width=".384"/><path d="M611.6 369.099c.485.487 1.041.381 1.459.73.466.39 1.094 1.155 1.094 1.46 0 .303-.304 1.033-.668 1.033-.366 0-1.46-.121-1.46-.121l-1.581-.792-1.4-.364" stroke-width=".384"/><path d="M609.599 370.14c.486.485 1.042.38 1.46.729.467.39 1.094 1.155 1.094 1.459 0 .305-.304 1.034-.669 1.034-.365 0-1.459-.122-1.459-.122l-1.582-.79-1.522-.315m-28.042-20.916s1.89 1.041 2.068.365c.363-1.384 2.39-3.448 4.256-4.013 1.856-.562 4.192-.2 5.737.972 1.966 1.49 2.88 4.24 3.162 6.69.175 1.524-.29 3.125-.972 4.5-.809 1.626-3.062 3.527-3.55 4.134-.485.608-2.432 3.77-2.432 3.77s1.338.365 2.19.365c.851 0 1.824.608 2.067 1.094.243.486.73 1.217 0 1.338-.73.122-1.822 1.108-1.822 1.108s-2.677.716-3.164.716c-.486 0-.972.486-2.433 0-1.459-.486-1.215-.486-2.31-.486h-2.797s-2.068.243-2.797.122c-.73-.122-1.947-.244-2.068-1.216-.121-.973-.121-1.582-.121-1.946 0-.365 0-.73.242-1.216l.974-1.946-.852-3.162" stroke-width=".384"/><path d="M589.559 368.019s1.589.16 2.076.648c.486.486.947.537 1.337.912.439.42 1.094 1.154 1.094 1.458 0 .305-.303 1.034-.668 1.034-.365 0-1.46-.122-1.46-.122l-1.581-.79-1.398-.365" stroke-width=".384"/><path d="M589.739 369.819c.486.487 1.042.381 1.46.73.467.39 1.094 1.155 1.094 1.46 0 .303-.304 1.033-.669 1.033-.365 0-1.459-.121-1.459-.121l-2.06-.738-.335-1.267" stroke-width=".384"/><path d="M587.739 370.86c.487.485 1.042.38 1.459.729.468.39 1.095 1.155 1.095 1.459 0 .305-.304 1.034-.67 1.034-.364 0-1.458-.122-1.458-.122l-1.58-.79-2.329-.837m-7.797-10.714s1.276 2.244 2.342 2.866c1.243.725 2.82.816 4.256.73 1.268-.079 2.495-.566 3.648-1.096 1.094-.502 2.174-1.111 3.041-1.945 1.176-1.13 2.075-2.552 2.796-4.013.473-.954.756-2 .975-3.041.158-.758.326-1.54.242-2.311-.138-1.275-.612-2.518-1.216-3.648-.872-1.63-2.197-2.979-3.405-4.378-.843-.977-1.803-1.848-2.676-2.797-.622-.677-1.179-1.414-1.824-2.068-.846-.859-1.815-1.588-2.676-2.432-.756-.743-1.516-1.49-2.188-2.31-.535-.653-1.046-1.332-1.46-2.068-.846-1.503-1.588-3.086-2.067-4.743-.297-1.024-.522-2.097-.487-3.162.037-1.121.126-2.339.73-3.283.468-.732 1.262-1.258 2.067-1.582.682-.272 1.493-.474 2.19-.242.789.261 1.268 1.083 1.823 1.702.407.453.837.909 1.096 1.46.444.943.96 2.023.73 3.04-.187.815-.766 2.127-1.582 1.946-.816-.182-.341-1.64-.609-2.433-.295-.877-.337-2.02-1.094-2.553-.53-.375-1.398-.472-1.945-.123-.66.423-.82 1.408-.852 2.19-.047 1.14.588 2.208.973 3.283.492 1.368.922 2.788 1.703 4.013.878 1.38 2.157 2.461 3.283 3.648 1.262 1.332 2.609 2.58 3.892 3.893.902.922 1.852 1.802 2.676 2.796a39.746 39.746 0 0 1 3.04 4.258c.81 1.29 1.76 2.55 2.19 4.012.32 1.092.29 2.268.242 3.406-.054 1.312-.237 2.632-.608 3.892a9.614 9.614 0 0 1-.973 2.188c-.653 1.095-1.5 2.064-2.333 3.028-.72.834-1.429 1.702-2.3 2.376-1.14.883-2.392 1.68-3.758 2.136-1.202.402-2.504.488-3.77.486-1.554-.001-3.18-.026-4.622-.607-1.074-.435-1.894-1.34-2.796-2.068-1.664-1.34-2.108-3.858-2.23-4.466m49.036-36.14c1.808-.368 2.268.22 3.196.81.954.608 1.281 1.901 2.149 2.626.336.28.709.609 1.145.636.456.029 1.018 0 1.272-.509.255-.508.255-1.272.51-.763.254.509.471 1.764 0 2.418-.47.653-1.512.972-2.291.763-.987-.264-1.297-1.584-2.037-2.29-.63-.605-1.227-1.32-2.035-1.654-.788-.325-2.545-.254-2.545-.254z" stroke-width=".384"/></g><g stroke-width=".43"><path d="M612.219 344.979s-1.204 3.01-1.204 4.3.172 3.611.086 3.956c-.086.343.86-1.548 1.548-2.236.688-.689 1.376-1.205 1.72-2.064.344-.86.344-2.235.43-2.751.086-.516.602-.087-.086-1.463-.688-1.375-2.494.258-2.494.258z" stroke-width=".516"/><path d="M613.599 340.419s-.172 1.548-.172 3.01c0 1.462.344 1.29.516 2.752.172 1.462.344 3.44.344 3.44s1.29-1.29 1.72-1.807c.43-.516 1.462-3.096 1.462-3.096l-2.666-3.783-.774-.516zm3.78 8.86s-.774 2.236-.946 2.924c-.172.687-.516 1.29-.43 2.235.086.947-.344 2.925-.344 2.925l.946-.516c.172-.516 1.978-3.612 1.978-3.612l.172-2.665z" stroke-width=".516"/><path d="M617.819 344.46s-1.548 1.719-1.978 2.493c-.43.774-.516 1.806-.516 2.58s.086 1.29.344 2.838.946.774 1.376 0c.43-.774 1.204-1.548 1.204-2.409 0-.859 0-3.267-.086-4.041-.086-.774-.344-1.462-.344-1.462zm-7.14-1.881c0 .516-.258 4.214-.086 4.988.172.774-.172 3.697 0 3.096.172-.602 2.58-4.043 2.666-4.386.086-.344-.172-3.354-.172-3.354z" stroke-width=".516"/><path d="M609.299 340.86v2.063c0 .946.172.774 0 2.494-.172 1.72-.516 2.493-.516 2.493s1.634-.516 1.892-1.117c.258-.602.946-.947.946-2.064v-2.924z" stroke-width=".516"/><path d="M608.099 335s-.516 2.665-.688 3.096c-.172.43-.172 2.064-.43 3.01-.258.945-.774 2.75-.774 2.75s2.064-1.203 2.322-1.547c.258-.345 1.376-1.032 1.634-1.72.258-.689.343-2.493.343-2.493l-.859-2.495zm2.66 4.639c.086.602.172 2.666 1.118 3.87.946 1.203 1.634 2.064 1.634 2.408 0 .343.516-1.118.601-1.979.087-.859.345-2.235.087-2.836-.258-.603-1.376-1.893-1.376-1.893z" stroke-width=".516"/><path d="M609.98 335.259s-.345 1.72-.345 2.753c0 1.032-.086 1.633.344 2.58.43.945 1.204 1.804 1.376 2.148.172.344.516 1.204.516 1.204s.086-1.375.258-1.89c.172-.517.172-3.957.172-3.957l-.516-3.612z" stroke-width=".516"/><path d="M609.039 331.64s-.344 3.01-.172 3.612c.172.6.602 3.267.602 3.267s.344-1.205.86-2.408c.516-1.204 1.032-2.752.946-3.181-.086-.431-1.892-1.548-2.236-1.29z" stroke-width=".516"/><path d="M609.899 329.499c0 .344-.172 2.322 0 2.838s.946 2.666 1.204 3.01c.258.344.86 1.72.86 1.72s.43-1.376.774-2.237c.343-.859.601-2.149.601-2.836 0-.69-.343-2.237-.43-2.838-.085-.603-1.461-2.236-1.461-2.236zm-2.5 3s-.86 1.72-.86 2.408-1.204 2.322-1.204 2.322-.172.343.688.085c.86-.258 1.806-.516 2.15-1.117.344-.602 1.032-2.493 1.118-2.838.086-.344-1.892-.86-1.892-.86z" stroke-width=".516"/><path d="M609.639 325.88s-1.462 1.806-1.72 2.493c-.258.688-.344 1.204-.344 2.15s.258 3.698.258 3.698l.43 1.548s.602-1.806 1.376-2.925c.774-1.117 1.376-2.665 1.634-3.267.258-.603.344-2.752.344-2.752z" stroke-width=".516"/><path d="M607.659 325.38s-1.032 1.634-1.29 2.235c-.258.602-.602 2.15-.602 2.838v1.892c0 1.117.688 3.44.688 3.784 0 .343.516-.258.688-.689.172-.43.688-4.385.688-4.385l.602-3.354 1.118-2.924zm10.76 21.14s-.86 3.18-.86 4.128c0 .945.86 3.18.86 3.18l1.548 1.98s-.086-1.12-.086-2.15c0-1.033.602-3.012.602-3.012v-1.89z" stroke-width=".516"/><path d="M617.039 339.3s-.946 2.321-.946 2.837.688 3.526.688 3.526 1.29 2.751 1.462 3.267c.172.516.172 2.494.344 1.032.172-1.461.688-3.01.86-3.439.172-.43-.172-2.924-.258-3.354l-.516-2.58z" stroke-width=".516"/><path d="M614.979 336.12s-1.118 3.182-1.118 3.698 1.118 2.836 1.118 2.836l2.322 2.495s.172-2.064.172-2.753c0-.687.172-2.665 0-3.01-.172-.342-2.494-3.267-2.494-3.267z" stroke-width=".516"/><path d="M612.039 335.439c-.086 1.205-.344 3.785.086 4.73.43.946 2.064 2.407 2.236 2.752.172.343.086.258.172-.774s.172-1.893.344-3.01c.171-1.118.344-1.72.171-2.58-.171-.86-1.117-1.806-1.117-1.806z" stroke-width=".516"/><path d="M615.479 332c-.086.343-1.118 2.149-1.204 2.838-.086.687.344 2.32.602 2.665.258.344 1.548 2.064 1.548 1.72 0-.344.516-2.666.516-3.097 0-.43-.172-1.375-.258-2.665-.086-1.29.258-2.322.258-2.322z" stroke-width=".516"/><path d="M616.959 331.74s-1.204 1.805-1.204 2.75c0 .946 0 2.839.172 3.268.172.431.774 2.838.86 3.354.086.516.688-.258 1.032-1.032.344-.774 1.032-1.461 1.032-2.407 0-.947-.344-2.751-.344-3.267s-.258-2.237-.258-2.237z" stroke-width=".516"/><path d="M615.819 326.559s-.243 2.067-.183 2.676c.061.608.305 2.25.305 2.25s.242 1.58.304 1.824c.06.243.06.365.06.365s.912-.426.973-.669c.061-.243.548-2.007.852-2.432.303-.426 1.155-1.703 1.155-1.703s.183-.304.304-.79c.121-.487.244-2.128.244-2.128l-1.338-1.156zm-8.84-3.5s-1.118 1.29-1.29 1.72c-.172.43-.774 1.119-.946 1.806-.172.688 0 .43-.43 1.375-.43.947-1.633 2.409-1.633 2.409l-1.721.43s1.29.687 1.892.687c.603 0 2.58-.86 2.838-1.204.258-.343 1.462-2.149 1.72-2.838.258-.687-.43-4.384-.43-4.384z" stroke-width=".516"/><path d="M608.099 319.44s-1.376 1.031-1.462 1.805c-.086.774-.172 1.462-.172 2.236 0 .774 0 2.064.172 2.666.172.601.258 1.548.258 1.548s1.118-.947 1.462-1.29c.344-.344.602-1.205.946-1.979s.172-1.89.344-2.407c.172-.516.43-2.493.43-2.493z" stroke-width=".516"/><path d="M610.419 319.16s-1.52 2.857-1.52 3.1c0 .244-.06.791.365.73.425-.06 1.52-.972 1.884-1.277.365-.303 1.096-.73 1.46-1.277.365-.547.425-.364.487-.912.06-.547.303-1.581.06-1.581s-.546-.243-1.216.06c-.668.305-1.52 1.157-1.52 1.157z" stroke-width=".516"/><path d="M611.18 315.48s-1.549-.345-1.893-.087c-.344.258-.774.173-1.117 1.118-.345.946-.947 3.01-.947 3.01l-.601.774-1.205.774s.516.516 1.032.516 2.322-.516 2.752-.774c.43-.258 1.376-1.548 1.462-1.978.086-.43.172-1.203.258-1.806.086-.602.258-1.548.258-1.548z" stroke-width=".516"/><path d="M612.359 315.5c-.73.364-1.884 1.641-2.25 2.492-.365.852-.608 2.008-1.033 2.25-.426.244-1.46.487-.426.547 1.033.06 2.006-.425 2.493-.668.486-.244 1.58-2.311 1.58-2.311l.427-1.277z" stroke-width=".516"/><path d="M614.979 312.339s-.731-.042-1.118.043c-.387.086-.946-.128-1.462.344a10.46 10.46 0 0 0-1.032 1.076c-.215.258-.344.258-.86.945-.516.688-.086.258-.645.989-.558.732-.903 1.418-1.074 1.591-.173.172-.689.601-1.205.688-.948.444 1.012.437 1.764.492.516.044.991-.024 1.42-.067.43-.044.558-.382.987-.512.43-.128.603-.085.688-.258.086-.171.947-.816 1.248-1.16.3-.344.43-.644.687-.902.258-.258.215-.431.774-.646.558-.216.731-.3.903-.56.171-.257.086-1.203.086-1.203zm-2.08 17.24s-.86 2.064-.86 2.667c0 .6.43 2.665.43 2.665l.258 2.235s.946-.774 1.376-1.461c.43-.688 1.118-2.838 1.118-2.838v-2.236l-.688-1.72z" stroke-width=".516"/><path d="M613.259 325.88s-1.204 1.461-1.204 2.322c0 .859.602 3.267.602 3.267s0 2.15.172 1.548c.172-.602.688-1.548 1.29-2.58.602-1.032.86-2.15.86-2.493 0-.345-1.72-2.064-1.72-2.064z" stroke-width=".516"/><path d="M615.159 324.72s-.887 2.548-.8 3.837c.084 1.289.6 4.512.945 4.833.344.323.945-.43.945-1.611s-.085-3.867-.085-4.404c0-.537.86-4.619.86-4.619z" stroke-width=".516"/><path d="M617.979 319.479s-1.28 1.587-1.452 2.103c-.173.516-.173 1.978-.173 2.58 0 .602.258 2.752.258 2.752s2.193-1.447 2.16-1.606c.074-.124-.124-.062-.087-1.459.041-1.536 1.432-2.942 1.432-2.942zm2.58 19.22s-1.72 1.548-1.72 2.58-.086 3.268-.086 3.784-.172 2.493.086 3.354c.258.859 3.01 4.3 3.01 4.3s1.032.257.688-.345c-.344-.601-1.29-2.064-1.29-3.44s.172-3.87.172-3.87l.43-2.75z" stroke-width=".516"/><path d="M618.759 337.58s-.516 1.461-.516 2.751c0 1.29-.258 1.29.172 2.15.43.86.258 3.268.602 2.494.344-.774.774-3.01.774-3.785 0-.774.258-2.407.43-2.923s-1.462-.687-1.462-.687zm4.12 5.34s-.516 1.633 0 2.665.516 1.977.774 2.322c.258.344.43 1.118-.602.43-1.032-.688-1.978-1.29-2.236-2.323-.258-1.032-.602-2.235-.344-3.096.258-.859.344-3.096.344-3.096l2.322 3.612z" stroke-width=".516"/><path d="M619.959 326.379s-.73 1.399-.972 1.824c-.244.426-.73 1.581-.73 1.581s-.305 1.58-.305 2.007v1.641c0 .426-.182 2.92-.182 2.92s.121 1.46.121 2.006v1.095s.792-.304.973-.547c.183-.244.791-.67.973-1.52.183-.853.365-1.399.365-2.19 0-.79-.121-2.553-.121-2.553s-.122-1.035.121-1.52c.244-.488.486-1.217.669-1.582.182-.365.426-1.703.426-1.703zm1.04 12.32c-.086.345.172 3.526.516 4.816.344 1.29.43 2.751.43 3.182 0 .43.688 0 .946-.774s.602-2.838.774-3.44c.172-.603.086-3.096.086-3.096l-1.118-2.322z" stroke-width=".516"/><path d="M620.219 333.12s-.602 2.75-.602 3.783c0 1.032.688 4.386.688 4.386s.172.687.602-.43c.43-1.118 1.032-2.322 1.032-3.096s-.774-3.87-.774-3.87z" stroke-width=".516"/><path d="M620.819 328.38s-1.032 1.547-1.118 2.02c-.086.473-.042 1.806-.042 1.806s.085 1.72.258 1.891c.171.173.644 1.333.644 1.333s.3-.258.473-.816c.171-.559.687-1.634.687-1.634l.646-1.505s.043-1.161.043-1.333c0-.172-1.42-1.634-1.591-1.763zm3.26 5.94c.43.515 1.032 2.235 1.032 2.75 0 .517-.258 1.033-.602 1.978-.344.947-.344 2.838-.344 2.838s-1.032-1.117-1.032-1.633-.344-3.44-.344-3.44z" stroke-width=".516"/><path d="M622.319 330.74s-.86 1.418-.989 1.762c-.13.344-.171 1.806-.13 2.236.044.43.56 3.526.56 3.697 0 .173-.085 1.032-.085 1.032s.687-.601.945-.902c.258-.3 1.117-1.377 1.117-1.377s.216-.988.302-1.332c.086-.344.216-2.28.216-2.28zm-8.28-10.121s-.92 1.731-1.285 2.178c-.366.447-.36 1.88-.274 2.997.087 1.119.345 2.15.345 2.15s1.227-.59 1.428-1.5c.201-.908.844-3.263 1.096-3.546.252-.282-1.31-2.28-1.31-2.28zm-.9-6.4s-1.798 1.925-2.122 2.207c-.325.282-1.17 1.72-1.128 2.322l.153 2.144 1.25-1.813s1.282-1.75 1.332-2.298c.048-.547.515-2.562.515-2.562z" stroke-width=".516"/><path d="M616.7 316.599l-1.893 1.463s-.602 1.548-.774 2.493c-.172.946-.086 1.978-.258 2.58-.172.601 1.462 0 1.462 0l1.24-1.352 1.486-2.333z" stroke-width=".516"/><path d="M615.099 323.18s-.99 3.308-.904 3.824c.086.516 1.29-.43 1.72-1.633.43-1.205.872-4.09.872-4.09zm-3.52-1.661s-1.428.675-1.771.847c-.345.172-1.032.688-1.119 1.032-.086.344-.086 2.666-.086 2.666l.86 2.58 1.34-1.033s.18-2.569.444-2.917c.261-.348.332-3.175.332-3.175z" stroke-width=".516"/><path d="M614.66 318.42s-1.931 1.79-2.275 2.049c-.344.258-1.29 1.634-1.29 2.237v2.149l1.376-1.72s1.404-1.655 1.491-2.196c.089-.543.696-2.52.696-2.52z" stroke-width=".516"/><path d="M614.999 313.599s-.92 1.731-1.285 2.178c-.366.447-.36 1.88-.274 2.997.087 1.119.345 2.15.345 2.15s1.227-.59 1.428-1.5c.201-.908.844-3.263 1.096-3.546.252-.282-1.31-2.28-1.31-2.28z" stroke-width=".516"/><path d="M615.579 316.4s-.99 3.308-.904 3.824c.086.516 1.29-.43 1.72-1.633.43-1.205.872-4.09.872-4.09zm-3.26 6.919s-1.396 1.36-1.483 2.478c-.086 1.117 0 3.697 0 3.697s2.002-1.283 1.87-2.042c-.132-.76-.28-2.496-.28-2.496zm14.36-7s-1.335-2.006-2.36-2.544c-.36-.187-.859-.084-1.203-.17-.345-.087-2.409-.689-1.806 0 .602.687 1.892 1.461 2.235 2.32.345.861 1.133 1.549 1.133 1.549l.931.43zm-12.5-2.18s-1.656 1.028-1.98 2.102c-.322 1.074-.792 3.612-.792 3.612s2.232-.824 2.265-1.595c.032-.77.261-2.498.261-2.498z" stroke-width=".516"/><path d="M618.879 314.16l-1.617-.883s-2.256.276-2.256.285c0 .008-2.403.337-2.898.486-.494.15-.781.685-.781.685s1.374.18 2.06.276c.82.116 1.707.017 2.457.368.94.44 2.375 1.985 2.324 2.07-.049.085.948.773.948.773l1.416-3.01z" stroke-width=".516"/><path d="M622.199 314.28l-1.292-1.312-2.802-.79s-1.84.037-2.356.037c-.516 0-.946.43-.946.43s1.29.516 1.893.86c.601.345 1.891 1.462 1.891 1.462s2.054 2.187 1.981 2.255c-.072.067.684 1.012.684 1.012l2.226-2.47z" stroke-width=".516"/><path d="M624.38 315.54s-1.345-1.993-2.36-2.545c-.492-.264-1.308-.197-1.651-.283-.344-.085-1.62.037-1.62.037s2.153 1.536 2.496 2.397c.344.86 1.134 1.548 1.134 1.548l.93.43zm-5.001.02s-1.344.367-1.565.607c-.222.241-.471.212-.804 1.256-.331 1.044-.528 1.133-.534 1.749-.006.615.184 1.566.216 1.74.031.175-.54 1.422-.54 1.422s.091.1.444-.06c.353-.158.999-.4 1.413-.633a3.871 3.871 0 0 0 1.2-1.104c.348-.486.936-.75 1.152-1.319.216-.568.337-1.14.427-1.464.091-.324.28-1.162.28-1.162z" stroke-width=".516"/><path d="M618.879 316.64s-.77 1.344-1.002 2.613c-.232 1.27-.485 1.224-.216 2.147.267.923-.334 3.26.144 2.56.476-.699 1.302-2.82 1.44-3.582.139-.761.686-2.322.948-2.799.262-.477-1.314-.94-1.314-.94zm-36.06 5.76c.82-1.053 2.847.374 3.77 1.336.763.797.77 2.079.972 3.162.21 1.12 1.232 2.842.244 3.406-.557.318-1.272-.533-1.58-1.094-.49-.888.3-2.118-.122-3.041-.394-.86-1.457-1.223-2.068-1.945-.471-.558-1.665-1.248-1.216-1.824z" stroke-width=".516"/><path d="M584.519 327.879c-.746.686-.186 2.075.121 3.04.294.922.886 1.761 1.582 2.433.85.82 1.872 1.64 3.04 1.824.535.084 1.511.172 1.581-.365.122-.953-2.009-.547-2.554-1.338-.58-.84-.024-2.078-.364-3.04-.305-.859-.692-1.822-1.46-2.31-.552-.351-1.464-.686-1.946-.244z" stroke-width=".516"/><path d="M581.859 327.339c-.696.8.177 2.168.654 3.115.556 1.104 1.77 1.746 2.462 2.77.322.474.228 1.724.768 1.537 1.584-.546-.607-3.294-1-4.923-.19-.788-.024-1.832-.654-2.344-.577-.472-1.74-.717-2.23-.154z" stroke-width=".516"/><path d="M582.819 323.259c-.672.591-.06 1.833.243 2.676.365 1.016 1.356 1.703 1.824 2.676.24.497-.063 1.543.487 1.58.579.039.592-1.017.73-1.58.202-.828.306-1.722.121-2.554-.188-.85-.524-1.783-1.215-2.311-.594-.454-1.629-.98-2.19-.486z" stroke-width=".516"/><path d="M581.84 323.379c-.997.37-.428 2.103-.365 3.162a12.24 12.24 0 0 0 .972 4.135c.116.268.2.788.487.73 1.09-.224.527-2.174.608-3.284.08-1.092.336-2.288-.122-3.284-.3-.652-.909-1.709-1.58-1.46z" stroke-width=".516"/></g><g fill="#e6e6e6" stroke-width=".315"><path d="M629.639 326.4l-2.28 1.802 1.036-3.035zm-5.28 5.7l2.132-2.085-.984 3.149z" stroke-width=".378"/><path d="M617.079 368.84s1.152.859 1.37 1.5c.096.28-.072.88-.072.88s-.49-.6-.797-.828c-.411-.306-1.369-.702-1.369-.702-.024-.498.197-.828.868-.852zm1.96-.9s1.152.859 1.37 1.5c.096.28-.072.88-.072.88s-.489-.6-.797-.828c-.41-.306-1.368-.702-1.368-.702-.024-.498.197-.828.867-.852zm-24.06 1.3s1.152.858 1.37 1.5c.096.279-.072.881-.072.881s-.489-.6-.797-.829c-.41-.306-1.368-.7-1.368-.7-.024-.499.197-.83.867-.853zm1.94-.9s1.152.858 1.37 1.5c.096.279-.072.881-.072.881s-.49-.6-.797-.829c-.411-.306-1.369-.7-1.369-.7-.024-.499.197-.83.868-.853zm14.16 3.579s1.152.86 1.37 1.501c.096.278-.072.88-.072.88s-.49-.6-.797-.827c-.411-.307-1.369-.702-1.369-.702-.024-.498.197-.83.868-.852zm2.02-1.16s1.152.86 1.37 1.5c.096.28-.072.881-.072.881s-.489-.6-.797-.828c-.41-.306-1.368-.702-1.368-.702-.024-.498.197-.828.867-.852zm1.96-.92s1.152.86 1.37 1.5c.096.28-.072.882-.072.882s-.49-.6-.796-.829c-.412-.306-1.37-.7-1.37-.7-.024-.499.197-.83.868-.853zm-25.84 2.78s1.152.86 1.37 1.5c.096.28-.072.881-.072.881s-.489-.6-.797-.828c-.41-.306-1.368-.702-1.368-.702-.024-.498.197-.828.867-.852zm2.04-1.16s1.152.86 1.37 1.5c.096.28-.072.882-.072.882s-.489-.6-.797-.829c-.41-.306-1.368-.7-1.368-.7-.024-.499.197-.83.867-.853zm1.94-.9s1.152.86 1.37 1.5c.096.28-.072.882-.072.882s-.49-.6-.797-.829c-.411-.306-1.369-.7-1.369-.7-.024-.499.197-.83.868-.853z" stroke-linecap="round" stroke-width=".378"/></g><path d="M623.759 315.24a4.7 4.7 0 0 0-.996.071c-.51.095-1.111.465-1.649.869-1.913-2.288-3.914.484-3.02 2.178.278.528.867.768 1.272 1.255-.01.62-.035 1.195-.232 1.534-.435.528-.655 1.229-.79 1.9-.134.671-.155 1.387 0 2.051.163.688.609 1.27.943 1.893.4.747 1.263 2.214 1.263 2.214v2.205l1.264-.79c.379 1.52.987 2.884 2.052 3.945 0 0 1.587-.036 1.892-.627.328-.636-.627-2.052-.627-2.052l-1.892-1.892c-.518-.76-1.224-1.616-1.11-2.528.104-.857.863-1.568 1.576-2.052.634-.432 1.448-.606 2.214-.629.218-.006 1.349-.721 1.363-.439.013.26-.072.536.054.754.413.72 2.052 1.416 2.052 1.416s1.422-.79 2.052-1.264c.633-.474.904-2.276.315-3.156-.305-.456-1.106-.192-1.577-.475-1.023-.61-2.362-2.045-2.52-2.519-.156-.473-.348-2.17-1.111-2.842-.732-.644-1.772-.99-2.788-1.02z" stroke-width=".3864"/><path d="M624.02 317.139s1.408.018 1.895.446c.24.21.336.894.336.894" stroke-width=".8603999999999999" stroke-linecap="round"/><path d="M628.559 322.719c-.536.248-.733.282-.959.58-.252.333-.205.54-.331 1.208" stroke-width=".3864"/><path d="M619.239 316.719c.236-.126.891-.207 1.215.285m-.603 1.726c-.189-.352-.178-1.217.555-1.7" stroke-width=".3444" stroke-linecap="round"/><path d="M624.879 318.8c-.543.135-1.914.688-1.914.688l2.178 1.036-.024-.24c.024.038.067.072.096.072.112 0 .192-.354.192-.767 0-.413-.08-.741-.192-.741-.113 0-.216.328-.216.741z" fill="#e6e6e6" stroke="#e6e6e6" stroke-width=".384"/><path d="M626.099 318.099s-.68.543-1.223.679c-.22.055-.722-.02-1.147.107a4.463 4.463 0 0 0-1.16.572s.76.618 1.2.82c.645.294 2.059.539 2.059.539" fill="none" stroke-width=".4596" stroke-linecap="round"/><path d="M625.485 319.563a.539.997 0 1 1-1.078 0 .539.997 0 1 1 1.078 0zm4.634 2.657c0 .112-.077.314.095.342.171.028.583.252.67.477.085.226.734.372.949.54.07.057.108-.396.169-.001.537-.396.313-1.1-.233-1.636-.306-.3-1.104-.138-1.576-.321-.006.319.047.211-.074.599z" fill="#000" stroke="none"/></g></svg>