<?xml version="1.0" encoding="UTF-8" standalone="no"?>
<!-- Created with Inkscape (http://www.inkscape.org/) -->

<svg
   xmlns:dc="http://purl.org/dc/elements/1.1/"
   xmlns:cc="http://creativecommons.org/ns#"
   xmlns:rdf="http://www.w3.org/1999/02/22-rdf-syntax-ns#"
   xmlns:svg="http://www.w3.org/2000/svg"
   xmlns="http://www.w3.org/2000/svg"
   xmlns:xlink="http://www.w3.org/1999/xlink"
   version="1.0"
   width="1200"
   height="600"
   id="svg551">
  <metadata
     id="metadata61">
    <rdf:RDF>
      <cc:Work
         rdf:about="">
        <dc:format>image/svg+xml</dc:format>
        <dc:type
           rdf:resource="http://purl.org/dc/dcmitype/StillImage" />
        <dc:title></dc:title>
      </cc:Work>
    </rdf:RDF>
  </metadata>
  <defs
     id="defs60" />
  <rect
     width="1200"
     height="600"
     x="0"
     y="0"
     id="rect628"
     style="fill:#ffb700" />
  <rect
     width="165"
     height="500"
     x="215"
     y="50"
     id="rect626"
     style="fill:#ff5b00" />
  <rect
     width="165"
     height="500"
     x="50"
     y="50"
     id="rect625"
     style="fill:#005641" />
  <rect
     width="725"
     height="500"
     x="430"
     y="50"
     id="rect627"
     style="fill:#8d2029" />
  <use
     transform="matrix(-1,0,0,1,1585,0)"
     id="use3712"
     x="0"
     y="0"
     width="1200"
     height="600"
     xlink:href="#path2389" />
  <use
     transform="matrix(1,0,0,-1,0,600)"
     id="use3710"
     x="0"
     y="0"
     width="1200"
     height="600"
     xlink:href="#path2389" />
  <use
     transform="matrix(-1,0,0,-1,1585,600)"
     id="use3714"
     x="0"
     y="0"
     width="1200"
     height="600"
     xlink:href="#path2389" />
  <path
     d="m 498.93712,466.06288 c 0,0 -6.79817,13.84078 -14.30866,19.4803 -11.12764,8.35556 -33.94508,7.75196 -43.62858,17.50007 -11.60368,11.49512 0.90045,26.68249 0.79591,28.00041 l -0.63625,8.02062 c 0,0 7.82449,0.0943 11.11863,0.60793 4.95382,0.7724 6.88599,4.80316 16.10899,4.20452 23.18928,-1.50519 22.25458,-22.39673 23.56581,-40.25016 1.16464,-6.79827 3.85945,-15.66202 5.39079,-22.45842 1.31306,-5.82766 1.59336,-15.10527 1.59336,-15.10527 z"
     id="path2389"
     style="fill:#ffb700;fill-opacity:1;fill-rule:evenodd;stroke:#000000;stroke-width:2.12575722;stroke-linecap:butt;stroke-linejoin:miter;stroke-miterlimit:4;stroke-opacity:1;stroke-dasharray:none" />
  <path
     d="m 681.53685,479.55607 4.35934,-2.51698 1.86494,2.52152 c 2.48456,3.3595 9.35954,3.32149 13.92141,-0.0773 l 3.48825,-2.59853 2.92082,2.59853 c 3.84022,3.41678 11.01199,3.42131 15.59133,0.0122 3.20597,-2.38821 3.65297,-2.43618 5.77275,-0.61944 1.26371,1.08312 4.97016,2.31623 8.23659,2.74018 5.88282,0.76367 5.9719,0.72173 9.4138,-4.442 2.88261,-4.32453 3.3335,-6.0748 2.64564,-10.26908 -0.45593,-2.78066 -0.9471,-7.25615 -1.09148,-9.94544 -0.26119,-4.8694 -0.23309,-4.89969 6.85982,-7.36946 3.91713,-1.36396 8.45141,-3.19334 10.07615,-4.06528 2.83277,-1.5202 10.64256,-10.69928 10.64256,-12.50841 0,-0.47938 -3.05109,-1.21374 -6.78008,-1.63205 -14.83264,-1.66368 -17.34465,-9.62879 -7.70216,-24.42327 15.72536,-24.12785 25.21465,-47.62496 25.27809,-62.59335 0.0285,-6.69056 0.40945,-8.93701 1.26916,-7.48205 3.5135,5.9459 -2.78084,30.87653 -12.31558,48.77959 l -3.83918,7.20894 3.66347,-0.84337 c 2.01487,-0.46382 13.86105,-5.46187 26.32464,-11.10669 34.115,-15.4512 45.8326,-18.47908 67.91083,-17.54914 18.49687,0.77911 26.37399,4.39271 39.43363,18.09045 6.9185,7.25652 13.58319,12.44857 25.77497,20.08011 25.97463,16.25902 27.05783,17.66737 28.29318,36.78809 1.25154,19.37299 0.62869,20.42398 -14.02448,23.66133 -12.52354,2.76692 -20.37541,8.60539 -22.4812,16.71657 -1.1245,4.33176 1.24195,4.45649 7.5561,0.39845 l 4.62752,-2.97406 2.05763,2.97406 c 2.70508,3.91001 8.45503,3.92559 13.22965,0.0356 l 3.60674,-2.93812 3.68689,2.93812 c 5.7286,4.56502 13.34673,3.45798 15.49668,-2.25197 0.41335,-1.09747 1.51636,-0.74587 3.74996,1.19533 4.18518,3.6374 14.91358,5.19759 16.0724,2.33759 0.44221,-1.09123 -0.3978,-3.78616 -1.86663,-5.98871 -6.24189,-9.3596 -8.1945,-13.82321 -8.27582,-18.91801 -0.11266,-7.0863 2.00142,-10.5054 10.06139,-16.26844 9.79083,-7.00082 12.81643,-16.03299 5.37063,-16.03299 -4.59718,0 -9.2317,-4.06344 -12.18721,-10.68568 -6.00791,-13.4613 -4.83044,-28.55231 4.18659,-53.6572 9.15882,-25.49991 10.17482,-30.20178 10.21142,-47.25621 0.03,-13.78933 -0.3175,-16.17394 -3.4548,-23.73369 -1.91816,-4.62226 -5.81016,-11.50479 -8.64888,-15.29447 l -5.16141,-6.89033 6.62674,-5.49003 c 20.23415,-16.76316 16.09495,-44.19816 -8.263,-54.76881 -7.45161,-3.23382 -9.31345,-3.51938 -22.37218,-3.4316 -7.83425,0.0527 -19.77988,1.08363 -26.54582,2.29107 -6.89855,1.23106 -18.57547,2.22048 -26.58545,2.25264 -12.72466,0.0512 -14.88471,-0.26249 -19.78857,-2.87271 -5.11324,-2.72169 -5.9899,-4.01388 -6.99101,-10.30453 -0.20575,-1.29311 -1.10986,-2.58308 -2.00893,-2.86662 -1.73921,-0.54841 -9.77105,6.4223 -10.95773,9.50999 -0.58543,1.52354 -1.06326,1.4182 -2.78083,-0.61319 -1.14069,-1.34898 -2.73331,-4.44872 -3.53928,-6.88827 -2.02667,-6.13534 0.46204,-10.73452 7.67382,-14.18127 l 5.59521,-2.67409 -3.29931,-2.04741 c -6.80831,-4.22477 -18.38487,-1.3347 -22.5716,5.63504 -1.18433,1.97151 -2.47614,3.58809 -2.87057,3.59235 -0.39444,0.003 -2.64552,-1.87652 -5.00254,-4.17953 -8.79042,-8.58933 -5.76665,-21.29693 5.99083,-25.17665 6.2696,-2.06887 11.81792,-0.49068 12.97235,3.68998 1.76238,6.38263 7.24093,-2.00712 6.25835,-9.58401 -0.6533,-5.03743 -0.55514,-5.21203 2.93051,-5.21203 4.84728,0 15.16454,6.36187 18.35561,11.31851 3.70645,5.75729 3.43671,14.82343 -0.64203,21.58019 l -3.20271,5.30554 4.18944,-0.83896 c 6.14335,-1.23022 12.11176,-5.04533 15.13114,-9.67208 3.19195,-4.89135 3.53524,-14.41552 0.70469,-19.55543 -2.74291,-4.98095 -2.42836,-5.77167 1.62667,-4.08848 6.89687,2.86283 10.58416,6.02014 13.34996,11.431 2.49078,4.87289 2.62985,6.08381 1.28145,11.1555 -0.83198,3.12908 -2.68307,7.24595 -4.11369,9.14856 -2.2274,2.96257 -2.30341,3.45927 -0.52871,3.45927 3.30515,0 10.20642,-3.12813 12.65755,-5.73729 1.23834,-1.3182 3.04371,-4.56399 4.01205,-7.21291 l 1.76071,-4.81619 2.02304,3.67117 c 2.86086,5.19124 8.42254,9.86266 15.20351,12.76965 7.29299,3.12651 10.33021,3.30267 6.51642,0.37792 -2.57184,-1.97233 -7.31086,-15.87789 -5.87466,-17.23806 0.84508,-0.80031 10.74717,6.81856 22.05272,16.96774 10.69473,9.60093 17.4151,12.7457 27.23774,12.74577 12.5477,8e-5 19.8537,-10.92274 14.2142,-21.25099 -3.288,-6.02158 -10.6128,-6.8581 -14.896,-1.70113 -1.9696,2.37135 -2.5103,4.25773 -1.9334,6.745 0.7066,3.04695 0.4309,3.45297 -2.34514,3.45297 -3.64728,0 -10.83693,-4.66644 -23.60572,-15.32134 -19.47119,-16.24757 -43.13036,-30.01952 -60.21371,-35.05019 -10.96343,-3.22846 -34.38293,-4.48834 -45.52765,-2.44919 -12.06203,2.20701 -26.32905,9.10986 -34.10142,16.49931 -13.77224,13.09391 -13.99068,30.51836 -0.58141,46.3852 l 3.84113,4.54516 -2.60048,4.03939 c -3.7831,5.87646 -3.45912,13.78452 0.80339,19.6096 1.87736,2.56562 3.77118,4.66369 4.20848,4.66233 0.43728,-0.001 0.91679,-1.65078 1.06545,-3.66545 0.37644,-5.09658 2.56381,-8.51131 6.31829,-9.8632 3.38156,-1.2176 5.56763,-0.64252 21.05097,5.53764 16.28852,6.5015 43.07662,6.9484 71.56108,1.19381 13.96415,-2.82113 30.43007,-2.65519 37.67422,0.37962 13.2794,5.56313 16.35651,20.03634 6.59554,31.0225 -4.22557,4.75591 -8.30081,6.69269 -21.98332,10.44782 -10.41179,2.85747 -12.87796,3.04717 -36.5431,2.81091 -20.21808,-0.20184 -27.48413,0.18642 -35.73716,1.90964 -8.9598,1.87074 -14.47059,2.05938 -40.78993,1.39614 l -30.43058,-0.76685 3.37455,2.79426 c 1.85601,1.53683 4.47822,3.42771 5.82713,4.20195 2.29524,1.3174 2.21872,1.4944 -1.19274,2.75931 -2.00493,0.7434 -6.45478,1.35162 -9.88865,1.35162 l -6.24319,0 -0.84015,5.30571 c -0.46215,2.91816 -0.42705,6.32515 0.0776,7.57109 0.74459,1.83767 0.46708,2.10157 -1.46961,1.39773 -1.31304,-0.47719 -4.97,-1.41575 -8.12651,-2.08569 -3.15649,-0.66995 -7.40537,-2.03415 -9.44202,-3.03156 -3.4248,-1.67729 -3.80538,-1.63221 -5.06689,0.60016 -1.12645,1.99351 -11.70192,9.86437 -13.254,9.86437 -0.25046,0 -0.57378,-1.51763 -0.71843,-3.37249 -0.14464,-1.85488 -1.67032,-6.68368 -3.39036,-10.73068 -1.72016,-4.047 -3.51622,-8.46193 -3.99134,-9.81091 -0.71672,-2.03495 -1.04123,-2.1394 -1.90559,-0.61319 -0.573,1.01175 -1.40965,3.77106 -1.85912,6.13183 -0.44947,2.36074 -2.04299,6.19582 -3.54121,8.5224 l -2.72398,4.23011 -1.7374,-3.61695 c -1.86508,-3.88277 -4.96147,-7.90919 -6.08249,-7.90919 -0.37837,0 -1.02285,1.24169 -1.43204,2.75931 -0.85453,3.16922 -8.19697,11.95705 -9.9903,11.95705 -0.66041,0 -1.20066,-2.48339 -1.20066,-5.51864 0,-3.03525 -0.5827,-5.51864 -1.29491,-5.51864 -0.7122,0 -1.29492,0.78545 -1.29492,1.74545 0,2.33352 -6.27063,9.29183 -8.37358,9.29183 -0.91771,0 -2.39405,0.82779 -3.28067,1.83953 -2.31182,2.63801 -4.20292,2.26783 -3.23096,-0.63242 0.45568,-1.35959 0.15939,-4.53281 -0.65846,-7.0516 -0.81788,-2.51879 -1.68754,-5.19958 -1.93254,-5.9573 -0.30871,-0.95429 -2.55578,-0.70116 -7.31162,0.82362 -7.68523,2.46393 -10.26121,2.02802 -6.30873,-1.06755 1.44488,-1.13162 3.64248,-5.05141 4.88378,-8.71067 1.24119,-3.65925 3.0726,-6.90606 4.06981,-7.21514 1.3963,-0.43282 1.32199,0.10204 -0.32373,2.32718 -1.17527,1.58906 -2.14037,3.73214 -2.14477,4.76244 0,1.0303 -0.88884,3.473 -1.96557,5.42822 -1.07659,1.95524 -1.75344,3.74826 -1.50392,3.98453 0.24941,0.23626 3.17348,-0.87452 6.49778,-2.4684 l 6.04416,-2.89794 0.0246,2.59252 c 0.0142,1.42588 0.74212,5.18752 1.61865,8.3592 l 1.59366,5.76665 4.11434,-1.89098 c 4.20486,-1.9326 8.18739,-8.82216 8.18739,-14.16383 0,-2.6406 1.51258,-2.23526 2.13195,0.57128 0.18181,0.8236 1.13125,3.91474 2.10993,6.86919 l 1.77949,5.37171 2.81696,-3.39162 c 1.54936,-1.8654 3.49174,-5.52437 4.31634,-8.13105 1.43154,-4.52513 3.67927,-6.47059 3.67927,-3.18452 0,2.36802 6.46216,10.86076 7.70877,10.13108 0.60253,-0.35262 1.80226,-3.54011 2.66611,-7.08331 1.7967,-7.36857 4.69524,-12.38 6.537,-11.30199 0.69252,0.40535 0.96225,1.19203 0.59929,1.74818 -0.36297,0.55613 1.12541,5.3468 3.30748,10.64593 2.18206,5.29914 4.3732,10.63446 4.8693,11.85629 0.797,1.96319 1.51737,1.67801 6.19474,-2.45273 2.91098,-2.57083 5.55314,-5.4487 5.8713,-6.39526 0.48094,-1.43096 1.13033,-1.37861 3.85237,0.31056 3.80667,2.36219 16.60499,6.16829 17.59342,5.23214 0.37021,-0.35059 0.74975,-3.7118 0.8435,-7.46938 l 0.17042,-6.83192 3.68041,0.76323 c 2.02421,0.41978 6.28048,0.39398 9.45835,-0.0575 l 5.77791,-0.82057 -5.14923,-3.53268 c -2.83225,-1.94296 -5.69584,-4.45735 -6.36363,-5.58751 -0.71142,-1.20397 -3.23198,-2.22631 -6.08727,-2.46895 -7.71474,-0.65558 -21.38778,-8.32442 -21.38778,-11.99583 0,-0.68925 1.89382,0.48271 4.20848,2.60434 5.13487,4.70667 12.26858,7.66091 18.49908,7.66091 l 4.66209,0 -2.88404,-3.83577 c -1.65673,-2.2034 -3.1425,-6.3832 -3.49136,-9.82177 -0.55604,-5.48103 -1.1346,-6.35253 -6.85776,-10.33129 -3.43761,-2.38991 -7.69569,-5.97205 -9.46222,-7.96033 l -3.21193,-3.61504 -1.6387,4.2921 c -0.90139,2.36066 -2.00299,4.29211 -2.44792,4.29211 -0.44494,0 -2.17766,-1.37967 -3.85032,-3.06591 -1.67276,-1.68625 -3.37675,-3.05958 -3.78671,-3.05185 -0.4101,0.007 -1.89188,2.27907 -3.29286,5.04739 l -2.54736,5.03332 -1.96841,-2.90125 c -1.08269,-1.5957 -3.64002,-4.41887 -5.68287,-6.27375 -2.04287,-1.85487 -3.1174,-3.3725 -2.38772,-3.3725 0.72956,0 3.25103,1.93228 5.60326,4.29395 l 4.27647,4.29395 1.7405,-3.14595 c 1.03282,-1.86689 1.41987,-4.7346 0.95201,-7.05328 -0.68203,-3.37968 -0.5862,-3.57611 0.70963,-1.45458 0.82408,1.34899 3.32586,3.93528 5.55973,5.74728 l 4.06165,3.29455 2.80284,-5.1341 c 2.78951,-5.10944 2.80906,-5.11937 4.07822,-2.06819 1.69725,4.0805 13.98019,14.14909 24.43744,20.03176 1.61178,0.9067 0.9322,-2.21121 -2.04443,-9.38091 -0.78834,-1.89877 -1.43334,-5.32192 -1.43334,-7.60698 0,-3.39002 -0.97793,-4.89883 -5.31358,-8.19811 -6.25923,-4.7632 -8.28346,-8.15044 -9.46299,-15.83494 -0.47783,-3.1128 -1.5732,-6.57488 -2.43432,-7.6935 -1.2773,-1.65955 -1.48838,-0.73081 -1.14664,5.04647 0.23036,3.89416 -0.27608,8.7359 -1.12555,10.7594 l -1.54433,3.67908 -1.19378,-3.06591 c -0.65653,-1.68625 -3.56051,-4.61872 -6.45348,-6.5166 -2.89286,-1.89788 -4.92328,-3.7694 -4.51188,-4.15893 0.41126,-0.38953 3.38737,1.34016 6.61341,3.84374 4.91472,3.81401 5.99727,4.22696 6.67801,2.54709 0.79975,-1.97389 -10e-4,-10.56181 -1.54612,-16.56348 -0.77113,-2.9968 -0.70366,-2.98067 2.9932,0.71559 2.72658,2.72613 4.23425,5.97761 5.40227,11.65045 1.48384,7.20681 2.23243,8.40655 8.89622,14.25761 4.00181,3.51376 7.48436,6.19134 7.73907,5.95018 0.25458,-0.24116 0.75961,-9.33067 1.12218,-20.19893 0.69536,-20.84145 -0.0906,-25.80025 -5.10975,-32.23925 l -2.57884,-3.30846 4.054,-4.37286 c 5.28859,-5.70447 7.71682,-10.27706 8.77011,-16.51528 l 0.85683,-5.07477 -4.57507,4.33286 c -3.74619,3.54786 -5.53525,4.33287 -9.87427,4.33287 -4.29654,0 -5.97487,-0.72001 -8.87019,-3.80525 -3.47387,-3.70169 -9.62953,-7.26345 -15.54898,-8.99686 -2.18674,-0.64031 -2.91358,-0.3614 -2.91358,1.11788 0,1.08406 -1.20789,4.21329 -2.68422,6.95383 l -2.68411,4.98279 -5.62383,-5.55871 c -3.44967,-3.40957 -7.54355,-6.0635 -10.58881,-6.86435 -7.78077,-2.04615 -8.20215,-1.84298 -8.20215,3.95403 0,8.7932 -3.75434,10.43146 -10.51111,4.5868 -5.15079,-4.45542 -9.4235,-5.42406 -19.19056,-4.35047 l -7.54353,0.82916 1.35733,3.40544 c 1.13369,2.84455 0.8782,4.0425 -1.55079,7.27318 -3.9398,5.23993 -9.06238,7.50979 -16.94791,7.50979 -3.63186,0 -8.17676,0.75156 -10.09997,1.67014 -1.92321,0.91856 -6.7016,1.97684 -10.61872,2.3517 -3.91713,0.37491 -8.0922,1.04399 -9.27783,1.48693 -1.85535,0.69306 -2.05905,0.12189 -1.46144,-4.09804 0.91472,-6.45808 -3.59652,-11.22163 -10.62688,-11.22163 -9.12167,0 -13.32898,8.1592 -9.75683,18.92157 0.68749,2.07138 1.58706,5.33808 1.99897,7.25934 0.42746,1.99322 4.53623,7.28254 9.56881,12.31807 4.85089,4.85369 9.43541,9.90414 10.18801,11.22319 0.75262,1.31906 3.24067,3.43587 5.52905,4.70401 l 4.16084,2.30575 -0.5488,-4.45187 c -0.60318,-4.89276 0.46295,-5.66035 3.06624,-2.20773 0.93053,1.23427 3.29454,3.22927 5.2531,4.43331 3.08526,1.89674 3.56102,1.93527 3.56102,0.28842 0,-1.04541 0.62895,-3.45432 1.39761,-5.35309 l 1.39774,-3.45234 2.42511,4.69723 c 1.33378,2.58348 5.67136,8.45501 9.63899,13.04788 7.69856,8.9118 12.38926,18.87061 9.96829,21.16347 -0.98194,0.92988 -3.63626,0.85791 -9.1376,-0.24774 -4.26456,-0.85709 -9.53941,-1.31013 -11.72198,-1.00676 -4.45712,0.61953 -4.80817,0.0441 -2.06696,-3.38808 2.8931,-3.6226 2.4329,-4.22008 -3.25076,-4.22008 -6.57572,0 -22.90102,-3.1522 -29.16751,-5.63186 -6.09336,-2.41121 -7.49927,-1.81083 -9.29285,3.96858 -0.80725,2.60105 -2.28528,7.31416 -3.28444,10.47358 l -1.81664,5.74437 6.59268,-0.6349 c 3.62604,-0.3492 8.28968,-1.14309 10.36376,-1.76423 2.07407,-0.62112 3.95908,-0.95122 4.18893,-0.73356 0.22985,0.21769 -0.6946,2.4623 -2.05426,4.98803 l -2.47212,4.59221 4.11032,-0.8379 c 2.26079,-0.46085 5.66202,-1.58849 7.55844,-2.50589 3.29983,-1.5963 3.56478,-1.48038 6.16757,2.69734 3.20064,5.13763 5.76109,4.92654 6.32917,-0.52181 0.58738,-5.63253 2.44014,-4.79939 5.92554,2.66454 3.3515,7.17721 6.83846,9.71124 7.50847,5.45648 0.22232,-1.41265 2.02783,-3.71219 4.01203,-5.11007 4.01361,-2.82756 7.03815,-1.97924 8.77231,2.46028 1.795,4.5955 -2.20836,9.33228 -13.85344,16.39116 -23.32652,14.13994 -36.88613,33.47856 -40.75716,58.12768 -3.49149,22.23262 7.4134,45.20683 29.29002,61.7078 10.46902,7.89655 27.10005,16.23068 26.04327,13.0507 -4.48818,-13.50532 -4.34045,-39.27378 0.2503,-43.62136 0.68891,-0.65244 0.45194,2.03637 -0.52663,5.97521 -3.64495,14.67208 -2.06152,26.36276 7.28197,53.76315 8.45063,24.78174 7.28093,35.37347 -4.67945,42.37404 -3.84138,2.24842 -6.31455,2.61891 -16.64294,2.49358 -11.20688,-0.13613 -12.42798,0.0895 -16.02604,2.9564 -3.48813,2.77978 -8.01075,11.90615 -8.01075,16.16531 0,2.30716 2.56199,2.00179 7.59663,-0.90506 z m 90.81716,-214.9239 c 0,-1.7992 -5.28367,-6.67524 -10.63764,-9.81699 -4.2046,-2.46738 -4.89919,-2.54235 -4.90863,-0.52996 -0.0143,3.05524 -2.73112,10.73068 -3.798,10.73068 -0.60162,0 -1.49123,-1.49993 -1.97707,-3.33315 -0.48587,-1.83323 -2.52407,-5.44616 -4.52951,-8.02874 l -3.64622,-4.69558 -2.83911,4.35056 c -2.64669,4.05568 -7.23148,8.02783 -9.26618,8.02783 -0.48599,0 -0.58103,-2.13591 -0.21134,-4.74647 0.40169,-2.83636 0.092,-5.08632 -0.77073,-5.59102 -0.79353,-0.4645 -1.44279,-0.30245 -1.44279,0.3601 0,1.52827 -6.367,8.75102 -7.71423,8.75102 -0.55513,0 -1.3322,-2.06949 -1.72702,-4.59887 -0.39469,-2.52937 -1.06559,-6.53038 -1.49085,-8.89113 -0.42526,-2.36075 0.48144,-0.75983 2.01502,3.55758 l 2.78835,7.84984 3.0577,-4.78394 c 1.68171,-2.63117 3.06066,-5.50634 3.06429,-6.38927 0,-0.88294 0.57248,-1.27414 1.2641,-0.86936 0.69149,0.40477 1.65399,3.56755 2.13869,7.02839 l 0.88145,6.29246 3.36458,-3.68895 c 1.85056,-2.02892 4.01905,-4.74524 4.81878,-6.03626 1.42701,-2.30364 1.50781,-2.30169 4.34626,0.10554 1.59068,1.349 4.03626,4.57571 5.43451,7.17045 1.39839,2.59471 2.72956,4.52624 2.95838,4.29226 0.22868,-0.23399 0.74108,-2.90882 1.13875,-5.94407 0.39754,-3.03525 0.75248,-5.63119 0.7886,-5.76877 0.19786,-0.7521 10.13507,5.7072 13.81173,8.97776 2.3631,2.10218 4.60745,3.52784 4.98726,3.1681 0.37993,-0.35979 0.69071,-3.46121 0.69071,-6.89211 0,-5.3167 -0.56355,-6.7417 -3.8155,-9.64851 -3.73906,-3.3422 -3.84369,-3.36056 -5.22524,-0.91579 -1.79307,3.17297 -3.90845,3.21879 -3.90845,0.0846 0,-2.28752 -7.06586,-11.07996 -8.90413,-11.07996 -0.47653,0 -1.96463,1.93152 -3.30708,4.29228 -1.34244,2.36074 -2.78602,4.29005 -3.20803,4.28737 -1.81251,-0.0111 -11.77366,-11.11739 -11.76926,-13.12163 0,-1.5945 0.67129,-1.18677 2.41762,1.47607 1.3269,2.0235 3.97773,5.04429 5.89045,6.71287 3.87309,3.37866 5.28107,2.55714 6.77566,-3.95355 0.42577,-1.85488 1.16582,-3.37249 1.64442,-3.37249 1.65581,0 10.32723,9.20974 11.54677,12.26363 l 1.22436,3.06591 0.92741,-3.3725 c 1.13397,-4.124 2.38524,-4.27739 4.19579,-0.51425 0.75626,1.57204 4.49183,4.84038 8.30109,7.26298 l 6.92601,4.40473 1.38997,-4.43029 c 0.76451,-2.43664 1.77726,-3.83685 2.25056,-3.11158 0.70585,1.08153 -1.09447,8.42271 -2.45284,10.00226 -0.20356,0.23674 -2.4479,-1.07046 -4.98751,-2.90487 l -4.61715,-3.33532 -0.0182,5.97078 c -0.0129,3.28393 -0.36905,7.21249 -0.79856,8.73011 -0.83976,2.96735 -3.06857,3.80211 -3.06857,1.1492 z m -34.53458,-47.60482 c -8.23139,-6.87247 -9.481,-8.44507 -9.29868,-11.70234 l 0.19399,-3.46684 0.537,3.34847 c 0.31363,1.95524 2.5058,4.88531 5.26864,7.04218 l 4.73176,3.69373 2.90761,-3.36309 c 1.59934,-1.8497 2.92871,-4.05294 2.95435,-4.89605 0.0673,-2.19852 0.46176,-2.01386 6.03472,2.82159 4.95149,4.29628 5.02867,4.31681 5.76509,1.53298 0.41049,-1.55188 0.26481,-4.47356 -0.32372,-6.49262 -1.61787,-5.54991 -1.30088,-6.38749 1.15066,-3.04028 1.22137,1.6677 3.18536,4.02526 4.36439,5.23902 2.05231,2.11288 2.17754,2.08675 2.94115,-0.6132 0.43872,-1.55098 0.80557,-4.38984 0.81528,-6.30852 l 0.0182,-3.48854 4.46449,5.06073 c 4.17017,4.72717 4.55437,4.9018 5.82715,2.64938 0.7495,-1.32624 1.37156,-4.51712 1.38245,-7.09083 0.0142,-3.32477 0.36439,-4.16367 1.20997,-2.8977 1.41211,2.11404 0.43172,7.87005 -2.17585,12.77534 l -1.87117,3.51987 -2.4571,-3.82645 c -3.14174,-4.89275 -4.18764,-4.81422 -6.20356,0.46582 -1.90522,4.98978 -3.14406,5.36959 -5.00046,1.53295 -1.2013,-2.48292 -1.42997,-2.17868 -2.28268,3.03743 l -0.94776,5.79672 -5.67847,-4.40677 -5.6786,-4.40677 -2.55281,2.9023 c -1.40407,1.59628 -2.57223,3.59216 -2.59592,4.43527 -0.0517,1.82736 -1.41755,1.88445 -3.49952,0.14622 z m 73.22324,-25.5956 c -2.99619,-2.69928 -5.06015,-5.27464 -4.58673,-5.72303 0.47342,-0.44838 1.00654,-0.57681 1.18459,-0.28542 0.17806,0.29139 2.62713,2.86676 5.44242,5.72302 6.48221,6.57648 5.14962,6.7629 -2.04028,0.28543 z M 713.50865,181.3503 c -2.72554,-3.68518 -2.53727,-6.12671 0.7803,-10.12109 2.39743,-2.88642 3.49254,-3.27811 7.67875,-2.74634 2.68539,0.34111 8.46385,2.71375 12.84118,5.27253 5.0555,2.9552 10.28463,4.9349 14.33488,5.427 3.50691,0.42609 6.3763,0.58673 6.3763,0.35699 0,-0.22973 -1.45677,-2.60319 -3.23729,-5.2744 -4.2283,-6.34332 -4.08352,-7.02412 0.68552,-3.22371 4.89545,3.90116 10.75107,5.0421 23.83649,4.64439 l 6.393,-0.19431 -3.70876,-3.6663 c -5.18693,-5.12733 -3.59056,-5.58702 2.13751,-0.61554 5.37223,4.66265 5.03581,4.99098 -6.27154,6.11957 -4.80481,0.47958 -9.97192,0.1317 -14.26665,-0.96048 -6.42564,-1.63416 -6.67505,-1.60928 -5.45782,0.54471 0.70158,1.24143 1.83776,2.25713 2.52484,2.25713 0.68721,0 1.24946,0.62908 1.24946,1.39794 0,2.36439 -13.87867,0.28524 -20.51072,-3.07269 -15.15107,-7.67124 -17.05771,-8.33552 -20.66393,-7.19912 -2.00674,0.63235 -4.01527,2.48329 -4.70741,4.33809 -2.3091,6.18726 6.46579,10.99652 10.08509,5.52734 1.049,-1.58528 0.804,-2.66957 -1.0397,-4.59885 -2.52483,-2.64234 -2.28798,-3.01882 1.1205,-1.78013 2.41994,0.87945 2.74548,6.68925 0.49439,8.82124 -2.57573,2.4393 -8.45362,1.74879 -10.67439,-1.25397 z m 59.68499,-15.2834 c -1.8946,-1.79435 -0.40932,-2.23385 8.08468,-2.39223 10.50828,-0.19593 16.89001,-1.94704 24.41983,-6.70059 6.03328,-3.80881 7.66902,-3.05931 1.94238,0.88996 -5.22422,3.6027 -13.37235,6.37231 -21.2386,7.21908 -3.80926,0.41006 -8.15047,0.9781 -9.64728,1.2623 -1.49666,0.28421 -3.09913,0.15887 -3.56101,-0.27852 z m 90.25957,312.99397 4.70106,-3.02128 3.1903,3.02128 c 4.1796,3.95832 9.07594,3.86979 13.09445,-0.23669 1.75359,-1.79197 3.32834,-3.03365 3.49927,-2.75932 0.17093,0.27434 0.95293,1.60249 1.73765,2.95148 0.99334,1.7076 3.03568,2.56617 6.72218,2.82628 4.4417,0.31334 5.63445,-0.1165 7.3993,-2.66745 l 2.10385,-3.04102 4.62766,2.97406 c 12.66948,8.14255 19.41963,-0.40017 13.75772,-17.41118 -2.87898,-8.64953 -1.29595,-13.51208 7.98305,-24.52102 3.91285,-4.64227 7.11764,-9.59728 7.12153,-11.0109 0,-2.25393 -0.72386,-2.55587 -5.93138,-2.45273 -4.98335,0.0994 -6.44131,-0.43585 -9.06442,-3.32332 -4.2665,-4.69647 -4.01295,-10.07506 0.75623,-16.04354 l 3.81005,-4.7681 -6.75962,-4.58734 c -3.71784,-2.52312 -10.42228,-8.49244 -14.89881,-13.26533 -10.05362,-10.71913 -19.93941,-15.80229 -32.97471,-16.95508 l -8.74043,-0.77298 0.0129,6.61575 c 0.0168,8.51685 4.01373,16.70993 14.92444,30.58782 12.40532,15.77902 13.27149,18.22181 13.77378,38.84592 l 0.42473,17.44246 -3.58963,3.40573 c -3.24365,3.0773 -4.70625,3.47 -15.17256,4.07362 -9.96453,0.57467 -12.05789,1.08877 -14.98181,3.67908 -3.88359,3.44044 -5.04488,5.31176 -6.24396,10.06269 -0.69887,2.76876 -0.41568,3.3725 1.58251,3.3725 1.33856,0 4.54931,-1.35967 7.13488,-3.02139 z M 596.81914,433.98121 c 1.10858,-1.49909 2.0158,-3.91982 2.0158,-5.37943 0,-2.20525 0.98543,-2.79367 5.83141,-3.4819 l 5.8314,-0.82816 -3.88903,-3.09927 c -4.62039,-3.68191 -5.04784,-6.55835 -0.97546,-6.56473 4.05595,0 10.92497,-4.21181 11.96931,-7.32788 0.48536,-1.44834 0.18013,-3.38342 -0.69044,-4.3769 -2.27375,-2.59462 -6.54865,-2.2034 -7.3427,0.67204 -0.85348,3.09105 -2.28244,3.09915 -5.52193,0.0306 -4.87315,-4.6153 -4.98258,-14.16854 -0.22595,-19.73182 2.24176,-2.62184 2.22181,-2.79377 -0.6362,-5.50048 -3.07451,-2.91175 -5.27018,-8.6748 -3.82597,-10.04256 0.45957,-0.43524 2.88859,-0.0884 5.39786,0.77114 3.56558,1.22108 4.97315,1.23961 6.44211,0.0846 4.44958,-3.49734 -0.37114,-7.99441 -7.50677,-7.00254 -2.87176,0.3992 -4.05816,0 -4.47058,-1.48966 -0.31195,-1.12984 -2.82383,-2.60505 -5.65387,-3.32037 -5.05691,-1.27836 -5.09258,-1.2628 -5.09258,2.22131 0,3.81792 -2.17938,4.53816 -6.32062,2.08887 -3.36501,-1.99028 -6.62857,-0.44518 -6.62857,3.13826 0,3.34343 3.36228,4.99227 9.38818,4.60401 4.6219,-0.29789 4.79386,3.13911 0.40427,8.07964 l -3.15674,3.55289 2.50075,3.59276 c 3.70371,5.32095 3.39194,14.15825 -0.65433,18.54728 l -3.17211,3.44093 -2.08096,-2.7593 c -2.89194,-3.83461 -6.84761,-3.57757 -7.93233,0.51543 -0.71028,2.68021 -0.12315,3.90499 3.23306,6.74499 2.2555,1.9086 5.5485,3.47024 7.31779,3.47024 4.3784,0 4.20721,3.44327 -0.34417,6.92173 l -3.56102,2.72155 5.50341,0.85366 c 3.02687,0.46958 5.50339,1.35293 5.50339,1.96279 0,2.33905 3.81411,9.61482 5.04014,9.61482 0.70818,0 2.19475,-1.22649 3.30345,-2.72558 z m 71.65924,-31.05741 c 5.00006,-1.97088 15.82118,-11.13439 15.82118,-13.39765 0,-0.71202 -2.98686,-3.99696 -6.63737,-7.30006 -7.68235,-6.95089 -16.03885,-18.65703 -18.20409,-25.50135 -1.12891,-3.56874 -6.58427,-9.67786 -21.95056,-24.58125 l -20.44831,-19.83225 -5.89343,1.49273 c -3.24143,0.82104 -7.19625,1.51271 -8.78848,1.537 -2.74406,0.0417 -2.69433,0.19928 0.95383,3.02262 l 3.84889,2.9786 5.39593,-2.99479 c 5.2303,-2.90293 5.41651,-2.92084 6.06151,-0.58461 0.37773,1.36764 -0.43704,3.73784 -1.88307,5.47902 -1.40188,1.68772 -2.20045,3.60233 -1.77482,4.25464 0.42564,0.65216 -0.92107,2.016 -2.99268,3.03058 -3.83968,1.8805 -6.50477,8.07071 -3.47466,8.07071 2.72607,0 8.73734,-7.41694 8.04469,-9.92559 -0.35481,-1.28461 -0.18323,-2.6059 0.38121,-2.93628 2.34122,-1.37034 2.19489,4.4528 -0.18374,7.31685 -1.40188,1.68772 -2.20045,3.60231 -1.77482,4.25462 0.42564,0.65218 -0.92107,2.01602 -2.99268,3.03059 -3.81482,1.86826 -6.50671,8.0707 -3.50288,8.0707 2.944,0 8.8566,-7.08752 8.12444,-9.73879 -0.38303,-1.38739 -0.23476,-2.79269 0.32968,-3.12307 1.57683,-0.92296 2.42747,3.67406 1.09642,5.9264 -0.71298,1.20662 -0.70651,2.85364 0.0168,4.15984 1.30955,2.36626 -0.0182,6.91067 -2.43161,8.32333 -1.0345,0.60546 -0.33394,1.79355 2.17534,3.68853 3.63096,2.74227 3.70141,3.03023 3.70141,15.13026 0,10.11184 0.40827,12.72168 2.26609,14.48188 2.08483,1.97543 2.26612,1.98254 2.26612,0.0884 0,-2.06899 3.63185,-4.59812 6.60278,-4.59812 0.8764,0 6.35184,4.6402 12.16746,10.31151 5.85094,5.70578 11.97346,10.56107 13.70695,10.87024 1.72317,0.30733 3.58875,0.63391 4.14582,0.72575 0.55695,0.092 3.17916,-0.68688 5.82713,-1.73065 z M 605.957,353.99596 c 0,-3.25981 -6.72412,-6.73937 -14.7666,-7.64148 -6.49333,-0.72835 -6.59959,-0.68714 -6.59959,2.55647 0,2.68501 1.02108,3.74127 5.5034,5.69279 7.20236,3.13569 15.86279,2.80395 15.86279,-0.60778 z m 7.37481,-0.29815 c 3.2799,-2.97601 4.83393,-6.51555 2.86061,-6.51555 -2.26948,0 -8.29305,5.40521 -8.29305,7.44171 0,3.17861 1.11881,2.9878 5.43244,-0.92616 z m -6.99592,-9.63602 c 0.27788,-1.83918 -0.8597,-3.06665 -4.26973,-4.6066 -7.3558,-3.32209 -16.1502,-4.86069 -18.26805,-3.19603 -3.90104,3.06616 -1.30175,7.18294 5.00283,7.92354 2.53824,0.29812 5.98001,1.07221 7.64824,1.72023 4.84558,1.88197 9.45367,1.02389 9.88671,-1.84114 z m 0,-9.85077 c 0.39598,-2.62368 -1.28159,-3.56259 -14.97845,-8.38342 -10.22523,-3.59888 -14.7515,-1.90184 -11.48367,4.30577 1.13835,2.16244 3.04903,3.15028 7.33394,3.79191 3.18701,0.4773 7.54268,1.41043 9.6793,2.07378 5.70812,1.77198 9.00575,1.14801 9.44888,-1.78804 z m 6.86552,-9.23305 c 2.06657,-2.09474 3.75722,-4.56697 3.75722,-5.49361 0,-3.00606 -8.16136,2.31207 -9.2017,5.99594 -1.24778,4.4187 0.77501,4.23218 5.44487,-0.50233 z m -6.8597,-0.62041 c 0.45051,-2.98865 -4.51978,-5.68762 -14.29394,-7.76215 -7.17113,-1.52203 -10.33409,-0.6588 -9.79706,2.6736 0.29315,1.81906 2.68138,3.14808 9.45662,5.26258 10.84261,3.38365 14.10399,3.3449 14.63438,-0.17403 z m 9.55793,-13.91199 c 12.52457,-5.57553 13.60803,-19.63509 1.79761,-23.32649 -4.90373,-1.53271 -8.03407,-0.70686 -9.91119,2.6147 -1.43723,2.54336 -0.476,7.16757 1.48994,7.16757 0.66417,0 1.20764,0.85596 1.20764,1.90213 0,4.88189 -19.12283,7.09388 -26.96513,3.11898 -2.75507,-1.39644 -3.95459,-5.02111 -1.66161,-5.02111 1.71342,0 2.8981,-3.69346 2.02259,-6.30589 -1.19278,-3.55916 -4.77993,-4.79225 -9.98306,-3.43166 -11.73989,3.06992 -11.41032,16.86495 0.54277,22.71886 9.80134,4.80011 31.28705,5.09187 41.46044,0.56291 z m -7.79257,-10.80287 c 0.72529,-0.68694 0.41011,-1.74252 -0.80582,-2.69821 -2.66274,-2.09284 -2.52069,-5.20558 0.4,-8.76889 2.19333,-2.67591 2.46734,-6.68035 3.22227,-47.07378 1.30076,-69.61096 6.47732,-121.97142 13.30038,-134.5325 2.71633,-5.00087 2.33537,-5.02077 -4.68386,-0.24499 -9.04177,6.1522 -15.92633,14.16343 -22.02604,25.63113 -11.51645,21.65094 -15.51821,50.77952 -15.51821,112.95587 0,35.30532 0.24051,39.92448 2.25146,43.24289 1.9103,3.15229 2.01182,4.31652 0.66998,7.68328 -0.86981,2.1824 -1.2645,4.26822 -0.87709,4.63513 2.57107,2.43498 21.30191,1.78904 24.0672,-0.82993 z m 105.23557,-66.37896 c 0.39236,-0.6012 -0.47458,-3.63644 -1.92645,-6.74501 -2.26352,-4.84685 -3.17527,-5.65191 -6.40001,-5.65191 -10.1018,0 -26.34136,-4.51436 -43.0831,-11.97641 -9.66773,-4.30909 -13.00681,-5.29936 -14.16642,-4.20127 -2.95797,2.80142 1.95819,9.45078 9.57153,12.94608 6.75403,3.10071 25.63523,6.91069 34.24787,6.91069 4.99657,0 5.11467,0.22548 2.27128,4.33541 l -2.09142,3.02278 5.65245,0.14508 c 3.10871,0.0799 7.40045,0.56638 9.53707,1.08128 5.54926,1.3373 5.60119,1.33838 6.38759,0.13328 z"
     id="path3768"
     style="fill:#000000;fill-opacity:1;stroke:#000000;stroke-width:5.55984545;stroke-miterlimit:4;stroke-dasharray:none" />
  <path
     d="m 681.53685,479.55607 4.35934,-2.51698 1.86494,2.52152 c 2.48456,3.3595 9.35954,3.32149 13.92141,-0.0773 l 3.48825,-2.59853 2.92082,2.59853 c 3.84022,3.41678 11.01199,3.42131 15.59133,0.0122 3.20597,-2.38821 3.65297,-2.43618 5.77275,-0.61944 1.26371,1.08312 4.97016,2.31623 8.23659,2.74018 5.88282,0.76367 5.9719,0.72173 9.4138,-4.442 2.88261,-4.32453 3.3335,-6.0748 2.64564,-10.26908 -0.45593,-2.78066 -0.9471,-7.25615 -1.09148,-9.94544 -0.26119,-4.8694 -0.23309,-4.89969 6.85982,-7.36946 3.91713,-1.36396 8.45141,-3.19334 10.07615,-4.06528 2.83277,-1.5202 10.64256,-10.69928 10.64256,-12.50841 0,-0.47938 -3.05109,-1.21374 -6.78008,-1.63205 -14.83264,-1.66368 -17.34465,-9.62879 -7.70216,-24.42327 15.72536,-24.12785 25.21465,-47.62496 25.27809,-62.59335 0.0285,-6.69056 0.40945,-8.93701 1.26916,-7.48205 3.5135,5.9459 -2.78084,30.87653 -12.31558,48.77959 l -3.83918,7.20894 3.66347,-0.84337 c 2.01487,-0.46382 13.86105,-5.46187 26.32464,-11.10669 34.115,-15.4512 45.8326,-18.47908 67.91083,-17.54914 18.49687,0.77911 26.37399,4.39271 39.43363,18.09045 6.9185,7.25652 13.58319,12.44857 25.77497,20.08011 25.97463,16.25902 27.05783,17.66737 28.29318,36.78809 1.25154,19.37299 0.62869,20.42398 -14.02448,23.66133 -12.52354,2.76692 -20.37541,8.60539 -22.4812,16.71657 -1.1245,4.33176 1.24195,4.45649 7.5561,0.39845 l 4.62752,-2.97406 2.05763,2.97406 c 2.70508,3.91001 8.45503,3.92559 13.22965,0.0356 l 3.60674,-2.93812 3.68689,2.93812 c 5.7286,4.56502 13.34673,3.45798 15.49668,-2.25197 0.41335,-1.09747 1.51636,-0.74587 3.74996,1.19533 4.18518,3.6374 14.91358,5.19759 16.0724,2.33759 0.44221,-1.09123 -0.3978,-3.78616 -1.86663,-5.98871 -6.24189,-9.3596 -8.1945,-13.82321 -8.27582,-18.91801 -0.11266,-7.0863 2.00142,-10.5054 10.06139,-16.26844 9.79083,-7.00082 12.81643,-16.03299 5.37063,-16.03299 -4.59718,0 -9.2317,-4.06344 -12.18721,-10.68568 -6.00791,-13.4613 -4.83044,-28.55231 4.18659,-53.6572 9.15882,-25.49991 10.17482,-30.20178 10.21142,-47.25621 0.03,-13.78933 -0.3175,-16.17394 -3.4548,-23.73369 -1.91816,-4.62226 -5.81016,-11.50479 -8.64888,-15.29447 l -5.16141,-6.89033 6.62674,-5.49003 c 20.23415,-16.76316 16.09495,-44.19816 -8.263,-54.76881 -7.45161,-3.23382 -9.31345,-3.51938 -22.37218,-3.4316 -7.83425,0.0527 -19.77988,1.08363 -26.54582,2.29107 -6.89855,1.23106 -18.57547,2.22048 -26.58545,2.25264 -12.72466,0.0512 -14.88471,-0.26249 -19.78857,-2.87271 -5.11324,-2.72169 -5.9899,-4.01388 -6.99101,-10.30453 -0.20575,-1.29311 -1.10986,-2.58308 -2.00893,-2.86662 -1.73921,-0.54841 -9.77105,6.4223 -10.95773,9.50999 -0.58543,1.52354 -1.06326,1.4182 -2.78083,-0.61319 -1.14069,-1.34898 -2.73331,-4.44872 -3.53928,-6.88827 -2.02667,-6.13534 0.46204,-10.73452 7.67382,-14.18127 l 5.59521,-2.67409 -3.29931,-2.04741 c -6.80831,-4.22477 -18.38487,-1.3347 -22.5716,5.63504 -1.18433,1.97151 -2.47614,3.58809 -2.87057,3.59235 -0.39444,0.003 -2.64552,-1.87652 -5.00254,-4.17953 -8.79042,-8.58933 -5.76665,-21.29693 5.99083,-25.17665 6.2696,-2.06887 11.81792,-0.49068 12.97235,3.68998 1.76238,6.38263 7.24093,-2.00712 6.25835,-9.58401 -0.6533,-5.03743 -0.55514,-5.21203 2.93051,-5.21203 4.84728,0 15.16454,6.36187 18.35561,11.31851 3.70645,5.75729 3.43671,14.82343 -0.64203,21.58019 l -3.20271,5.30554 4.18944,-0.83896 c 6.14335,-1.23022 12.11176,-5.04533 15.13114,-9.67208 3.19195,-4.89135 3.53524,-14.41552 0.70469,-19.55543 -2.74291,-4.98095 -2.42836,-5.77167 1.62667,-4.08848 6.89687,2.86283 10.58416,6.02014 13.34996,11.431 2.49078,4.87289 2.62985,6.08381 1.28145,11.1555 -0.83198,3.12908 -2.68307,7.24595 -4.11369,9.14856 -2.2274,2.96257 -2.30341,3.45927 -0.52871,3.45927 3.30515,0 10.20642,-3.12813 12.65755,-5.73729 1.23834,-1.3182 3.04371,-4.56399 4.01205,-7.21291 l 1.76071,-4.81619 2.02304,3.67117 c 2.86086,5.19124 8.42254,9.86266 15.20351,12.76965 7.29299,3.12651 10.33021,3.30267 6.51642,0.37792 -2.57184,-1.97233 -7.31086,-15.87789 -5.87466,-17.23806 0.84508,-0.80031 10.74717,6.81856 22.05272,16.96774 10.69473,9.60093 17.4151,12.7457 27.23774,12.74577 12.5477,8e-5 19.8537,-10.92274 14.2142,-21.25099 -3.288,-6.02158 -10.6128,-6.8581 -14.896,-1.70113 -1.9696,2.37135 -2.5103,4.25773 -1.9334,6.745 0.7066,3.04695 0.4309,3.45297 -2.34514,3.45297 -3.64728,0 -10.83693,-4.66644 -23.60572,-15.32134 -19.47119,-16.24757 -43.13036,-30.01952 -60.21371,-35.05019 -10.96343,-3.22846 -34.38293,-4.48834 -45.52765,-2.44919 -12.06203,2.20701 -26.32905,9.10986 -34.10142,16.49931 -13.77224,13.09391 -13.99068,30.51836 -0.58141,46.3852 l 3.84113,4.54516 -2.60048,4.03939 c -3.7831,5.87646 -3.45912,13.78452 0.80339,19.6096 1.87736,2.56562 3.77118,4.66369 4.20848,4.66233 0.43728,-0.001 0.91679,-1.65078 1.06545,-3.66545 0.37644,-5.09658 2.56381,-8.51131 6.31829,-9.8632 3.38156,-1.2176 5.56763,-0.64252 21.05097,5.53764 16.28852,6.5015 43.07662,6.9484 71.56108,1.19381 13.96415,-2.82113 30.43007,-2.65519 37.67422,0.37962 13.2794,5.56313 16.35651,20.03634 6.59554,31.0225 -4.22557,4.75591 -8.30081,6.69269 -21.98332,10.44782 -10.41179,2.85747 -12.87796,3.04717 -36.5431,2.81091 -20.21808,-0.20184 -27.48413,0.18642 -35.73716,1.90964 -8.9598,1.87074 -14.47059,2.05938 -40.78993,1.39614 l -30.43058,-0.76685 3.37455,2.79426 c 1.85601,1.53683 4.47822,3.42771 5.82713,4.20195 2.29524,1.3174 2.21872,1.4944 -1.19274,2.75931 -2.00493,0.7434 -6.45478,1.35162 -9.88865,1.35162 l -6.24319,0 -0.84015,5.30571 c -0.46215,2.91816 -0.42705,6.32515 0.0776,7.57109 0.74459,1.83767 0.46708,2.10157 -1.46961,1.39773 -1.31304,-0.47719 -4.97,-1.41575 -8.12651,-2.08569 -3.15649,-0.66995 -7.40537,-2.03415 -9.44202,-3.03156 -3.4248,-1.67729 -3.80538,-1.63221 -5.06689,0.60016 -1.12645,1.99351 -11.70192,9.86437 -13.254,9.86437 -0.25046,0 -0.57378,-1.51763 -0.71843,-3.37249 -0.14464,-1.85488 -1.67032,-6.68368 -3.39036,-10.73068 -1.72016,-4.047 -3.51622,-8.46193 -3.99134,-9.81091 -0.71672,-2.03495 -1.04123,-2.1394 -1.90559,-0.61319 -0.573,1.01175 -1.40965,3.77106 -1.85912,6.13183 -0.44947,2.36074 -2.04299,6.19582 -3.54121,8.5224 l -2.72398,4.23011 -1.7374,-3.61695 c -1.86508,-3.88277 -4.96147,-7.90919 -6.08249,-7.90919 -0.37837,0 -1.02285,1.24169 -1.43204,2.75931 -0.85453,3.16922 -8.19697,11.95705 -9.9903,11.95705 -0.66041,0 -1.20066,-2.48339 -1.20066,-5.51864 0,-3.03525 -0.5827,-5.51864 -1.29491,-5.51864 -0.7122,0 -1.29492,0.78545 -1.29492,1.74545 0,2.33352 -6.27063,9.29183 -8.37358,9.29183 -0.91771,0 -2.39405,0.82779 -3.28067,1.83953 -2.31182,2.63801 -4.20292,2.26783 -3.23096,-0.63242 0.45568,-1.35959 0.15939,-4.53281 -0.65846,-7.0516 -0.81788,-2.51879 -1.68754,-5.19958 -1.93254,-5.9573 -0.30871,-0.95429 -2.55578,-0.70116 -7.31162,0.82362 -7.68523,2.46393 -10.26121,2.02802 -6.30873,-1.06755 1.44488,-1.13162 3.64248,-5.05141 4.88378,-8.71067 1.24119,-3.65925 3.0726,-6.90606 4.06981,-7.21514 1.3963,-0.43282 1.32199,0.10204 -0.32373,2.32718 -1.17527,1.58906 -2.14037,3.73214 -2.14477,4.76244 0,1.0303 -0.88884,3.473 -1.96557,5.42822 -1.07659,1.95524 -1.75344,3.74826 -1.50392,3.98453 0.24941,0.23626 3.17348,-0.87452 6.49778,-2.4684 l 6.04416,-2.89794 0.0246,2.59252 c 0.0142,1.42588 0.74212,5.18752 1.61865,8.3592 l 1.59366,5.76665 4.11434,-1.89098 c 4.20486,-1.9326 8.18739,-8.82216 8.18739,-14.16383 0,-2.6406 1.51258,-2.23526 2.13195,0.57128 0.18181,0.8236 1.13125,3.91474 2.10993,6.86919 l 1.77949,5.37171 2.81696,-3.39162 c 1.54936,-1.8654 3.49174,-5.52437 4.31634,-8.13105 1.43154,-4.52513 3.67927,-6.47059 3.67927,-3.18452 0,2.36802 6.46216,10.86076 7.70877,10.13108 0.60253,-0.35262 1.80226,-3.54011 2.66611,-7.08331 1.7967,-7.36857 4.69524,-12.38 6.537,-11.30199 0.69252,0.40535 0.96225,1.19203 0.59929,1.74818 -0.36297,0.55613 1.12541,5.3468 3.30748,10.64593 2.18206,5.29914 4.3732,10.63446 4.8693,11.85629 0.797,1.96319 1.51737,1.67801 6.19474,-2.45273 2.91098,-2.57083 5.55314,-5.4487 5.8713,-6.39526 0.48094,-1.43096 1.13033,-1.37861 3.85237,0.31056 3.80667,2.36219 16.60499,6.16829 17.59342,5.23214 0.37021,-0.35059 0.74975,-3.7118 0.8435,-7.46938 l 0.17042,-6.83192 3.68041,0.76323 c 2.02421,0.41978 6.28048,0.39398 9.45835,-0.0575 l 5.77791,-0.82057 -5.14923,-3.53268 c -2.83225,-1.94296 -5.69584,-4.45735 -6.36363,-5.58751 -0.71142,-1.20397 -3.23198,-2.22631 -6.08727,-2.46895 -7.71474,-0.65558 -21.38778,-8.32442 -21.38778,-11.99583 0,-0.68925 1.89382,0.48271 4.20848,2.60434 5.13487,4.70667 12.26858,7.66091 18.49908,7.66091 l 4.66209,0 -2.88404,-3.83577 c -1.65673,-2.2034 -3.1425,-6.3832 -3.49136,-9.82177 -0.55604,-5.48103 -1.1346,-6.35253 -6.85776,-10.33129 -3.43761,-2.38991 -7.69569,-5.97205 -9.46222,-7.96033 l -3.21193,-3.61504 -1.6387,4.2921 c -0.90139,2.36066 -2.00299,4.29211 -2.44792,4.29211 -0.44494,0 -2.17766,-1.37967 -3.85032,-3.06591 -1.67276,-1.68625 -3.37675,-3.05958 -3.78671,-3.05185 -0.4101,0.007 -1.89188,2.27907 -3.29286,5.04739 l -2.54736,5.03332 -1.96841,-2.90125 c -1.08269,-1.5957 -3.64002,-4.41887 -5.68287,-6.27375 -2.04287,-1.85487 -3.1174,-3.3725 -2.38772,-3.3725 0.72956,0 3.25103,1.93228 5.60326,4.29395 l 4.27647,4.29395 1.7405,-3.14595 c 1.03282,-1.86689 1.41987,-4.7346 0.95201,-7.05328 -0.68203,-3.37968 -0.5862,-3.57611 0.70963,-1.45458 0.82408,1.34899 3.32586,3.93528 5.55973,5.74728 l 4.06165,3.29455 2.80284,-5.1341 c 2.78951,-5.10944 2.80906,-5.11937 4.07822,-2.06819 1.69725,4.0805 13.98019,14.14909 24.43744,20.03176 1.61178,0.9067 0.9322,-2.21121 -2.04443,-9.38091 -0.78834,-1.89877 -1.43334,-5.32192 -1.43334,-7.60698 0,-3.39002 -0.97793,-4.89883 -5.31358,-8.19811 -6.25923,-4.7632 -8.28346,-8.15044 -9.46299,-15.83494 -0.47783,-3.1128 -1.5732,-6.57488 -2.43432,-7.6935 -1.2773,-1.65955 -1.48838,-0.73081 -1.14664,5.04647 0.23036,3.89416 -0.27608,8.7359 -1.12555,10.7594 l -1.54433,3.67908 -1.19378,-3.06591 c -0.65653,-1.68625 -3.56051,-4.61872 -6.45348,-6.5166 -2.89286,-1.89788 -4.92328,-3.7694 -4.51188,-4.15893 0.41126,-0.38953 3.38737,1.34016 6.61341,3.84374 4.91472,3.81401 5.99727,4.22696 6.67801,2.54709 0.79975,-1.97389 -10e-4,-10.56181 -1.54612,-16.56348 -0.77113,-2.9968 -0.70366,-2.98067 2.9932,0.71559 2.72658,2.72613 4.23425,5.97761 5.40227,11.65045 1.48384,7.20681 2.23243,8.40655 8.89622,14.25761 4.00181,3.51376 7.48436,6.19134 7.73907,5.95018 0.25458,-0.24116 0.75961,-9.33067 1.12218,-20.19893 0.69536,-20.84145 -0.0906,-25.80025 -5.10975,-32.23925 l -2.57884,-3.30846 4.054,-4.37286 c 5.28859,-5.70447 7.71682,-10.27706 8.77011,-16.51528 l 0.85683,-5.07477 -4.57507,4.33286 c -3.74619,3.54786 -5.53525,4.33287 -9.87427,4.33287 -4.29654,0 -5.97487,-0.72001 -8.87019,-3.80525 -3.47387,-3.70169 -9.62953,-7.26345 -15.54898,-8.99686 -2.18674,-0.64031 -2.91358,-0.3614 -2.91358,1.11788 0,1.08406 -1.20789,4.21329 -2.68422,6.95383 l -2.68411,4.98279 -5.62383,-5.55871 c -3.44967,-3.40957 -7.54355,-6.0635 -10.58881,-6.86435 -7.78077,-2.04615 -8.20215,-1.84298 -8.20215,3.95403 0,8.7932 -3.75434,10.43146 -10.51111,4.5868 -5.15079,-4.45542 -9.4235,-5.42406 -19.19056,-4.35047 l -7.54353,0.82916 1.35733,3.40544 c 1.13369,2.84455 0.8782,4.0425 -1.55079,7.27318 -3.9398,5.23993 -9.06238,7.50979 -16.94791,7.50979 -3.63186,0 -8.17676,0.75156 -10.09997,1.67014 -1.92321,0.91856 -6.7016,1.97684 -10.61872,2.3517 -3.91713,0.37491 -8.0922,1.04399 -9.27783,1.48693 -1.85535,0.69306 -2.05905,0.12189 -1.46144,-4.09804 0.91472,-6.45808 -3.59652,-11.22163 -10.62688,-11.22163 -9.12167,0 -13.32898,8.1592 -9.75683,18.92157 0.68749,2.07138 1.58706,5.33808 1.99897,7.25934 0.42746,1.99322 4.53623,7.28254 9.56881,12.31807 4.85089,4.85369 9.43541,9.90414 10.18801,11.22319 0.75262,1.31906 3.24067,3.43587 5.52905,4.70401 l 4.16084,2.30575 -0.5488,-4.45187 c -0.60318,-4.89276 0.46295,-5.66035 3.06624,-2.20773 0.93053,1.23427 3.29454,3.22927 5.2531,4.43331 3.08526,1.89674 3.56102,1.93527 3.56102,0.28842 0,-1.04541 0.62895,-3.45432 1.39761,-5.35309 l 1.39774,-3.45234 2.42511,4.69723 c 1.33378,2.58348 5.67136,8.45501 9.63899,13.04788 7.69856,8.9118 12.38926,18.87061 9.96829,21.16347 -0.98194,0.92988 -3.63626,0.85791 -9.1376,-0.24774 -4.26456,-0.85709 -9.53941,-1.31013 -11.72198,-1.00676 -4.45712,0.61953 -4.80817,0.0441 -2.06696,-3.38808 2.8931,-3.6226 2.4329,-4.22008 -3.25076,-4.22008 -6.57572,0 -22.90102,-3.1522 -29.16751,-5.63186 -6.09336,-2.41121 -7.49927,-1.81083 -9.29285,3.96858 -0.80725,2.60105 -2.28528,7.31416 -3.28444,10.47358 l -1.81664,5.74437 6.59268,-0.6349 c 3.62604,-0.3492 8.28968,-1.14309 10.36376,-1.76423 2.07407,-0.62112 3.95908,-0.95122 4.18893,-0.73356 0.22985,0.21769 -0.6946,2.4623 -2.05426,4.98803 l -2.47212,4.59221 4.11032,-0.8379 c 2.26079,-0.46085 5.66202,-1.58849 7.55844,-2.50589 3.29983,-1.5963 3.56478,-1.48038 6.16757,2.69734 3.20064,5.13763 5.76109,4.92654 6.32917,-0.52181 0.58738,-5.63253 2.44014,-4.79939 5.92554,2.66454 3.3515,7.17721 6.83846,9.71124 7.50847,5.45648 0.22232,-1.41265 2.02783,-3.71219 4.01203,-5.11007 4.01361,-2.82756 7.03815,-1.97924 8.77231,2.46028 1.795,4.5955 -2.20836,9.33228 -13.85344,16.39116 -23.32652,14.13994 -36.88613,33.47856 -40.75716,58.12768 -3.49149,22.23262 7.4134,45.20683 29.29002,61.7078 10.46902,7.89655 27.10005,16.23068 26.04327,13.0507 -4.48818,-13.50532 -4.34045,-39.27378 0.2503,-43.62136 0.68891,-0.65244 0.45194,2.03637 -0.52663,5.97521 -3.64495,14.67208 -2.06152,26.36276 7.28197,53.76315 8.45063,24.78174 7.28093,35.37347 -4.67945,42.37404 -3.84138,2.24842 -6.31455,2.61891 -16.64294,2.49358 -11.20688,-0.13613 -12.42798,0.0895 -16.02604,2.9564 -3.48813,2.77978 -8.01075,11.90615 -8.01075,16.16531 0,2.30716 2.56199,2.00179 7.59663,-0.90506 z m 90.81716,-214.9239 c 0,-1.7992 -5.28367,-6.67524 -10.63764,-9.81699 -4.2046,-2.46738 -4.89919,-2.54235 -4.90863,-0.52996 -0.0143,3.05524 -2.73112,10.73068 -3.798,10.73068 -0.60162,0 -1.49123,-1.49993 -1.97707,-3.33315 -0.48587,-1.83323 -2.52407,-5.44616 -4.52951,-8.02874 l -3.64622,-4.69558 -2.83911,4.35056 c -2.64669,4.05568 -7.23148,8.02783 -9.26618,8.02783 -0.48599,0 -0.58103,-2.13591 -0.21134,-4.74647 0.40169,-2.83636 0.092,-5.08632 -0.77073,-5.59102 -0.79353,-0.4645 -1.44279,-0.30245 -1.44279,0.3601 0,1.52827 -6.367,8.75102 -7.71423,8.75102 -0.55513,0 -1.3322,-2.06949 -1.72702,-4.59887 -0.39469,-2.52937 -1.06559,-6.53038 -1.49085,-8.89113 -0.42526,-2.36075 0.48144,-0.75983 2.01502,3.55758 l 2.78835,7.84984 3.0577,-4.78394 c 1.68171,-2.63117 3.06066,-5.50634 3.06429,-6.38927 0,-0.88294 0.57248,-1.27414 1.2641,-0.86936 0.69149,0.40477 1.65399,3.56755 2.13869,7.02839 l 0.88145,6.29246 3.36458,-3.68895 c 1.85056,-2.02892 4.01905,-4.74524 4.81878,-6.03626 1.42701,-2.30364 1.50781,-2.30169 4.34626,0.10554 1.59068,1.349 4.03626,4.57571 5.43451,7.17045 1.39839,2.59471 2.72956,4.52624 2.95838,4.29226 0.22868,-0.23399 0.74108,-2.90882 1.13875,-5.94407 0.39754,-3.03525 0.75248,-5.63119 0.7886,-5.76877 0.19786,-0.7521 10.13507,5.7072 13.81173,8.97776 2.3631,2.10218 4.60745,3.52784 4.98726,3.1681 0.37993,-0.35979 0.69071,-3.46121 0.69071,-6.89211 0,-5.3167 -0.56355,-6.7417 -3.8155,-9.64851 -3.73906,-3.3422 -3.84369,-3.36056 -5.22524,-0.91579 -1.79307,3.17297 -3.90845,3.21879 -3.90845,0.0846 0,-2.28752 -7.06586,-11.07996 -8.90413,-11.07996 -0.47653,0 -1.96463,1.93152 -3.30708,4.29228 -1.34244,2.36074 -2.78602,4.29005 -3.20803,4.28737 -1.81251,-0.0111 -11.77366,-11.11739 -11.76926,-13.12163 0,-1.5945 0.67129,-1.18677 2.41762,1.47607 1.3269,2.0235 3.97773,5.04429 5.89045,6.71287 3.87309,3.37866 5.28107,2.55714 6.77566,-3.95355 0.42577,-1.85488 1.16582,-3.37249 1.64442,-3.37249 1.65581,0 10.32723,9.20974 11.54677,12.26363 l 1.22436,3.06591 0.92741,-3.3725 c 1.13397,-4.124 2.38524,-4.27739 4.19579,-0.51425 0.75626,1.57204 4.49183,4.84038 8.30109,7.26298 l 6.92601,4.40473 1.38997,-4.43029 c 0.76451,-2.43664 1.77726,-3.83685 2.25056,-3.11158 0.70585,1.08153 -1.09447,8.42271 -2.45284,10.00226 -0.20356,0.23674 -2.4479,-1.07046 -4.98751,-2.90487 l -4.61715,-3.33532 -0.0182,5.97078 c -0.0129,3.28393 -0.36905,7.21249 -0.79856,8.73011 -0.83976,2.96735 -3.06857,3.80211 -3.06857,1.1492 z m -34.53458,-47.60482 c -8.23139,-6.87247 -9.481,-8.44507 -9.29868,-11.70234 l 0.19399,-3.46684 0.537,3.34847 c 0.31363,1.95524 2.5058,4.88531 5.26864,7.04218 l 4.73176,3.69373 2.90761,-3.36309 c 1.59934,-1.8497 2.92871,-4.05294 2.95435,-4.89605 0.0673,-2.19852 0.46176,-2.01386 6.03472,2.82159 4.95149,4.29628 5.02867,4.31681 5.76509,1.53298 0.41049,-1.55188 0.26481,-4.47356 -0.32372,-6.49262 -1.61787,-5.54991 -1.30088,-6.38749 1.15066,-3.04028 1.22137,1.6677 3.18536,4.02526 4.36439,5.23902 2.05231,2.11288 2.17754,2.08675 2.94115,-0.6132 0.43872,-1.55098 0.80557,-4.38984 0.81528,-6.30852 l 0.0182,-3.48854 4.46449,5.06073 c 4.17017,4.72717 4.55437,4.9018 5.82715,2.64938 0.7495,-1.32624 1.37156,-4.51712 1.38245,-7.09083 0.0142,-3.32477 0.36439,-4.16367 1.20997,-2.8977 1.41211,2.11404 0.43172,7.87005 -2.17585,12.77534 l -1.87117,3.51987 -2.4571,-3.82645 c -3.14174,-4.89275 -4.18764,-4.81422 -6.20356,0.46582 -1.90522,4.98978 -3.14406,5.36959 -5.00046,1.53295 -1.2013,-2.48292 -1.42997,-2.17868 -2.28268,3.03743 l -0.94776,5.79672 -5.67847,-4.40677 -5.6786,-4.40677 -2.55281,2.9023 c -1.40407,1.59628 -2.57223,3.59216 -2.59592,4.43527 -0.0517,1.82736 -1.41755,1.88445 -3.49952,0.14622 z m 73.22324,-25.5956 c -2.99619,-2.69928 -5.06015,-5.27464 -4.58673,-5.72303 0.47342,-0.44838 1.00654,-0.57681 1.18459,-0.28542 0.17806,0.29139 2.62713,2.86676 5.44242,5.72302 6.48221,6.57648 5.14962,6.7629 -2.04028,0.28543 z M 713.50865,181.3503 c -2.72554,-3.68518 -2.53727,-6.12671 0.7803,-10.12109 2.39743,-2.88642 3.49254,-3.27811 7.67875,-2.74634 2.68539,0.34111 8.46385,2.71375 12.84118,5.27253 5.0555,2.9552 10.28463,4.9349 14.33488,5.427 3.50691,0.42609 6.3763,0.58673 6.3763,0.35699 0,-0.22973 -1.45677,-2.60319 -3.23729,-5.2744 -4.2283,-6.34332 -4.08352,-7.02412 0.68552,-3.22371 4.89545,3.90116 10.75107,5.0421 23.83649,4.64439 l 6.393,-0.19431 -3.70876,-3.6663 c -5.18693,-5.12733 -3.59056,-5.58702 2.13751,-0.61554 5.37223,4.66265 5.03581,4.99098 -6.27154,6.11957 -4.80481,0.47958 -9.97192,0.1317 -14.26665,-0.96048 -6.42564,-1.63416 -6.67505,-1.60928 -5.45782,0.54471 0.70158,1.24143 1.83776,2.25713 2.52484,2.25713 0.68721,0 1.24946,0.62908 1.24946,1.39794 0,2.36439 -13.87867,0.28524 -20.51072,-3.07269 -15.15107,-7.67124 -17.05771,-8.33552 -20.66393,-7.19912 -2.00674,0.63235 -4.01527,2.48329 -4.70741,4.33809 -2.3091,6.18726 6.46579,10.99652 10.08509,5.52734 1.049,-1.58528 0.804,-2.66957 -1.0397,-4.59885 -2.52483,-2.64234 -2.28798,-3.01882 1.1205,-1.78013 2.41994,0.87945 2.74548,6.68925 0.49439,8.82124 -2.57573,2.4393 -8.45362,1.74879 -10.67439,-1.25397 z m 59.68499,-15.2834 c -1.8946,-1.79435 -0.40932,-2.23385 8.08468,-2.39223 10.50828,-0.19593 16.89001,-1.94704 24.41983,-6.70059 6.03328,-3.80881 7.66902,-3.05931 1.94238,0.88996 -5.22422,3.6027 -13.37235,6.37231 -21.2386,7.21908 -3.80926,0.41006 -8.15047,0.9781 -9.64728,1.2623 -1.49666,0.28421 -3.09913,0.15887 -3.56101,-0.27852 z m 90.25957,312.99397 4.70106,-3.02128 3.1903,3.02128 c 4.1796,3.95832 9.07594,3.86979 13.09445,-0.23669 1.75359,-1.79197 3.32834,-3.03365 3.49927,-2.75932 0.17093,0.27434 0.95293,1.60249 1.73765,2.95148 0.99334,1.7076 3.03568,2.56617 6.72218,2.82628 4.4417,0.31334 5.63445,-0.1165 7.3993,-2.66745 l 2.10385,-3.04102 4.62766,2.97406 c 12.66948,8.14255 19.41963,-0.40017 13.75772,-17.41118 -2.87898,-8.64953 -1.29595,-13.51208 7.98305,-24.52102 3.91285,-4.64227 7.11764,-9.59728 7.12153,-11.0109 0,-2.25393 -0.72386,-2.55587 -5.93138,-2.45273 -4.98335,0.0994 -6.44131,-0.43585 -9.06442,-3.32332 -4.2665,-4.69647 -4.01295,-10.07506 0.75623,-16.04354 l 3.81005,-4.7681 -6.75962,-4.58734 c -3.71784,-2.52312 -10.42228,-8.49244 -14.89881,-13.26533 -10.05362,-10.71913 -19.93941,-15.80229 -32.97471,-16.95508 l -8.74043,-0.77298 0.0129,6.61575 c 0.0168,8.51685 4.01373,16.70993 14.92444,30.58782 12.40532,15.77902 13.27149,18.22181 13.77378,38.84592 l 0.42473,17.44246 -3.58963,3.40573 c -3.24365,3.0773 -4.70625,3.47 -15.17256,4.07362 -9.96453,0.57467 -12.05789,1.08877 -14.98181,3.67908 -3.88359,3.44044 -5.04488,5.31176 -6.24396,10.06269 -0.69887,2.76876 -0.41568,3.3725 1.58251,3.3725 1.33856,0 4.54931,-1.35967 7.13488,-3.02139 z M 596.81914,433.98121 c 1.10858,-1.49909 2.0158,-3.91982 2.0158,-5.37943 0,-2.20525 0.98543,-2.79367 5.83141,-3.4819 l 5.8314,-0.82816 -3.88903,-3.09927 c -4.62039,-3.68191 -5.04784,-6.55835 -0.97546,-6.56473 4.05595,0 10.92497,-4.21181 11.96931,-7.32788 0.48536,-1.44834 0.18013,-3.38342 -0.69044,-4.3769 -2.27375,-2.59462 -6.54865,-2.2034 -7.3427,0.67204 -0.85348,3.09105 -2.28244,3.09915 -5.52193,0.0306 -4.87315,-4.6153 -4.98258,-14.16854 -0.22595,-19.73182 2.24176,-2.62184 2.22181,-2.79377 -0.6362,-5.50048 -3.07451,-2.91175 -5.27018,-8.6748 -3.82597,-10.04256 0.45957,-0.43524 2.88859,-0.0884 5.39786,0.77114 3.56558,1.22108 4.97315,1.23961 6.44211,0.0846 4.44958,-3.49734 -0.37114,-7.99441 -7.50677,-7.00254 -2.87176,0.3992 -4.05816,0 -4.47058,-1.48966 -0.31195,-1.12984 -2.82383,-2.60505 -5.65387,-3.32037 -5.05691,-1.27836 -5.09258,-1.2628 -5.09258,2.22131 0,3.81792 -2.17938,4.53816 -6.32062,2.08887 -3.36501,-1.99028 -6.62857,-0.44518 -6.62857,3.13826 0,3.34343 3.36228,4.99227 9.38818,4.60401 4.6219,-0.29789 4.79386,3.13911 0.40427,8.07964 l -3.15674,3.55289 2.50075,3.59276 c 3.70371,5.32095 3.39194,14.15825 -0.65433,18.54728 l -3.17211,3.44093 -2.08096,-2.7593 c -2.89194,-3.83461 -6.84761,-3.57757 -7.93233,0.51543 -0.71028,2.68021 -0.12315,3.90499 3.23306,6.74499 2.2555,1.9086 5.5485,3.47024 7.31779,3.47024 4.3784,0 4.20721,3.44327 -0.34417,6.92173 l -3.56102,2.72155 5.50341,0.85366 c 3.02687,0.46958 5.50339,1.35293 5.50339,1.96279 0,2.33905 3.81411,9.61482 5.04014,9.61482 0.70818,0 2.19475,-1.22649 3.30345,-2.72558 z m 71.65924,-31.05741 c 5.00006,-1.97088 15.82118,-11.13439 15.82118,-13.39765 0,-0.71202 -2.98686,-3.99696 -6.63737,-7.30006 -7.68235,-6.95089 -16.03885,-18.65703 -18.20409,-25.50135 -1.12891,-3.56874 -6.58427,-9.67786 -21.95056,-24.58125 l -20.44831,-19.83225 -5.89343,1.49273 c -3.24143,0.82104 -7.19625,1.51271 -8.78848,1.537 -2.74406,0.0417 -2.69433,0.19928 0.95383,3.02262 l 3.84889,2.9786 5.39593,-2.99479 c 5.2303,-2.90293 5.41651,-2.92084 6.06151,-0.58461 0.37773,1.36764 -0.43704,3.73784 -1.88307,5.47902 -1.40188,1.68772 -2.20045,3.60233 -1.77482,4.25464 0.42564,0.65216 -0.92107,2.016 -2.99268,3.03058 -3.83968,1.8805 -6.50477,8.07071 -3.47466,8.07071 2.72607,0 8.73734,-7.41694 8.04469,-9.92559 -0.35481,-1.28461 -0.18323,-2.6059 0.38121,-2.93628 2.34122,-1.37034 2.19489,4.4528 -0.18374,7.31685 -1.40188,1.68772 -2.20045,3.60231 -1.77482,4.25462 0.42564,0.65218 -0.92107,2.01602 -2.99268,3.03059 -3.81482,1.86826 -6.50671,8.0707 -3.50288,8.0707 2.944,0 8.8566,-7.08752 8.12444,-9.73879 -0.38303,-1.38739 -0.23476,-2.79269 0.32968,-3.12307 1.57683,-0.92296 2.42747,3.67406 1.09642,5.9264 -0.71298,1.20662 -0.70651,2.85364 0.0168,4.15984 1.30955,2.36626 -0.0182,6.91067 -2.43161,8.32333 -1.0345,0.60546 -0.33394,1.79355 2.17534,3.68853 3.63096,2.74227 3.70141,3.03023 3.70141,15.13026 0,10.11184 0.40827,12.72168 2.26609,14.48188 2.08483,1.97543 2.26612,1.98254 2.26612,0.0884 0,-2.06899 3.63185,-4.59812 6.60278,-4.59812 0.8764,0 6.35184,4.6402 12.16746,10.31151 5.85094,5.70578 11.97346,10.56107 13.70695,10.87024 1.72317,0.30733 3.58875,0.63391 4.14582,0.72575 0.55695,0.092 3.17916,-0.68688 5.82713,-1.73065 z M 605.957,353.99596 c 0,-3.25981 -6.72412,-6.73937 -14.7666,-7.64148 -6.49333,-0.72835 -6.59959,-0.68714 -6.59959,2.55647 0,2.68501 1.02108,3.74127 5.5034,5.69279 7.20236,3.13569 15.86279,2.80395 15.86279,-0.60778 z m 7.37481,-0.29815 c 3.2799,-2.97601 4.83393,-6.51555 2.86061,-6.51555 -2.26948,0 -8.29305,5.40521 -8.29305,7.44171 0,3.17861 1.11881,2.9878 5.43244,-0.92616 z m -6.99592,-9.63602 c 0.27788,-1.83918 -0.8597,-3.06665 -4.26973,-4.6066 -7.3558,-3.32209 -16.1502,-4.86069 -18.26805,-3.19603 -3.90104,3.06616 -1.30175,7.18294 5.00283,7.92354 2.53824,0.29812 5.98001,1.07221 7.64824,1.72023 4.84558,1.88197 9.45367,1.02389 9.88671,-1.84114 z m 0,-9.85077 c 0.39598,-2.62368 -1.28159,-3.56259 -14.97845,-8.38342 -10.22523,-3.59888 -14.7515,-1.90184 -11.48367,4.30577 1.13835,2.16244 3.04903,3.15028 7.33394,3.79191 3.18701,0.4773 7.54268,1.41043 9.6793,2.07378 5.70812,1.77198 9.00575,1.14801 9.44888,-1.78804 z m 6.86552,-9.23305 c 2.06657,-2.09474 3.75722,-4.56697 3.75722,-5.49361 0,-3.00606 -8.16136,2.31207 -9.2017,5.99594 -1.24778,4.4187 0.77501,4.23218 5.44487,-0.50233 z m -6.8597,-0.62041 c 0.45051,-2.98865 -4.51978,-5.68762 -14.29394,-7.76215 -7.17113,-1.52203 -10.33409,-0.6588 -9.79706,2.6736 0.29315,1.81906 2.68138,3.14808 9.45662,5.26258 10.84261,3.38365 14.10399,3.3449 14.63438,-0.17403 z m 9.55793,-13.91199 c 12.52457,-5.57553 13.60803,-19.63509 1.79761,-23.32649 -4.90373,-1.53271 -8.03407,-0.70686 -9.91119,2.6147 -1.43723,2.54336 -0.476,7.16757 1.48994,7.16757 0.66417,0 1.20764,0.85596 1.20764,1.90213 0,4.88189 -19.12283,7.09388 -26.96513,3.11898 -2.75507,-1.39644 -3.95459,-5.02111 -1.66161,-5.02111 1.71342,0 2.8981,-3.69346 2.02259,-6.30589 -1.19278,-3.55916 -4.77993,-4.79225 -9.98306,-3.43166 -11.73989,3.06992 -11.41032,16.86495 0.54277,22.71886 9.80134,4.80011 31.28705,5.09187 41.46044,0.56291 z m -7.79257,-10.80287 c 0.72529,-0.68694 0.41011,-1.74252 -0.80582,-2.69821 -2.66274,-2.09284 -2.52069,-5.20558 0.4,-8.76889 2.19333,-2.67591 2.46734,-6.68035 3.22227,-47.07378 1.30076,-69.61096 6.47732,-121.97142 13.30038,-134.5325 2.71633,-5.00087 2.33537,-5.02077 -4.68386,-0.24499 -9.04177,6.1522 -15.92633,14.16343 -22.02604,25.63113 -11.51645,21.65094 -15.51821,50.77952 -15.51821,112.95587 0,35.30532 0.24051,39.92448 2.25146,43.24289 1.9103,3.15229 2.01182,4.31652 0.66998,7.68328 -0.86981,2.1824 -1.2645,4.26822 -0.87709,4.63513 2.57107,2.43498 21.30191,1.78904 24.0672,-0.82993 z m 105.23557,-66.37896 c 0.39236,-0.6012 -0.47458,-3.63644 -1.92645,-6.74501 -2.26352,-4.84685 -3.17527,-5.65191 -6.40001,-5.65191 -10.1018,0 -26.34136,-4.51436 -43.0831,-11.97641 -9.66773,-4.30909 -13.00681,-5.29936 -14.16642,-4.20127 -2.95797,2.80142 1.95819,9.45078 9.57153,12.94608 6.75403,3.10071 25.63523,6.91069 34.24787,6.91069 4.99657,0 5.11467,0.22548 2.27128,4.33541 l -2.09142,3.02278 5.65245,0.14508 c 3.10871,0.0799 7.40045,0.56638 9.53707,1.08128 5.54926,1.3373 5.60119,1.33838 6.38759,0.13328 z"
     id="path3018"
     style="fill:#ffb700;fill-opacity:1;stroke:none" />
</svg>
