<?xml version="1.0" encoding="UTF-8" standalone="no"?>
<!DOCTYPE svg PUBLIC "-//W3C//DTD SVG 1.1//EN" "http://www.w3.org/Graphics/SVG/1.1/DTD/svg11.dtd">
<svg xmlns:svg="http://www.w3.org/2000/svg" xmlns="http://www.w3.org/2000/svg" version="1.1" width="1200" height="600" viewBox="0 0 1400 700">
  <title>Flag of Tajikistan</title>
  <rect x="0" y="0" width="1400" height="700" style="fill:#006600" />
  <rect x="0" y="0" width="1400" height="500" style="fill:#FFFFFF" />
  <rect x="0" y="0" width="1400" height="200" style="fill:#CC0000" />
  <g style="fill:#F8C300;">
    <path d="M 672.0,340.7 C 681.5,328.0 695.0,335.9 695.4,346.6 C 695.5,349.6 695.4,346.4 695.2,376.6 C 695.3,406.0 654.0,422.6 631.3,400.9 C 617.8,425.8 596.8,433.6 571.6,418.4 C 575.3,454.8 629.9,447.4 633.9,412 C 651.1,442.1 688.8,433.5 699.8,397 C 710.2,432.9 748.6,441.4 765.8,412 C 769.8,447.4 824.4,454.8 828.1,418.4 C 802.9,433.6 781.9,425.8 768.3,400.9 C 745.7,422.6 704.4,406 704.5,376.6 C 704.3,346.4 704.2,349.6 704.3,346.6 C 704.7,335.9 718.2,328 727.7,340.7 C 735.9,288.8 663.6,289.3 672,340.7 L 672.0,340.7 z
             M 678.7,327.6 C 688.2,325.7 694.9,329.4 699.8,337.2 C 704.7,329.0 712.6,325.7 721.0,327.7 C 717.0,302.7 682.6,303.0 678.7,327.6 z" />
    <path d="M 658.8,441.3 C 651.2,457.8 636.0,460.6 622.7,447.3 C 622.7,447.3 628.0,443.5 633.8,442.5 C 632.7,437.9 634.9,431.6 638.0,428.2 C 641.3,430.4 645.8,434.8 647,440 C 655,439 658.8,441.3 658.8,441.3 z" />
    <path d="M 601.0,470.8 C 664.5,451.8 733.2,451.6 796.8,470.3 L 792.6,484.5 C 733.0,466.9 663.9,467.5 605.2,485 L 601.0,470.8 z" />
    <path d="M 776.3,447.8 C 763.4,460.5 748.1,457.8 740.4,440.6 C 740.4,440.6 746.7,439.0 752.4,440.0 C 753.0,435.4 757.3,430.2 761.4,428.1 C 763.7,431.3 766.4,437.1 765.6,442.4 C 773.5,444.2 776.3,447.8 776.3,447.8 z" />
    <path d="M 717.9,439.2 C 707.5,454.1 692,454.1 681.3,438.7 C 681.3,438.7 687.2,435.9 693,435.9 C 692.8,431.2 696.1,425.4 699.8,422.6 C 702.6,425.3 706.3,430.5 706.5,435.8 C 714.6,436.3 717.9,439.2 717.9,439.2 z" />
    <polygon points="629.4,235.2 634.9,252.3 652.9,252.2 638.3,262.8 643.9,279.9 629.4,269.3 614.9,279.9 620.5,262.8 605.9,252.2 623.9,252.3 629.4,235.2" />
    <polygon points="700,215 705.5,232.1 723.5,232.1 708.9,242.6 714.5,259.7 700,249.1 685.5,259.7 691.1,242.6 676.5,232.1 694.5,232.1 700,215" />
    <polygon points="770.4,234.7 776,251.8 793.9,251.8 779.4,262.4 785,279.4 770.4,268.8 755.9,279.4 761.5,262.4 746.9,251.8 764.9,251.8 770.4,234.7" />
    <polygon points="818.1,286.6 823.6,303.7 841.6,303.6 827,314.2 832.6,331.3 818.1,320.7 803.5,331.3 809.1,314.2 794.6,303.6 812.5,303.7 818.1,286.6" />
    <polygon points="835.5,359.3 841,376.4 859,376.3 844.5,386.9 850,404 835.5,393.4 821,404 826.6,386.9 812,376.3 830,376.4 835.5,359.3" />
    <polygon points="581.9,287.1 587.4,304.2 605.4,304.2 590.8,314.7 596.4,331.8 581.9,321.2 567.3,331.8 572.9,314.7 558.4,304.2 576.3,304.2 581.9,287.1" />
    <polygon points="564.5,359.4 570,376.5 588,376.4 573.4,387 579,404.1 564.5,393.5 550,404.1 555.5,387 541,376.4 559,376.5 564.5,359.4" />
  </g>
</svg>
